<?xml version="1.0" encoding="UTF-8"?>
<svg id="_レイヤー_1" data-name="レイヤー 1" xmlns="http://www.w3.org/2000/svg" width="80" height="80" viewBox="0 0 80 80">
  <defs>
    <style>
      .cls-1 {
        fill: #ff70c4;
      }
    </style>
  </defs>
  <path class="cls-1" d="M41.1,36.9c-3.6,4.3-6.9,8.4-9.4,11.7,5.4-1.4,12.2-2.5,20.2-3.2h.1c4.5-4.6,7-9.3,7-13.2,0-1.6-.4-3.1-1.3-4.4-1.2-1.8-3-3.1-5.4-4-3.3,3.8-7.4,8.5-11.2,13.2Z"/>
  <path class="cls-1" d="M65.1,8.8c-1.9,2.2-4.2,4.9-6.1,7.1-2.2,2.5-4.1,4.7-5.1,5.9,2.4,1.1,4.4,2.6,5.7,4.6,1.2,1.8,1.7,3.7,1.8,5.8,0,4-2,8.5-6,12.9l4.9-.3c.3,0,.6.1.8.3.2.2.4.5.4.8,0,.2,0,.5-.3.8-.2.2-.5.4-.8.4l-7.4.5-.3.3c-3.2,3-6.9,5.7-10.7,7.8-4.6,2.6-10,4.4-14.8,5.1-1.1.2-2.3.3-3.4.3h0c-3.1,0-5.1-.8-5.9-2.3-.2-.4-.4-.9-.4-1.4h0c0-1.1.6-2.3,1.8-3.4,1.6-1.4,4.1-2.8,7.4-3.9l1.4-.5,1.3-1.7c1.8-2.4,5.5-7.1,10-12.6,4.3-5.2,7.7-9.3,10.5-12.4-1.6-.3-3.3-.5-5-.5-8.6,0-19.3,4.2-23,12.1-.5,1-.7,2-.7,3.2,0,3.3,2.4,5.8,5.6,5.8.4,0,.9,0,1.5-.2.6-.2,1.3.2,1.4.8.2.6-.2,1.2-.8,1.4-.7.2-1.5.3-2.2.3h0c-2.2,0-4.2-.9-5.6-2.4-1.4-1.5-2.2-3.6-2.2-5.8,0-1.4.3-2.8.9-4.1,4.1-8.8,15.8-13.5,25.2-13.5,0,0,0,0,.1,0,2.4,0,4.6.3,6.6.9,1-1.2,3.2-3.7,5.7-6.7,2.3-2.7,4.3-5.1,6-6.9C56.7,2.8,48.7,0,40,0,17.9,0,0,17.9,0,40s17.9,40,40,40,40-17.9,40-40-5.8-23.8-14.9-31.2Z"/>
  <path class="cls-1" d="M27.8,53.8c-1.1,1.6-1.2,2-1.2,2v.2c-.3.4-.7.7-1.2.7-.4,0-.7-.2-.9-.4-.2-.2-.3-.6-.2-.8v-.2c.2-.6.8-1.5,1.3-2.3-2.2.9-3.8,1.8-4.8,2.8-.9.9-1.3,1.6-1,2.1.1.3.7.7,1.9.8.5,0,1.2.1,1.9.1.8,0,1.8,0,3.1-.2,4.5-.6,9.6-2.4,14.1-4.8,2.9-1.6,5.8-3.6,8.4-5.8-7.6.8-14.5,2-19.8,3.6l-1.6,2.2Z"/>
</svg>