<svg width="300" height="81" viewBox="0 0 300 81" fill="none" xmlns="http://www.w3.org/2000/svg">
<path d="M121.308 70.017C122.244 70.134 123.453 70.186 124.753 70.186C126.001 70.186 127.314 70.095 128.263 70.004V71.07C127.379 71.135 125.949 71.226 124.753 71.226C123.453 71.226 122.335 71.161 121.308 71.083V70.017ZM121.841 75.256C121.672 75.776 121.568 76.257 121.568 76.738C121.568 77.739 122.569 78.415 124.662 78.415C126.456 78.415 128.12 78.22 129.108 77.908L129.121 79.013C128.185 79.273 126.534 79.468 124.688 79.468C122.036 79.468 120.515 78.597 120.515 76.972C120.515 76.296 120.658 75.685 120.775 75.165L121.841 75.256ZM128.627 68.574C128.952 69.042 129.42 69.835 129.693 70.368L128.978 70.68C128.718 70.147 128.276 69.354 127.925 68.873L128.627 68.574ZM130.057 68.054C130.395 68.535 130.902 69.341 131.149 69.822L130.447 70.147C130.161 69.575 129.732 68.834 129.368 68.353L130.057 68.054ZM135.66 69.523H144.006V70.433H135.66V69.523ZM136.947 72.526V74.476H142.628V72.526H136.947ZM136.05 71.694H143.577V75.308H136.05V71.694ZM136.856 75.568C138.078 77.609 140.743 78.818 144.123 79.195C143.915 79.403 143.668 79.793 143.538 80.066C140.093 79.572 137.428 78.22 136.05 75.841L136.856 75.568ZM139.274 68.132H140.236V73.891C140.236 76.4 139.807 78.896 135.777 80.092C135.66 79.871 135.387 79.481 135.192 79.273C139.053 78.298 139.274 76.075 139.274 73.878V68.132ZM135.101 68.054L136.024 68.34C135.14 70.537 133.749 72.721 132.306 74.164C132.215 73.943 131.942 73.436 131.76 73.202C133.073 71.967 134.347 70.03 135.101 68.054ZM133.736 71.46L134.659 70.537L134.672 70.55V80.105H133.736V71.46ZM147.035 69.003H155.446V69.939H147.035V69.003ZM147.035 72.032H155.433V72.955H147.035V72.032ZM146.97 75.139H155.459V76.062H146.97V75.139ZM146.489 69.003H147.451V73.722C147.451 75.698 147.217 78.389 145.67 80.118C145.514 79.923 145.124 79.598 144.916 79.468C146.346 77.856 146.489 75.542 146.489 73.709V69.003ZM155.056 69.003H156.018V78.714C156.018 79.351 155.862 79.65 155.433 79.819C154.991 79.975 154.237 79.988 153.002 79.975C152.963 79.715 152.807 79.286 152.664 79.026C153.587 79.065 154.471 79.052 154.718 79.052C154.965 79.039 155.056 78.961 155.056 78.714V69.003ZM150.571 69.354H151.559V79.923H150.571V69.354ZM158.176 70.329H169.811V71.265H158.176V70.329ZM162.427 73.41H167.627V74.346H162.427V73.41ZM167.276 73.41H168.277C168.277 73.41 168.264 73.735 168.238 73.878C167.978 77.622 167.718 79.065 167.211 79.585C166.912 79.897 166.587 79.988 166.093 80.027C165.638 80.053 164.78 80.027 163.896 79.988C163.883 79.702 163.74 79.299 163.558 79.026C164.494 79.117 165.417 79.117 165.755 79.117C166.041 79.117 166.223 79.104 166.366 78.974C166.782 78.597 167.042 77.141 167.263 73.579L167.276 73.41ZM162.206 70.849H163.285C163.09 74.294 162.713 78.194 158.748 80.092C158.605 79.845 158.293 79.494 158.046 79.299C161.842 77.583 162.063 73.956 162.206 70.849ZM163.441 68.054H164.442V70.732H163.441V68.054ZM174.491 73.553H182.85V74.476H174.491V73.553ZM175.154 70.212H182.239V71.148H175.154V70.212ZM178.131 68.093H179.132V74.216H178.131V68.093ZM174.504 78.454C176.272 78.376 179.106 78.22 181.797 78.064V78.948C179.21 79.143 176.493 79.325 174.647 79.442L174.504 78.454ZM179.743 76.231L180.575 75.802C181.563 76.959 182.642 78.506 183.071 79.559L182.161 80.066C181.758 79.039 180.718 77.414 179.743 76.231ZM177.26 74.164L178.313 74.463C177.741 75.971 176.961 77.83 176.311 79.013L175.453 78.714C176.09 77.505 176.857 75.555 177.26 74.164ZM171.683 68.899L172.229 68.171C173.113 68.496 174.231 69.055 174.79 69.51L174.231 70.329C173.685 69.861 172.593 69.25 171.683 68.899ZM170.994 72.487L171.501 71.733C172.385 72.019 173.529 72.526 174.114 72.942L173.581 73.761C173.022 73.345 171.904 72.799 170.994 72.487ZM171.449 79.247C172.112 78.246 173.087 76.53 173.802 75.061L174.53 75.672C173.88 77.05 173.022 78.675 172.294 79.884L171.449 79.247Z" fill="#333333"/>
<path d="M30.4055 48.8204C30.4055 50.0752 31.1209 50.7325 32.4922 50.7325C35.8308 50.7325 40.481 46.7289 46.5621 38.6619C47.0391 38.0046 47.516 37.7656 47.8737 37.8851C48.2314 38.0046 48.4699 38.1839 48.4699 38.4229C48.4699 38.6619 48.0526 39.3192 47.2775 40.3948C46.4429 41.4704 45.6678 42.4863 44.8332 43.5021C43.9985 44.4582 42.8658 45.7728 41.3157 47.3862C38.0963 50.613 34.6384 52.1667 30.9421 52.1667C27.2457 52.1667 26.6496 51.5094 25.2187 50.2545C24.5629 49.6569 24.2648 48.8204 24.2648 47.8045C24.2648 46.7887 24.6225 45.5338 25.338 44.0399C26.0534 42.6058 27.9612 40.2155 31.1806 36.929C31.9556 36.0924 32.3729 35.4351 32.3729 34.957C32.3729 34.479 31.7767 34.24 30.5844 34.24C29.392 34.24 27.0669 35.2558 23.7283 37.3473C18.6607 40.3351 13.7124 44.8765 8.88326 50.9118C8.40631 51.5691 7.09471 51.9277 4.94844 51.9277C3.04065 52.0472 1.84829 52.1667 1.37134 52.3459C14.7855 34.2997 24.5033 21.6913 30.4651 14.5804C31.7767 12.967 32.9691 11.8914 33.9826 11.234C34.9961 10.5767 36.2481 10.278 37.6193 10.278C38.9906 10.278 38.6925 10.278 39.8252 10.4572C40.958 10.5767 41.7926 10.5767 42.3888 10.5767C40.2426 12.0109 36.4866 15.895 31.0017 22.3486C25.5168 28.7425 20.2704 35.3156 15.2624 41.8887C18.6011 39.1997 21.582 37.1082 24.2052 35.5546C26.8284 34.0607 30.1074 32.6266 33.8634 31.2522C37.679 29.8778 40.481 29.2205 42.21 29.2205C43.9389 29.2205 43.0446 29.2205 43.4023 29.34C34.698 39.1997 30.4055 45.6533 30.4055 48.7606V48.8204Z" fill="#F4C9D0"/>
<path d="M65.9975 27.9059C71.1247 27.9059 73.7479 29.9973 73.7479 34.24C73.7479 38.4826 72.9729 38.2436 71.4228 40.3948C69.4554 43.3826 66.4744 46.0716 62.5396 48.4618C63.4339 49.5972 65.1032 50.1947 67.488 50.1947C69.8727 50.1947 71.1843 49.5972 72.9132 48.3423C74.9999 46.9082 76.55 45.6533 77.4442 44.5777C78.3385 43.5021 79.0539 42.7253 79.4713 42.1875C79.8886 41.7094 80.4252 40.9924 81.1406 40.0363C81.7964 39.0802 82.2137 38.5424 82.3329 38.3034C82.4522 38.1241 82.6907 38.0046 83.0484 38.0046C83.7638 38.0046 84.1215 38.1241 84.1215 38.4826C84.1215 38.8412 84.0619 38.7814 83.883 38.9607L83.2272 39.9168C82.8099 40.5741 82.5118 40.9924 82.2733 41.2912C82.0349 41.5899 81.6771 42.068 81.1406 42.785C80.604 43.5021 80.1271 44.0399 79.7694 44.4582C79.352 44.8765 78.8751 45.4143 78.1597 46.1314C77.5039 46.7887 76.9077 47.3862 76.3711 47.8045C75.8345 48.2228 75.1787 48.7009 74.4037 49.1789C73.6287 49.6569 72.9132 50.0752 72.1978 50.374C70.4093 51.0313 68.7996 51.3899 67.2495 51.3899C64.3282 51.3899 62.1223 50.7923 60.453 49.5972C57.2336 51.1508 54.193 51.9277 51.4506 51.9277C46.3234 51.9277 43.7002 49.8362 43.7002 45.5936C43.7002 41.3509 44.4752 41.5899 46.0253 39.4387C48.112 36.2119 51.0929 33.5229 54.9681 31.312C58.7837 29.101 62.48 27.9656 65.9379 27.9656L65.9975 27.9059ZM67.1302 29.9973C65.2225 29.9973 62.9569 30.8339 60.3337 32.4473C57.7105 34.1205 55.3854 36.3314 53.3584 39.1399C50.914 42.4265 49.662 45.1155 49.662 47.207C49.662 49.2984 50.914 50.374 53.3584 50.374C55.8027 50.374 57.1143 49.7765 59.2606 48.5216C58.1279 47.446 57.5913 46.3704 57.5913 45.1753C57.7105 43.2033 58.9625 42.2472 61.2876 42.2472C63.6128 42.2472 62.9569 42.4265 63.5531 42.8448C64.1493 43.2631 64.4474 43.6216 64.4474 43.9802C64.4474 44.3387 64.3878 44.6972 64.2089 45.0558C65.4013 43.9204 66.7725 42.307 68.3226 40.2156C70.1112 37.8851 70.9458 35.6144 70.9458 33.3436C70.9458 31.0729 69.6342 29.9973 67.011 29.9973H67.1302Z" fill="#F4C9D0"/>
<path d="M129.372 27.9656L128.835 29.101C125.735 35.7936 122.933 40.6338 120.37 43.7411C115.779 49.2386 110.771 51.9874 105.346 51.9874C99.9204 51.9874 101.053 51.5691 100.159 50.7325C99.2646 49.8959 98.728 49.1191 98.6088 48.4618C98.4896 47.8045 98.4299 47.2069 98.4299 46.6691C98.4299 45.4143 98.728 44.0996 99.3838 42.6058C94.1374 48.7606 89.4872 51.8679 85.3139 51.8679C81.1406 51.8679 82.333 51.5691 81.081 51.0313C79.829 50.4337 79.0539 49.7167 78.7559 48.7606C78.5174 48.5216 78.4578 48.2825 78.4578 47.924C78.4578 45.9521 79.7694 43.5618 82.3926 40.8131C81.2598 40.8131 80.9617 40.4545 81.4387 39.7375L83.3465 37.3473C86.8043 32.9851 88.7717 30.4754 89.2487 29.818C89.9641 28.862 91.3353 28.3839 93.3624 28.3839H99.8012C97.2376 29.579 94.674 31.8497 92.1104 35.2558C89.5468 38.6619 87.5794 41.3509 86.2082 43.2631C84.8369 45.1752 84.1215 46.6691 84.1215 47.685C84.1215 48.7008 84.36 49.4179 84.8965 49.8959C85.4331 50.3142 86.0889 50.5533 86.9832 50.5533C87.8775 50.5533 88.8314 50.1947 90.0237 49.4179C91.2161 48.6411 92.2892 47.8643 93.3028 46.9679C94.3163 46.0716 95.2702 45.1155 96.3433 44.0399C97.3568 42.9643 98.3107 41.8887 99.1454 40.9326C99.98 39.9765 100.934 38.7814 101.888 37.5265C102.901 36.2119 103.676 35.1961 104.213 34.479C106.24 31.8497 107.373 30.2961 107.611 29.8778C108.267 28.9217 109.579 28.4437 111.606 28.4437H118.044C117.925 28.5632 117.508 28.7424 116.852 28.9815C115.421 29.579 114.408 30.2363 113.811 30.9534C110.652 34.3595 108.386 37.168 107.134 39.2594C104.332 43.9204 102.901 46.9082 102.901 48.2228C102.901 49.5374 103.855 50.7325 105.763 50.7325H106.3C111.367 50.7325 116.375 46.7289 121.323 38.7814C120.31 37.407 119.833 36.1521 119.833 35.0168C119.833 33.8814 120.071 32.8656 120.489 31.9095C121.681 29.2802 123.589 27.6668 126.212 27.0693C126.689 26.9498 127.166 26.89 127.583 26.89C128.716 26.89 129.253 27.3083 129.253 28.0254L129.372 27.9656Z" fill="#F4C9D0"/>
<path d="M134.022 46.4302C134.022 42.6656 136.824 36.2717 142.488 27.3681H137.003C136.645 27.3681 136.407 27.2486 136.288 27.0096C136.168 26.7706 136.228 26.5315 136.407 26.2328C136.586 25.9937 136.824 25.8742 137.182 25.8742H143.561C146.125 22.2889 148.45 19.2413 150.656 16.8511C152.862 14.4011 154.829 12.7877 156.677 11.9512C158.525 11.1146 159.837 10.6963 160.672 10.6963C161.506 10.6963 162.043 10.6963 162.401 10.8158C164.01 11.2938 164.845 12.3694 164.845 13.9231C164.845 15.4767 164.01 17.3889 162.401 19.6596C160.791 21.8706 159.181 23.962 157.631 25.8742H162.699C163.056 25.8742 163.295 25.9937 163.414 26.2328C163.533 26.4718 163.474 26.7108 163.295 27.0096C163.116 27.2486 162.878 27.3681 162.52 27.3681H156.379C152.504 31.6108 147.794 35.3754 142.309 38.6619L139.865 45.6534C139.626 46.2509 139.567 46.8485 139.567 47.3863C139.567 47.9241 139.805 48.5216 140.282 49.1192C140.759 49.7167 141.534 50.0155 142.607 50.0155C143.68 50.0155 145.171 49.7167 146.602 49.1789C150 47.5058 153.756 44.0997 157.81 38.8412C158.108 38.4229 158.406 38.1839 158.823 38.0644C159.181 37.9449 159.42 38.0644 159.539 38.2436C159.599 38.4229 159.539 38.7814 159.241 39.2595C156.916 42.4265 155.068 44.6375 153.756 45.9521C149.94 49.9558 145.886 51.9277 141.594 51.9277C137.301 51.9277 137.599 51.3899 136.168 50.3741C134.738 49.2984 134.082 47.9838 134.082 46.3704L134.022 46.4302ZM153.935 27.3681H148.986C148.152 28.623 146.244 31.6705 143.263 36.5107C147.079 33.9412 150.656 30.8937 153.935 27.3681ZM155.306 25.8145C159.956 20.4365 162.281 16.6719 162.281 14.5804C162.281 12.489 162.043 13.206 161.566 13.206C160.791 13.206 159.599 13.9231 158.048 15.417C156.439 16.8511 153.816 20.3767 150.06 25.8145H155.366H155.306Z" fill="#F4C9D0"/>
<path d="M177.126 27.9059C182.254 27.9059 184.877 29.9973 184.877 34.24C184.877 38.4826 184.102 38.2436 182.552 40.3948C180.584 43.3826 177.603 46.0716 173.669 48.4618C174.563 49.5972 176.232 50.1947 178.617 50.1947C181.002 50.1947 182.313 49.5972 184.042 48.3423C186.129 46.9082 187.679 45.6533 188.573 44.5777C189.467 43.5021 190.183 42.7253 190.6 42.1875C191.017 41.7094 191.554 40.9924 192.269 40.0363C192.925 39.0802 193.343 38.5424 193.462 38.3034C193.581 38.1241 193.82 38.0046 194.177 38.0046C194.893 38.0046 195.25 38.1241 195.25 38.4826C195.25 38.8412 195.191 38.7814 195.012 38.9607L194.356 39.9168C193.939 40.5741 193.641 40.9924 193.402 41.2912C193.164 41.5899 192.806 42.068 192.269 42.785C191.733 43.5021 191.256 44.0399 190.898 44.4582C190.481 44.8765 190.004 45.4143 189.289 46.1314C188.633 46.7887 188.037 47.3862 187.5 47.8045C186.963 48.2228 186.308 48.7009 185.533 49.1789C184.758 49.6569 184.042 50.0752 183.327 50.374C181.538 51.0313 179.928 51.3899 178.378 51.3899C175.457 51.3899 173.251 50.7923 171.582 49.5972C168.362 51.1508 165.322 51.9277 162.579 51.9277C157.452 51.9277 154.829 49.8362 154.829 45.5936C154.829 41.3509 155.604 41.5899 157.154 39.4387C159.241 36.2119 162.222 33.5229 166.097 31.312C169.913 29.101 173.609 27.9656 177.067 27.9656L177.126 27.9059ZM178.259 29.9973C176.351 29.9973 174.086 30.8339 171.463 32.4473C168.839 34.1205 166.514 36.3314 164.487 39.1399C162.043 42.4265 160.791 45.1155 160.791 47.207C160.791 49.2984 162.043 50.374 164.487 50.374C166.932 50.374 168.243 49.7765 170.389 48.5216C169.257 47.446 168.72 46.3704 168.72 45.1753C168.839 43.2033 170.091 42.2472 172.417 42.2472C174.742 42.2472 174.086 42.4265 174.682 42.8448C175.278 43.2631 175.576 43.6216 175.576 43.9802C175.576 44.3387 175.517 44.6972 175.338 45.0558C176.53 43.9204 177.901 42.307 179.452 40.2156C181.24 37.8851 182.075 35.6144 182.075 33.3436C182.075 31.0729 180.763 29.9973 178.14 29.9973H178.259Z" fill="#F4C9D0"/>
<path d="M200.079 47.924C200.079 45.9521 201.391 43.5619 204.014 40.8131C202.881 40.8131 202.583 40.4546 203.06 39.7375L204.968 37.3473C207.353 34.3595 209.32 31.8497 210.87 29.818C211.586 28.862 212.957 28.3839 214.984 28.3839H221.423C218.859 29.579 216.296 31.8497 213.732 35.2558C211.168 38.6619 209.141 41.3509 207.77 43.2631C206.339 45.235 205.624 46.6691 205.624 47.685C205.624 48.7008 205.862 49.4179 206.399 49.8362C206.936 50.2545 207.651 50.4338 208.545 50.4338C209.857 50.4338 211.765 49.5374 214.149 47.685C217.905 44.8765 223.152 38.9009 229.948 29.818C230.723 28.862 232.095 28.3839 234.062 28.3839H239.785C238.235 29.1607 237.043 29.9376 236.149 30.7741C235.254 31.6107 234.062 33.0449 232.512 35.1363C228.279 40.6338 225.894 44.2789 225.417 46.0118C225.179 46.6691 225.119 47.2667 225.119 47.8045C225.119 49.2386 225.894 50.0155 227.444 50.135C231.26 50.135 235.97 46.3106 241.514 38.6619C241.932 38.0046 242.349 37.7656 242.766 37.8851C243.184 38.0046 243.422 38.1838 243.422 38.4229C243.422 38.6619 243.124 39.1997 242.468 39.9765C241.812 40.8131 241.216 41.5899 240.62 42.3667C240.024 43.1436 239.129 44.2192 237.877 45.5338C236.625 46.9082 235.493 47.924 234.42 48.7008C231.677 50.7325 228.994 51.6886 226.312 51.6886C223.629 51.6886 221.84 50.9118 220.886 49.4179C220.469 48.7606 220.23 47.8643 220.23 46.7887C220.23 45.7131 220.588 44.4582 221.304 42.9045C216.176 48.7606 211.407 51.6886 206.995 51.6886C202.583 51.6886 200.974 50.6728 200.318 48.5813C200.079 48.3423 200.02 48.1033 200.02 47.7447L200.079 47.924Z" fill="#F4C9D0"/>
<path d="M250.576 50.613C251.471 50.7325 252.126 50.7326 252.484 50.7326C255.286 50.7326 258.088 49.6569 260.831 47.5057C262.321 46.3106 264.944 43.3228 268.76 38.5424C268.879 38.3034 269.118 38.1839 269.475 38.1839C270.131 38.1839 270.429 38.3034 270.429 38.6619C270.429 39.0204 270.25 39.0204 269.952 39.4387C269.654 39.857 269.356 40.3351 269.058 40.7534C268.76 41.1716 268.343 41.829 267.687 42.6655C267.031 43.5021 266.494 44.1594 266.018 44.6375C265.541 45.1155 265.004 45.7728 264.289 46.4899C263.573 47.207 262.858 47.8045 262.202 48.2228L259.996 49.7167C258.804 50.4935 257.373 51.0313 255.763 51.3899C253.14 51.9277 250.636 51.9874 248.132 51.5094C246.522 51.9874 245.091 52.1667 243.78 52.1667C238.772 52.1667 235.731 50.9118 234.658 48.3423C234.42 47.7448 234.36 47.0277 234.36 46.1911C234.36 45.3545 234.777 44.518 235.672 43.7411C236.566 42.9643 237.46 42.546 238.474 42.4863C242.051 38.0643 245.151 34.0607 247.655 30.4754C250.457 26.5913 253.736 24.6791 257.492 24.6791C261.248 24.6791 259.459 24.7986 260.413 25.0974C261.367 25.3961 261.725 25.7547 261.486 26.1132C261.248 26.4717 260.711 26.5315 259.936 26.2925C259.161 26.0535 258.506 25.9339 257.909 25.9339C257.313 25.9339 256.836 25.9937 256.419 26.1132C254.034 26.8303 252.842 28.4437 252.842 30.8339C252.842 33.2241 253.14 33.1644 253.676 34.001C254.213 34.8375 254.869 35.7339 255.584 36.69C257.194 39.0802 258.029 40.9924 258.029 42.4863C258.029 43.9802 257.313 45.4741 255.823 46.9679C254.332 48.4021 252.603 49.5972 250.517 50.5533L250.576 50.613ZM239.01 48.2826C239.01 48.5813 239.01 48.8801 239.13 49.1789C239.666 50.4338 240.978 51.0313 243.064 51.0313C245.151 51.0313 244.614 50.9118 245.211 50.7326C242.587 49.6569 241.216 47.9838 240.978 45.5936C239.726 46.4301 239.07 47.3265 239.07 48.2826H239.01ZM246.94 50.135C250.04 48.5813 251.59 46.0716 251.59 42.6058C251.59 39.14 251.351 39.2595 250.874 36.8095C250.397 34.3595 250.159 32.6863 250.159 31.79C250.159 30.8937 250.159 30.3559 250.278 29.9973C244.913 36.929 241.574 41.1716 240.322 42.6655C241.812 42.6655 242.528 43.3228 242.528 44.6972C242.528 47.3862 244.018 49.1789 246.999 50.135H246.94Z" fill="#F4C9D0"/>
<path d="M273.172 41.3509C272.158 42.9045 271.681 44.6374 271.681 46.5496C271.681 48.4618 272.098 48.8203 272.993 49.5971C273.887 50.374 275.139 50.7325 276.749 50.7325C283.187 50.7325 288.97 46.8484 294.217 39.0204C294.694 38.3033 295.29 37.9448 296.005 38.0643C296.304 38.0643 296.423 38.2436 296.423 38.4228C296.423 38.6021 295.648 39.7972 294.038 42.0082C292.428 44.2191 290.819 46.0118 289.209 47.3862C285.632 50.613 281.16 52.1666 275.854 52.1666C270.548 52.1666 270.608 51.5691 268.641 50.374C266.673 49.1789 265.66 47.5655 265.66 45.5338C265.66 43.5021 266.435 41.2911 267.925 38.9606C269.416 36.6302 271.502 34.479 274.125 32.507C276.749 30.5351 279.73 29.0412 283.128 28.1449C284.738 27.6668 286.288 27.4875 287.778 27.4875C289.269 27.4875 290.64 27.7863 291.892 28.3241C293.084 28.9814 293.68 29.6985 293.68 30.4753C293.68 33.2241 291.117 35.8533 286.049 38.3631C284.499 39.1399 282.293 39.857 279.491 40.4545C276.689 41.0521 274.543 41.3509 273.052 41.3509H273.172ZM290.998 30.3558C290.998 29.4595 290.461 28.9814 289.328 28.9814C287.361 28.9814 284.38 30.5351 280.326 33.7021C277.941 35.6143 275.795 37.7655 273.947 40.1557C275.139 40.1557 276.868 39.857 279.193 39.3192C281.459 38.7814 283.486 38.0643 285.155 37.1082C289.03 34.957 290.998 32.6863 290.998 30.2961V30.3558Z" fill="#F4C9D0"/>
</svg>
