<svg width="383" height="91" viewBox="0 0 383 91" fill="none" xmlns="http://www.w3.org/2000/svg">
<path d="M164.023 59.626C163.984 59.86 163.958 60.211 163.945 60.523C163.906 61.29 163.841 63.279 163.841 64.631C163.841 65.983 163.906 68.011 163.906 68.83C163.906 70.026 163.464 70.416 162.749 70.416C161.735 70.416 160.045 69.428 160.045 68.258C160.045 67.114 161.592 65.905 163.204 65.294C164.361 64.839 165.661 64.605 166.688 64.605C168.599 64.605 169.964 65.632 169.964 67.192C169.964 68.765 168.976 69.766 167.182 70.182C166.61 70.312 166.025 70.338 165.57 70.364L165.206 69.324C165.7 69.324 166.246 69.337 166.74 69.233C167.871 69.012 168.911 68.401 168.911 67.192C168.911 66.087 167.91 65.502 166.688 65.502C165.518 65.502 164.452 65.749 163.347 66.191C162.073 66.685 161.072 67.556 161.072 68.219C161.072 68.804 161.982 69.324 162.489 69.324C162.788 69.324 162.957 69.116 162.957 68.687C162.957 67.933 162.892 66.126 162.892 64.683C162.892 63.188 162.944 61.069 162.944 60.536C162.944 60.289 162.918 59.834 162.879 59.626H164.023ZM168.066 61.069C168.989 61.55 170.406 62.434 171.03 62.954L170.51 63.786C169.873 63.188 168.417 62.291 167.585 61.849L168.066 61.069ZM160.266 61.953C160.981 62.044 161.449 62.057 161.917 62.057C163.204 62.057 165.271 61.784 166.558 61.394L166.584 62.408C165.245 62.733 163.113 63.019 161.943 63.019C161.215 63.019 160.721 62.993 160.292 62.954L160.266 61.953ZM176.581 61.381L177.634 61.589C176.737 62.85 175.424 64.085 173.513 65.034C173.37 64.8 173.071 64.475 172.85 64.332C174.657 63.526 175.918 62.395 176.581 61.381ZM176.438 62.356H180.962V63.136H175.736L176.438 62.356ZM180.689 62.356H180.871L181.053 62.317L181.703 62.72C179.961 65.45 176.126 67.101 172.629 67.842C172.538 67.595 172.33 67.205 172.148 66.984C175.489 66.373 179.207 64.8 180.689 62.512V62.356ZM176.061 62.967C177.582 64.917 180.728 66.178 184.212 66.62C183.991 66.841 183.731 67.257 183.588 67.543C180.091 66.997 176.945 65.606 175.203 63.357L176.061 62.967ZM174.605 67.036H181.833V71.014H180.832V67.868H175.567V71.027H174.605V67.036ZM175.086 69.766H181.326V70.598H175.086V69.766ZM177.66 59.093H178.661V60.783H177.66V59.093ZM172.681 60.263H183.679V62.72H182.691V61.16H173.643V62.72H172.681V60.263ZM189.828 60.731H196.926V61.537H189.828V60.731ZM190.218 62.447H196.627V63.227H190.218V62.447ZM189.568 64.215H197.108V65.047H189.568V64.215ZM195.054 59.067L196.016 59.34C195.691 59.925 195.34 60.536 195.054 60.939L194.287 60.705C194.56 60.25 194.885 59.535 195.054 59.067ZM190.803 59.392L191.583 59.132C191.895 59.6 192.246 60.224 192.376 60.64L191.544 60.952C191.427 60.536 191.115 59.873 190.803 59.392ZM196.211 65.528L196.952 66.048C196.406 66.685 195.704 67.374 195.171 67.829L194.534 67.348C195.054 66.867 195.795 66.087 196.211 65.528ZM189.984 66.009L190.66 65.58C191.167 66.087 191.752 66.802 192.012 67.27L191.31 67.764C191.05 67.283 190.491 66.542 189.984 66.009ZM189.061 69.493C189.88 69.09 191.102 68.427 192.298 67.777L192.558 68.57C191.531 69.181 190.4 69.831 189.516 70.325L189.061 69.493ZM192.87 61.277H193.806V69.948C193.806 70.481 193.702 70.741 193.364 70.897C193.026 71.053 192.428 71.066 191.622 71.066C191.596 70.819 191.466 70.416 191.349 70.169C191.921 70.182 192.48 70.182 192.649 70.169C192.818 70.169 192.87 70.117 192.87 69.948V61.277ZM193.754 65.424C194.365 67.361 195.613 68.999 197.355 69.714C197.147 69.896 196.861 70.234 196.718 70.494C194.976 69.61 193.728 67.777 193.078 65.593L193.754 65.424ZM185.356 61.901H189.581V62.824H185.356V61.901ZM187.189 59.08H188.086V71.027H187.189V59.08ZM187.163 62.447L187.761 62.655C187.358 64.709 186.5 67.27 185.59 68.57C185.486 68.323 185.252 67.946 185.096 67.738C185.954 66.568 186.799 64.306 187.163 62.447ZM188.021 63.552C188.307 63.916 189.412 65.58 189.659 65.97L189.113 66.698C188.827 66.035 187.904 64.475 187.579 63.968L188.021 63.552ZM205.012 61.134C204.843 62.486 204.583 64.007 204.18 65.398C203.387 68.063 202.347 69.441 201.151 69.441C199.981 69.441 198.824 68.115 198.824 65.957C198.824 63.136 201.333 60.679 204.518 60.679C207.56 60.679 209.497 62.824 209.497 65.463C209.497 68.18 207.703 70 204.609 70.403L204.011 69.441C204.427 69.402 204.817 69.35 205.129 69.285C206.793 68.908 208.431 67.66 208.431 65.411C208.431 63.331 206.988 61.615 204.492 61.615C201.632 61.615 199.851 63.968 199.851 65.879C199.851 67.517 200.592 68.245 201.177 68.245C201.788 68.245 202.49 67.361 203.153 65.164C203.53 63.929 203.803 62.46 203.933 61.108L205.012 61.134ZM211.603 60.172H222.77V61.017H211.603V60.172ZM212.383 62.304H222.198V63.149H212.383V62.304ZM213.241 66.984H221.327V67.842H213.241V66.984ZM213.254 64.163H221.951V68.492H220.976V64.995H213.254V64.163ZM212.669 64.163H213.631V65.892C213.631 67.465 213.332 69.649 211.811 71.105C211.668 70.91 211.278 70.572 211.057 70.442C212.474 69.09 212.669 67.244 212.669 65.879V64.163ZM216.66 59.054H217.648V62.772H216.66V59.054ZM216.686 64.449H217.635V67.504H216.686V64.449Z" fill="white"/>
<path d="M134.059 12.992L133.38 14.56C128.856 23.6694 124.633 30.24 120.787 34.4214C115.131 40.4694 109.249 43.5307 103.141 43.5307C97.0327 43.5307 95.6753 41.9627 95.6753 38.9014C95.6753 35.84 97.0327 32.928 99.672 28C98.7671 28.896 98.0884 29.1947 97.5605 28.896C97.0327 28.5974 96.9573 28.224 97.2589 27.776L99.672 24.864C101.331 22.624 102.236 20.384 102.236 18.2187C102.236 16.0534 101.557 14.7094 100.124 14.2614C105.479 13.664 108.57 13.44 109.475 13.44C110.38 13.44 110.908 13.7387 111.134 14.1867C111.361 14.6347 111.436 15.1574 111.436 15.7547C111.436 19.264 110.003 23.3707 107.213 28.0747C104.423 32.7787 102.99 35.9894 102.99 37.632C102.99 39.2747 103.367 40.1707 104.197 40.4694C105.026 40.6934 105.78 40.8427 106.61 40.8427C108.947 40.8427 111.587 39.648 114.528 37.2587C117.469 34.8694 120.41 31.2854 123.351 26.656C122.069 24.864 121.465 23.2214 121.465 21.8027C121.465 20.384 121.767 19.1894 122.295 18.0694C123.879 14.784 126.443 12.768 129.911 12.0214C130.59 11.872 131.269 11.7974 131.947 11.7974C133.38 11.7974 134.059 12.2454 134.059 13.1414V12.992Z" fill="white"/>
<path d="M157.889 12.9172C164.374 12.9172 167.692 15.5306 167.692 20.8319C167.692 26.1332 166.712 25.8346 164.751 28.5226C162.262 32.2559 158.492 35.6159 153.515 38.6026C154.646 40.0212 156.757 40.7679 159.774 40.7679C162.79 40.7679 164.449 40.0212 166.636 38.4532C169.275 36.6612 171.236 35.0932 172.367 33.7492C173.498 32.4052 174.403 31.4346 174.931 30.7626C175.459 30.1652 176.138 29.2692 177.043 28.0746C177.872 26.8799 178.4 26.2079 178.551 25.9092C178.702 25.6852 179.003 25.5359 179.456 25.5359C180.361 25.5359 180.813 25.6852 180.813 26.1332C180.813 26.5812 180.738 26.5066 180.512 26.7306L179.682 27.9252C179.154 28.7466 178.777 29.2692 178.475 29.6426C178.174 30.0159 177.721 30.6132 177.043 31.5092C176.364 32.4052 175.761 33.0772 175.308 33.5999C174.78 34.1226 174.177 34.7946 173.272 35.6906C172.443 36.5119 171.689 37.2586 171.01 37.7812C170.331 38.3039 169.502 38.9012 168.521 39.4986C167.541 40.0959 166.636 40.6186 165.731 40.9919C163.469 41.8132 161.433 42.2612 159.472 42.2612C155.777 42.2612 152.987 41.5146 150.875 40.0212C146.803 41.9626 142.957 42.9332 139.489 42.9332C133.003 42.9332 129.685 40.3199 129.685 35.0186C129.685 29.7172 130.666 30.0159 132.626 27.3279C135.266 23.2959 139.036 19.9359 143.938 17.1732C148.764 14.4106 153.439 12.9919 157.813 12.9919L157.889 12.9172ZM159.321 15.5306C156.908 15.5306 154.043 16.5759 150.725 18.5919C147.407 20.6826 144.466 23.4452 141.902 26.9546C138.81 31.0612 137.226 34.4212 137.226 37.0346C137.226 39.6479 138.81 40.9919 141.902 40.9919C144.993 40.9919 146.653 40.2452 149.367 38.6772C147.934 37.3332 147.256 35.9892 147.256 34.4959C147.407 32.0319 148.99 30.8372 151.931 30.8372C154.872 30.8372 154.043 31.0612 154.797 31.5839C155.551 32.1066 155.928 32.5546 155.928 33.0026C155.928 33.4506 155.853 33.8986 155.626 34.3466C157.134 32.9279 158.869 30.9119 160.83 28.2986C163.092 25.3866 164.148 22.5492 164.148 19.7119C164.148 16.8746 162.489 15.5306 159.171 15.5306H159.321Z" fill="white"/>
<path d="M183.603 40.992C185.262 40.992 187.072 40.4693 188.957 39.3493C192.275 37.2587 196.423 32.928 201.551 26.432C202.154 25.6107 202.833 25.312 203.436 25.6853C203.587 25.8347 203.738 25.984 203.738 26.208C203.738 26.432 203.361 27.104 202.682 28.0747C202.003 29.0453 201.324 29.9413 200.721 30.7627C200.118 31.584 199.062 32.8533 197.403 34.6453C195.744 36.4373 194.236 37.856 192.954 38.8267C189.259 41.5147 185.865 42.8587 182.547 42.8587C179.229 42.8587 176.967 42.2613 175.534 40.992C174.102 39.7227 173.423 38.304 173.423 36.8107C173.423 35.3173 174.026 33.6 175.157 31.7333L183.754 17.7707C183.905 17.3973 184.056 16.9493 184.056 16.4267C184.056 15.904 183.528 15.0827 182.472 14.1867H189.862C191.898 14.112 193.105 14.336 193.482 14.8587C193.859 15.3813 193.557 16.128 192.652 17.0986L181.944 33.0773C180.436 35.168 179.682 36.96 179.682 38.4533C179.682 39.9467 181.039 40.9173 183.829 40.9173L183.603 40.992ZM196.724 9.55732C195.443 10.2293 194.085 10.6027 192.577 10.6027C191.069 10.6027 189.862 10.2293 188.957 9.55732C188.052 8.88532 187.675 8.06398 187.902 7.09332C188.203 6.12265 188.957 5.30132 190.164 4.62932C191.446 3.95732 192.803 3.58398 194.311 3.58398C195.82 3.58398 197.026 3.95732 198.006 4.62932C198.911 5.30132 199.288 6.12265 198.987 7.09332C198.685 8.06398 197.931 8.88532 196.724 9.55732Z" fill="white"/>
<path d="M226.285 23.1467C229.377 20.7573 230.961 18.7413 230.961 17.0987C230.961 15.456 229.905 14.6347 227.718 14.6347C223.495 14.6347 218.744 17.0987 213.39 22.0267C211.731 23.5947 210.072 25.6107 208.413 28.0747C206.83 30.6133 206 32.8533 206 34.8693C206 36.8853 206.679 38.528 207.961 39.7973C209.243 41.0667 211.279 41.664 213.993 41.664C216.708 41.664 219.272 41.216 221.534 40.3947C223.872 39.5733 226.059 38.2293 228.171 36.4373C230.282 34.6453 231.866 33.152 232.921 31.9573C233.977 30.7627 235.485 28.9707 237.371 26.5813C237.974 25.76 238.502 25.4613 238.954 25.6107C239.407 25.76 239.633 25.984 239.633 26.208C239.633 26.432 239.03 27.4027 237.823 29.0453C236.616 30.688 235.41 32.1813 234.203 33.6C232.997 35.0187 231.262 36.6613 229.075 38.3787C225.079 41.5893 219.574 43.1573 212.636 43.1573C205.698 43.1573 204.039 42.336 201.852 40.768C199.666 39.2 198.61 37.408 198.61 35.3173C198.61 33.2267 199.59 30.0907 201.475 27.104C203.361 24.1173 205.623 21.5787 208.112 19.4133C213.315 14.9333 219.272 12.6187 226.059 12.6187C232.846 12.6187 231.715 13.1413 233.223 14.112C234.731 15.0827 235.41 16.2773 235.41 17.5467C235.41 19.488 234.128 21.1307 231.639 22.5493C230.357 23.296 229.377 23.6693 228.472 23.6693C227.567 23.6693 226.889 23.4453 226.285 23.072V23.1467Z" fill="white"/>
<path d="M242.348 29.7174C241.066 31.6588 240.462 33.8241 240.462 36.2134C240.462 38.6028 240.99 39.0508 242.121 40.0214C243.252 40.9921 244.836 41.4401 246.872 41.4401C255.016 41.4401 262.331 36.5868 268.967 26.8054C269.571 25.9094 270.325 25.4614 271.23 25.6108C271.607 25.6108 271.757 25.8348 271.757 26.0588C271.757 26.2828 270.777 27.7761 268.741 30.5388C266.705 33.3014 264.669 35.5414 262.633 37.2588C258.108 41.2908 252.452 43.2321 245.741 43.2321C239.03 43.2321 239.105 42.4854 236.616 40.9921C234.128 39.4988 232.846 37.4828 232.846 34.9441C232.846 32.4054 233.826 29.6428 235.712 26.7308C237.597 23.8188 240.236 21.1308 243.554 18.6668C246.872 16.2028 250.643 14.3361 254.941 13.2161C256.977 12.6188 258.938 12.3948 260.823 12.3948C262.708 12.3948 264.443 12.7681 266.026 13.4401C267.534 14.2614 268.289 15.1574 268.289 16.1281C268.289 19.5628 265.046 22.8481 258.636 25.9841C256.675 26.9548 253.885 27.8508 250.341 28.5974C246.797 29.3441 244.082 29.7174 242.197 29.7174H242.348ZM264.82 15.9788C264.82 14.8588 264.141 14.2614 262.708 14.2614C260.22 14.2614 256.449 16.2028 251.321 20.1601C248.305 22.5494 245.59 25.2374 243.252 28.2241C244.761 28.2241 246.948 27.8508 249.889 27.1788C252.754 26.5068 255.318 25.6108 257.43 24.4161C262.331 21.7281 264.82 18.8908 264.82 15.9041V15.9788Z" fill="white"/>
</svg>
