<svg width="300" height="105" viewBox="0 0 300 105" fill="none" xmlns="http://www.w3.org/2000/svg">
<path d="M52.2074 81V80.012H54.3264V72.914H52.6234V72.147C53.4814 72.004 54.0924 71.783 54.5994 71.471H55.5094V80.012H57.4334V81H52.2074ZM61.8883 81.182C60.0683 81.182 58.9113 79.531 58.9113 76.203C58.9113 72.901 60.0683 71.302 61.8883 71.302C63.6823 71.302 64.8393 72.901 64.8393 76.203C64.8393 79.531 63.6823 81.182 61.8883 81.182ZM61.8883 80.22C62.9673 80.22 63.6953 79.011 63.6953 76.203C63.6953 73.434 62.9673 72.251 61.8883 72.251C60.7963 72.251 60.0553 73.434 60.0553 76.203C60.0553 79.011 60.7963 80.22 61.8883 80.22ZM68.7743 70.769H75.5603V71.718H68.7743V70.769ZM68.7743 73.902H75.6123V74.838H68.7743V73.902ZM68.6703 77.048H75.5473V77.984H68.6703V77.048ZM68.1763 70.769H69.1643V74.786C69.1643 77.035 68.8393 80.103 66.6033 82.053C66.4603 81.845 66.0703 81.494 65.8623 81.351C67.9553 79.518 68.1763 76.879 68.1763 74.786V70.769ZM75.1313 70.769H76.1453V80.61C76.1453 81.299 75.9633 81.637 75.4693 81.806C74.9623 81.975 74.1043 81.988 72.7003 81.988C72.6353 81.702 72.4533 81.234 72.2843 80.961C73.3633 81 74.4293 80.987 74.7283 80.987C75.0273 80.974 75.1313 80.883 75.1313 80.597V70.769ZM84.8163 73.122H89.6653V73.941H84.8163V73.122ZM82.7883 80.909C83.9843 80.701 85.8693 80.324 87.6893 79.96L87.7543 80.818C86.1163 81.195 84.3743 81.572 83.1133 81.858L82.7883 80.909ZM84.2573 70.665H85.2063V80.987H84.2573V70.665ZM84.8163 70.665H90.1203V76.437H84.8163V75.579H89.1713V71.523H84.8163V70.665ZM87.3253 75.878C87.8843 78.309 89.0673 80.337 91.0043 81.195C90.7833 81.39 90.4973 81.754 90.3543 82.001C88.3263 80.974 87.1173 78.777 86.5193 76.034L87.3253 75.878ZM89.9123 76.736L90.6793 77.295C89.9513 77.971 89.0283 78.699 88.3003 79.18L87.6893 78.686C88.3913 78.179 89.3663 77.36 89.9123 76.736ZM79.5383 70.652H82.8663V71.536H80.4613V82.053H79.5383V70.652ZM82.5803 70.652H82.7623L82.9053 70.613L83.5683 71.016C83.1523 72.095 82.6063 73.434 82.1253 74.461C83.1783 75.54 83.4253 76.463 83.4253 77.269C83.4253 77.984 83.2563 78.517 82.8663 78.79C82.6713 78.92 82.4243 78.998 82.1513 79.024C81.8523 79.063 81.4883 79.063 81.1633 79.037C81.1503 78.803 81.0723 78.413 80.9163 78.153C81.2543 78.192 81.5403 78.192 81.7743 78.179C81.9433 78.166 82.0993 78.127 82.2293 78.049C82.4503 77.906 82.5283 77.568 82.5153 77.165C82.5153 76.45 82.2423 75.592 81.2283 74.578C81.7483 73.395 82.2813 71.822 82.5803 70.925V70.652ZM94.2283 74.058H101.807V74.994H94.2283V74.058ZM97.9723 77.165H102.353V78.088H97.9723V77.165ZM97.4523 74.539H98.4663V81.117L97.4523 80.987V74.539ZM94.3713 76.112L95.3853 76.216C95.0213 78.842 94.2023 80.831 92.7333 82.105C92.5773 81.936 92.1613 81.598 91.9273 81.455C93.3833 80.324 94.0853 78.465 94.3713 76.112ZM94.9823 77.789C95.9053 80.441 97.9333 80.896 100.572 80.896C101.053 80.896 103.302 80.896 103.939 80.883C103.783 81.117 103.614 81.585 103.575 81.871H100.52C97.4263 81.871 95.3073 81.26 94.1893 78.088L94.9823 77.789ZM97.4393 70.093H98.4663V72.199H97.4393V70.093ZM92.5513 71.575H103.419V74.409H102.418V72.511H93.5133V74.409H92.5513V71.575ZM109.568 71.809C109.503 71.484 109.425 71.198 109.334 70.925L110.491 70.73C110.517 70.964 110.569 71.341 110.621 71.627C110.699 72.199 112.129 79.336 112.311 80.194C112.402 80.558 112.506 81 112.636 81.377L111.44 81.598C111.375 81.156 111.336 80.753 111.245 80.376C111.115 79.557 109.724 72.485 109.568 71.809ZM105.902 73.694C106.227 73.668 106.578 73.642 106.994 73.603C108.164 73.473 112.649 72.758 113.884 72.511C114.261 72.446 114.599 72.368 114.82 72.303L115.028 73.395C114.833 73.408 114.443 73.473 114.092 73.525C112.753 73.733 108.32 74.435 107.176 74.63C106.825 74.695 106.513 74.76 106.136 74.851L105.902 73.694ZM105.863 77.438C106.175 77.425 106.669 77.373 107.007 77.321C108.398 77.139 113.234 76.346 114.794 76.06C115.288 75.969 115.665 75.878 115.938 75.8L116.159 76.892C115.886 76.918 115.47 76.996 114.989 77.074C113.26 77.334 108.567 78.101 107.254 78.335C106.747 78.426 106.383 78.504 106.097 78.582L105.863 77.438ZM122.49 73.044C122.516 73.278 122.594 73.551 122.672 73.889C122.971 74.968 124.388 80.116 124.661 81C124.739 81.247 124.856 81.65 124.947 81.884L123.829 82.183C123.803 81.884 123.738 81.546 123.647 81.234C123.374 80.298 121.983 75.059 121.684 74.097C121.593 73.785 121.489 73.525 121.372 73.317L122.49 73.044ZM128.73 74.838C128.184 75.93 126.845 77.763 125.948 78.634L125.038 78.166C125.844 77.477 126.832 76.268 127.274 75.501C126.702 75.605 120.618 76.827 119.695 77.022L119.435 76.034C119.799 75.995 120.124 75.956 120.514 75.878C121.164 75.774 126.832 74.708 127.573 74.539C127.742 74.5 127.937 74.435 128.067 74.37L128.73 74.838ZM133.436 71.484C134.346 72.095 136.023 73.447 136.738 74.162L135.932 74.994C135.269 74.318 133.657 72.914 132.682 72.277L133.436 71.484ZM132.318 80.194C134.58 79.856 136.27 79.063 137.505 78.296C139.52 77.035 141.093 75.111 141.847 73.499L142.471 74.617C141.587 76.229 140.079 77.997 138.116 79.232C136.803 80.051 135.165 80.857 132.994 81.26L132.318 80.194ZM152.637 73.2C152.637 73.733 153.066 74.162 153.586 74.162C154.119 74.162 154.535 73.733 154.535 73.2C154.535 72.68 154.119 72.251 153.586 72.251C153.066 72.251 152.637 72.68 152.637 73.2ZM152.013 73.2C152.013 72.329 152.715 71.627 153.586 71.627C154.457 71.627 155.172 72.329 155.172 73.2C155.172 74.071 154.457 74.786 153.586 74.786C152.715 74.786 152.013 74.071 152.013 73.2ZM144.174 77.581C144.499 77.295 144.746 77.061 145.084 76.723C145.708 76.099 146.839 74.656 147.658 73.681C148.347 72.862 148.958 72.719 149.842 73.564C150.635 74.305 151.753 75.475 152.507 76.281C153.391 77.217 154.691 78.621 155.692 79.7L154.795 80.649C153.872 79.531 152.728 78.192 151.883 77.243C151.129 76.398 149.933 75.111 149.387 74.565C148.88 74.084 148.633 74.123 148.191 74.669C147.567 75.423 146.475 76.853 145.89 77.568C145.617 77.906 145.344 78.309 145.136 78.569L144.174 77.581ZM157.798 75.371C158.201 75.41 158.877 75.449 159.618 75.449C160.567 75.449 165.78 75.449 166.742 75.449C167.392 75.449 167.847 75.397 168.146 75.371V76.645C167.873 76.632 167.327 76.593 166.755 76.593C165.767 76.593 160.58 76.593 159.618 76.593C158.903 76.593 158.214 76.619 157.798 76.645V75.371ZM171.789 71.484C172.699 72.095 174.376 73.447 175.091 74.162L174.285 74.994C173.622 74.318 172.01 72.914 171.035 72.277L171.789 71.484ZM170.671 80.194C172.933 79.856 174.623 79.063 175.858 78.296C177.873 77.035 179.446 75.111 180.2 73.499L180.824 74.617C179.94 76.229 178.432 77.997 176.469 79.232C175.156 80.051 173.518 80.857 171.347 81.26L170.671 80.194ZM189.157 72.134C188.988 73.486 188.728 75.007 188.325 76.398C187.532 79.063 186.492 80.441 185.296 80.441C184.126 80.441 182.969 79.115 182.969 76.957C182.969 74.136 185.478 71.679 188.663 71.679C191.705 71.679 193.642 73.824 193.642 76.463C193.642 79.18 191.848 81 188.754 81.403L188.156 80.441C188.572 80.402 188.962 80.35 189.274 80.285C190.938 79.908 192.576 78.66 192.576 76.411C192.576 74.331 191.133 72.615 188.637 72.615C185.777 72.615 183.996 74.968 183.996 76.879C183.996 78.517 184.737 79.245 185.322 79.245C185.933 79.245 186.635 78.361 187.298 76.164C187.675 74.929 187.948 73.46 188.078 72.108L189.157 72.134ZM197.646 72.017C198.582 72.134 199.791 72.186 201.091 72.186C202.339 72.186 203.652 72.095 204.601 72.004V73.07C203.717 73.135 202.287 73.226 201.091 73.226C199.791 73.226 198.673 73.161 197.646 73.083V72.017ZM198.179 77.256C198.01 77.776 197.906 78.257 197.906 78.738C197.906 79.739 198.907 80.415 201 80.415C202.794 80.415 204.458 80.22 205.446 79.908L205.459 81.013C204.523 81.273 202.872 81.468 201.026 81.468C198.374 81.468 196.853 80.597 196.853 78.972C196.853 78.296 196.996 77.685 197.113 77.165L198.179 77.256ZM204.965 70.574C205.29 71.042 205.758 71.835 206.031 72.368L205.316 72.68C205.056 72.147 204.614 71.354 204.263 70.873L204.965 70.574ZM206.395 70.054C206.733 70.535 207.24 71.341 207.487 71.822L206.785 72.147C206.499 71.575 206.07 70.834 205.706 70.353L206.395 70.054ZM213.831 70.093H214.806V71.588H213.831V70.093ZM213.805 76.931H214.793V82.04H213.805V76.931ZM208.878 71.055H219.85V72.94H218.914V71.887H209.788V72.94H208.878V71.055ZM208.722 73.252H219.993V74.058H208.722V73.252ZM208.514 78.01H220.175V78.855H208.514V78.01ZM213.155 72.043L214.078 72.316C213.233 73.473 212.115 74.89 211.335 75.813L210.425 75.514C211.244 74.604 212.375 73.148 213.155 72.043ZM211.179 75.423L211.738 74.812C214.208 75.267 217.523 76.112 219.356 76.814L218.771 77.529C217.068 76.84 213.727 75.917 211.179 75.423ZM213.454 78.452L214.182 78.777C213.012 80.155 210.867 81.338 208.891 81.871C208.748 81.637 208.475 81.26 208.267 81.078C210.23 80.649 212.388 79.609 213.454 78.452ZM215.183 78.426C216.288 79.609 218.485 80.636 220.474 81.065C220.253 81.273 219.98 81.637 219.837 81.884C217.861 81.351 215.664 80.168 214.468 78.764L215.183 78.426ZM216.587 73.707H217.627C216.73 76.008 214.715 77.061 209.385 77.438C209.359 77.217 209.203 76.853 209.073 76.658C214.156 76.346 215.846 75.462 216.587 73.707ZM226.701 75.358L227.429 74.838C228.755 75.982 230.445 77.607 231.277 78.621L230.471 79.245C229.691 78.218 228.027 76.554 226.701 75.358ZM226.844 70.08H227.845V72.628C227.845 74.708 227.468 77.451 224.114 79.414C223.984 79.206 223.646 78.855 223.425 78.686C226.675 76.931 226.844 74.422 226.844 72.628V70.08ZM222.112 72.303H232.057V73.265H223.087V82.066H222.112V72.303ZM231.615 72.303H232.577V80.753C232.577 81.39 232.421 81.702 231.979 81.871C231.524 82.027 230.718 82.04 229.548 82.04C229.509 81.767 229.353 81.312 229.223 81.039C230.146 81.078 231.03 81.078 231.29 81.065C231.537 81.052 231.615 80.974 231.615 80.753V72.303Z" fill="#091133"/>
<path d="M26.4845 19.7743C28.9192 17.8741 30.1662 16.2707 30.1662 14.9643C30.1662 13.6579 29.3349 13.0047 27.6128 13.0047C24.2874 13.0047 20.5463 14.9643 16.3301 18.8836C15.0237 20.1306 13.7173 21.7339 12.4109 23.6935C11.1638 25.7125 10.5106 27.494 10.5106 29.0973C10.5106 30.7007 11.0451 32.0071 12.0546 33.0166C13.0641 34.0261 14.6674 34.5011 16.8052 34.5011C18.9429 34.5011 20.9619 34.1448 22.7434 33.4916C24.5843 32.8384 26.3064 31.7695 27.9691 30.3444C29.6318 28.9192 30.8788 27.7315 31.7102 26.7814C32.5415 25.8313 33.7292 24.4061 35.2137 22.5059C35.6888 21.8527 36.1045 21.6151 36.4608 21.7339C36.8171 21.8527 36.9952 22.0308 36.9952 22.209C36.9952 22.3871 36.5201 23.1591 35.57 24.4655C34.6199 25.7719 33.6698 26.9596 32.7197 28.0878C31.7695 29.2161 30.4037 30.5225 28.6817 31.8883C25.5344 34.4417 21.1995 35.6888 15.7363 35.6888C10.2731 35.6888 8.9667 35.0356 7.24461 33.7885C5.52252 32.5415 4.69116 31.1163 4.69116 29.4536C4.69116 27.7909 5.46313 25.2969 6.94769 22.9216C8.43225 20.5463 10.2137 18.5273 12.1733 16.8052C16.2707 13.2422 20.9619 11.4014 26.3064 11.4014C31.6508 11.4014 30.76 11.817 31.9477 12.589C33.1353 13.361 33.6698 14.3111 33.6698 15.3206C33.6698 16.8645 32.6603 18.171 30.7007 19.2992C29.6912 19.8931 28.9192 20.19 28.2066 20.19C27.494 20.19 26.9596 20.0118 26.4845 19.7149V19.7743Z" fill="white"/>
<path d="M61.1638 22.5653C58.8479 25.475 57.4821 27.6128 57.0071 29.038C56.532 30.4632 56.2945 31.6508 56.2945 32.4822C56.2945 33.3135 56.8289 33.7886 57.8978 33.7886C58.9667 33.7886 60.8669 33.0166 62.8265 31.4133C65.7363 29.0974 68.5272 26.0689 71.3776 22.3278C71.6745 21.9121 71.9714 21.6746 72.3277 21.6746C72.8622 21.5558 73.1591 21.6746 73.1591 22.0902C73.1591 22.5059 73.0403 22.5653 72.8622 22.9216C66.3895 31.3539 60.9263 35.5701 56.532 35.5701C52.1377 35.5701 52.8503 34.9168 51.6033 33.6698C50.9501 33.0166 50.6531 32.0665 50.6531 30.9382C50.6531 29.81 51.0094 28.4442 51.722 26.7815C46.0807 32.6603 41.2707 35.5701 37.1733 35.5701C33.0759 35.5701 35.0356 35.3325 34.1448 34.9168C32.0664 33.9667 30.9976 32.304 30.9976 29.9881C30.9976 25.5344 33.9667 21.0214 39.9643 16.4489C43.3491 13.8955 47.5059 12.2328 52.3752 11.4608C53.6816 11.2233 54.9881 11.1045 56.1757 11.1045C59.3824 11.1045 62.1733 11.8171 64.3705 13.3016C65.0831 13.7767 65.2612 14.2518 65.0237 14.7268C64.7268 15.2019 64.1329 15.38 63.2422 15.2613C62.4702 13.5986 60.8075 12.8266 58.1947 12.8266C55.5819 12.8266 51.4251 14.3705 47.0308 17.4584C44.4774 19.2993 42.1615 21.437 39.9643 23.8717C37.2327 26.8408 35.8669 29.1567 35.8669 30.9382C35.8669 32.7197 36.7577 33.6104 38.4797 33.6104C42.6959 33.6104 48.2185 29.4537 55.0474 21.0807C56.3539 19.418 57.4821 18.2304 58.4322 17.6366C59.323 17.0427 60.5106 16.7458 61.9358 16.7458C63.361 16.7458 62.9453 16.8052 64.0736 16.924C65.2612 17.0427 66.0926 17.1021 66.627 16.9834C65.38 17.8147 63.5985 19.6556 61.2232 22.5059L61.1638 22.5653Z" fill="white"/>
<path d="M121.259 13.1236C112.708 22.9811 108.373 29.335 108.373 32.1854C108.373 35.0357 109.026 34.0856 110.392 34.0856C111.758 34.0856 114.014 33.2543 116.211 31.6509C119.537 29.0381 122.387 25.9502 124.881 22.3279C125.297 21.6747 125.712 21.4371 126.128 21.5559C126.544 21.6747 126.781 21.8528 126.781 22.0904C126.781 22.3279 126.425 22.8623 125.712 23.8124C125 24.7032 124.465 25.4752 124.05 26.0096C123.634 26.544 122.684 27.6129 121.259 29.1569C119.834 30.7008 118.587 31.8291 117.577 32.5417C116.568 33.2543 115.261 33.9668 113.658 34.6794C112.055 35.392 110.273 35.7483 108.254 35.7483C106.235 35.7483 104.572 35.0951 103.147 33.8481C102.494 33.2543 102.197 32.4229 102.197 31.4134C102.197 30.4039 102.553 29.1569 103.266 27.6723C103.979 26.2471 105.879 23.8718 109.085 20.6058C109.857 19.7744 110.273 19.1212 110.273 18.6462C110.273 18.1711 109.679 17.9336 108.551 17.9336C107.423 17.9336 105.285 18.8243 102.256 20.6652C99.2279 22.506 96.0807 24.9407 92.6959 28.0286C89.3705 31.1165 87.3515 33.6105 86.7576 35.4514C85.57 35.4514 84.6792 35.1545 84.1448 34.5013C83.6104 33.8481 83.3134 33.3136 83.3134 32.8386C83.3134 30.9977 85.2731 27.4348 89.1329 22.2091C90.38 20.487 91.0925 19.2994 91.1519 18.7056C91.2113 18.1117 91.1519 17.7554 90.7956 17.7554C90.4987 17.7554 90.0237 17.7554 89.4892 17.993C88.2422 18.4086 86.2826 19.4181 83.6697 20.9621C78.741 23.8718 73.8716 28.2661 69.121 34.2638C68.7648 34.7388 68.3491 35.0951 67.8146 35.1545C67.2802 35.2733 66.2707 35.3326 64.7267 35.392C63.1828 35.4514 62.1733 35.5702 61.6982 35.7483C62.9453 34.145 65.2018 31.1759 68.3491 26.841C74.0498 19.0025 77.8503 14.5488 79.7505 13.3611C80.5819 12.8267 81.7695 12.5298 83.2541 12.5298C84.7386 12.5298 84.2636 12.5892 85.3918 12.7079C86.5795 12.8267 87.4108 12.8861 87.9453 12.7673C85.3325 13.6581 81.1163 17.9336 75.1781 25.5939C78.5035 22.9811 80.8788 21.259 82.3039 20.4276C83.7291 19.5963 84.798 19.0025 85.5106 18.5868C86.2232 18.1711 86.7576 17.8742 87.1733 17.6367C87.5296 17.3991 88.1234 17.1022 88.836 16.6272C89.5486 16.2115 90.1424 15.8552 90.4987 15.6771C90.855 15.4989 91.4488 15.202 92.1614 14.8457C92.874 14.4894 93.4085 14.2519 93.8241 14.1331C94.1804 14.0143 94.7149 13.8362 95.4275 13.5393C96.0807 13.2424 96.6151 13.1236 96.912 13.1236C97.2089 13.1236 97.684 13.1236 98.2184 12.9455C98.7529 12.8267 99.1685 12.8861 99.4061 13.0642C100.831 13.4205 101.544 14.0143 101.544 14.7863C101.544 15.5583 100.356 17.221 97.9809 20.012C95.6056 22.8029 94.0617 24.7032 93.3491 25.5939C96.437 23.0999 99.4061 21.0215 102.197 19.4181C104.988 17.8148 108.313 16.3303 112.173 14.9645C115.974 13.5987 118.824 12.9455 120.546 12.9455C122.268 12.9455 121.318 12.9455 121.615 13.0642L121.259 13.1236Z" fill="white"/>
<path d="M156.413 16.9239C156.413 18.9429 155.582 21.14 153.979 23.5153C152.375 25.95 150.119 28.2659 147.268 30.4631C144.418 32.6602 140.974 34.2042 136.876 35.0355C135.333 35.3324 133.551 35.4512 131.532 35.4512C129.513 35.4512 127.316 35.0355 124.941 34.2042L114.905 50.3562C113.836 51.7814 112.886 52.7909 111.936 53.2065C111.045 53.6816 110.154 53.8597 109.323 53.8597H107.779C107.601 53.8597 106.948 53.8004 105.879 53.6816C104.81 53.5628 103.979 53.5034 103.385 53.5628C104.929 52.6127 108.848 48.0997 115.142 39.9643C121.437 31.8883 125 26.4251 125.831 23.5747C125.059 24.2873 124.347 24.703 123.634 24.703C123.218 24.703 123.218 24.4654 123.634 23.931C124.05 23.3966 124.762 22.3871 125.713 20.9025C126.96 18.9429 127.613 17.1614 127.613 15.4987C127.613 13.836 127.138 12.8859 126.128 12.589C130.344 12.1139 132.779 11.9358 133.492 11.9358C134.204 11.9358 134.62 12.1733 134.798 12.5296C134.976 12.8859 135.036 13.3015 135.036 13.7766C135.036 16.5676 134.026 19.6555 132.066 23.0403L134.145 20.8431C136.698 18.2303 138.539 16.5082 139.667 15.7362C140.855 14.9643 142.102 14.1923 143.409 13.3609C145.428 12.1139 147.387 11.4607 149.287 11.4607C151.188 11.4607 150.356 11.4607 150.891 11.5795C154.394 12.1733 156.176 13.9548 156.176 16.8645L156.413 16.9239ZM151.366 16.2707C151.366 15.5581 151.128 14.8455 150.653 14.2517C150.178 13.6578 149.466 13.3609 148.515 13.3609C146.081 13.3609 143.171 14.8455 139.905 17.8146C136.639 20.7837 131.948 25.8906 125.831 33.254C126.722 33.8479 128.028 34.1448 129.632 34.1448C131.235 34.1448 133.551 33.3728 136.461 31.7695C141.152 29.216 145.131 26.0688 148.278 22.3277C150.297 19.893 151.306 17.874 151.306 16.3301L151.366 16.2707Z" fill="white"/>
<path d="M186.876 22.5653C184.561 25.475 183.195 27.6128 182.72 29.038C182.245 30.4632 182.007 31.6508 182.007 32.4822C182.007 33.3135 182.542 33.7886 183.61 33.7886C184.679 33.7886 186.58 33.0166 188.539 31.4133C191.449 29.0974 194.24 26.0689 197.09 22.3278C197.387 21.9121 197.684 21.6746 198.04 21.6746C198.575 21.5558 198.872 21.6746 198.872 22.0902C198.872 22.5059 198.753 22.5653 198.575 22.9216C192.102 31.3539 186.639 35.5701 182.245 35.5701C177.85 35.5701 178.563 34.9168 177.316 33.6698C176.663 33.0166 176.366 32.0665 176.366 30.9382C176.366 29.81 176.722 28.4442 177.435 26.7815C171.793 32.6603 166.983 35.5701 162.886 35.5701C158.789 35.5701 160.748 35.3325 159.857 34.9168C157.779 33.9667 156.71 32.304 156.71 29.9881C156.71 25.5344 159.679 21.0214 165.677 16.4489C169.062 13.8955 173.219 12.2328 178.088 11.4608C179.394 11.2233 180.701 11.1045 181.888 11.1045C185.095 11.1045 187.886 11.8171 190.083 13.3016C190.796 13.7767 190.974 14.2518 190.736 14.7268C190.439 15.2019 189.846 15.38 188.955 15.2613C188.183 13.5986 186.52 12.8266 183.907 12.8266C181.295 12.8266 177.138 14.3705 172.743 17.4584C170.19 19.2993 167.874 21.437 165.677 23.8717C162.945 26.8408 161.58 29.1567 161.58 30.9382C161.58 32.7197 162.47 33.6104 164.192 33.6104C168.409 33.6104 173.931 29.4537 180.76 21.0807C182.066 19.418 183.195 18.2304 184.145 17.6366C185.036 17.0427 186.223 16.7458 187.648 16.7458C189.074 16.7458 188.658 16.8052 189.786 16.924C190.974 17.0427 191.805 17.1021 192.34 16.9834C191.093 17.8147 189.311 19.6556 186.936 22.5059L186.876 22.5653Z" fill="white"/>
<path d="M201.247 33.9667C202.554 33.9667 203.979 33.551 205.463 32.6602C208.076 30.9975 211.342 27.5534 215.38 22.3871C215.855 21.7339 216.39 21.4964 216.865 21.7933C216.983 21.912 217.102 22.0308 217.102 22.2089C217.102 22.3871 216.805 22.9215 216.271 23.6935C215.736 24.4655 215.202 25.1781 214.727 25.8313C214.252 26.4845 213.421 27.494 212.114 28.9192C210.808 30.3443 209.62 31.4726 208.611 32.2446C205.701 34.3823 203.029 35.4512 200.416 35.4512C197.803 35.4512 196.021 34.9762 194.893 33.9667C193.765 32.9572 193.23 31.8289 193.23 30.6412C193.23 29.4536 193.706 28.0878 194.596 26.6032L201.366 15.4987C201.485 15.2018 201.603 14.8455 201.603 14.4298C201.603 14.0142 201.188 13.361 200.356 12.6484H206.176C207.779 12.589 208.729 12.7671 209.026 13.1828C209.323 13.5985 209.086 14.1923 208.373 14.9643L199.941 27.6721C198.753 29.3348 198.159 30.76 198.159 31.9477C198.159 33.1353 199.228 33.9073 201.425 33.9073L201.247 33.9667ZM211.58 8.96666C210.57 9.5011 209.501 9.79801 208.314 9.79801C207.126 9.79801 206.176 9.5011 205.463 8.96666C204.751 8.43222 204.454 7.77901 204.632 7.00704C204.869 6.23507 205.463 5.58186 206.413 5.04742C207.423 4.51298 208.492 4.21606 209.679 4.21606C210.867 4.21606 211.817 4.51298 212.589 5.04742C213.302 5.58186 213.599 6.23507 213.361 7.00704C213.124 7.77901 212.53 8.43222 211.58 8.96666Z" fill="white"/>
<path d="M208.195 57.0072C201.603 57.0072 198.278 55.2851 198.278 51.7815C198.278 48.278 201.306 46.259 207.423 43.943C212.648 41.9834 219.24 40.1426 227.375 38.4205C231.116 37.6485 233.789 37.0547 235.511 36.5796C237.351 33.1354 238.242 29.335 238.242 25.297C238.242 21.259 238.183 23.8718 238.005 23.4561C236.045 26.0689 233.313 28.6818 229.869 31.4134C225.772 34.6794 221.734 35.9264 217.755 35.2138C214.074 34.2043 212.292 32.2447 212.292 29.335C212.292 26.4252 215.321 21.1402 221.378 16.449C224.703 13.8955 228.563 12.2922 232.957 11.639C234.145 11.4015 235.332 11.2827 236.52 11.2827C239.667 11.2827 242.755 11.9359 245.784 13.3017C246.912 13.8955 247.446 14.3706 247.446 14.7863C247.446 15.202 247.209 15.6176 246.793 15.9739C246.378 16.3896 245.903 16.3896 245.487 16.0927C245.012 15.7958 244.715 15.4989 244.596 15.2613C243.705 13.5986 242.221 12.7673 240.142 12.7673C236.401 12.7673 232.245 14.43 227.613 17.8148C225 19.715 222.743 21.7934 220.843 23.9312C218.527 26.6628 217.34 28.7411 217.34 30.2257C217.34 31.7103 218.052 32.6604 219.477 33.1948C219.952 33.3136 220.487 33.373 220.962 33.373C222.565 33.373 224.584 32.6604 227.019 31.2352C229.454 29.81 231.71 27.9692 233.789 25.772C235.867 23.5749 237.173 21.8528 237.767 20.6058C238.302 19.3587 239.014 18.5868 239.846 18.2898C240.677 17.9929 241.568 17.8148 242.518 17.7554C243.527 17.7554 244.18 17.5773 244.537 17.3991C245.071 19.4181 245.368 21.8528 245.368 24.5844C245.368 27.316 244.656 30.4632 243.171 33.9668C246.378 32.4822 248.694 31.1164 250.059 29.9288C251.425 28.7411 252.494 27.6723 253.325 26.7221C254.157 25.772 254.869 24.8219 255.463 23.8718C256.116 22.9217 256.532 22.3278 256.71 22.0903C256.948 21.7934 257.245 21.6746 257.779 21.5559C258.254 21.4965 258.492 21.6153 258.492 21.9716C258.492 22.3278 258.373 22.4466 258.195 22.8029C255.107 26.9597 252.494 29.9288 250.475 31.7697C248.397 33.6105 245.546 35.0951 241.983 36.164C240.321 39.2518 237.827 42.3397 234.679 45.3682C231.473 48.3967 227.435 51.0689 222.625 53.3849C217.815 55.7008 212.945 56.829 208.195 56.829V57.0072ZM200.475 53.0286C200.475 54.7506 202.197 55.6414 205.641 55.6414C209.085 55.6414 209.976 55.2257 212.53 54.4537C215.083 53.6818 217.221 52.9098 218.884 52.0784C221.793 50.5939 224.941 48.3373 228.385 45.4276C230.998 43.0523 233.017 40.7958 234.382 38.5392L230.701 39.3706C219.715 41.8053 211.995 44.0024 207.482 45.9027C204.157 47.3278 202.019 49.1093 200.95 51.3065C200.594 51.9597 200.416 52.5535 200.416 53.0879L200.475 53.0286Z" fill="white"/>
<path d="M288.598 13.1236C279.929 22.9217 275.653 29.335 275.653 32.3041C275.653 35.2733 276.306 34.0856 277.672 34.0856C281.235 34.0856 286.045 30.1664 292.102 22.3279C292.518 21.6747 292.933 21.4371 293.349 21.5559C293.765 21.6747 294.002 21.8528 294.002 22.0904C294.002 22.3279 293.884 22.5654 293.587 22.9217C289.846 27.7911 286.698 31.1165 284.145 32.9573C281.591 34.7982 279.038 35.6889 276.425 35.6889C273.812 35.6889 271.912 35.0357 270.546 33.7887C269.834 33.1949 269.477 32.3635 269.477 31.354C269.477 30.3445 269.834 29.0975 270.546 27.6129C271.259 26.1877 273.159 23.8124 276.366 20.5464C277.138 19.7151 277.553 19.0619 277.553 18.5868C277.553 18.1117 276.96 17.8742 275.772 17.8742C274.584 17.8742 272.268 18.8837 268.943 20.9621C263.895 23.9312 259.026 28.4443 254.275 34.4419C253.86 34.917 253.385 35.1545 252.85 35.2733C252.316 35.392 251.306 35.4514 249.762 35.5108C248.218 35.5108 247.209 35.6889 246.734 35.8671C247.862 34.4419 250.059 31.4134 253.385 26.9597C259.264 19.0025 263.123 14.4894 264.964 13.3611C265.796 12.8267 266.983 12.5298 268.468 12.5298C269.952 12.5298 269.477 12.5892 270.606 12.7079C271.793 12.8267 272.625 12.8861 273.159 12.7673C270.546 13.6581 266.33 17.9336 260.392 25.5939C263.717 22.9811 266.686 20.8433 269.418 19.2994C272.15 17.7554 275.356 16.2709 279.157 14.9645C282.957 13.5987 285.748 12.9455 287.47 12.9455C289.192 12.9455 288.302 12.9455 288.658 13.0642L288.598 13.1236Z" fill="white"/>
</svg>
