<?xml version="1.0" encoding="UTF-8"?>
<svg id="_レイヤー_1" data-name="レイヤー 1" xmlns="http://www.w3.org/2000/svg" viewBox="0 0 20 20">
  <defs>
    <style>
      .cls-1 {
        fill: #ab2239;
        fill-rule: evenodd;
      }
    </style>
  </defs>
  <path class="cls-1" d="M2.1,5.8c0,0,.1-.1.2-.1,0,0,.2,0,.2,0s.2,0,.2,0c0,0,.1,0,.2.1l7.1,7.1,7.1-7.1c0,0,.1-.1.2-.1,0,0,.2,0,.2,0s.2,0,.2,0c0,0,.1,0,.2.1,0,0,.1.1.1.2,0,0,0,.2,0,.2s0,.2,0,.2c0,0,0,.1-.1.2l-7.5,7.5c0,0-.1.1-.2.1,0,0-.2,0-.2,0s-.2,0-.2,0c0,0-.1,0-.2-.1L2.1,6.7c0,0-.1-.1-.1-.2,0,0,0-.2,0-.2s0-.2,0-.2c0,0,0-.1.1-.2Z"/>
</svg>