<svg width="148" height="36" viewBox="0 0 148 36" fill="none" xmlns="http://www.w3.org/2000/svg">
<path d="M25.2189 24.6864C23.3063 27.0883 22.1783 28.853 21.7859 30.0295C21.3936 31.206 21.1974 32.1864 21.1974 32.8726C21.1974 33.5589 21.6388 33.9511 22.5216 33.9511C23.4043 33.9511 24.9737 33.3138 26.5922 31.9903C28.9953 30.0785 31.3003 27.5785 33.6544 24.4903C33.8996 24.1472 34.1448 23.9511 34.4391 23.9511C34.8805 23.853 35.1257 23.9511 35.1257 24.2942C35.1257 24.6374 35.0276 24.6864 34.8805 24.9805C29.5348 31.9413 25.0228 35.4217 21.3936 35.4217C17.7644 35.4217 18.3529 34.8825 17.323 33.853C16.7835 33.3138 16.5383 32.5295 16.5383 31.5981C16.5383 30.6668 16.8325 29.5393 17.4211 28.1668C12.7619 33.0197 8.78943 35.4217 5.40544 35.4217C2.02145 35.4217 3.63988 35.2256 2.90423 34.8824C1.18771 34.0981 0.304932 32.7256 0.304932 30.8138C0.304932 27.1374 2.7571 23.4119 7.71048 19.6374C10.5059 17.5295 13.939 16.157 17.9605 15.5197C19.0395 15.3236 20.1184 15.2256 21.0993 15.2256C23.7476 15.2256 26.0527 15.8138 27.8673 17.0393C28.4558 17.4315 28.6029 17.8236 28.4068 18.2158C28.1615 18.6079 27.6711 18.755 26.9355 18.657C26.2979 17.2844 24.9247 16.6472 22.7668 16.6472C20.6089 16.6472 17.1758 17.9217 13.5466 20.4707C11.4378 21.9903 9.52508 23.755 7.71048 25.7648C5.45448 28.2158 4.32649 30.1275 4.32649 31.5981C4.32649 33.0687 5.06214 33.804 6.48439 33.804C9.96647 33.804 14.5275 30.3726 20.1675 23.4609C21.2464 22.0883 22.1783 21.1079 22.963 20.6177C23.6986 20.1275 24.6795 19.8824 25.8565 19.8824C27.0336 19.8824 26.6902 19.9315 27.6221 20.0295C28.6029 20.1275 29.2895 20.1766 29.7309 20.0785C28.701 20.7648 27.2297 22.2844 25.268 24.6374L25.2189 24.6864Z" fill="white"/>
<path d="M55.5768 20.0294C55.5768 17.8725 54.2036 16.8431 51.5062 16.8431H50.8196C49.7897 16.9412 49.1522 16.7941 49.005 16.451C48.8089 16.1078 49.1031 15.9117 49.7897 15.7647C50.4763 15.6666 51.261 15.6176 52.0457 15.7157C55.0864 16.0098 57.1462 16.9412 58.2252 18.4608C58.9608 19.3921 59.3532 20.3235 59.3532 21.2059C59.3532 24.4412 57.5386 27.5784 53.8603 30.7157C50.1821 33.8529 45.4739 35.4215 39.6868 35.4215C33.8997 35.4215 35.8124 35.0294 34.4392 34.2451C33.115 33.4608 32.4284 32.4313 32.4284 31.1078C32.4284 29.7843 33.8016 26.8921 36.5971 23.1176C31.8399 28.951 28.7501 32.2843 27.3769 33.1176C26.7884 33.4608 26.4941 33.3627 26.4941 32.7745C26.4941 32.1862 26.5432 32.5294 26.6903 32.3823C28.7011 30.6666 32.7717 25.9608 38.8531 18.3137C44.9344 10.6666 49.1522 5.66664 51.6043 3.3137C53.5661 1.49998 55.4788 0.568604 57.3424 0.568604H57.8819C57.9309 0.568604 58.4704 0.617623 59.4022 0.715662C60.3831 0.813702 61.0697 0.862721 61.5111 0.764682C59.5984 2.08821 56.5577 4.68625 52.4381 8.65684C42.2371 18.4608 37.1365 25.7647 37.1365 30.5686C37.1365 35.3725 38.1174 33.6568 40.0791 33.951C40.2753 33.951 40.4715 34 40.6677 34C42.4823 34 44.7383 32.9706 47.4356 30.8627C50.133 28.8039 52.34 26.4019 54.1055 23.7549C55.0864 22.3823 55.5768 21.1078 55.5768 19.9804V20.0294Z" fill="white"/>
<path d="M79.5099 15.6177C83.7277 15.6177 85.8856 17.3334 85.8856 20.8138C85.8856 24.2941 85.248 24.0981 83.9729 25.8628C82.3544 28.3138 79.9023 30.5196 76.6654 32.4804C77.4011 33.4118 78.7743 33.902 80.736 33.902C82.6977 33.902 83.7767 33.4118 85.199 32.3824C86.9155 31.2059 88.1906 30.1765 88.9263 29.2941C89.6619 28.4118 90.2504 27.7745 90.5937 27.3334C90.937 26.9412 91.3784 26.353 91.9669 25.5687C92.5064 24.7843 92.8497 24.3432 92.9478 24.1471C93.0459 24 93.2421 23.902 93.5363 23.902C94.1249 23.902 94.4191 24 94.4191 24.2941C94.4191 24.5883 94.3701 24.5392 94.2229 24.6863L93.6835 25.4706C93.3402 26.0098 93.0949 26.353 92.8988 26.5981C92.7026 26.8432 92.4083 27.2353 91.9669 27.8236C91.5256 28.4118 91.1332 28.853 90.8389 29.1961C90.4956 29.5392 90.1033 29.9804 89.5148 30.5687C88.9753 31.1079 88.4849 31.5981 88.0435 31.9412C87.6021 32.2843 87.0626 32.6765 86.425 33.0687C85.7875 33.4608 85.199 33.8039 84.6104 34.049C83.1391 34.5883 81.815 34.8824 80.5398 34.8824C78.1367 34.8824 76.3221 34.3922 74.9489 33.4118C72.3006 34.6863 69.7994 35.3236 67.5434 35.3236C63.3256 35.3236 61.1677 33.6079 61.1677 30.1275C61.1677 26.6471 61.8053 26.8432 63.0804 25.0785C64.7969 22.4314 67.2491 20.2255 70.4369 18.4118C73.5757 16.5981 76.6164 15.6667 79.4609 15.6667L79.5099 15.6177ZM80.4908 17.3824C78.9214 17.3824 77.0578 18.0687 74.8999 19.3922C72.742 20.7647 70.8293 22.5785 69.1618 24.8824C67.151 27.5785 66.1211 29.7843 66.1211 31.5C66.1211 33.2157 67.151 34.0981 69.1618 34.0981C71.1726 34.0981 72.2515 33.6079 74.0171 32.5785C73.0853 31.6961 72.6439 30.8138 72.6439 29.8334C72.742 28.2157 73.7719 27.4314 75.6845 27.4314C77.5972 27.4314 77.0578 27.5785 77.5482 27.9216C78.0386 28.2647 78.2838 28.5589 78.2838 28.853C78.2838 29.1471 78.2348 29.4412 78.0877 29.7353C79.0685 28.804 80.1965 27.4804 81.4717 25.7647C82.943 23.853 83.6296 21.9902 83.6296 20.1275C83.6296 18.2647 82.5506 17.3824 80.3927 17.3824H80.4908Z" fill="white"/>
<path d="M89.809 32.0392C89.809 30.4215 90.888 28.4607 93.0459 26.2058C92.1141 26.2058 91.8689 25.9117 92.2612 25.3235L93.8306 23.3627C95.7923 20.9117 97.4108 18.8529 98.6859 17.1862C99.2744 16.4019 100.402 16.0098 102.07 16.0098H107.367C105.258 16.9902 103.149 18.8529 101.04 21.647C98.9311 24.4411 97.2636 26.647 96.1356 28.2156C94.9586 29.8333 94.3701 31.0098 94.3701 31.8431C94.3701 32.6764 94.5663 33.2647 95.0076 33.6078C95.449 33.9509 96.0376 34.098 96.7732 34.098C97.8522 34.098 99.4215 33.3627 101.383 31.8431C104.473 29.5392 108.789 24.6372 114.38 17.1862C115.017 16.4019 116.145 16.0098 117.764 16.0098H122.472C121.197 16.647 120.216 17.2843 119.48 17.9705C118.745 18.6568 117.764 19.8333 116.489 21.549C113.007 26.0588 111.045 29.049 110.652 30.4705C110.456 31.0098 110.407 31.5 110.407 31.9411C110.407 33.1176 111.045 33.7549 112.32 33.8529C115.459 33.8529 119.333 30.7156 123.894 24.4411C124.237 23.9019 124.581 23.7058 124.924 23.8039C125.267 23.9019 125.464 24.049 125.464 24.2451C125.464 24.4411 125.218 24.8823 124.679 25.5196C124.139 26.2058 123.649 26.8431 123.159 27.4804C122.668 28.1176 121.932 29 120.903 30.0784C119.873 31.2058 118.941 32.0392 118.058 32.6764C115.802 34.3431 113.595 35.1274 111.388 35.1274C109.181 35.1274 107.71 34.4902 106.925 33.2647C106.582 32.7255 106.386 31.9902 106.386 31.1078C106.386 30.2254 106.68 29.196 107.268 27.9215C103.051 32.7254 99.1273 35.1274 95.4981 35.1274C91.8689 35.1274 90.5447 34.2941 90.0052 32.5784C89.8091 32.3823 89.76 32.1862 89.76 31.8921L89.809 32.0392Z" fill="white"/>
<path d="M121.736 30.8137C121.736 27.7255 124.041 22.4804 128.7 15.1765H124.188C123.894 15.1765 123.698 15.0784 123.6 14.8824C123.502 14.6863 123.551 14.4902 123.698 14.2451C123.845 14.049 124.041 13.951 124.336 13.951H129.583C131.692 11.0098 133.605 8.5098 135.419 6.54902C137.234 4.53922 138.852 3.21569 140.373 2.52941C141.893 1.84314 142.972 1.5 143.659 1.5C144.345 1.5 144.787 1.5 145.081 1.59804C146.405 1.9902 147.092 2.87255 147.092 4.14706C147.092 5.42157 146.405 6.9902 145.081 8.85294C143.757 10.6667 142.433 12.3824 141.157 13.951H145.326C145.62 13.951 145.817 14.049 145.915 14.2451C146.013 14.4412 145.964 14.6373 145.817 14.8824C145.669 15.0784 145.473 15.1765 145.179 15.1765H140.128C136.94 18.6569 133.065 21.7451 128.553 24.4412L126.543 30.1765C126.346 30.6667 126.297 31.1569 126.297 31.598C126.297 32.0392 126.494 32.5294 126.886 33.0196C127.278 33.5098 127.916 33.7549 128.799 33.7549C129.681 33.7549 130.907 33.5098 132.084 33.0686C134.88 31.6961 137.97 28.902 141.305 24.5882C141.55 24.2451 141.795 24.049 142.138 23.951C142.433 23.8529 142.629 23.951 142.727 24.098C142.776 24.2451 142.727 24.5392 142.482 24.9314C140.569 27.5294 139.049 29.3431 137.97 30.4216C134.831 33.7059 131.496 35.3235 127.965 35.3235C124.434 35.3235 124.679 34.8823 123.502 34.049C122.325 33.1667 121.785 32.0882 121.785 30.7647L121.736 30.8137ZM138.117 15.1765H134.046C133.36 16.2059 131.79 18.7059 129.338 22.6765C132.477 20.5686 135.419 18.0686 138.117 15.1765ZM139.245 13.951C143.07 9.53922 144.983 6.45098 144.983 4.73529C144.983 3.01961 144.787 3.60784 144.394 3.60784C143.757 3.60784 142.776 4.19608 141.501 5.42157C140.177 6.59804 138.019 9.4902 134.929 13.951H139.294H139.245Z" fill="white"/>
</svg>
