<svg width="233" height="43" viewBox="0 0 233 43" fill="none" xmlns="http://www.w3.org/2000/svg">
<path d="M17.5404 12.8949C19.5 11.3301 20.5037 10.0098 20.5037 8.93399C20.5037 7.85819 19.8346 7.32029 18.4485 7.32029C15.7721 7.32029 12.761 8.93398 9.36765 12.1614C8.31618 13.1883 7.26471 14.5086 6.21324 16.1223C5.20956 17.7848 4.68382 19.2518 4.68382 20.5721C4.68382 21.8924 5.11397 22.9682 5.92647 23.7995C6.73897 24.6308 8.02941 25.022 9.75 25.022C11.4706 25.022 13.0956 24.7286 14.5294 24.1907C16.011 23.6528 17.3971 22.7726 18.7353 21.599C20.0735 20.4254 21.0772 19.4474 21.7463 18.665C22.4154 17.8826 23.3713 16.709 24.5662 15.1443C24.9485 14.6064 25.2831 14.4108 25.5699 14.5086C25.8566 14.6064 26 14.7531 26 14.8998C26 15.0465 25.6176 15.6822 24.8529 16.7579C24.0882 17.8337 23.3235 18.8117 22.5588 19.7408C21.7941 20.6699 20.6949 21.7457 19.3088 22.8704C16.7757 24.9731 13.2868 26 8.88971 26C4.49265 26 3.44118 25.4621 2.05515 24.4352C0.669117 23.4083 0 22.2347 0 20.8655C0 19.4963 0.621323 17.4425 1.81618 15.4866C3.01103 13.5306 4.44485 11.868 6.02206 10.4499C9.31985 7.51589 13.0956 6 17.3971 6C21.6985 6 20.9816 6.3423 21.9375 6.978C22.8934 7.61369 23.3235 8.39609 23.3235 9.22738C23.3235 10.4988 22.511 11.5746 20.9338 12.5037C20.1213 12.9927 19.5 13.2372 18.9265 13.2372C18.3529 13.2372 17.9228 13.0905 17.5404 12.846V12.8949Z" fill="white"/>
<path d="M45.3268 14.9005C43.4592 17.1602 42.3577 18.8204 41.9746 19.9272C41.5915 21.034 41.4 21.9563 41.4 22.6019C41.4 23.2476 41.831 23.6165 42.693 23.6165C43.5549 23.6165 45.0873 23.017 46.6676 21.7718C49.0141 19.9733 51.2648 17.6214 53.5634 14.716C53.8028 14.3932 54.0423 14.2087 54.3296 14.2087C54.7606 14.1165 55 14.2087 55 14.5316C55 14.8544 54.9042 14.9005 54.7606 15.1772C49.5408 21.7257 45.1352 25 41.5915 25C38.0479 25 38.6225 24.4927 37.6169 23.5243C37.0901 23.017 36.8507 22.2791 36.8507 21.4029C36.8507 20.5267 37.138 19.466 37.7127 18.1748C33.1634 22.7403 29.2845 25 25.9803 25C22.6761 25 24.2563 24.8155 23.538 24.4927C21.862 23.7549 21 22.4636 21 20.665C21 17.2063 23.3944 13.7015 28.231 10.1505C30.9606 8.16748 34.3127 6.87621 38.2394 6.2767C39.293 6.09223 40.3465 6 41.3042 6C43.8901 6 46.1408 6.5534 47.9127 7.70631C48.4873 8.07524 48.631 8.44417 48.4394 8.81311C48.2 9.18204 47.7211 9.32039 47.0028 9.22816C46.3803 7.93689 45.0394 7.33738 42.9324 7.33738C40.8254 7.33738 37.4732 8.53641 33.9296 10.9345C31.8704 12.3641 30.0028 14.0243 28.231 15.915C26.0282 18.2209 24.9268 20.0194 24.9268 21.4029C24.9268 22.7864 25.6451 23.4782 27.0338 23.4782C30.4338 23.4782 34.8873 20.25 40.3944 13.7476C41.4479 12.4563 42.3577 11.534 43.1239 11.0728C43.8423 10.6117 44.8 10.3811 45.9493 10.3811C47.0986 10.3811 46.7634 10.4272 47.6732 10.5194C48.631 10.6117 49.3014 10.6578 49.7324 10.5655C48.7268 11.2112 47.2901 12.6408 45.3746 14.8544L45.3268 14.9005Z" fill="white"/>
<path d="M93.5027 7.48593C86.5392 15.5524 83.0091 20.7519 83.0091 23.0844C83.0091 25.4169 83.5411 24.6394 84.6533 24.6394C85.7655 24.6394 87.6031 23.9591 89.3923 22.6471C92.1004 20.509 94.4215 17.9821 96.4526 15.0179C96.7911 14.4834 97.1296 14.289 97.4681 14.3862C97.8066 14.4834 98 14.6292 98 14.8235C98 15.0179 97.7099 15.4552 97.1296 16.2327C96.5493 16.9616 96.114 17.5934 95.7755 18.0307C95.437 18.468 94.6633 19.3427 93.5027 20.6061C92.3422 21.8696 91.3266 22.7928 90.5046 23.376C89.6825 23.9591 88.6186 24.5422 87.313 25.1253C86.0073 25.7084 84.5566 26 82.9124 26C81.2682 26 79.9142 25.4655 78.7536 24.445C78.2217 23.9591 77.9799 23.2788 77.9799 22.4527C77.9799 21.6266 78.2701 20.6061 78.8504 19.3913C79.4307 18.2251 80.9781 16.2813 83.5894 13.6087C84.2181 12.9284 84.5566 12.3939 84.5566 12.0051C84.5566 11.6164 84.073 11.422 83.1542 11.422C82.2354 11.422 80.4945 12.1509 78.0283 13.6573C75.562 15.1637 72.9991 17.156 70.2427 19.6829C67.5347 22.2097 65.8905 24.2506 65.4069 25.757C64.4398 25.757 63.7144 25.5141 63.2792 24.9795C62.844 24.445 62.6022 24.0077 62.6022 23.6189C62.6022 22.1125 64.198 19.1969 67.3412 14.9207C68.3568 13.5115 68.937 12.5396 68.9854 12.0537C69.0338 11.5678 68.9854 11.2762 68.6953 11.2762C68.4535 11.2762 68.0666 11.2762 67.6314 11.4706C66.6159 11.8107 65.0201 12.6368 62.8923 13.9003C58.8786 16.2813 54.9133 19.8772 51.0447 24.7852C50.7546 25.1739 50.4161 25.4655 49.9808 25.5141C49.5456 25.6113 48.7235 25.6598 47.4662 25.7084C46.2089 25.757 45.3869 25.8542 45 26C46.0155 24.688 47.8531 22.2583 50.4161 18.711C55.0584 12.2967 58.1533 8.65217 59.7007 7.68031C60.3777 7.24297 61.3449 7 62.5538 7C63.7628 7 63.3759 7.04859 64.2947 7.14578C65.2619 7.24297 65.9389 7.29156 66.3741 7.19437C64.2464 7.92327 60.813 11.422 55.9772 17.6905C58.6852 15.5524 60.6195 14.1432 61.7801 13.4629C62.9407 12.7826 63.8111 12.2967 64.3914 11.9565C64.9717 11.6164 65.4069 11.3734 65.7454 11.179C66.0356 10.9847 66.5192 10.7417 67.0995 10.3529C67.6797 10.0128 68.1633 9.72123 68.4535 9.57545C68.7436 9.42967 69.2272 9.1867 69.8075 8.89514C70.3878 8.60358 70.823 8.40921 71.1615 8.31202C71.4516 8.21483 71.8869 8.06905 72.4672 7.82609C72.9991 7.58312 73.4343 7.48593 73.6761 7.48593C73.9179 7.48593 74.3047 7.48593 74.74 7.34015C75.1752 7.24297 75.5137 7.29156 75.7071 7.43734C76.8677 7.7289 77.448 8.21483 77.448 8.84655C77.448 9.47826 76.4808 10.8389 74.5465 13.1228C72.6122 15.4066 71.3549 16.9616 70.7746 17.6905C73.2892 15.6496 75.7071 13.9488 77.9799 12.6368C80.2527 11.3248 82.9608 10.11 86.104 8.99233C89.1989 7.87468 91.5201 7.34015 92.9224 7.34015C94.3248 7.34015 93.5511 7.34015 93.7929 7.43734L93.5027 7.48593Z" fill="white"/>
<path d="M122 11.2521C122 12.8235 121.326 14.5336 120.026 16.3824C118.726 18.2773 116.896 20.0798 114.585 21.7899C112.273 23.5 109.48 24.7017 106.158 25.3487C104.906 25.5798 103.461 25.6723 101.824 25.6723C100.187 25.6723 98.4054 25.3487 96.4793 24.7017L88.3415 37.2731C87.4748 38.3824 86.7044 39.1681 85.9339 39.4916C85.2116 39.8613 84.4894 40 83.8152 40H82.5633C82.4188 40 81.8891 39.9538 81.0224 39.8613C80.1557 39.7689 79.4815 39.7227 79 39.7689C80.252 39.0294 83.43 35.5168 88.5342 29.1849C93.6383 22.8992 96.5274 18.6471 97.2016 16.4286C96.5756 16.9832 95.9978 17.3067 95.4199 17.3067C95.0829 17.3067 95.0829 17.1218 95.4199 16.7059C95.757 16.2899 96.3348 15.5042 97.1053 14.3487C98.1165 12.8235 98.6461 11.437 98.6461 10.1429C98.6461 8.84874 98.2609 8.10924 97.4423 7.87815C100.861 7.5084 102.835 7.36975 103.413 7.36975C103.991 7.36975 104.328 7.55462 104.473 7.83193C104.617 8.10924 104.665 8.43277 104.665 8.80252C104.665 10.9748 103.847 13.3782 102.258 16.0126L103.943 14.3025C106.013 12.2689 107.506 10.9286 108.421 10.3277C109.384 9.72689 110.395 9.12605 111.455 8.47899C113.092 7.5084 114.681 7 116.222 7C117.763 7 117.088 7 117.522 7.09244C120.363 7.55462 121.807 8.94118 121.807 11.2059L122 11.2521ZM117.907 10.7437C117.907 10.1891 117.714 9.63445 117.329 9.17227C116.944 8.71008 116.366 8.47899 115.596 8.47899C113.622 8.47899 111.262 9.63445 108.614 11.9454C105.965 14.2563 102.161 18.2311 97.2016 23.9622C97.9238 24.4244 98.9832 24.6555 100.283 24.6555C101.583 24.6555 103.461 24.0546 105.821 22.8067C109.625 20.8193 112.851 18.3697 115.403 15.458C117.04 13.563 117.859 11.9916 117.859 10.7899L117.907 10.7437Z" fill="white"/>
<path d="M146.611 14.9005C144.799 17.1602 143.73 18.8204 143.358 19.9272C142.986 21.034 142.8 21.9563 142.8 22.6019C142.8 23.2476 143.218 23.6165 144.055 23.6165C144.892 23.6165 146.379 23.017 147.913 21.7718C150.19 19.9733 152.375 17.6214 154.606 14.716C154.838 14.3932 155.07 14.2087 155.349 14.2087C155.768 14.1165 156 14.2087 156 14.5316C156 14.8544 155.907 14.9005 155.768 15.1772C150.701 21.7257 146.425 25 142.986 25C139.546 25 140.104 24.4927 139.128 23.5243C138.617 23.017 138.385 22.2791 138.385 21.4029C138.385 20.5267 138.663 19.466 139.221 18.1748C134.806 22.7403 131.041 25 127.834 25C124.627 25 126.161 24.8155 125.463 24.4927C123.837 23.7549 123 22.4636 123 20.665C123 17.2063 125.324 13.7015 130.018 10.1505C132.668 8.16748 135.921 6.87621 139.732 6.2767C140.755 6.09223 141.777 6 142.707 6C145.217 6 147.401 6.5534 149.121 7.70631C149.679 8.07524 149.818 8.44417 149.632 8.81311C149.4 9.18204 148.935 9.32039 148.238 9.22816C147.634 7.93689 146.332 7.33738 144.287 7.33738C142.242 7.33738 138.989 8.53641 135.549 10.9345C133.551 12.3641 131.738 14.0243 130.018 15.915C127.88 18.2209 126.811 20.0194 126.811 21.4029C126.811 22.7864 127.508 23.4782 128.856 23.4782C132.156 23.4782 136.479 20.25 141.824 13.7476C142.846 12.4563 143.73 11.534 144.473 11.0728C145.17 10.6117 146.1 10.3811 147.215 10.3811C148.331 10.3811 148.006 10.4272 148.889 10.5194C149.818 10.6117 150.469 10.6578 150.887 10.5655C149.911 11.2112 148.517 12.6408 146.658 14.8544L146.611 14.9005Z" fill="white"/>
<path d="M157.716 23.8118C158.811 23.8118 160.005 23.4791 161.249 22.7662C163.438 21.4354 166.174 18.6787 169.557 14.5437C169.955 14.0209 170.403 13.8308 170.801 14.0684C170.901 14.1635 171 14.2586 171 14.4011C171 14.5437 170.751 14.9715 170.303 15.5894C169.856 16.2072 169.408 16.7776 169.01 17.3004C168.612 17.8232 167.915 18.6312 166.821 19.7719C165.726 20.9125 164.731 21.8156 163.886 22.4335C161.448 24.1445 159.209 25 157.02 25C154.831 25 153.338 24.6198 152.393 23.8118C151.448 23.0038 151 22.1008 151 21.1502C151 20.1996 151.398 19.1065 152.144 17.9183L157.816 9.03042C157.915 8.79278 158.015 8.5076 158.015 8.1749C158.015 7.8422 157.667 7.31939 156.97 6.74905H161.846C163.189 6.70152 163.985 6.84411 164.234 7.17681C164.483 7.50951 164.284 7.98479 163.687 8.60266L156.622 18.7738C155.627 20.1046 155.129 21.2452 155.129 22.1958C155.129 23.1464 156.025 23.7643 157.866 23.7643L157.716 23.8118ZM166.373 3.80228C165.527 4.23004 164.632 4.46768 163.637 4.46768C162.642 4.46768 161.846 4.23004 161.249 3.80228C160.652 3.37452 160.403 2.85171 160.552 2.23384C160.751 1.61597 161.249 1.09316 162.045 0.665399C162.891 0.237643 163.786 0 164.781 0C165.776 0 166.572 0.237643 167.219 0.665399C167.816 1.09316 168.065 1.61597 167.866 2.23384C167.667 2.85171 167.169 3.37452 166.373 3.80228Z" fill="white"/>
<path d="M163.905 43C158.651 43 156 41.6065 156 38.7714C156 35.9364 158.414 34.3026 163.29 32.4286C167.456 30.8429 172.71 29.3532 179.195 27.9597C182.178 27.3351 184.308 26.8545 185.68 26.4701C187.148 23.6831 187.858 20.6078 187.858 17.3403C187.858 14.0727 187.811 16.187 187.669 15.8506C186.107 17.9649 183.929 20.0792 181.183 22.2896C177.917 24.9325 174.698 25.9416 171.527 25.3649C168.592 24.5481 167.172 22.9623 167.172 20.6078C167.172 18.2532 169.586 13.9766 174.414 10.1805C177.065 8.11429 180.142 6.81688 183.645 6.28831C184.592 6.0961 185.538 6 186.485 6C188.994 6 191.456 6.52857 193.87 7.63377C194.769 8.11429 195.195 8.4987 195.195 8.83506C195.195 9.17143 195.006 9.50779 194.675 9.7961C194.343 10.1325 193.964 10.1325 193.633 9.89221C193.254 9.65195 193.018 9.41169 192.923 9.21948C192.213 7.87403 191.03 7.2013 189.373 7.2013C186.391 7.2013 183.077 8.54675 179.385 11.2857C177.302 12.8234 175.503 14.5052 173.988 16.2351C172.142 18.4455 171.195 20.1273 171.195 21.3286C171.195 22.5299 171.763 23.2987 172.899 23.7312C173.278 23.8273 173.704 23.8753 174.083 23.8753C175.361 23.8753 176.97 23.2987 178.911 22.1455C180.852 20.9922 182.651 19.5026 184.308 17.7247C185.965 15.9468 187.006 14.5532 187.479 13.5442C187.905 12.5351 188.473 11.9104 189.136 11.6701C189.799 11.4299 190.509 11.2857 191.266 11.2377C192.071 11.2377 192.592 11.0935 192.876 10.9494C193.302 12.5831 193.538 14.5532 193.538 16.7636C193.538 18.974 192.97 21.5208 191.787 24.3558C194.343 23.1545 196.189 22.0494 197.278 21.0883C198.367 20.1273 199.219 19.2623 199.882 18.4935C200.544 17.7247 201.112 16.9558 201.586 16.187C202.107 15.4182 202.438 14.9377 202.58 14.7455C202.769 14.5052 203.006 14.4091 203.432 14.313C203.811 14.2649 204 14.361 204 14.6494C204 14.9377 203.905 15.0338 203.763 15.3221C201.302 18.6857 199.219 21.0883 197.609 22.5779C195.953 24.0675 193.68 25.2688 190.84 26.1338C189.515 28.6325 187.527 31.1312 185.018 33.5818C182.462 36.0325 179.243 38.1948 175.408 40.0688C171.574 41.9429 167.692 42.8558 163.905 42.8558V43ZM157.751 39.7805C157.751 41.174 159.124 41.8948 161.87 41.8948C164.615 41.8948 165.325 41.5584 167.361 40.9338C169.396 40.3091 171.101 39.6844 172.426 39.0117C174.746 37.8104 177.254 35.9844 180 33.6299C182.083 31.7078 183.692 29.8818 184.781 28.0558L181.846 28.7286C173.089 30.6987 166.935 32.4766 163.337 34.0143C160.686 35.1675 158.982 36.6091 158.13 38.387C157.846 38.9156 157.704 39.3961 157.704 39.8286L157.751 39.7805Z" fill="white"/>
<path d="M228.656 7.48346C221.686 15.4606 218.249 20.6819 218.249 23.0992C218.249 25.5165 218.774 24.5496 219.872 24.5496C222.736 24.5496 226.603 21.3588 231.472 14.9771C231.807 14.4453 232.141 14.2519 232.475 14.3486C232.809 14.4453 233 14.5903 233 14.7837C233 14.9771 232.905 15.1705 232.666 15.4606C229.658 19.4249 227.128 22.1323 225.075 23.631C223.023 25.1298 220.97 25.855 218.869 25.855C216.769 25.855 215.241 25.3232 214.143 24.3079C213.57 23.8244 213.284 23.1476 213.284 22.3257C213.284 21.5038 213.57 20.4885 214.143 19.2799C214.716 18.1196 216.244 16.1857 218.822 13.5267C219.442 12.8499 219.776 12.3181 219.776 11.9313C219.776 11.5445 219.299 11.3511 218.344 11.3511C217.389 11.3511 215.528 12.173 212.854 13.8651C208.796 16.2824 204.882 19.9567 201.063 24.8397C200.729 25.2265 200.347 25.4198 199.917 25.5165C199.487 25.6132 198.676 25.6616 197.435 25.7099C196.193 25.7099 195.382 25.855 195 26C195.907 24.8397 197.673 22.374 200.347 18.7481C205.073 12.2697 208.176 8.59542 209.656 7.67684C210.324 7.24173 211.279 7 212.472 7C213.666 7 213.284 7.04835 214.191 7.14504C215.146 7.24173 215.814 7.29008 216.244 7.19338C214.143 7.91857 210.754 11.3995 205.98 17.6361C208.653 15.5089 211.04 13.7684 213.236 12.5114C215.432 11.2545 218.01 10.0458 221.065 8.98219C224.121 7.87023 226.364 7.33842 227.749 7.33842C229.133 7.33842 228.417 7.33842 228.704 7.43511L228.656 7.48346Z" fill="white"/>
</svg>
