<?xml version="1.0" encoding="UTF-8"?>
<svg xmlns="http://www.w3.org/2000/svg" viewBox="0 0 107.76 30.78">
  <defs>
    <style>
      .cls-1 {
        fill: #f4c9d0;
      }
    </style>
  </defs>
  <path class="cls-1" d="M19.88,19.42c-1.34,1.69-2.15,2.96-2.41,3.8-.27.84-.4,1.52-.4,2.04s.31.78.92.78c.77,0,1.73-.47,2.87-1.4,1.67-1.36,3.32-3.13,4.95-5.32.16-.24.35-.37.55-.4.33-.08.49,0,.49.24,0,.13-.06.29-.18.48-3.75,4.96-6.9,7.44-9.47,7.44-1.18,0-2.14-.37-2.87-1.12-.37-.4-.55-.93-.55-1.6s.2-1.48.61-2.44c-3.26,3.44-6.07,5.16-8.43,5.16-.65,0-1.24-.13-1.77-.4-1.22-.56-1.83-1.52-1.83-2.88,0-2.61,1.73-5.27,5.19-7.96,1.96-1.49,4.36-2.47,7.21-2.92.77-.13,1.51-.2,2.2-.2,1.87,0,3.46.43,4.77,1.28.41.29.53.57.37.84-.16.27-.51.37-1.04.32-.45-.96-1.43-1.44-2.93-1.44-1.75,0-3.91.91-6.48,2.72-1.47,1.07-2.83,2.32-4.09,3.76-1.59,1.73-2.38,3.12-2.38,4.16s.51,1.56,1.53,1.56c2.44,0,5.64-2.45,9.59-7.36.77-.99,1.43-1.66,1.96-2.02s1.2-.54,2.02-.54c.16,0,.58.04,1.25.12s1.17.09,1.5.04c-.73.48-1.77,1.57-3.12,3.26Z"/>
  <path class="cls-1" d="M41.2,16.12c0-1.52-.96-2.28-2.87-2.28h-.49c-.73.05-1.16-.04-1.28-.28-.12-.24.06-.4.55-.48.49-.08,1.02-.09,1.59-.04,2.12.21,3.56.87,4.34,1.96.53.67.79,1.32.79,1.96,0,2.29-1.28,4.55-3.85,6.76-2.57,2.24-5.89,3.36-9.96,3.36-1.51,0-2.73-.28-3.67-.84-.94-.56-1.41-1.31-1.41-2.24,0-1.12.98-3.01,2.93-5.68-3.34,4.13-5.5,6.51-6.48,7.12-.41.24-.61.16-.61-.24,0-.08.04-.17.12-.28,1.43-1.23,4.27-4.56,8.52-10,4.26-5.44,7.24-9,8.95-10.68,1.38-1.31,2.73-1.96,4.03-1.96h.37s.4.04,1.07.12c.67.08,1.17.09,1.5.04-1.34.93-3.46,2.8-6.35,5.6-7.17,6.96-10.75,12.16-10.75,15.6,0,1.41.69,2.21,2.08,2.4.12.03.26.04.43.04,1.26,0,2.84-.74,4.74-2.22,1.89-1.48,3.45-3.17,4.67-5.06.69-.99,1.04-1.88,1.04-2.68Z"/>
  <path class="cls-1" d="M58,13c2.97,0,4.46,1.23,4.46,3.68,0,1.12-.45,2.32-1.34,3.6-1.14,1.73-2.85,3.31-5.13,4.72.53.67,1.49,1,2.87,1,1.1,0,2.14-.36,3.12-1.08,1.22-.83,2.1-1.55,2.63-2.18s.92-1.09,1.16-1.38c.24-.29.56-.71.95-1.26.39-.55.62-.88.7-1,.08-.12.22-.18.43-.18.41-.03.61.07.61.28,0,.08-.04.17-.12.28l-.37.56c-.24.37-.43.64-.55.8s-.34.45-.64.86-.57.74-.79.98c-.22.24-.53.56-.92.96-.39.4-.73.72-1.04.96-.31.24-.68.51-1.13.8-.45.29-.88.52-1.28.68-1.02.4-1.98.6-2.87.6-1.67,0-2.97-.35-3.91-1.04-1.87.91-3.6,1.36-5.19,1.36-2.97,0-4.46-1.23-4.46-3.68,0-1.12.45-2.32,1.34-3.6,1.22-1.87,2.94-3.45,5.16-4.76,2.22-1.31,4.33-1.96,6.32-1.96ZM58.68,14.24c-1.1,0-2.4.48-3.91,1.44s-2.85,2.27-4.03,3.92c-1.43,1.92-2.14,3.49-2.14,4.72s.71,1.84,2.14,1.84c1.02,0,2.16-.36,3.42-1.08-.65-.61-.98-1.27-.98-1.96.08-1.15.79-1.72,2.14-1.72.53,0,.97.12,1.31.36.35.24.52.46.52.66s-.04.41-.12.62c.69-.67,1.49-1.61,2.38-2.84,1.02-1.36,1.53-2.69,1.53-4s-.75-1.96-2.26-1.96Z"/>
  <path class="cls-1" d="M65.21,24.68c0-1.15.75-2.53,2.26-4.16-.65,0-.83-.21-.55-.64l1.1-1.4c1.38-1.73,2.53-3.2,3.42-4.4.41-.56,1.2-.84,2.38-.84h3.73c-1.47.69-2.94,2.03-4.43,4.02-1.49,1.99-2.64,3.55-3.45,4.68-.82,1.13-1.22,1.99-1.22,2.58s.15,1,.46,1.24.72.36,1.25.36c.77,0,1.85-.53,3.24-1.6,2.16-1.65,5.19-5.13,9.1-10.44.45-.56,1.24-.84,2.38-.84h3.3c-.9.45-1.6.92-2.11,1.4-.51.48-1.21,1.33-2.11,2.56-2.44,3.2-3.81,5.32-4.09,6.36-.12.37-.18.72-.18,1.04,0,.85.45,1.31,1.34,1.36,2.2,0,4.91-2.23,8.13-6.68.24-.37.49-.52.73-.44.24.08.37.19.37.32s-.18.44-.55.92c-.37.48-.72.95-1.07,1.4-.35.45-.88,1.07-1.59,1.86-.71.79-1.37,1.41-1.99,1.86-1.59,1.17-3.15,1.76-4.67,1.76s-2.58-.44-3.15-1.32c-.24-.4-.37-.91-.37-1.52s.2-1.37.61-2.28c-2.97,3.41-5.72,5.12-8.25,5.12-2.2,0-3.48-.6-3.85-1.8-.12-.13-.18-.29-.18-.48Z"/>
  <path class="cls-1" d="M87.64,23.8c0-2.21,1.63-5.92,4.89-11.12h-3.18c-.2,0-.34-.07-.4-.22-.06-.15-.04-.29.06-.44.1-.15.25-.22.46-.22h3.67c1.47-2.11,2.83-3.87,4.09-5.28,1.26-1.41,2.42-2.37,3.48-2.86,1.06-.49,1.82-.74,2.29-.74s.8.03,1.01.08c.94.29,1.41.9,1.41,1.82s-.47,2.03-1.41,3.34c-.94,1.31-1.85,2.52-2.75,3.64h2.93c.2,0,.34.07.4.22.06.15.04.29-.06.44-.1.15-.25.22-.46.22h-3.54c-2.24,2.48-4.95,4.68-8.13,6.6l-1.41,4.08c-.12.35-.18.69-.18,1.02s.14.67.43,1.02.73.52,1.34.52c.69,0,1.47-.16,2.32-.48,1.96-.96,4.11-2.97,6.48-6.04.16-.24.36-.39.58-.44.22-.05.36-.02.4.1.04.12-.02.31-.18.58-1.34,1.84-2.4,3.15-3.18,3.92-2.2,2.32-4.54,3.48-7.03,3.48-1.26,0-2.3-.31-3.12-.92-.82-.61-1.22-1.39-1.22-2.32ZM99.12,12.68h-2.87c-.49.75-1.59,2.52-3.3,5.32,2.2-1.49,4.26-3.27,6.17-5.32ZM99.92,11.8c2.69-3.15,4.03-5.33,4.03-6.56,0-.53-.14-.8-.43-.8-.45,0-1.13.43-2.05,1.28-.92.85-2.46,2.88-4.61,6.08h3.05Z"/>
</svg>