<svg width="233" height="95" viewBox="0 0 233 95" fill="none" xmlns="http://www.w3.org/2000/svg">
<path d="M20.3204 81.159C22.0104 81.38 25.4944 82.108 27.1324 82.68L26.7164 83.681C25.1434 83.096 21.7374 82.355 19.9434 82.121L20.3204 81.159ZM19.7224 84.591C21.5034 84.903 24.6624 85.566 26.2744 86.151L25.8714 87.152C24.3634 86.567 21.1784 85.852 19.3324 85.566L19.7224 84.591ZM19.0204 88.374C21.1914 88.725 24.9744 89.609 26.7554 90.324L26.3004 91.325C24.5844 90.571 20.7104 89.7 18.6174 89.375L19.0204 88.374ZM36.7654 80.6C36.7134 80.873 36.6874 81.38 36.6874 81.731C36.6874 82.082 36.6874 82.758 36.6874 83.018H35.6474C35.6474 82.758 35.6474 82.108 35.6474 81.731C35.6474 81.367 35.6344 80.886 35.5824 80.6H36.7654ZM40.3404 83.148C40.1064 83.382 39.8204 83.681 39.6124 83.928C38.9364 84.721 37.8184 85.839 36.5834 86.684C35.1664 87.672 33.4634 88.426 31.2404 89.102L30.6034 88.14C33.0734 87.542 34.6984 86.697 35.8684 85.93C37.0384 85.176 38.0654 84.162 38.5204 83.551C37.9094 83.551 33.6974 83.551 33.1124 83.551C32.6704 83.551 31.9164 83.564 31.5264 83.603V82.498C31.9424 82.55 32.6574 82.576 33.0994 82.576C33.6974 82.576 38.0524 82.576 38.8324 82.576C39.1444 82.576 39.4434 82.55 39.6514 82.485L40.3404 83.148ZM36.6614 86.151C36.6614 87.152 36.6614 89.115 36.6614 90.116C36.6614 90.571 36.6874 91.156 36.7264 91.559H35.5434C35.5824 91.169 35.6214 90.571 35.6214 90.116C35.6214 89.141 35.6214 87.425 35.6214 86.593L36.6614 86.151ZM40.9384 89.258C39.8074 88.426 39.0274 87.906 37.8184 87.256L38.4944 86.502C39.7164 87.152 40.4184 87.568 41.6274 88.374L40.9384 89.258ZM45.5924 81.328C45.9304 81.367 46.3334 81.393 46.7494 81.393C47.4514 81.393 51.1044 81.393 51.8714 81.393C52.2744 81.393 52.7294 81.367 53.0414 81.328V82.407C52.7424 82.381 52.2874 82.368 51.8454 82.368C51.1174 82.368 47.4644 82.368 46.7494 82.368C46.3594 82.368 45.9434 82.381 45.5924 82.407V81.328ZM54.0034 84.747C53.9384 84.877 53.8474 85.033 53.8214 85.137C53.4834 86.411 52.8984 87.763 51.9234 88.829C50.5714 90.324 48.9334 91.078 47.2824 91.546L46.4764 90.623C48.3094 90.246 49.9344 89.401 51.0524 88.231C51.8324 87.412 52.3524 86.307 52.5864 85.358C51.9494 85.358 46.4764 85.358 45.6964 85.358C45.3844 85.358 44.8904 85.371 44.4224 85.41V84.318C44.8904 84.357 45.3324 84.396 45.6964 84.396C46.3334 84.396 51.8714 84.396 52.5344 84.396C52.8334 84.396 53.1194 84.357 53.2624 84.292L54.0034 84.747ZM62.3884 90.727C62.4404 90.532 62.4794 90.259 62.4794 89.999C62.4794 89.401 62.4794 83.031 62.4794 82.212C62.4794 81.718 62.4144 81.354 62.4144 81.25H63.6104C63.5974 81.354 63.5454 81.731 63.5454 82.225C63.5454 83.031 63.5454 89.323 63.5454 89.713C64.7544 89.167 66.3534 87.984 67.3414 86.515L67.9654 87.412C66.8344 88.933 65.0404 90.259 63.5324 91.013C63.3114 91.117 63.1814 91.234 63.0774 91.299L62.3884 90.727ZM56.4344 90.675C57.5394 89.895 58.3064 88.738 58.6964 87.477C59.0864 86.281 59.0864 83.694 59.0864 82.238C59.0864 81.861 59.0604 81.575 58.9954 81.302H60.1914C60.1784 81.445 60.1264 81.848 60.1264 82.225C60.1264 83.668 60.0874 86.463 59.7364 87.763C59.3464 89.154 58.5144 90.415 57.4224 91.325L56.4344 90.675ZM69.8504 81.9H80.3154V82.784H69.8504V81.9ZM70.5004 83.837H79.7434V84.682H70.5004V83.837ZM69.3304 85.787H80.8354V86.671H69.3304V85.787ZM69.2394 87.867H80.9654V88.738H69.2394V87.867ZM74.5564 82.394H75.5574V86.424H74.5564V82.394ZM71.5144 80.418L72.3594 80.067C72.8404 80.548 73.2954 81.224 73.5034 81.705L72.5934 82.121C72.4244 81.627 71.9824 80.912 71.5144 80.418ZM77.6244 80.067L78.6254 80.379C78.2094 80.977 77.7154 81.601 77.3384 82.03L76.4804 81.731C76.8704 81.289 77.3514 80.561 77.6244 80.067ZM74.5044 86.502H75.5314C75.1804 89.544 74.2314 91.286 69.5644 92.04C69.4864 91.793 69.2524 91.39 69.0704 91.182C73.4644 90.545 74.2184 89.102 74.5044 86.502ZM75.8174 88.127C76.5584 89.999 78.3134 90.896 81.1604 91.169C80.9394 91.377 80.6794 91.793 80.5624 92.066C77.5594 91.676 75.7914 90.584 74.9204 88.309L75.8174 88.127ZM85.8924 82.797L86.8284 83.096C85.9704 84.24 84.6444 85.319 83.4614 86.008C83.3184 85.813 82.9674 85.423 82.7594 85.241C83.9294 84.656 85.1514 83.746 85.8924 82.797ZM89.2074 83.343L89.8704 82.784C91.0664 83.473 92.5614 84.552 93.3024 85.293L92.5744 85.956C91.8724 85.202 90.4164 84.097 89.2074 83.343ZM88.1024 85.137C87.0364 86.541 84.9044 88.205 82.7334 89.258C82.6164 89.024 82.3694 88.66 82.1744 88.452C84.3714 87.451 86.5294 85.722 87.5564 84.24H88.5314C89.9224 85.904 92.1454 87.451 94.1474 88.27C93.9264 88.504 93.6924 88.868 93.5364 89.141C91.5994 88.231 89.3114 86.606 88.1024 85.137ZM84.5014 87.685H91.7034V92.001H90.7154V88.556H85.4504V92.053H84.5014V87.685ZM84.9564 90.74H91.2354V91.611H84.9564V90.74ZM87.5564 80.08H88.5574V81.783H87.5564V80.08ZM82.6554 81.289H93.5104V83.655H92.5224V82.173H83.6174V83.655H82.6554V81.289ZM105.912 82.875C105.808 83.057 105.678 83.356 105.613 83.564C105.262 84.877 104.469 86.632 103.312 88.049C102.129 89.492 100.569 90.675 98.1384 91.585L97.1894 90.727C99.5814 90.025 101.193 88.855 102.389 87.464C103.39 86.281 104.196 84.591 104.456 83.408H99.6464L100.062 82.472C100.582 82.472 103.793 82.472 104.196 82.472C104.547 82.472 104.846 82.433 105.054 82.355L105.912 82.875ZM101.557 80.912C101.349 81.25 101.115 81.692 100.985 81.926C100.218 83.369 98.8664 85.228 96.7734 86.606L95.8634 85.943C98.1124 84.604 99.3864 82.706 99.9584 81.549C100.088 81.315 100.283 80.847 100.361 80.509L101.557 80.912ZM117.664 81.146C117.638 81.458 117.625 81.835 117.625 82.277C117.625 82.784 117.625 83.889 117.625 84.37C117.625 87.503 117.209 88.53 116.26 89.635C115.428 90.649 114.128 91.221 113.179 91.546L112.321 90.649C113.517 90.337 114.622 89.83 115.428 88.907C116.351 87.841 116.52 86.775 116.52 84.331C116.52 83.824 116.52 82.732 116.52 82.277C116.52 81.835 116.481 81.458 116.442 81.146H117.664ZM111.632 81.25C111.606 81.497 111.593 81.874 111.593 82.173C111.593 82.563 111.593 85.969 111.593 86.515C111.593 86.853 111.606 87.282 111.632 87.516H110.449C110.475 87.308 110.501 86.892 110.501 86.515C110.501 85.956 110.501 82.563 110.501 82.173C110.501 81.952 110.488 81.497 110.449 81.25H111.632ZM121.902 85.371C122.305 85.41 122.981 85.449 123.722 85.449C124.671 85.449 129.884 85.449 130.846 85.449C131.496 85.449 131.951 85.397 132.25 85.371V86.645C131.977 86.632 131.431 86.593 130.859 86.593C129.871 86.593 124.684 86.593 123.722 86.593C123.007 86.593 122.318 86.619 121.902 86.645V85.371ZM139.982 81.315C139.852 81.627 139.709 81.965 139.527 82.524C139.111 83.85 137.603 88.517 137.044 89.83L135.874 89.869C136.524 88.374 138.032 83.668 138.422 82.29C138.591 81.692 138.643 81.393 138.682 81.042L139.982 81.315ZM142.452 85.67C143.362 86.996 144.792 89.622 145.325 90.961L144.246 91.442C143.726 90.038 142.4 87.334 141.464 86.099L142.452 85.67ZM135.367 89.557C137.239 89.466 141.893 88.946 143.57 88.699L143.856 89.713C142.049 89.947 137.265 90.467 135.432 90.649C135.107 90.675 134.717 90.727 134.353 90.779L134.145 89.583C134.535 89.596 134.99 89.583 135.367 89.557ZM152.509 91.182C151.001 91.182 150.507 90.233 150.507 88.829V84.903H149.454V84.019L150.559 83.941L150.689 81.952H151.69V83.941H153.601V84.903H151.69V88.855C151.69 89.713 151.963 90.22 152.782 90.22C153.029 90.22 153.354 90.116 153.575 90.025L153.809 90.909C153.419 91.052 152.951 91.182 152.509 91.182ZM155.303 94.055C154.978 94.055 154.705 94.003 154.484 93.912L154.718 92.963C154.848 93.015 155.056 93.067 155.251 93.067C156.044 93.067 156.551 92.417 156.85 91.546L157.006 91.013L154.172 83.941H155.394L156.837 87.867C157.058 88.491 157.292 89.206 157.526 89.856H157.591C157.786 89.206 157.994 88.504 158.176 87.867L159.45 83.941H160.607L157.942 91.598C157.448 92.989 156.72 94.055 155.303 94.055ZM161.979 93.977V83.941H162.941L163.058 84.76H163.097C163.734 84.227 164.514 83.772 165.333 83.772C167.166 83.772 168.141 85.189 168.141 87.373C168.141 89.778 166.698 91.182 165.073 91.182C164.436 91.182 163.773 90.883 163.136 90.363L163.162 91.598V93.977H161.979ZM164.891 90.181C166.048 90.181 166.919 89.128 166.919 87.386C166.919 85.813 166.386 84.76 165.047 84.76C164.449 84.76 163.851 85.098 163.162 85.735V89.453C163.799 89.986 164.423 90.181 164.891 90.181ZM172.887 91.182C171.002 91.182 169.507 89.804 169.507 87.49C169.507 85.189 171.054 83.772 172.679 83.772C174.473 83.772 175.487 85.059 175.487 87.087C175.487 87.334 175.474 87.581 175.435 87.763H170.677C170.768 89.258 171.678 90.233 173.03 90.233C173.706 90.233 174.265 90.012 174.785 89.661L175.214 90.454C174.59 90.857 173.849 91.182 172.887 91.182ZM170.664 86.905H174.447C174.447 85.488 173.81 84.721 172.692 84.721C171.704 84.721 170.82 85.514 170.664 86.905ZM179.461 91.182C177.966 91.182 177.043 90.558 176.419 89.869L177.017 89.089C177.576 89.674 178.291 90.194 179.383 90.194C180.514 90.194 181.32 89.531 181.32 88.491C181.32 87.386 180.553 86.645 178.356 86.645V85.735C180.319 85.735 180.982 84.968 180.982 83.993C180.982 83.096 180.371 82.524 179.383 82.524C178.616 82.524 177.94 82.927 177.407 83.473L176.77 82.719C177.485 82.056 178.33 81.575 179.422 81.575C181.021 81.575 182.191 82.42 182.191 83.915C182.191 85.033 181.515 85.748 180.501 86.125V86.177C181.619 86.437 182.529 87.269 182.529 88.53C182.529 90.181 181.164 91.182 179.461 91.182ZM193.822 83.252C193.536 83.421 193.211 83.603 192.821 83.798C191.95 84.253 190.143 85.111 188.869 85.943C187.66 86.736 186.932 87.594 186.932 88.569C186.932 89.648 187.972 90.324 190.026 90.324C191.43 90.324 193.172 90.142 194.186 89.882L194.173 91.052C193.198 91.221 191.69 91.364 190.065 91.364C187.621 91.364 185.853 90.636 185.853 88.686C185.853 87.282 186.802 86.177 188.336 85.163C189.662 84.279 191.482 83.408 192.327 82.927C192.704 82.706 192.99 82.537 193.263 82.316L193.822 83.252ZM187.244 80.886C187.842 82.55 188.648 84.175 189.246 85.228L188.362 85.761C187.699 84.695 186.919 82.94 186.217 81.328L187.244 80.886ZM201.427 83.317C202.168 83.395 202.87 83.434 203.637 83.434C205.197 83.434 206.796 83.317 208.109 83.044V84.045C206.731 84.279 205.145 84.383 203.624 84.383C202.87 84.383 202.194 84.357 201.44 84.305L201.427 83.317ZM205.977 80.99C205.938 81.25 205.912 81.523 205.899 81.77C205.873 82.251 205.86 83.174 205.86 83.941C205.86 85.943 206.055 87.971 206.055 89.31C206.055 90.376 205.561 91.416 203.806 91.416C202.064 91.416 201.115 90.714 201.115 89.544C201.115 88.452 202.077 87.594 203.793 87.594C205.977 87.594 207.498 88.699 208.59 89.687L208.031 90.545C206.666 89.271 205.353 88.387 203.702 88.387C202.727 88.387 202.051 88.816 202.051 89.44C202.051 90.116 202.688 90.467 203.637 90.467C204.729 90.467 205.041 89.921 205.041 89.05C205.041 88.114 204.872 85.683 204.872 83.967C204.872 83.07 204.859 82.251 204.859 81.796C204.859 81.562 204.846 81.224 204.807 80.99H205.977ZM199.568 81.081C199.49 81.289 199.386 81.718 199.334 81.952C199.074 83.161 198.684 85.735 198.684 87.191C198.684 87.828 198.723 88.374 198.814 89.011C199.022 88.413 199.347 87.62 199.568 87.087L200.101 87.503C199.776 88.413 199.295 89.739 199.165 90.376C199.126 90.558 199.1 90.818 199.113 90.961C199.126 91.091 199.139 91.286 199.152 91.416L198.229 91.494C197.982 90.558 197.735 89.128 197.735 87.373C197.735 85.462 198.177 82.979 198.333 81.913C198.385 81.601 198.411 81.263 198.424 80.977L199.568 81.081ZM211.567 88.127C211.255 85.865 213.569 85.033 213.569 83.499C213.569 82.719 213.088 82.082 212.165 82.082C211.515 82.082 210.93 82.394 210.475 82.914L209.799 82.29C210.41 81.614 211.229 81.094 212.282 81.094C213.764 81.094 214.726 81.991 214.726 83.421C214.726 85.332 212.373 86.086 212.62 88.127H211.567ZM212.126 91.182C211.645 91.182 211.268 90.805 211.268 90.272C211.268 89.726 211.645 89.362 212.126 89.362C212.594 89.362 212.984 89.726 212.984 90.272C212.984 90.805 212.594 91.182 212.126 91.182Z" fill="#333333"/>
<path d="M41.9174 47.2569C38.9718 50.9559 37.2347 53.6735 36.6305 55.4853C36.0263 57.2971 35.7242 58.8069 35.7242 59.8637C35.7242 60.9206 36.4039 61.5245 37.7634 61.5245C39.1229 61.5245 41.5398 60.5431 44.0321 58.5049C47.7329 55.5608 51.2827 51.7108 54.908 46.9549C55.2856 46.4265 55.6633 46.1245 56.1164 46.1245C56.7962 45.9735 57.1738 46.1245 57.1738 46.6529C57.1738 47.1814 57.0227 47.2569 56.7962 47.7098C48.5637 58.4294 41.6153 63.7892 36.0263 63.7892C30.4373 63.7892 31.3436 62.9588 29.7576 61.3735C28.9268 60.5431 28.5492 59.3353 28.5492 57.901C28.5492 56.4667 29.0023 54.7304 29.9086 52.6167C22.7336 60.0902 16.6159 63.7892 11.4046 63.7892C6.19324 63.7892 8.68562 63.4873 7.55272 62.9588C4.90929 61.751 3.5498 59.6373 3.5498 56.6931C3.5498 51.0314 7.32614 45.2941 14.9543 39.4814C19.2594 36.2353 24.5462 34.1216 30.7394 33.1402C32.401 32.8382 34.0626 32.6873 35.5731 32.6873C39.6516 32.6873 43.2013 33.5931 45.9958 35.4804C46.9022 36.0843 47.1287 36.6882 46.8266 37.2922C46.449 37.8961 45.6937 38.1225 44.5608 37.9716C43.579 35.8578 41.4642 34.8765 38.1411 34.8765C34.8179 34.8765 29.531 36.8392 23.942 40.7647C20.6944 43.1049 17.7488 45.8226 14.9543 48.9177C11.4801 52.6922 9.743 55.6363 9.743 57.901C9.743 60.1657 10.8759 61.298 13.0662 61.298C18.4286 61.298 25.4526 56.0137 34.1381 45.3696C35.7997 43.2559 37.2347 41.7461 38.4432 40.9912C39.5761 40.2363 41.0866 39.8588 42.8992 39.8588C44.7119 39.8588 44.1832 39.9343 45.6182 40.0853C47.1287 40.2363 48.1861 40.3118 48.8658 40.1608C47.2798 41.2176 45.014 43.5578 41.9929 47.1814L41.9174 47.2569Z" fill="#F4C9D0"/>
<path d="M88.6685 40.0853C88.6685 36.7637 86.5537 35.1784 82.3997 35.1784H81.3424C79.7563 35.3294 78.7745 35.1029 78.5479 34.5745C78.2458 34.0461 78.6989 33.7441 79.7563 33.5177C80.8137 33.3667 82.0221 33.2912 83.2305 33.4422C87.9132 33.8951 91.0853 35.3294 92.7469 37.6696C93.8798 39.1039 94.484 40.5382 94.484 41.8971C94.484 46.8794 91.6895 51.7108 86.025 56.5422C80.3605 61.3735 73.11 63.7892 64.1978 63.7892C55.2856 63.7892 58.2312 63.1853 56.1164 61.9775C54.0772 60.7696 53.0198 59.1843 53.0198 57.1461C53.0198 55.1078 55.1346 50.6539 59.4396 44.8412C52.1135 53.8245 47.3553 58.9578 45.2406 60.2412C44.3343 60.7696 43.8811 60.6186 43.8811 59.7127C43.8811 58.8069 43.9566 59.3353 44.1832 59.1088C47.2798 56.4667 53.5485 49.2196 62.9138 37.4431C72.2792 25.6667 78.7745 17.9667 82.5508 14.3431C85.5719 11.55 88.5174 10.1157 91.3874 10.1157H92.2182C92.2937 10.1157 93.1245 10.1912 94.5595 10.3422C96.0701 10.4931 97.1275 10.5686 97.8072 10.4177C94.8617 12.4559 90.179 16.4569 83.8347 22.5716C68.1252 37.6696 60.2704 48.9176 60.2704 56.3157C60.2704 63.7137 61.7809 61.0716 64.802 61.5245C65.1041 61.5245 65.4062 61.6 65.7083 61.6C68.5028 61.6 71.9771 60.0147 76.131 56.7686C80.285 53.598 83.6837 49.899 86.4027 45.8226C87.9132 43.7088 88.6685 41.7461 88.6685 40.0098V40.0853Z" fill="#F4C9D0"/>
<path d="M125.526 33.2912C132.021 33.2912 135.344 35.9333 135.344 41.2931C135.344 46.6529 134.362 46.351 132.399 49.0686C129.906 52.8431 126.13 56.2402 121.145 59.2598C122.278 60.6941 124.393 61.449 127.414 61.449C130.435 61.449 132.096 60.6941 134.287 59.1088C136.93 57.2971 138.894 55.7118 140.027 54.3529C141.16 52.9941 142.066 52.0127 142.595 51.3333C143.123 50.7294 143.803 49.8235 144.709 48.6157C145.54 47.4078 146.069 46.7284 146.22 46.4265C146.371 46.2 146.673 46.049 147.126 46.049C148.033 46.049 148.486 46.2 148.486 46.6529C148.486 47.1059 148.41 47.0304 148.184 47.2569L147.353 48.4647C146.824 49.2951 146.446 49.8235 146.144 50.201C145.842 50.5784 145.389 51.1823 144.709 52.0882C144.03 52.9941 143.425 53.6735 142.972 54.202C142.444 54.7304 141.839 55.4098 140.933 56.3157C140.102 57.1461 139.347 57.901 138.667 58.4294C137.987 58.9578 137.157 59.5618 136.175 60.1657C135.193 60.7696 134.287 61.298 133.38 61.6755C131.115 62.5059 129.075 62.9588 127.112 62.9588C123.411 62.9588 120.616 62.2039 118.502 60.6941C114.423 62.6569 110.571 63.6382 107.097 63.6382C100.602 63.6382 97.2786 60.9961 97.2786 55.6363C97.2786 50.2765 98.2604 50.5784 100.224 47.8608C102.868 43.7843 106.644 40.3872 111.553 37.5941C116.387 34.801 121.069 33.3667 125.45 33.3667L125.526 33.2912ZM127.036 36.0088C124.619 36.0088 121.749 37.0657 118.426 39.1039C115.103 41.2176 112.157 44.0108 109.589 47.5588C106.493 51.7108 104.907 55.1078 104.907 57.75C104.907 60.3922 106.493 61.751 109.589 61.751C112.686 61.751 114.348 60.9961 117.067 59.4108C115.632 58.052 114.952 56.6931 114.952 55.1833C115.103 52.6921 116.689 51.4843 119.634 51.4843C122.58 51.4843 121.749 51.7108 122.504 52.2392C123.26 52.7676 123.637 53.2206 123.637 53.6735C123.637 54.1265 123.562 54.5794 123.335 55.0323C124.846 53.598 126.583 51.5598 128.547 48.9176C130.812 45.9735 131.87 43.1049 131.87 40.2363C131.87 37.3676 130.208 36.0088 126.885 36.0088H127.036Z" fill="#F4C9D0"/>
<path d="M141.386 58.5804C141.386 56.0892 143.048 53.0696 146.371 49.5971C144.936 49.5971 144.558 49.1441 145.162 48.2382L147.579 45.2186C150.6 41.4441 153.093 38.2735 155.056 35.7069C155.963 34.499 157.7 33.8951 160.268 33.8951H168.425C165.177 35.4049 161.929 38.2735 158.682 42.5765C155.434 46.8794 152.866 50.2765 151.129 52.6922C149.316 55.1833 148.41 56.9951 148.41 58.2784C148.41 59.5618 148.712 60.4677 149.392 60.9961C150.072 61.5245 150.978 61.751 152.111 61.751C153.772 61.751 156.189 60.6186 159.21 58.2784C163.969 54.7304 170.615 47.1814 179.225 35.7069C180.207 34.499 181.944 33.8951 184.436 33.8951H191.687C189.723 34.8765 188.213 35.8579 187.08 36.9147C185.947 37.9716 184.436 39.7833 182.473 42.4255C177.11 49.3706 174.089 53.9755 173.485 56.1647C173.183 56.9951 173.107 57.75 173.107 58.4294C173.107 60.2412 174.089 61.2226 176.053 61.3735C180.887 61.3735 186.853 56.5422 193.877 46.8794C194.406 46.049 194.935 45.7471 195.463 45.8981C195.992 46.049 196.294 46.2755 196.294 46.5775C196.294 46.8794 195.916 47.5588 195.086 48.5402C194.255 49.5971 193.5 50.5784 192.744 51.5598C191.989 52.5412 190.856 53.9 189.27 55.5608C187.684 57.2971 186.249 58.5804 184.889 59.5618C181.415 62.1284 178.017 63.3363 174.618 63.3363C171.219 63.3363 168.953 62.3549 167.745 60.4677C167.216 59.6373 166.914 58.5049 166.914 57.1461C166.914 55.7873 167.367 54.202 168.274 52.2392C161.778 59.6373 155.736 63.3363 150.147 63.3363C144.558 63.3363 142.519 62.053 141.688 59.4108C141.386 59.1088 141.311 58.8069 141.311 58.3539L141.386 58.5804Z" fill="#F4C9D0"/>
<path d="M190.554 56.6931C190.554 51.9372 194.104 43.8598 201.279 32.6118H194.33C193.877 32.6118 193.575 32.4608 193.424 32.1588C193.273 31.8568 193.348 31.5549 193.575 31.1774C193.802 30.8755 194.104 30.7245 194.557 30.7245H202.638C205.886 26.1951 208.831 22.3451 211.626 19.3255C214.42 16.2304 216.913 14.1921 219.254 13.1353C221.595 12.0784 223.257 11.55 224.314 11.55C225.372 11.55 226.052 11.55 226.505 11.701C228.544 12.3049 229.601 13.6637 229.601 15.6265C229.601 17.5892 228.544 20.0049 226.505 22.8735C224.465 25.6667 222.426 28.3088 220.463 30.7245H226.882C227.335 30.7245 227.638 30.8755 227.789 31.1774C227.94 31.4794 227.864 31.7814 227.638 32.1588C227.411 32.4608 227.109 32.6118 226.656 32.6118H218.876C213.967 37.9716 208.001 42.7274 201.052 46.8794L197.956 55.7118C197.653 56.4667 197.578 57.2216 197.578 57.901C197.578 58.5804 197.88 59.3353 198.484 60.0902C199.088 60.8451 200.07 61.2225 201.43 61.2225C202.789 61.2225 204.677 60.8451 206.49 60.1657C210.795 58.0519 215.553 53.749 220.689 47.1059C221.067 46.5774 221.444 46.2755 221.973 46.1245C222.426 45.9735 222.728 46.1245 222.879 46.351C222.955 46.5774 222.879 47.0304 222.502 47.6343C219.556 51.6353 217.215 54.4284 215.553 56.0892C210.72 61.147 205.584 63.6382 200.146 63.6382C194.708 63.6382 195.086 62.9588 193.273 61.6755C191.46 60.3166 190.629 58.6559 190.629 56.6176L190.554 56.6931ZM215.78 32.6118H209.511C208.454 34.197 206.037 38.047 202.261 44.1618C207.094 40.9157 211.626 37.0657 215.78 32.6118ZM217.517 30.7245C223.408 23.9304 226.354 19.1745 226.354 16.5323C226.354 13.8902 226.052 14.7961 225.447 14.7961C224.465 14.7961 222.955 15.7019 220.991 17.5892C218.952 19.401 215.629 23.8549 210.871 30.7245H217.593H217.517Z" fill="#F4C9D0"/>
</svg>
