<svg width="249" height="50" viewBox="0 0 249 50" fill="none" xmlns="http://www.w3.org/2000/svg">
<path d="M26.5226 43.1774C26.5226 44.4931 27.1049 45.1429 28.2696 45.1429C31.0092 45.1429 34.9002 41.0169 39.9295 32.7485C40.3398 32.0987 40.6971 31.8388 41.028 31.9688C41.3456 32.115 41.5044 32.2937 41.5044 32.5373C41.5044 32.781 41.1735 33.447 40.4986 34.5516C39.8236 35.6562 39.1486 36.7121 38.4869 37.7193C37.8119 38.7264 36.8325 40.0584 35.5487 41.6991C32.8621 44.9805 29.9901 46.6374 26.9593 46.6374C24.9741 46.6374 23.3992 45.9876 22.2213 44.6718C21.6919 44.0546 21.4272 43.2261 21.4272 42.1702C21.4272 41.1143 21.7184 39.831 22.3007 38.3366C22.883 36.8421 24.4977 34.3892 27.1182 31.0104C27.7667 30.1657 28.0843 29.4996 28.0843 28.9961C28.0843 28.4925 27.5814 28.2488 26.5888 28.2488C25.5962 28.2488 23.6903 29.3047 20.8846 31.4165C16.6759 34.5191 12.5863 39.165 8.61588 45.3703C8.2056 46.0688 7.12034 46.4262 5.37334 46.4262C3.7984 46.5237 2.80579 46.6536 2.39551 46.8486C13.526 28.2976 21.5595 15.3508 26.5226 8.02466C27.6343 6.38399 28.6137 5.23064 29.4607 4.58087C30.3078 3.9311 31.3136 3.58997 32.4915 3.58997C32.7827 3.58997 33.3915 3.65494 34.3311 3.76865C35.2708 3.88236 35.9723 3.91485 36.4355 3.88236C34.6885 5.34435 31.5386 9.37294 27.0123 15.9681C22.486 22.5633 18.1449 29.2722 13.9892 36.0786C16.7288 33.3008 19.2037 31.1403 21.4007 29.5971C23.5977 28.0539 26.2711 26.5757 29.421 25.1949C32.5709 23.8141 34.887 23.1156 36.3428 23.1156C36.6869 23.1156 37.0178 23.1644 37.309 23.2618C30.1225 33.3983 26.5226 40.0585 26.5226 43.1936V43.1774Z" fill="#F4C9D0"/>
<path d="M55.9834 21.7024C60.245 21.7024 62.3891 23.8629 62.3891 28.1839C62.3891 30.1495 61.7406 32.2775 60.4568 34.5192C58.8157 37.5731 56.3672 40.3509 53.0982 42.8363C53.8526 44.0059 55.229 44.5906 57.2143 44.5906C58.7892 44.5906 60.2847 43.9571 61.6876 42.6901C63.4346 41.2281 64.6919 39.961 65.4596 38.8564C66.2139 37.7518 66.7698 36.9396 67.1271 36.4198C67.4845 35.8999 67.9345 35.1689 68.4903 34.1943C69.0462 33.2359 69.3771 32.6511 69.4962 32.4399C69.6153 32.2287 69.8138 32.115 70.105 32.115C70.6873 32.0663 70.9785 32.2287 70.9785 32.6023C70.9785 32.7485 70.9255 32.911 70.8064 33.0897L70.277 34.0806C69.9197 34.7303 69.6682 35.2014 69.4829 35.4938C69.3109 35.77 69.0065 36.2736 68.5565 37.0046C68.1198 37.7355 67.7359 38.3041 67.4183 38.7265C67.1007 39.1488 66.6639 39.7174 66.1081 40.4159C65.5522 41.1144 65.0625 41.6829 64.6125 42.1053C64.1758 42.5276 63.6332 42.9987 62.9846 43.5185C62.3361 44.0383 61.7273 44.4282 61.145 44.7206C59.6892 45.4191 58.3128 45.7765 57.029 45.7765C54.6335 45.7765 52.7674 45.1592 51.4174 43.9409C48.7307 45.5328 46.2426 46.3288 43.9662 46.3288C39.7046 46.3288 37.5605 44.1683 37.5605 39.8473C37.5605 37.8817 38.2091 35.7537 39.4928 33.512C41.2398 30.2307 43.7147 27.4367 46.9043 25.13C50.0939 22.8233 53.1115 21.6699 55.9834 21.6699V21.7024ZM56.9496 23.8791C55.3746 23.8791 53.4953 24.7239 51.338 26.4133C49.1807 28.1027 47.2484 30.4094 45.5544 33.3171C43.503 36.6959 42.4839 39.4737 42.4839 41.6342C42.4839 43.7947 43.503 44.8668 45.5544 44.8668C47.0102 44.8668 48.6513 44.2333 50.4645 42.9662C49.5248 41.8941 49.0616 40.7407 49.0616 39.5062C49.1807 37.4919 50.1998 36.4847 52.1321 36.4847C52.8865 36.4847 53.5217 36.6959 54.0114 37.1183C54.5011 37.5406 54.7526 37.9305 54.7526 38.2879C54.7526 38.6452 54.6996 39.0026 54.5805 39.3762C55.5731 38.2066 56.7113 36.5335 57.9951 34.373C59.4509 31.9851 60.1921 29.6296 60.1921 27.3229C60.1921 25.0162 59.1068 23.8629 56.9496 23.8629V23.8791Z" fill="#F4C9D0"/>
<path d="M108.486 21.7674L108.049 22.9695C105.481 29.8246 103.139 34.8441 101.035 38.0442C97.2362 43.681 93.0805 46.4912 88.5806 46.4912C86.4763 46.4912 85.0469 46.0526 84.2793 45.1917C83.5249 44.3307 83.1014 43.5348 83.0087 42.8363C82.9161 42.1378 82.8764 41.5205 82.8764 41.0007C82.8764 39.7336 83.1411 38.3528 83.6705 36.8421C79.3427 43.1774 75.4649 46.345 72.0106 46.345C70.7268 46.345 69.5622 46.0526 68.5034 45.4678C67.4578 44.883 66.8093 44.0871 66.5711 43.1124C66.399 42.885 66.3064 42.5926 66.3064 42.2677C66.3064 40.2534 67.3917 37.8005 69.5489 34.9415C68.6093 34.9415 68.3446 34.5679 68.7548 33.8207L70.3298 31.3515C73.1885 26.8519 74.8296 24.2528 75.2399 23.603C75.8222 22.6121 76.9604 22.1248 78.6545 22.1248H84.0014C81.897 23.3431 79.7794 25.6985 77.6486 29.2073C75.5178 32.6998 73.8767 35.4451 72.7385 37.4107C71.6003 39.3762 71.0312 40.9032 71.0312 41.9591C71.0312 43.0149 71.2562 43.7622 71.693 44.217C72.1297 44.6719 72.6988 44.883 73.4003 44.883C74.1017 44.883 74.9487 44.4932 75.9414 43.7135C76.934 42.9337 77.8339 42.1053 78.6545 41.2118C79.475 40.3184 80.3088 39.3112 81.1559 38.1904C82.0029 37.0695 82.7838 35.9974 83.4852 34.9903C84.1866 33.9831 84.941 32.8135 85.7616 31.4652C86.5822 30.1332 87.2174 29.0773 87.6939 28.3301C89.3879 25.601 90.3276 24.0253 90.4997 23.603C91.029 22.6121 92.1408 22.1248 93.8348 22.1248H99.1817C99.0626 22.2222 98.745 22.4009 98.2156 22.6933C97.0509 23.3106 96.2039 23.9929 95.6745 24.7401C93.0407 28.2651 91.2011 31.1079 90.1556 33.2684C87.813 38.0604 86.6483 41.1306 86.6483 42.4951C86.6483 44.1845 87.4424 45.0617 89.0174 45.0942H89.4541C93.6628 45.0942 97.8053 41.0007 101.908 32.8298C101.088 31.4165 100.677 30.1332 100.677 28.9474C100.677 27.7615 100.849 26.7219 101.207 25.7797C102.199 23.0507 103.774 21.3938 105.945 20.7765C106.355 20.6303 106.739 20.5653 107.083 20.5653C108.023 20.5653 108.486 20.9714 108.486 21.7674Z" fill="#F4C9D0"/>
<path d="M112.35 40.7245C112.35 36.8259 114.693 30.2957 119.365 21.1339H114.812C114.521 21.1339 114.336 21.0039 114.243 20.744C114.15 20.4841 114.19 20.2242 114.336 19.9643C114.481 19.7044 114.706 19.5744 114.997 19.5744H120.252C122.356 15.8707 124.315 12.7681 126.128 10.2827C127.941 7.79729 129.609 6.10788 131.131 5.24693C132.653 4.38598 133.751 3.94739 134.413 3.94739C135.075 3.94739 135.564 3.99612 135.855 4.09359C137.192 4.6134 137.867 5.68553 137.867 7.29372C137.867 8.9019 137.192 10.8675 135.855 13.1742C134.505 15.4809 133.195 17.6089 131.911 19.5907H136.12C136.411 19.5907 136.597 19.7206 136.689 19.9805C136.782 20.2404 136.742 20.5003 136.597 20.7603C136.451 21.0202 136.226 21.1501 135.935 21.1501H130.853C127.637 25.5198 123.746 29.386 119.193 32.781L117.181 39.961C117.009 40.5783 116.916 41.1631 116.916 41.7642C116.916 42.3652 117.115 42.95 117.525 43.5673C117.935 44.1846 118.584 44.477 119.457 44.477C120.45 44.477 121.562 44.2008 122.793 43.6322C125.598 41.9428 128.695 38.4016 132.083 32.9922C132.322 32.5699 132.6 32.31 132.917 32.2125C133.235 32.115 133.433 32.18 133.486 32.3912C133.539 32.6024 133.46 32.9435 133.222 33.4146C131.289 36.6472 129.767 38.9539 128.669 40.3184C125.519 44.412 122.157 46.4425 118.584 46.4425C116.771 46.4425 115.275 45.9065 114.111 44.8181C112.946 43.746 112.364 42.3814 112.364 40.7245H112.35ZM128.828 21.1339H124.712C124.01 22.4497 122.435 25.5686 119.974 30.5068C123.123 27.8753 126.075 24.7564 128.828 21.1339ZM129.966 19.5907C133.817 14.0514 135.75 10.2014 135.75 8.04095C135.75 7.09878 135.538 6.6277 135.141 6.6277C134.492 6.6277 133.513 7.37494 132.203 8.88566C130.892 10.3964 128.682 13.9539 125.585 19.5907H129.966Z" fill="#F4C9D0"/>
<path d="M148.032 21.7024C152.293 21.7024 154.437 23.8629 154.437 28.1839C154.437 30.1495 153.789 32.2775 152.505 34.5192C150.864 37.5731 148.415 40.3509 145.146 42.8363C145.901 44.0059 147.277 44.5906 149.262 44.5906C150.837 44.5906 152.333 43.9571 153.736 42.6901C155.483 41.2281 156.74 39.961 157.508 38.8564C158.262 37.7518 158.818 36.9396 159.175 36.4198C159.533 35.8999 159.983 35.1689 160.538 34.1943C161.094 33.2359 161.425 32.6511 161.544 32.4399C161.663 32.2287 161.862 32.115 162.153 32.115C162.735 32.0663 163.027 32.2287 163.027 32.6023C163.027 32.7485 162.974 32.911 162.855 33.0897L162.325 34.0806C161.968 34.7303 161.716 35.2014 161.531 35.4938C161.359 35.77 161.055 36.2736 160.605 37.0046C160.168 37.7355 159.784 38.3041 159.466 38.7265C159.149 39.1488 158.712 39.7174 158.156 40.4159C157.6 41.1144 157.111 41.6829 156.661 42.1053C156.224 42.5276 155.681 42.9987 155.033 43.5185C154.384 44.0383 153.775 44.4282 153.193 44.7206C151.737 45.4191 150.361 45.7765 149.077 45.7765C146.682 45.7765 144.815 45.1592 143.466 43.9409C140.779 45.5328 138.291 46.3288 136.014 46.3288C131.753 46.3288 129.609 44.1683 129.609 39.8473C129.609 37.8817 130.257 35.7537 131.541 33.512C133.288 30.2307 135.763 27.4367 138.952 25.13C142.142 22.8233 145.16 21.6699 148.032 21.6699V21.7024ZM148.984 23.8791C147.409 23.8791 145.53 24.7239 143.373 26.4133C141.216 28.1027 139.283 30.4094 137.589 33.3171C135.538 36.6959 134.519 39.4737 134.519 41.6342C134.519 43.7947 135.538 44.8668 137.589 44.8668C139.045 44.8668 140.686 44.2333 142.499 42.9662C141.56 41.8941 141.096 40.7407 141.096 39.5062C141.216 37.4919 142.235 36.4847 144.167 36.4847C144.921 36.4847 145.557 36.6959 146.046 37.1183C146.536 37.5406 146.787 37.9305 146.787 38.2879C146.787 38.6452 146.735 39.0026 146.615 39.3762C147.608 38.2066 148.746 36.5335 150.03 34.373C151.486 31.9851 152.227 29.6296 152.227 27.3229C152.227 25.0162 151.142 23.8629 148.984 23.8629V23.8791Z" fill="#F4C9D0"/>
<path d="M167.05 42.2677C167.05 40.2534 168.135 37.8005 170.293 34.9415C169.353 34.9415 169.088 34.5679 169.498 33.8207L171.073 31.3515C173.059 28.2976 174.7 25.7147 175.984 23.603C176.566 22.6121 177.704 22.1248 179.398 22.1248H184.745C182.641 23.3431 180.523 25.6985 178.392 29.2073C176.261 32.6998 174.607 35.4451 173.442 37.4431C172.278 39.4412 171.695 40.9519 171.695 41.9916C171.695 43.0312 171.92 43.7459 172.357 44.1683C172.794 44.5906 173.39 44.8018 174.157 44.8018C175.269 44.8018 176.817 43.8596 178.803 41.9916C181.9 39.0838 186.254 32.9435 191.865 23.603C192.514 22.6121 193.652 22.1248 195.28 22.1248H200.018C198.734 22.9207 197.728 23.7492 197 24.5939C196.273 25.4386 195.267 26.9493 193.97 29.1098C190.462 34.7466 188.504 38.4828 188.093 40.3184C187.921 40.9682 187.829 41.5854 187.829 42.154C187.829 43.6647 188.477 44.4607 189.761 44.5419C192.911 44.5419 196.802 40.627 201.421 32.781C201.765 32.1313 202.122 31.8713 202.466 32.0013C202.811 32.1475 202.996 32.3262 202.996 32.5698C202.996 32.8135 202.731 33.3496 202.202 34.1943C201.672 35.039 201.169 35.8674 200.666 36.6634C200.164 37.4594 199.409 38.5478 198.39 39.9448C197.371 41.3255 196.418 42.4139 195.545 43.2261C193.268 45.2891 191.032 46.3288 188.835 46.3288C186.638 46.3288 185.142 45.5491 184.321 44.0058C183.964 43.3073 183.792 42.4139 183.792 41.3255C183.792 40.2372 184.083 38.9051 184.666 37.3132C180.404 43.3236 176.46 46.3288 172.834 46.3288C169.684 46.3288 167.831 45.2729 167.315 43.1611C167.143 42.9337 167.05 42.6413 167.05 42.3164V42.2677Z" fill="#F4C9D0"/>
<path d="M208.859 45.013C209.613 45.1105 210.143 45.1592 210.434 45.1592C212.776 45.1592 215.079 44.0546 217.356 41.8454C218.586 40.627 220.77 37.5406 223.933 32.6186C224.052 32.3912 224.251 32.2612 224.542 32.2612C225.072 32.2125 225.336 32.3749 225.336 32.7485C225.336 32.846 225.204 33.1059 224.939 33.5608C224.674 34.0156 224.423 34.4542 224.198 34.8928C223.96 35.3476 223.589 35.9812 223.06 36.8259C222.53 37.6706 222.08 38.3528 221.697 38.8727C221.313 39.3925 220.836 40.026 220.254 40.7732C219.672 41.5205 219.089 42.1053 218.507 42.5276L216.667 44.0708C215.675 44.8668 214.51 45.4354 213.16 45.7602C211.003 46.3288 208.899 46.3775 206.847 45.9064C205.497 46.3775 204.306 46.605 203.247 46.605C199.092 46.605 196.59 45.2892 195.703 42.6576C195.531 42.0403 195.439 41.3093 195.439 40.4321C195.439 39.5549 195.809 38.7265 196.537 37.9305C197.265 37.1345 198.046 36.7122 198.867 36.6634C201.844 32.115 204.385 28.0052 206.49 24.334C208.832 20.3379 211.545 18.3398 214.642 18.3398C215.463 18.3398 216.27 18.486 217.051 18.7947C217.845 19.1033 218.136 19.4445 217.925 19.8181C217.713 20.1917 217.289 20.2729 216.654 20.0293C216.006 19.8018 215.45 19.6719 214.987 19.6719C214.523 19.6719 214.113 19.7369 213.756 19.8831C211.77 20.6303 210.778 22.2547 210.778 24.7401C210.778 26.0559 211.016 27.128 211.479 27.9727C211.943 28.8174 212.472 29.7271 213.054 30.718C214.404 33.1547 215.066 35.1527 215.066 36.7122C215.066 38.2716 214.457 39.7823 213.226 41.2931C211.995 42.8038 210.54 44.0221 208.846 44.948L208.859 45.013ZM199.303 42.6251C199.303 42.9012 199.33 43.2099 199.396 43.5348C199.859 44.8018 200.944 45.4354 202.638 45.4354C203.34 45.4354 203.922 45.3379 204.385 45.1592C202.228 44.0871 201.05 42.3165 200.878 39.8798C199.833 40.7245 199.303 41.6342 199.303 42.6251ZM205.881 44.5257C208.449 42.9337 209.732 40.3509 209.732 36.7771C209.732 35.3152 209.521 33.3171 209.124 30.783C208.713 28.2489 208.515 26.527 208.515 25.6335C208.515 24.7401 208.541 24.1391 208.607 23.7979C204.16 30.9454 201.421 35.2827 200.362 36.8259C201.593 36.8259 202.202 37.5244 202.202 38.9376C202.202 41.7154 203.433 43.5673 205.881 44.5094V44.5257Z" fill="#F4C9D0"/>
<path d="M227.626 35.51C226.805 37.102 226.395 38.8889 226.395 40.8707C226.395 42.1865 226.765 43.2261 227.493 44.0058C228.221 44.7855 229.267 45.1754 230.604 45.1754C235.924 45.1754 240.741 41.1631 245.069 33.1221C245.48 32.3749 245.969 32.05 246.565 32.1312C246.803 32.18 246.922 32.2937 246.922 32.4886C246.922 32.6835 246.26 33.9019 244.95 36.1923C243.64 38.4665 242.303 40.3184 240.966 41.7154C237.989 44.9967 234.309 46.6536 229.915 46.6536C227.573 46.6536 225.588 46.0364 223.96 44.818C222.319 43.5997 221.511 41.9265 221.511 39.8148C221.511 37.703 222.133 35.4613 223.391 33.0896C224.648 30.718 226.355 28.5087 228.512 26.462C230.67 24.4152 233.158 22.9369 235.964 21.9948C237.3 21.5237 238.597 21.2963 239.815 21.2963C241.033 21.2963 242.184 21.5724 243.23 22.141C244.222 22.807 244.725 23.5217 244.725 24.3177C244.725 27.128 242.621 29.8408 238.412 32.4236C237.128 33.2196 235.315 33.9343 232.973 34.5679C230.63 35.2014 228.857 35.5263 227.626 35.5263V35.51ZM242.356 24.2365C242.356 23.2943 241.893 22.8232 240.953 22.8232C239.312 22.8232 236.837 24.4477 233.502 27.6803C231.517 29.6458 229.757 31.8551 228.248 34.308C229.24 34.308 230.683 34.0318 232.589 33.4633C234.481 32.8947 236.136 32.1475 237.539 31.2053C240.755 28.9961 242.356 26.6731 242.356 24.2365Z" fill="#F4C9D0"/>
</svg>
