<svg width="195" height="71" viewBox="0 0 195 71" fill="none" xmlns="http://www.w3.org/2000/svg">
<path d="M45.9204 23.9897L45.2043 25.6505C40.3998 35.4309 35.9879 42.5586 31.9456 47.0566C26.0092 53.5846 19.8188 56.837 13.328 56.837C8.06149 56.837 5.42822 55.1762 5.42822 51.8546C5.42822 49.3403 6.83725 45.4189 9.6553 40.1366C8.70825 41.1284 7.99219 41.4514 7.46092 41.1054C6.95274 40.7594 6.83725 40.3442 7.11443 39.8598L9.6553 36.7227C11.4339 34.3237 12.3348 31.9247 12.3348 29.5258C12.3348 27.1268 11.5725 25.7197 10.0711 25.2815C15.7072 24.6587 19.0103 24.3818 19.9574 24.4049C20.9044 24.428 21.4819 24.7048 21.7129 25.1892C21.9439 25.6736 22.0594 26.2272 22.0594 26.85C22.0594 30.6099 20.581 35.0388 17.6244 40.1366C14.6677 45.2343 13.1894 48.6713 13.1894 50.4244C13.1894 52.1775 13.6052 53.1924 14.4599 53.4692C15.3145 53.746 16.1461 53.8844 17.0007 53.8844C19.4492 53.8844 22.221 52.5927 25.3163 50.0092C28.4115 47.4257 31.5299 43.6197 34.6251 38.568C33.3085 36.6073 32.6386 34.8542 32.6386 33.3549C32.6386 31.8555 32.9158 30.5177 33.4933 29.3412C35.1795 25.8351 37.8589 23.6437 41.5316 22.7902C42.2939 22.6057 42.9869 22.5134 43.6567 22.5134C45.1581 22.5134 45.9204 22.9978 45.9204 23.9897Z" fill="white"/>
<path d="M71.052 23.8972C77.9123 23.8972 81.354 26.7344 81.354 32.3858C81.354 34.9693 80.3146 37.7374 78.2588 40.6899C75.6255 44.6805 71.6756 48.3251 66.4091 51.5775C67.6333 53.123 69.8508 53.8842 73.0385 53.8842C75.5793 53.8842 77.9816 53.0538 80.2453 51.393C83.0633 49.4784 85.096 47.8176 86.3202 46.3644C87.5445 44.9112 88.4453 43.8501 88.9997 43.1812C89.5541 42.5122 90.2932 41.5434 91.1941 40.2747C92.0949 39.0061 92.6262 38.2448 92.811 37.968C92.9958 37.6912 93.3192 37.5528 93.8043 37.5528C94.7513 37.4836 95.2133 37.7143 95.2133 38.1987C95.2133 38.3832 95.1209 38.5908 94.9361 38.8446L94.0814 40.1363C93.5271 40.9898 93.0882 41.6126 92.811 41.9817C92.5338 42.3508 92.0257 43.0197 91.3327 43.9654C90.6397 44.9112 90.0161 45.6724 89.5079 46.226C88.9997 46.7796 88.2837 47.5177 87.3828 48.4404C86.4819 49.3631 85.6966 50.1012 84.9805 50.6549C84.2645 51.2085 83.4098 51.8313 82.3704 52.5002C81.3309 53.1691 80.3377 53.6997 79.4137 54.0688C77.0576 54.9914 74.8402 55.4528 72.7844 55.4528C68.9269 55.4528 65.924 54.6454 63.7527 53.0538C59.4333 55.1529 55.4372 56.1909 51.7645 56.1909C44.9041 56.1909 41.4624 53.3537 41.4624 47.7023C41.4624 45.1188 42.5018 42.3508 44.5576 39.3982C47.3757 35.0847 51.3487 31.4401 56.4766 28.4183C61.6045 25.3966 66.4784 23.8972 71.0751 23.8972H71.052ZM72.5996 26.7575C70.0587 26.7575 67.0559 27.8647 63.5679 30.0792C60.08 32.2936 56.9848 35.3153 54.2591 39.1214C50.956 43.5502 49.316 47.1717 49.316 50.009C49.316 52.8462 50.956 54.2533 54.2591 54.2533C56.6152 54.2533 59.2485 53.4229 62.1589 51.7621C60.6575 50.355 59.8952 48.8326 59.8952 47.2409C60.08 44.5882 61.72 43.2734 64.8384 43.2734C66.0626 43.2734 67.079 43.5502 67.8643 44.1038C68.6728 44.6575 69.0655 45.1649 69.0655 45.6263C69.0655 46.0876 68.9731 46.572 68.7883 47.0564C70.3821 45.5109 72.23 43.3426 74.2858 40.5054C76.6419 37.3683 77.8199 34.3004 77.8199 31.2786C77.8199 28.2569 76.0875 26.7575 72.5996 26.7575Z" fill="white"/>
<path d="M98.1467 54.1611C99.9253 54.1611 101.819 53.5844 103.783 52.408C107.271 50.1244 111.683 45.4879 117.041 38.4756C117.711 37.5529 118.358 37.2761 119.028 37.6452C119.213 37.7605 119.305 37.9681 119.305 38.2449C119.305 38.5217 118.936 39.1906 118.173 40.2748C117.411 41.3589 116.741 42.3277 116.118 43.1812C115.494 44.0347 114.339 45.4418 112.583 47.3794C110.828 49.317 109.257 50.8164 107.848 51.8544C103.991 54.7377 100.341 56.191 96.8993 56.191C93.4576 56.191 90.9861 55.522 89.4846 54.1611C87.9832 52.8001 87.2209 51.3008 87.2209 49.64C87.2209 47.9791 87.8215 46.1569 89.0458 44.1962L98.0774 29.1565C98.2622 28.7875 98.3546 28.3031 98.3546 27.6802C98.3546 27.0574 97.8002 26.2732 96.6684 25.2813L104.43 25.189C106.601 25.189 107.871 25.4428 108.241 25.9733C108.61 26.5038 108.333 27.3112 107.386 28.4184L96.0909 45.6724C94.4971 47.9561 93.6886 49.8937 93.6886 51.4853C93.6886 53.2615 95.1438 54.1611 98.0543 54.1611H98.1467ZM111.96 20.2988C110.643 21.037 109.188 21.406 107.594 21.406C106 21.406 104.73 21.037 103.783 20.2988C102.836 19.5607 102.466 18.6611 102.651 17.6231C102.928 16.5851 103.737 15.6854 105.053 14.9473C106.37 14.2092 107.825 13.8401 109.419 13.8401C111.013 13.8401 112.306 14.2092 113.299 14.9473C114.293 15.6854 114.639 16.5851 114.362 17.6231C114.085 18.6611 113.276 19.5607 111.96 20.2988Z" fill="white"/>
<path d="M143.166 34.9696C146.469 32.3861 148.109 30.1947 148.109 28.4185C148.109 26.6424 146.978 25.7428 144.714 25.7428C140.279 25.7428 135.266 28.3955 129.607 33.6778C127.829 35.3386 126.073 37.53 124.387 40.2288C122.701 42.9276 121.846 45.3727 121.846 47.5641C121.846 49.7555 122.516 51.5085 123.902 52.8695C125.265 54.2304 127.39 54.8994 130.254 54.8994C133.118 54.8994 135.775 54.4611 138.223 53.5615C140.672 52.6619 143.005 51.2548 145.199 49.3172C147.416 47.3796 149.08 45.7649 150.211 44.4731C151.343 43.1814 152.891 41.2438 154.877 38.6603C155.524 37.8068 156.102 37.4377 156.564 37.5992C157.026 37.7606 157.28 37.9683 157.28 38.2451C157.28 38.5219 156.633 39.5368 155.362 41.2899C154.092 43.043 152.822 44.6807 151.551 46.2262C150.281 47.7717 148.479 49.4786 146.123 51.3932C141.896 54.8302 136.098 56.5602 128.776 56.5602C123.509 56.5602 119.721 55.7067 117.411 54.0228C115.101 52.3389 113.946 50.3783 113.946 48.1638C113.946 45.465 114.963 42.5124 116.972 39.3061C119.005 36.0998 121.315 33.3318 123.948 31.002C129.399 26.1349 135.705 23.7129 142.866 23.7129C146.354 23.7129 148.872 24.2434 150.419 25.3276C151.967 26.4117 152.752 27.6573 152.752 29.0644C152.752 31.1635 151.436 32.9397 148.802 34.4159C147.486 35.2233 146.377 35.6154 145.476 35.6154C144.575 35.6154 143.813 35.4078 143.143 34.9696H143.166Z" fill="white"/>
<path d="M160.098 41.9818C158.781 44.0809 158.111 46.4107 158.111 48.9942C158.111 50.7242 158.689 52.0851 159.867 53.1001C161.045 54.115 162.708 54.6225 164.879 54.6225C173.449 54.6225 181.21 49.3632 188.163 38.8447C188.81 37.8528 189.618 37.4376 190.565 37.553C190.935 37.6222 191.119 37.7606 191.119 38.0143C191.119 38.2681 190.057 39.8827 187.955 42.8584C185.83 45.834 183.705 48.256 181.533 50.1014C176.729 54.4149 170.816 56.5601 163.747 56.5601C159.982 56.5601 156.795 55.7528 154.161 54.1612C151.528 52.5695 150.211 50.3782 150.211 47.6102C150.211 44.8421 151.228 41.9126 153.237 38.7986C155.247 35.6846 158.019 32.8012 161.484 30.1254C164.948 27.4497 168.968 25.489 173.472 24.2664C175.643 23.6436 177.699 23.3438 179.685 23.3438C181.672 23.3438 183.497 23.7128 185.183 24.451C186.777 25.3044 187.585 26.2733 187.585 27.3113C187.585 31.002 184.19 34.5312 177.422 37.922C175.343 38.9601 172.432 39.9058 168.667 40.7362C164.902 41.5666 162.038 41.9818 160.052 41.9818H160.098ZM183.797 27.219C183.797 25.9964 183.035 25.3736 181.533 25.3736C178.9 25.3736 174.904 27.4958 169.545 31.7401C166.357 34.3236 163.516 37.207 161.068 40.4133C162.662 40.4133 164.995 40.0442 168.044 39.3061C171.093 38.5679 173.749 37.576 176.013 36.3535C181.187 33.4701 183.774 30.4253 183.774 27.219H183.797Z" fill="white"/>
</svg>
