<?xml version="1.0" encoding="UTF-8"?>
<svg id="_レイヤー_1" data-name="レイヤー 1" xmlns="http://www.w3.org/2000/svg" width="14" height="15" viewBox="0 0 14 15">
  <defs>
    <style>
      .cls-1 {
        fill: #ccc;
      }
    </style>
  </defs>
  <path class="cls-1" d="M7.2,12.7c-.4,0-.6-.1-.8-.4-.2-.3-.2-.6-.2-1s0-.7.1-1c.1-.3.2-.6.4-.8-.2.3-.5.6-.9.9s-.7.7-1.1,1-.8.6-1.3.8c-.4.2-.9.3-1.3.3s-1-.2-1.3-.5c-.3-.4-.4-.8-.4-1.5s0-1,.2-1.5c.2-.6.4-1.1.7-1.7.2-.3.3-.6.5-.8.2-.3.4-.5.6-.8-.3-.1-.5-.3-.8-.4-.2-.2-.4-.4-.6-.6-.2-.2-.2-.5-.2-.8s0-.3.1-.4c0-.1.2-.2.2-.2s.1,0,.1.1,0,.1,0,.2c0,.1,0,.2,0,.3,0,.2,0,.4.2.6.2.2.4.4.6.5.2.1.4.3.6.3.5-.6,1.1-1.1,1.8-1.6.7-.5,1.4-.9,2.1-1.2.7-.3,1.5-.5,2.3-.5s1.2.2,1.6.5c.4.3.6.7.6,1.2s-.1.8-.4,1.1c-.2.3-.6.5-.9.7-.4.2-.8.4-1.3.5-.4.1-.9.2-1.3.2-.4,0-.8,0-1.2,0-.5,0-1,0-1.4,0-.4,0-.9-.2-1.3-.3-.2.3-.5.7-.7,1.1-.3.4-.5.8-.7,1.3-.2.4-.4.9-.6,1.3-.1.4-.2.9-.2,1.2s0,.7.3.9c.2.2.5.3.8.3s.8-.1,1.3-.4c.4-.2.9-.6,1.3-1,.4-.4.9-.8,1.3-1.3.4-.5.8-.9,1.1-1.4.3-.4.6-.8.8-1.2.1-.3.3-.5.4-.6.1-.1.2-.2.3-.2s.2,0,.2.1c0,0,0,.2,0,.3,0,.2-.1.5-.3.7-.3.3-.6.7-.8,1.2-.3.5-.5,1-.7,1.5-.2.5-.3,1-.3,1.4s0,.5.1.7c.1.1.2.2.4.2.2,0,.5,0,.7-.3.3-.2.5-.4.7-.7s.4-.6.6-.9c.2-.3.4-.7.5-1,0,0,0,0,.1,0,0,0,0,0,0,.1-.1.4-.3.7-.5,1.1-.2.4-.4.7-.7,1-.3.3-.5.6-.9.7-.3.2-.7.3-1,.3ZM6.1,6c.3,0,.7,0,1.1,0,.4,0,.8-.1,1.2-.2.4-.1.8-.2,1.1-.4.3-.2.6-.4.8-.7.2-.3.3-.6.3-1.1s-.2-.7-.5-.9c-.3-.2-.7-.3-1.2-.3-.8,0-1.5.2-2.2.5-.6.3-1.2.7-1.8,1.2-.5.5-1,1-1.5,1.6.4.1.8.2,1.1.2.4,0,.8,0,1.3,0Z"/>
  <path class="cls-1" d="M6.4,12.3l.4-.2h0s-.4.2-.4.2ZM6.3,10.3h-.4c0-.1,0-.1,0-.1h.4ZM6.7,9.5l.3.2-.6-.5.3.3ZM5.9,10.4l-.3-.3h0l.3.3ZM4.7,11.4l-.2-.3h0l.2.3ZM3.5,12.2l-.2-.4h0l.2.4ZM.9,12l-.3.2h0s.3-.2.3-.2ZM.8,9h-.4c0-.1,0-.1,0-.1h.4ZM1.5,7.3l.3.2h0s-.3-.2-.3-.2ZM2,6.5l-.3-.2h0s.3.2.3.2ZM2.6,5.7l.3.3.4-.4-.5-.2-.2.4ZM1.9,5.2l-.2.3h0s.2-.3.2-.3ZM1.3,4.7l.3-.2h0l-.3.2ZM1.2,3.5l-.3-.2h0s.4.2.4.2ZM1.5,3.6l-.4-.2h0s0,0,0,0h.4ZM1.6,4.5l-.3.2h0s.3-.2.3-.2ZM2.2,5l.2-.3h0l-.2.3ZM2.9,5.4l-.2.4h.3c0,.1.2,0,.2,0l-.3-.3ZM4.6,3.7l.2.3h0s-.2-.3-.2-.3ZM6.7,2.5l.2.4h0l-.2-.4ZM10.7,2.5l-.2.3h0s.2-.3.2-.3ZM10.9,4.8l-.3-.2h0s.3.2.3.2ZM10,5.5l.2.4h0s-.2-.4-.2-.4ZM8.7,6v.4c0,0,0,0,0,0v-.4ZM7.4,6.2v.4s0,0,0,0v-.4ZM4.8,6.2v.4c0,0,0,0,0,0v-.4ZM3.5,5.9v-.4c.1,0-.2,0-.2,0l-.2.2.3.2ZM2.7,7l-.3-.2h0s.3.2.3.2ZM2,8.3l-.4-.2h0s.4.2.4.2ZM1.4,9.7h-.4c0-.1,0-.1,0-.1h.4ZM1.5,11.8l-.3.3h0s.3-.3.3-.3ZM3.5,11.8l.2.3h0s-.2-.3-.2-.3ZM4.9,10.8l-.3-.3h0l.3.3ZM6.2,9.6l-.3-.3h0l.3.3ZM8,7l.3.2h0s-.4-.2-.4-.2ZM8.4,6.4l.3.3h0s0,0,0,0l-.3-.3ZM9,6.4l-.3.2h0s0,0,0,0l.3-.2ZM8.8,7.4l-.3-.3h0s.3.3.3.3ZM7.9,8.6l.3.2h0s-.3-.2-.3-.2ZM7.3,10h.4c0,.1,0,.1,0,.1h-.4ZM7.1,12.2l-.3.2h0s0,0,0,0l.3-.2ZM8.3,12.1l-.2-.3h0s0,0,0,0l.2.3ZM9,11.4l.3.3h0l-.3-.3ZM9.6,10.5l.3.2h0s-.3-.2-.3-.2ZM10.1,9.5v-.4h-.3v.2c-.1,0,.3.2.3.2ZM10.2,9.5v.4c-.1,0-.1,0-.1,0h0s0-.4,0-.4ZM10.3,9.6h.4c0,.1,0,0,0,0h0c0,0-.4,0-.4,0ZM9.8,10.7l-.3-.2h0s.4.2.4.2ZM9.1,11.7l.3.3h0s-.3-.3-.3-.3ZM8.3,12.5l.2.3h0l-.2-.3ZM7.2,5.9v.4s0,0,0,0v-.4ZM8.5,5.7v-.4c0,0,0,0,0,0v.4ZM10.4,4.6l.3.2h0s-.3-.2-.3-.2ZM10.3,2.7l-.2.3h0s.2-.3.2-.3ZM7,2.9l.2.4h0s-.2-.4-.2-.4ZM5.2,4.1l-.3-.3h0s.3.3.3.3ZM3.7,5.7l-.3-.3-.4.5.6.2v-.4ZM4.8,5.9v.4c0,0,0,0,0,0v-.4ZM7.2,12.3c-.1,0-.2,0-.3,0,0,0-.1,0-.2-.2l-.7.4c.1.2.3.4.5.5.2.1.4.2.7.2v-.8ZM6.8,12.1c-.1-.2-.2-.5-.2-.8h-.8c0,.4,0,.8.3,1.2l.7-.4ZM6.6,11.3c0-.3,0-.6.1-.9l-.8-.2c-.1.4-.2.8-.2,1.1h.8ZM6.7,10.4c0-.3.2-.5.3-.6l-.6-.5c-.2.2-.3.5-.4.9l.8.2ZM6.4,9.2c-.2.3-.5.6-.8.9l.6.6c.3-.4.6-.7.9-.9l-.6-.5ZM5.6,10.1c-.3.3-.7.7-1.1,1l.5.6c.4-.3.8-.7,1.2-1l-.6-.6ZM4.5,11.1c-.4.3-.8.6-1.2.8l.3.7c.5-.2.9-.5,1.3-.8l-.5-.6ZM3.3,11.8c-.4.2-.8.3-1.1.3v.8c.5,0,1-.1,1.5-.4l-.3-.7ZM2.2,12.1c-.5,0-.8-.1-.9-.4l-.6.5c.4.5.9.7,1.6.7v-.8ZM1.3,11.7c-.2-.3-.3-.7-.3-1.2H.1c0,.7.1,1.3.5,1.7l.6-.5ZM.9,10.5c0-.4,0-.9.2-1.4l-.8-.2c-.2.6-.3,1.1-.3,1.7h.8ZM1.2,9.1c.2-.5.4-1.1.7-1.6l-.7-.4c-.3.6-.6,1.2-.8,1.8l.8.2ZM1.9,7.5c.1-.3.3-.5.5-.8l-.7-.4c-.2.3-.4.6-.5.9l.7.4ZM2.3,6.7c.2-.3.4-.5.6-.7l-.6-.5c-.2.3-.4.5-.7.8l.7.5ZM2.8,5.3c-.3-.1-.5-.3-.7-.4l-.4.7c.3.2.5.3.8.4l.3-.7ZM2.1,4.9c-.2-.1-.4-.3-.5-.5l-.7.5c.2.3.4.5.7.7l.4-.7ZM1.6,4.5c-.1-.1-.2-.3-.2-.6h-.8c0,.4,0,.7.3,1l.7-.5ZM1.4,3.9c0-.1,0-.2,0-.2l-.7-.4c-.1.2-.1.4-.1.6h.8ZM1.5,3.7s0,0,0,0c0,0,0,0,0,0,0,0,0,0,0,0,0,0,0,0,0,0v-.8c-.3,0-.5.2-.6.4l.7.4ZM1.4,3.7s-.1,0-.2-.1c0,0,0,0,0-.1,0,0,0,0,0,0h.8c0,0,0-.2-.1-.4-.1-.1-.3-.2-.4-.2v.8ZM1.1,3.4s0,0,0,0c0,0,0,0,0,0l.7.4c0-.1,0-.2,0-.4h-.8ZM1.1,3.4c0,.1,0,.3,0,.4h.8s0,0,0-.2l-.7-.3ZM1,3.9c0,.3.1.6.3.9l.6-.5c-.1-.1-.2-.3-.2-.4h-.8ZM1.3,4.8c.2.2.4.4.7.6l.4-.7c-.2-.1-.4-.3-.5-.4l-.6.5ZM2,5.4c.2.2.5.3.7.4l.3-.7c-.2,0-.4-.2-.6-.3l-.4.7ZM3.1,5.7c.5-.6,1.1-1.1,1.7-1.6l-.5-.6c-.7.5-1.3,1.1-1.8,1.7l.6.5ZM4.9,4.1c.6-.5,1.3-.9,2-1.2l-.3-.7c-.8.3-1.5.7-2.2,1.3l.5.6ZM6.9,2.9c.7-.3,1.4-.4,2.2-.4v-.8c-.9,0-1.7.2-2.5.5l.3.7ZM9.1,2.5c.6,0,1.1.1,1.4.4l.5-.6c-.5-.4-1.1-.5-1.9-.5v.8ZM10.5,2.8c.3.2.4.5.4.8h.8c0-.6-.3-1.1-.7-1.5l-.5.6ZM10.9,3.7c0,.3,0,.6-.3.8l.6.5c.3-.4.5-.8.5-1.3h-.8ZM10.6,4.5c-.2.2-.5.5-.8.6l.4.7c.4-.2.8-.5,1.1-.9l-.6-.5ZM9.8,5.2c-.4.2-.8.3-1.2.4l.2.8c.5-.1.9-.3,1.3-.5l-.4-.7ZM8.6,5.6c-.4.1-.9.2-1.3.2v.8c.5,0,1-.1,1.5-.3l-.2-.8ZM7.3,5.8c-.4,0-.8,0-1.1,0v.8c.3,0,.7,0,1.2,0v-.8ZM6.2,5.9c-.5,0-.9,0-1.4,0v.8c.4,0,.9,0,1.4,0v-.8ZM4.9,5.8c-.4,0-.9-.1-1.3-.3l-.2.8c.5.1.9.2,1.4.3v-.8ZM3.1,5.7c-.2.3-.5.7-.7,1.1l.7.4c.3-.4.5-.8.7-1.1l-.6-.5ZM2.4,6.8c-.3.4-.5.9-.8,1.3l.7.4c.2-.4.5-.9.7-1.3l-.7-.4ZM1.6,8.1c-.2.5-.4.9-.6,1.4l.8.3c.1-.4.3-.9.5-1.3l-.7-.4ZM1,9.5c-.2.5-.2.9-.2,1.4h.8c0-.3,0-.7.2-1.1l-.8-.2ZM.8,10.9c0,.5.1.9.4,1.2l.6-.5c-.1-.1-.2-.3-.2-.7h-.8ZM1.2,12.1c.3.3.7.4,1.1.4v-.8c-.2,0-.4,0-.5-.2l-.6.5ZM2.3,12.5c.5,0,1-.1,1.4-.4l-.4-.7c-.4.2-.8.3-1.1.3v.8ZM3.7,12.1c.5-.3.9-.6,1.4-1l-.5-.6c-.4.4-.9.7-1.3.9l.4.7ZM5.1,11.1c.5-.4.9-.8,1.3-1.3l-.6-.5c-.4.4-.8.9-1.2,1.2l.5.6ZM6.5,9.8c.4-.5.8-.9,1.1-1.4l-.6-.5c-.3.4-.7.9-1.1,1.3l.6.5ZM7.6,8.4c.3-.5.6-.9.8-1.2l-.7-.4c-.2.3-.4.7-.7,1.2l.6.5ZM8.4,7.2c.1-.3.2-.4.3-.4l-.5-.6c-.2.2-.4.4-.5.7l.7.4ZM8.7,6.7c0,0,0,0,.1,0,0,0,0,0,0,0v-.8c-.2,0-.5.1-.6.3l.5.6ZM8.8,6.7s0,0,0,0c0,0,0,0,0,0l.7-.4c-.1-.2-.3-.3-.5-.3v.8ZM8.7,6.6s0,0,0,0c0,0,0,0,0,0h.8c0-.2,0-.4-.2-.5l-.6.5ZM8.7,6.7c0,.1,0,.3-.2.4l.6.5c.3-.3.4-.6.4-1h-.8ZM8.5,7.1c-.3.4-.6.8-.9,1.3l.7.4c.3-.5.5-.8.8-1.1l-.6-.5ZM7.6,8.4c-.3.5-.5,1-.7,1.5l.8.2c.2-.5.4-1,.6-1.4l-.7-.4ZM6.9,9.9c-.2.5-.3,1.1-.3,1.6h.8c0-.4,0-.8.2-1.3l-.8-.3ZM6.6,11.5c0,.3,0,.7.2.9l.7-.4s0-.2,0-.4h-.8ZM6.8,12.4c.2.2.4.4.7.4v-.8s0,0,0,0c0,0,0,0,0,0l-.6.5ZM7.5,12.8c.3,0,.7-.1,1-.3l-.5-.7c-.2.1-.4.2-.5.2v.8ZM8.5,12.4c.3-.2.6-.4.8-.7l-.6-.5c-.2.3-.4.4-.6.6l.4.7ZM9.3,11.7c.2-.3.5-.6.7-1l-.7-.4c-.2.3-.4.6-.6.9l.6.5ZM10,10.7c.2-.4.4-.7.5-1.1l-.7-.3c-.1.3-.3.7-.5,1l.7.4ZM10.1,9.9s0,0,0,0c0,0,0,0,0,0l.3-.8c0,0-.2,0-.2,0v.8ZM10.2,9.9s0,0-.1,0c0,0,0,0,0-.1,0,0,0-.1,0-.1h.8c0,0,0-.2,0-.2,0-.1-.2-.2-.3-.2l-.2.8ZM9.9,9.4c-.1.3-.3.7-.5,1.1l.7.4c.2-.4.4-.8.5-1.1l-.7-.3ZM9.4,10.5c-.2.3-.4.7-.6,1l.6.5c.3-.3.5-.7.7-1.1l-.7-.4ZM8.8,11.5c-.2.3-.5.5-.7.6l.4.7c.4-.2.7-.5,1-.8l-.6-.5ZM8.1,12.1c-.3.1-.5.2-.8.2v.8c.4,0,.9-.1,1.2-.3l-.4-.7ZM6.1,6.4c.4,0,.7,0,1.2,0v-.8c-.5,0-.8,0-1.2,0v.8ZM7.3,6.3c.4,0,.9-.1,1.3-.2l-.2-.8c-.4,0-.8.2-1.2.2v.8ZM8.6,6.1c.4-.1.9-.3,1.2-.5l-.4-.7c-.3.2-.7.3-1,.4l.2.8ZM9.8,5.6c.4-.2.7-.5,1-.8l-.6-.5c-.2.2-.4.4-.7.6l.4.7ZM10.8,4.8c.3-.4.4-.8.4-1.3h-.8c0,.3,0,.6-.2.8l.6.5ZM11.2,3.5c0-.5-.2-.9-.7-1.2l-.4.7c.2.1.3.3.3.5h.8ZM10.5,2.3c-.4-.2-.9-.4-1.4-.4v.8c.4,0,.7,0,1,.2l.4-.7ZM9.1,2c-.8,0-1.6.2-2.3.5l.3.7c.6-.3,1.3-.4,2-.4v-.8ZM6.8,2.5c-.7.3-1.3.7-1.9,1.3l.5.6c.5-.5,1.1-.9,1.7-1.1l-.3-.7ZM4.9,3.8c-.5.5-1.1,1.1-1.6,1.6l.6.5c.5-.6,1-1.1,1.5-1.6l-.5-.6ZM3.5,6.1c.4.1.8.2,1.2.3v-.8c-.3,0-.6-.1-1-.2l-.2.8ZM4.7,6.3c.4,0,.9,0,1.3,0v-.8c-.5,0-.9,0-1.2,0v.8Z"/>
</svg>