<svg width="264" height="137" viewBox="0 0 264 137" fill="none" xmlns="http://www.w3.org/2000/svg">
<path d="M71.2743 94.1043C66.3732 94.1043 63.885 92.5131 63.885 89.3308C63.885 84.7847 68.4845 75.3895 77.6834 61.3723C76.6278 60.2358 76.1 59.2508 76.1 58.4931C76.1 56.0685 76.9294 54.4016 78.6636 53.6439C79.9454 52.962 80.9257 52.5832 81.8305 52.5832C82.7353 52.5832 83.2631 52.5832 83.4893 52.6589C93.6684 37.7326 102.792 25.3823 110.935 15.5324C112.519 13.4109 114.178 11.8955 115.912 10.9105C117.571 9.92556 119.757 9.47095 122.321 9.47095C124.884 9.47095 123.603 9.54672 125.035 9.69825C126.468 9.84979 127.524 9.92556 128.278 9.84979C124.055 12.4259 118.174 18.0328 110.634 26.7461C103.018 35.4595 95.8551 44.7033 89.069 54.6289C91.1048 56.2201 92.5374 58.4173 93.3668 61.145L93.7438 62.2815H94.1208C96.5337 62.2815 99.0973 61.3723 101.736 59.5539C104.451 57.7354 106.562 55.8412 108.296 53.8712C109.955 51.9013 111.388 50.2344 112.443 48.719C113.499 47.2794 114.178 46.4459 114.479 46.2944C114.781 46.1429 115.007 46.1429 115.233 46.1429C115.459 46.1429 115.686 46.2186 115.836 46.2944C115.987 46.3702 116.138 46.5217 116.138 46.749C116.138 46.9763 116.063 47.2036 115.836 47.4309C108.447 58.4173 101.133 63.8727 94.0454 63.8727C94.1208 64.7819 94.1962 66.2973 94.1962 68.4188C94.1962 70.5403 93.3668 73.6468 91.7834 77.814C90.2 81.9813 87.4855 85.694 83.7155 89.0278C79.9454 92.3616 75.8738 93.9527 71.5005 93.9527L71.2743 94.1043ZM71.1235 89.3308C71.1235 90.9978 71.8021 91.8312 73.2347 91.8312C74.6674 91.8312 77.3064 90.5431 80.247 87.967C83.2631 85.3909 85.7513 81.8298 87.8626 77.3594C89.9738 72.8891 91.0294 68.7976 91.0294 65.1607V64.3273H89.823C87.2593 64.3273 85.0727 63.8727 83.2631 62.9634C75.1198 76.2987 71.0481 85.0878 71.0481 89.4066L71.1235 89.3308ZM90.0492 62.6604H90.8786C90.577 60.16 89.5214 58.19 87.6363 56.6747L84.6957 60.9935C85.6005 62.13 87.4101 62.6604 90.0492 62.6604Z" fill="#F4C9D0"/>
<path d="M147.429 47.4309C144.489 51.1436 142.755 53.8712 142.151 55.6897C141.548 57.5081 141.247 59.0235 141.247 60.0842C141.247 61.145 141.925 61.7512 143.282 61.7512C144.64 61.7512 147.052 60.7662 149.541 58.7204C153.235 55.7654 156.779 51.9013 160.398 47.1278C160.775 46.5975 161.152 46.2944 161.605 46.2944C162.283 46.1429 162.66 46.2944 162.66 46.8248C162.66 47.3552 162.51 47.4309 162.283 47.8855C154.065 58.6446 147.128 64.0242 141.548 64.0242C135.969 64.0242 136.873 63.1908 135.29 61.5996C134.46 60.7662 134.083 59.5539 134.083 58.1143C134.083 56.6747 134.536 54.932 135.441 52.8105C128.278 60.3115 122.17 64.0242 116.967 64.0242C111.765 64.0242 114.253 63.7211 113.122 63.1908C110.483 61.9785 109.126 59.8569 109.126 56.902C109.126 51.2193 112.896 45.4609 120.511 39.6268C124.809 36.3687 130.087 34.2472 136.27 33.2622C137.929 32.9592 139.588 32.8076 141.096 32.8076C145.167 32.8076 148.711 33.7168 151.501 35.611C152.406 36.2172 152.632 36.8233 152.331 37.4295C151.954 38.0356 151.2 38.2629 150.069 38.1114C149.088 35.9899 146.977 35.0049 143.659 35.0049C140.342 35.0049 135.064 36.9749 129.484 40.9148C126.242 43.2637 123.301 45.9913 120.511 49.0978C117.043 52.8862 115.309 55.8412 115.309 58.1143C115.309 60.3873 116.44 61.5238 118.626 61.5238C123.98 61.5238 130.992 56.2201 139.663 45.5367C141.322 43.4152 142.755 41.8998 143.961 41.1421C145.092 40.3845 146.6 40.0056 148.41 40.0056C150.219 40.0056 149.692 40.0814 151.124 40.2329C152.632 40.3845 153.688 40.4602 154.366 40.3087C152.783 41.3694 150.521 43.7183 147.505 47.3552L147.429 47.4309Z" fill="#F4C9D0"/>
<path d="M166.43 86.2243C165.299 85.0878 164.696 84.1028 164.696 83.1178C164.696 82.1328 166.204 79.4809 169.145 75.0864C172.086 70.7676 175.554 65.9184 179.626 60.6146C183.697 55.3108 186.261 51.8255 187.467 50.1586C186.11 51.7497 183.019 54.7047 178.118 59.0235C173.895 62.2058 169.899 63.7969 165.903 63.7969C161.906 63.7969 164.093 63.7211 163.264 63.5696C158.74 62.2815 156.402 59.7812 156.402 56.0685C156.402 52.3559 160.248 45.6125 167.938 39.6268C172.161 36.3687 177.062 34.323 182.642 33.4895C184.15 33.1865 185.658 33.0349 187.166 33.0349C191.162 33.0349 195.083 33.8684 198.777 35.611C200.286 36.3687 201.04 36.9749 201.04 37.5052C201.04 38.0356 200.889 38.4145 200.512 38.7175C199.833 39.3995 199.004 39.4752 198.099 38.8691C197.797 38.7175 197.571 38.4145 197.42 38.1114C196.138 35.9141 194.329 34.7776 191.916 34.7776C189.503 34.7776 186.789 35.4595 183.773 36.8991C177.891 39.551 172.915 43.1121 168.919 47.6582C164.922 52.1286 162.887 55.4624 162.887 57.6596C162.887 59.8569 163.791 60.4631 165.601 60.9935C166.053 61.145 166.506 61.145 167.109 61.145C171.482 61.145 178.118 56.3716 186.94 46.9005C189.428 44.3244 191.162 42.7333 192.067 42.2787C192.972 41.824 193.876 41.521 194.706 41.521H196.289C196.591 41.521 197.345 41.521 198.702 41.7483C200.059 41.8998 201.04 41.8998 201.794 41.8998C196.968 46.6732 190.71 55.0078 182.943 66.7519C175.177 78.496 170.955 85.8455 170.351 88.8005C169.974 88.4216 169.296 87.8912 168.24 87.2851C167.184 86.6789 166.581 86.3001 166.43 86.2243Z" fill="#F4C9D0"/>
<path d="M93.4171 110.795C93.3651 111.081 93.3261 111.705 93.3131 112.095C93.3131 112.68 93.3131 113.577 93.3131 114.474C93.3131 115.891 93.5211 118.491 93.5211 119.635C93.5211 120.688 92.8711 121.598 91.1421 121.598C89.3351 121.598 88.0221 121.039 88.0221 119.557C88.0221 118.374 89.0361 117.425 91.2851 117.425C93.8591 117.425 96.1731 118.725 97.4991 119.934L96.8751 120.909C95.5751 119.609 93.4431 118.335 91.1681 118.335C89.8161 118.335 89.0491 118.79 89.0491 119.518C89.0491 120.233 89.7771 120.636 91.0381 120.636C91.9871 120.636 92.4551 120.181 92.4551 119.284C92.4551 118.322 92.2991 115.8 92.2991 114.474C92.2991 113.72 92.2861 112.654 92.2861 112.095C92.2731 111.614 92.2341 111.042 92.1821 110.795H93.4171ZM92.7411 113.421C93.6381 113.421 95.7571 113.356 97.1611 113.187L97.2001 114.162C95.7961 114.292 93.6771 114.383 92.7411 114.383V113.421ZM108.536 111.419C108.25 111.627 107.847 111.978 107.639 112.16C106.742 112.94 104.87 114.409 103.908 115.215C103.128 115.891 103.115 116.086 103.96 116.788C105.143 117.763 107.444 119.609 108.822 121L107.899 121.845C107.626 121.533 107.314 121.221 107.002 120.896C106.079 119.96 104.116 118.27 102.894 117.269C101.672 116.242 101.815 115.683 102.985 114.695C103.973 113.876 105.949 112.316 106.82 111.432C107.08 111.172 107.418 110.795 107.561 110.561L108.536 111.419ZM118.507 110.717C118.455 110.873 118.403 111.107 118.364 111.289C118.143 112.381 117.922 114.435 117.922 116.216C117.922 117.906 118.286 119.466 118.689 120.688L117.74 120.974C117.363 119.817 117.012 117.971 117.012 116.32C117.012 114.539 117.272 112.433 117.389 111.315C117.415 111.081 117.428 110.847 117.428 110.678L118.507 110.717ZM116.414 112.316C118.702 112.316 120.964 112.134 122.758 111.731L122.771 112.693C120.899 113.018 118.338 113.213 116.401 113.213C115.842 113.213 114.828 113.161 114.295 113.135L114.269 112.16C114.724 112.238 115.855 112.316 116.414 112.316ZM121.835 113.85C121.757 114.019 121.64 114.37 121.562 114.578C120.795 116.983 119.495 118.79 118.13 119.843C117.298 120.48 116.258 120.961 115.335 120.961C114.477 120.961 113.801 120.441 113.801 119.336C113.801 117.555 115.452 115.722 117.376 114.981C118.247 114.643 119.3 114.448 120.145 114.448C122.602 114.448 124.149 115.878 124.149 117.698C124.149 119.557 122.914 121.182 119.898 121.663L119.339 120.792C121.679 120.532 123.135 119.323 123.135 117.646C123.135 116.385 122.069 115.28 120.132 115.28C119.04 115.28 118.078 115.592 117.415 115.891C115.946 116.541 114.776 117.971 114.776 119.167C114.776 119.7 115.036 119.96 115.517 119.96C116.167 119.96 117.012 119.596 117.844 118.868C119.001 117.854 120.067 116.45 120.665 114.344C120.717 114.149 120.782 113.798 120.795 113.59L121.835 113.85ZM128.478 111.432C128.764 111.458 129.128 111.471 129.388 111.471C130.077 111.471 133.158 111.38 133.847 111.315C134.237 111.276 134.419 111.25 134.562 111.198L135.16 111.965C134.926 112.121 134.666 112.29 134.419 112.485C133.782 112.979 132.014 114.5 131 115.332C131.598 115.137 132.222 115.072 132.807 115.072C134.965 115.072 136.512 116.359 136.512 118.114C136.512 120.207 134.783 121.572 132.027 121.572C130.259 121.572 129.18 120.805 129.18 119.713C129.18 118.829 129.986 118.023 131.182 118.023C132.911 118.023 133.782 119.245 133.873 120.558L132.937 120.714C132.859 119.609 132.222 118.816 131.182 118.816C130.584 118.816 130.129 119.18 130.129 119.635C130.129 120.272 130.844 120.649 131.871 120.649C134.081 120.649 135.472 119.739 135.472 118.114C135.472 116.827 134.25 115.878 132.547 115.878C130.389 115.878 129.219 116.788 127.581 118.465L126.827 117.711C127.906 116.827 129.583 115.423 130.324 114.786C131.052 114.188 132.69 112.823 133.34 112.238C132.651 112.277 130.051 112.381 129.375 112.42C129.076 112.446 128.79 112.459 128.504 112.498L128.478 111.432ZM141.192 112.017C142.128 112.134 143.337 112.186 144.637 112.186C145.885 112.186 147.198 112.095 148.147 112.004V113.07C147.263 113.135 145.833 113.226 144.637 113.226C143.337 113.226 142.219 113.161 141.192 113.083V112.017ZM141.725 117.256C141.556 117.776 141.452 118.257 141.452 118.738C141.452 119.739 142.453 120.415 144.546 120.415C146.34 120.415 148.004 120.22 148.992 119.908L149.005 121.013C148.069 121.273 146.418 121.468 144.572 121.468C141.92 121.468 140.399 120.597 140.399 118.972C140.399 118.296 140.542 117.685 140.659 117.165L141.725 117.256ZM148.511 110.574C148.836 111.042 149.304 111.835 149.577 112.368L148.862 112.68C148.602 112.147 148.16 111.354 147.809 110.873L148.511 110.574ZM149.941 110.054C150.279 110.535 150.786 111.341 151.033 111.822L150.331 112.147C150.045 111.575 149.616 110.834 149.252 110.353L149.941 110.054ZM156.818 110.119L157.481 110.717C156.415 111.029 154.842 111.237 153.529 111.328C153.49 111.159 153.386 110.873 153.282 110.704C154.53 110.574 156.012 110.353 156.818 110.119ZM162.408 110.132L163.058 110.743C161.927 111.055 160.25 111.25 158.846 111.328C158.807 111.146 158.703 110.886 158.612 110.704C159.938 110.587 161.524 110.379 162.408 110.132ZM153.022 110.431L154.153 110.743C154.14 110.834 154.075 110.886 153.906 110.912V111.77C153.906 112.719 153.672 114.084 152.606 115.085C152.463 114.877 152.151 114.578 151.943 114.461C152.879 113.603 153.022 112.563 153.022 111.731V110.431ZM158.352 110.47L159.47 110.743C159.457 110.834 159.392 110.886 159.223 110.912V111.666C159.223 112.524 158.95 113.694 157.702 114.539C157.585 114.331 157.299 114.019 157.091 113.889C158.157 113.2 158.352 112.368 158.352 111.627V110.47ZM153.425 111.965H157.819V112.732H153.425V111.965ZM158.742 111.965H163.695V112.732H158.742V111.965ZM155.414 112.251H156.298V114.357H155.414V112.251ZM160.874 112.251H161.758V114.396H160.874V112.251ZM154.647 116.827V117.737H161.225V116.827H154.647ZM154.647 118.361V119.297H161.225V118.361H154.647ZM154.647 115.28V116.19H161.225V115.28H154.647ZM153.698 114.63H162.2V119.96H153.698V114.63ZM158.963 120.623L159.756 120.129C161.186 120.571 162.759 121.143 163.695 121.585L162.616 122.079C161.797 121.65 160.38 121.091 158.963 120.623ZM155.908 120.103L156.792 120.506C155.739 121.13 154.088 121.728 152.788 122.092C152.632 121.897 152.294 121.52 152.073 121.351C153.412 121.065 154.972 120.61 155.908 120.103ZM168.817 116.398H173.263V120.207H168.817V119.388H172.353V117.217H168.817V116.398ZM168.388 116.398H169.298V120.987H168.388V116.398ZM166.035 112.524H169.649V113.252H166.035V112.524ZM172.028 112.524H175.707V113.252H172.028V112.524ZM175.278 110.639H176.253V120.74C176.253 121.39 176.097 121.702 175.681 121.871C175.239 122.027 174.485 122.04 173.341 122.04C173.302 121.767 173.133 121.312 172.99 121.039C173.848 121.078 174.706 121.065 174.953 121.052C175.2 121.052 175.278 120.974 175.278 120.727V110.639ZM166.113 110.639H170.273V115.228H166.113V114.435H169.35V111.432H166.113V110.639ZM175.785 110.639V111.419H172.379V114.448H175.785V115.228H171.443V110.639H175.785ZM165.567 110.639H166.529V122.053H165.567V110.639Z" fill="#091133"/>
</svg>
