<svg width="14" height="19" viewBox="0 0 14 19" fill="none" xmlns="http://www.w3.org/2000/svg">
<path d="M5.056 14.008C4.39467 14.008 3.776 13.8427 3.2 13.512C2.63467 13.192 2.20267 12.6587 1.904 11.912C1.776 11.6027 1.68 11.2827 1.616 10.952C1.56267 10.6107 1.536 10.2747 1.536 9.944C1.536 9.22933 1.648 8.51467 1.872 7.8C2.10667 7.07467 2.42133 6.392 2.816 5.752C3.22133 5.112 3.66933 4.54667 4.16 4.056C4.66133 3.55467 5.184 3.16 5.728 2.872C6.28267 2.584 6.82133 2.44 7.344 2.44C7.76 2.44 8.14933 2.54133 8.512 2.744C8.59733 2.79733 8.64 2.84533 8.64 2.888C8.64 2.92 8.61333 2.94667 8.56 2.968C8.50667 2.98933 8.448 2.98933 8.384 2.968C8.256 2.92533 8.096 2.904 7.904 2.904C7.44533 2.904 6.96533 3.05867 6.464 3.368C5.96267 3.67733 5.472 4.09867 4.992 4.632C4.52267 5.15467 4.096 5.74667 3.712 6.408C3.328 7.06933 3.01867 7.75733 2.784 8.472C2.56 9.176 2.448 9.864 2.448 10.536C2.448 10.9413 2.496 11.3307 2.592 11.704C2.79467 12.408 3.10933 12.9147 3.536 13.224C3.97333 13.5333 4.46933 13.688 5.024 13.688C5.504 13.688 6.01067 13.5813 6.544 13.368C7.07733 13.1547 7.58933 12.8613 8.08 12.488C8.85867 11.9013 9.49867 11.256 10 10.552C10.512 9.83733 10.8907 9.10133 11.136 8.344C11.392 7.576 11.52 6.824 11.52 6.088C11.52 5.384 11.4027 4.71733 11.168 4.088C10.944 3.448 10.6027 2.88267 10.144 2.392C9.696 1.90133 9.136 1.51733 8.464 1.24C7.80267 0.952 7.04 0.808 6.176 0.808C6.00533 0.808 5.82933 0.818666 5.648 0.839999C5.46667 0.850666 5.28 0.866666 5.088 0.888C4.05333 1.02667 3.26933 1.416 2.736 2.056C2.20267 2.696 1.936 3.49067 1.936 4.44C1.936 4.64267 1.94667 4.856 1.968 5.08C2 5.29333 2.04267 5.512 2.096 5.736C2.10667 5.768 2.112 5.816 2.112 5.88C2.112 6.008 2.06933 6.072 1.984 6.072C1.89867 6.072 1.808 5.98667 1.712 5.816C1.584 5.56 1.488 5.304 1.424 5.048C1.37067 4.792 1.344 4.54133 1.344 4.296C1.344 3.67733 1.504 3.10667 1.824 2.584C2.144 2.05067 2.58133 1.60267 3.136 1.24C3.69067 0.877333 4.32 0.637333 5.024 0.52C5.36533 0.466666 5.69067 0.423999 6 0.391999C6.32 0.36 6.624 0.344 6.912 0.344C8.18133 0.344 9.216 0.578666 10.016 1.048C10.8267 1.50667 11.424 2.12533 11.808 2.904C12.192 3.68267 12.384 4.536 12.384 5.464C12.384 6.38133 12.208 7.31467 11.856 8.264C11.5147 9.21333 11.024 10.104 10.384 10.936C9.75467 11.7573 9.008 12.456 8.144 13.032C7.67467 13.3413 7.168 13.5813 6.624 13.752C6.08 13.9227 5.55733 14.008 5.056 14.008ZM10.704 18.936C9.76533 18.936 8.944 18.8293 8.24 18.616C7.54667 18.4027 6.93867 18.1253 6.416 17.784C5.904 17.4427 5.44533 17.08 5.04 16.696C4.64533 16.3227 4.272 15.9653 3.92 15.624C3.568 15.2827 3.21067 15.0053 2.848 14.792C2.496 14.5787 2.10133 14.472 1.664 14.472C1.55733 14.472 1.42933 14.4987 1.28 14.552C1.14133 14.6053 1.01333 14.6853 0.896 14.792C0.789333 14.8987 0.736 15.0427 0.736 15.224C0.736 15.2987 0.72 15.3467 0.688 15.368C0.656 15.4 0.629333 15.416 0.608 15.416C0.512 15.416 0.464 15.336 0.464 15.176C0.464 14.8453 0.592 14.5627 0.848 14.328C1.104 14.104 1.41333 13.992 1.776 13.992C2.352 13.992 2.87467 14.1147 3.344 14.36C3.824 14.6053 4.29333 14.9147 4.752 15.288C5.22133 15.672 5.73333 16.0667 6.288 16.472C6.78933 16.8347 7.33333 17.1707 7.92 17.48C8.51733 17.8 9.12 18.056 9.728 18.248C10.3467 18.44 10.928 18.536 11.472 18.536C11.7387 18.536 11.9893 18.504 12.224 18.44C12.4587 18.376 12.6507 18.2587 12.8 18.088C12.96 17.9173 13.04 17.6827 13.04 17.384C13.04 17.0747 12.9333 16.7547 12.72 16.424C12.5173 16.104 12.2187 15.816 11.824 15.56C11.4293 15.3147 10.9547 15.1493 10.4 15.064C10.3147 15.0427 10.2507 15.0107 10.208 14.968C10.1653 14.9253 10.144 14.8827 10.144 14.84C10.144 14.7547 10.2133 14.7173 10.352 14.728C11.024 14.8347 11.5893 15.0213 12.048 15.288C12.5173 15.5653 12.8747 15.8747 13.12 16.216C13.3653 16.568 13.488 16.9147 13.488 17.256C13.488 17.704 13.264 18.0933 12.816 18.424C12.368 18.7653 11.664 18.936 10.704 18.936Z" fill="#F4C9D0"/>
<path d="M3.2 13.512L3.44894 13.0784L3.4463 13.0769L3.2 13.512ZM1.904 11.912L2.36827 11.7263L2.36601 11.7208L1.904 11.912ZM1.616 10.952L1.12199 11.0292L1.12339 11.0381L1.12511 11.047L1.616 10.952ZM1.872 7.8L1.39626 7.64608L1.39489 7.65046L1.872 7.8ZM2.816 5.752L2.39356 5.48445L2.39041 5.48956L2.816 5.752ZM4.16 4.056L3.80645 3.70245L4.16 4.056ZM5.728 2.872L5.49759 2.42824L5.49406 2.43011L5.728 2.872ZM8.512 2.744L8.777 2.32L8.76661 2.31351L8.75591 2.30753L8.512 2.744ZM8.56 2.968L8.37431 2.50376L8.3743 2.50376L8.56 2.968ZM8.384 2.968L8.54212 2.49366L8.54211 2.49366L8.384 2.968ZM6.464 3.368L6.20145 2.94248L6.20145 2.94248L6.464 3.368ZM4.992 4.632L4.62035 4.29752L4.61998 4.29794L4.992 4.632ZM3.712 6.408L3.27961 6.15693L3.712 6.408ZM2.784 8.472L2.30893 8.31601L2.30754 8.3204L2.784 8.472ZM2.592 11.704L2.10775 11.8285L2.10953 11.8354L2.11151 11.8423L2.592 11.704ZM3.536 13.224L3.2425 13.6288L3.24727 13.6322L3.536 13.224ZM6.544 13.368L6.3583 12.9038L6.3583 12.9038L6.544 13.368ZM8.08 12.488L7.77912 12.0887L7.77724 12.0901L8.08 12.488ZM10 10.552L9.59354 10.2608L9.59272 10.262L10 10.552ZM11.136 8.344L10.6616 8.18588L10.6603 8.18991L11.136 8.344ZM11.168 4.088L10.696 4.25321L10.6995 4.26269L11.168 4.088ZM10.144 2.392L9.77473 2.72916L9.77874 2.73344L10.144 2.392ZM8.464 1.24L8.26433 1.6985L8.27326 1.70219L8.464 1.24ZM5.648 0.839999L5.67736 1.33914L5.69193 1.33828L5.70642 1.33657L5.648 0.839999ZM5.088 0.888L5.03277 0.390931L5.02158 0.39243L5.088 0.888ZM2.736 2.056L2.35189 1.73591L2.35189 1.73591L2.736 2.056ZM1.968 5.08L1.47025 5.1274L1.47153 5.14083L1.47353 5.15417L1.968 5.08ZM2.096 5.736L1.6096 5.85181L1.6147 5.87323L1.62166 5.89411L2.096 5.736ZM1.712 5.816L1.26479 6.03961L1.27024 6.05051L1.27621 6.06113L1.712 5.816ZM1.424 5.048L0.93451 5.14998L0.936528 5.15967L0.938929 5.16927L1.424 5.048ZM1.824 2.584L2.25044 2.84509L2.25275 2.84125L1.824 2.584ZM3.136 1.24L3.40962 1.65848L3.40963 1.65848L3.136 1.24ZM5.024 0.52L4.94681 0.025968L4.9418 0.0268025L5.024 0.52ZM6 0.391999L5.95025 -0.105522L5.94855 -0.105347L6 0.391999ZM10.016 1.048L9.76296 1.47931L9.76978 1.48317L10.016 1.048ZM11.856 8.264L11.3872 8.09016L11.3855 8.09483L11.856 8.264ZM10.384 10.936L9.98769 10.6311L9.98711 10.6319L10.384 10.936ZM8.144 13.032L8.41916 13.4495L8.42135 13.448L8.144 13.032ZM6.624 13.752L6.77367 14.2291L6.77367 14.2291L6.624 13.752ZM8.24 18.616L8.09296 19.0939L8.095 19.0945L8.24 18.616ZM6.416 17.784L6.13864 18.2L6.14261 18.2026L6.416 17.784ZM5.04 16.696L5.38387 16.333L5.3836 16.3328L5.04 16.696ZM3.92 15.624L3.57193 15.983L3.57193 15.983L3.92 15.624ZM2.848 14.792L2.58883 15.2196L2.59449 15.223L2.848 14.792ZM1.28 14.552L1.11178 14.081L1.10051 14.0853L1.28 14.552ZM0.896 14.792L0.559664 14.422L0.55086 14.43L0.542447 14.4384L0.896 14.792ZM0.688 15.368L0.410651 14.952L0.369456 14.9794L0.334446 15.0144L0.688 15.368ZM0.848 14.328L0.51866 13.9516L0.510138 13.9594L0.848 14.328ZM3.344 14.36L3.11236 14.8031L3.11644 14.8052L3.344 14.36ZM4.752 15.288L5.06862 14.901L5.06764 14.9002L4.752 15.288ZM6.288 16.472L5.99299 16.8757L5.99494 16.8771L6.288 16.472ZM7.92 17.48L8.15612 17.0393L8.15321 17.0377L7.92 17.48ZM9.728 18.248L9.57743 18.7248L9.5798 18.7255L9.728 18.248ZM12.224 18.44L12.0924 17.9576L12.0924 17.9576L12.224 18.44ZM12.8 18.088L12.4352 17.746L12.4294 17.7523L12.4237 17.7587L12.8 18.088ZM12.72 16.424L12.2976 16.6915L12.2999 16.6951L12.72 16.424ZM11.824 15.56L12.0961 15.1404L12.088 15.1354L11.824 15.56ZM10.4 15.064L10.2787 15.5491L10.3011 15.5547L10.324 15.5582L10.4 15.064ZM10.352 14.728L10.4304 14.2342L10.4105 14.231L10.3903 14.2295L10.352 14.728ZM12.048 15.288L12.3024 14.8575L12.2993 14.8557L12.048 15.288ZM13.12 16.216L13.5302 15.9301L13.526 15.9242L13.12 16.216ZM12.816 18.424L12.519 18.0217L12.513 18.0263L12.816 18.424ZM5.056 13.508C4.48241 13.508 3.94952 13.3657 3.44893 13.0784L2.95107 13.9456C3.60248 14.3196 4.30692 14.508 5.056 14.508V13.508ZM3.4463 13.0769C3.00156 12.8251 2.63502 12.3932 2.36824 11.7263L1.43976 12.0977C1.77032 12.9241 2.26778 13.5589 2.9537 13.9471L3.4463 13.0769ZM2.36601 11.7208C2.25092 11.4427 2.16455 11.1549 2.10689 10.857L1.12511 11.047C1.19545 11.4104 1.30108 11.7626 1.44199 12.1032L2.36601 11.7208ZM2.11001 10.8748C2.06049 10.5579 2.036 10.2477 2.036 9.944H1.036C1.036 10.3016 1.06485 10.6635 1.12199 11.0292L2.11001 10.8748ZM2.036 9.944C2.036 9.28244 2.13955 8.61815 2.34911 7.94954L1.39489 7.65046C1.15645 8.41119 1.036 9.17622 1.036 9.944H2.036ZM2.34772 7.95391C2.57025 7.2661 2.8682 6.61993 3.24159 6.01444L2.39041 5.48956C1.97446 6.16407 1.64308 6.88324 1.39628 7.64609L2.34772 7.95391ZM3.23841 6.01953C3.62581 5.40784 4.05119 4.87191 4.51355 4.40955L3.80645 3.70245C3.28747 4.22142 2.81685 4.81616 2.39359 5.48447L3.23841 6.01953ZM4.51355 4.40955C4.98488 3.93823 5.46809 3.57534 5.96194 3.31389L5.49406 2.43011C4.89991 2.74466 4.33779 3.17111 3.80645 3.70245L4.51355 4.40955ZM5.95841 3.31575C6.45574 3.05752 6.9158 2.94 7.344 2.94V1.94C6.72686 1.94 6.1096 2.11048 5.49759 2.42825L5.95841 3.31575ZM7.344 2.94C7.67472 2.94 7.98007 3.01952 8.26809 3.18047L8.75591 2.30753C8.3186 2.06315 7.84528 1.94 7.344 1.94V2.94ZM8.247 3.168C8.26937 3.18198 8.25727 3.17802 8.2343 3.15218C8.21414 3.12951 8.14 3.03816 8.14 2.888H9.14C9.14 2.69517 9.04452 2.55849 8.9817 2.48782C8.91607 2.41398 8.83997 2.35936 8.777 2.32L8.247 3.168ZM8.14 2.888C8.14 2.74792 8.20403 2.64086 8.26645 2.57845C8.31934 2.52556 8.36775 2.50638 8.37431 2.50376L8.74569 3.43224C8.82758 3.39949 9.14 3.25524 9.14 2.888H8.14ZM8.3743 2.50376C8.40797 2.49029 8.44311 2.484 8.476 2.484C8.50779 2.484 8.53064 2.48983 8.54212 2.49366L8.22588 3.44234C8.3815 3.49421 8.56397 3.50493 8.7457 3.43224L8.3743 2.50376ZM8.54211 2.49366C8.34657 2.42848 8.12895 2.404 7.904 2.404V3.404C8.06306 3.404 8.16543 3.42219 8.22589 3.44234L8.54211 2.49366ZM7.904 2.404C7.32967 2.404 6.75959 2.59809 6.20145 2.94248L6.72655 3.79352C7.17108 3.51924 7.561 3.404 7.904 3.404V2.404ZM6.20145 2.94248C5.65191 3.28156 5.12553 3.73621 4.62035 4.29752L5.36365 4.96648C5.81847 4.46112 6.27342 4.07311 6.72655 3.79352L6.20145 2.94248ZM4.61998 4.29794C4.12581 4.84826 3.67932 5.46853 3.27961 6.15693L4.14439 6.65907C4.51268 6.0248 4.91953 5.46107 5.36402 4.96606L4.61998 4.29794ZM3.27961 6.15693C2.87841 6.84788 2.55467 7.56771 2.30895 8.31601L3.25905 8.62798C3.48267 7.94696 3.77759 7.29078 4.14439 6.65907L3.27961 6.15693ZM2.30754 8.3204C2.06948 9.06858 1.948 9.80772 1.948 10.536H2.948C2.948 9.92028 3.05052 9.28342 3.26046 8.6236L2.30754 8.3204ZM1.948 10.536C1.948 10.9812 2.00077 11.4125 2.10775 11.8285L3.07625 11.5795C2.99123 11.2489 2.948 10.9015 2.948 10.536H1.948ZM2.11151 11.8423C2.3332 12.6124 2.69612 13.2327 3.24252 13.6288L3.82948 12.8192C3.52255 12.5967 3.25613 12.2036 3.07249 11.5657L2.11151 11.8423ZM3.24727 13.6322C3.77217 14.0035 4.36982 14.188 5.024 14.188V13.188C4.56885 13.188 4.1745 13.0632 3.82473 12.8158L3.24727 13.6322ZM5.024 14.188C5.57879 14.188 6.14866 14.0647 6.7297 13.8322L6.3583 12.9038C5.87268 13.098 5.42921 13.188 5.024 13.188V14.188ZM6.7297 13.8322C7.30781 13.601 7.85886 13.2845 8.38276 12.8859L7.77724 12.0901C7.31981 12.4381 6.84686 12.7083 6.3583 12.9038L6.7297 13.8322ZM8.38087 12.8873C9.19524 12.2738 9.87276 11.5926 10.4073 10.842L9.59272 10.262C9.12458 10.9194 8.52209 11.5289 7.77913 12.0887L8.38087 12.8873ZM10.4065 10.8432C10.9453 10.091 11.3489 9.30924 11.6117 8.49809L10.6603 8.18991C10.4324 8.89343 10.0787 9.58367 9.59354 10.2608L10.4065 10.8432ZM11.6103 8.50211C11.8816 7.6882 12.02 6.88283 12.02 6.088H11.02C11.02 6.76517 10.9024 7.4638 10.6617 8.18589L11.6103 8.50211ZM12.02 6.088C12.02 5.32726 11.893 4.60119 11.6365 3.91331L10.6995 4.26269C10.9123 4.83348 11.02 5.44074 11.02 6.088H12.02ZM11.6399 3.92282C11.3932 3.21795 11.0158 2.59243 10.5093 2.05056L9.77874 2.73344C10.1895 3.1729 10.4948 3.67805 10.6961 4.25317L11.6399 3.92282ZM10.5132 2.05486C10.0111 1.50494 9.38823 1.08052 8.65474 0.777813L8.27326 1.70219C8.88377 1.95414 9.38086 2.29772 9.77476 2.72913L10.5132 2.05486ZM8.66363 0.781582C7.92814 0.461288 7.09536 0.308 6.176 0.308V1.308C6.98464 1.308 7.67719 1.44271 8.26437 1.69842L8.66363 0.781582ZM6.176 0.308C5.98451 0.308 5.78897 0.319967 5.58958 0.343424L5.70642 1.33657C5.8697 1.31737 6.02616 1.308 6.176 1.308V0.308ZM5.61864 0.340862C5.42815 0.352067 5.23284 0.368828 5.03278 0.391058L5.14322 1.38494C5.32716 1.3645 5.50519 1.34926 5.67736 1.33914L5.61864 0.340862ZM5.02158 0.39243C3.89551 0.543348 2.9843 0.977016 2.35189 1.73591L3.12011 2.37609C3.55437 1.85498 4.21116 1.50999 5.15442 1.38357L5.02158 0.39243ZM2.35189 1.73591C1.73331 2.4782 1.436 3.39098 1.436 4.44H2.436C2.436 3.59035 2.67202 2.9138 3.12011 2.37609L2.35189 1.73591ZM1.436 4.44C1.436 4.66011 1.44758 4.88934 1.47025 5.1274L2.46575 5.03259C2.44575 4.82266 2.436 4.62522 2.436 4.44H1.436ZM1.47353 5.15417C1.50776 5.38239 1.5532 5.61496 1.6096 5.85181L2.5824 5.62019C2.53213 5.40904 2.49224 5.20428 2.46247 5.00583L1.47353 5.15417ZM1.62166 5.89411C1.61658 5.87888 1.61397 5.86734 1.61271 5.86106C1.61204 5.85772 1.61163 5.85521 1.61139 5.85365C1.61115 5.85208 1.61106 5.85124 1.61106 5.85121C1.61105 5.85118 1.61112 5.85179 1.61122 5.8531C1.61132 5.8544 1.61145 5.85628 1.61157 5.85878C1.61181 5.86385 1.612 5.87085 1.612 5.88H2.612C2.612 5.80141 2.60706 5.68805 2.57034 5.57789L1.62166 5.89411ZM1.612 5.88C1.612 5.90424 1.60509 5.83497 1.66397 5.74665C1.69784 5.69586 1.74875 5.64661 1.81639 5.61279C1.88196 5.58 1.94253 5.572 1.984 5.572V6.572C2.17232 6.572 2.37062 6.48945 2.49603 6.30135C2.59757 6.14903 2.612 5.98376 2.612 5.88H1.612ZM1.984 5.572C2.11672 5.572 2.18942 5.63895 2.19468 5.6439C2.19968 5.6486 2.19676 5.64679 2.187 5.63341C2.17754 5.62044 2.16432 5.60025 2.14779 5.57087L1.27621 6.06113C1.33655 6.1684 1.41226 6.28075 1.50932 6.3721C1.60525 6.46239 1.76595 6.572 1.984 6.572V5.572ZM2.15921 5.59239C2.04616 5.36629 1.96351 5.1445 1.90907 4.92673L0.938929 5.16927C1.01249 5.4635 1.12184 5.7537 1.26479 6.03961L2.15921 5.59239ZM1.91349 4.94602C1.86669 4.72137 1.844 4.5049 1.844 4.296H0.844C0.844 4.57776 0.874645 4.86262 0.93451 5.14998L1.91349 4.94602ZM1.844 4.296C1.844 3.76855 1.97902 3.28837 2.25043 2.84508L1.39757 2.32292C1.02898 2.92496 0.844 3.58611 0.844 4.296H1.844ZM2.25275 2.84125C2.53136 2.37689 2.91395 1.98258 3.40962 1.65848L2.86238 0.821515C2.24872 1.22275 1.75664 1.72444 1.39525 2.32675L2.25275 2.84125ZM3.40963 1.65848C3.90199 1.33655 4.46517 1.12003 5.1062 1.0132L4.9418 0.0268025C4.17483 0.15463 3.47934 0.418113 2.86238 0.821515L3.40963 1.65848ZM5.10119 1.01401C5.4349 0.961864 5.7516 0.920364 6.05145 0.889345L5.94855 -0.105347C5.62973 -0.0723649 5.29577 -0.0285315 4.94681 0.0259935L5.10119 1.01401ZM6.04975 0.889518C6.3551 0.858984 6.6424 0.844 6.912 0.844V-0.156C6.6056 -0.156 6.28491 -0.138985 5.95025 -0.105519L6.04975 0.889518ZM6.912 0.844C8.12383 0.844 9.06292 1.06855 9.76299 1.47926L10.269 0.616737C9.36908 0.0887785 8.23884 -0.156 6.912 -0.156V0.844ZM9.76978 1.48317C10.4998 1.8962 11.0232 2.44315 11.3596 3.12515L12.2564 2.68285C11.8248 1.80751 11.1536 1.11714 10.2622 0.612825L9.76978 1.48317ZM11.3596 3.12515C11.7073 3.83034 11.884 4.60729 11.884 5.464H12.884C12.884 4.46471 12.6767 3.53499 12.2564 2.68285L11.3596 3.12515ZM11.884 5.464C11.884 6.31615 11.7207 7.19071 11.3872 8.09017L12.3248 8.43783C12.6953 7.43862 12.884 6.44651 12.884 5.464H11.884ZM11.3855 8.09483C11.0624 8.99341 10.5974 9.83857 9.98769 10.6311L10.7803 11.2409C11.4506 10.3694 11.9669 9.43326 12.3265 8.43317L11.3855 8.09483ZM9.98711 10.6319C9.39133 11.4094 8.68509 12.0703 7.86665 12.616L8.42135 13.448C9.33091 12.8417 10.118 12.1052 10.7809 11.2401L9.98711 10.6319ZM7.86884 12.6145C7.43892 12.8979 6.97457 13.118 6.47433 13.2749L6.77367 14.2291C7.36143 14.0447 7.91041 13.7848 8.41916 13.4495L7.86884 12.6145ZM6.47433 13.2749C5.97223 13.4324 5.50015 13.508 5.056 13.508V14.508C5.61452 14.508 6.18777 14.4129 6.77367 14.2291L6.47433 13.2749ZM10.704 18.436C9.80162 18.436 9.0311 18.3333 8.385 18.1375L8.095 19.0945C8.8569 19.3254 9.72905 19.436 10.704 19.436V18.436ZM8.38704 18.1381C7.73134 17.9364 7.16719 17.6774 6.68939 17.3654L6.14261 18.2026C6.71014 18.5733 7.362 18.869 8.09296 19.0939L8.38704 18.1381ZM6.69335 17.368C6.20263 17.0408 5.76661 16.6956 5.38387 16.333L4.69613 17.059C5.12405 17.4644 5.60537 17.8445 6.13865 18.2L6.69335 17.368ZM5.3836 16.3328C4.99028 15.9607 4.61844 15.6048 4.26807 15.265L3.57193 15.983C3.92556 16.3259 4.30039 16.6846 4.6964 17.0592L5.3836 16.3328ZM4.26807 15.265C3.8921 14.9005 3.50354 14.5975 3.10151 14.361L2.59449 15.223C2.9178 15.4131 3.2439 15.6649 3.57193 15.983L4.26807 15.265ZM3.10715 14.3644C2.67207 14.1007 2.18676 13.972 1.664 13.972V14.972C2.01591 14.972 2.31993 15.0566 2.58885 15.2196L3.10715 14.3644ZM1.664 13.972C1.47934 13.972 1.29144 14.017 1.11183 14.0811L1.44817 15.0229C1.56723 14.9804 1.63532 14.972 1.664 14.972V13.972ZM1.10051 14.0853C0.90022 14.1624 0.719723 14.2765 0.559664 14.422L1.23234 15.162C1.30694 15.0941 1.38245 15.0483 1.45949 15.0187L1.10051 14.0853ZM0.542447 14.4384C0.323519 14.6574 0.236 14.9387 0.236 15.224H1.236C1.236 15.1821 1.24215 15.161 1.24487 15.1537C1.24698 15.148 1.24811 15.147 1.24955 15.1456L0.542447 14.4384ZM0.236 15.224C0.236 15.2307 0.234647 15.2029 0.249659 15.1579C0.265699 15.1098 0.308609 15.02 0.410651 14.952L0.965349 15.784C1.22579 15.6104 1.236 15.3179 1.236 15.224H0.236ZM0.334446 15.0144C0.335511 15.0134 0.353105 14.9954 0.386752 14.9753C0.417723 14.9567 0.495723 14.916 0.608 14.916V15.916C0.741611 15.916 0.843611 15.8673 0.901248 15.8327C0.961562 15.7966 1.00849 15.7546 1.04155 15.7216L0.334446 15.0144ZM0.608 14.916C0.654812 14.916 0.720075 14.9263 0.787821 14.9639C0.856235 15.0019 0.901718 15.0537 0.928746 15.0988C0.973859 15.1739 0.964 15.2223 0.964 15.176H-0.036C-0.036 15.2897 -0.0218587 15.4581 0.0712536 15.6132C0.188781 15.8091 0.390611 15.916 0.608 15.916V14.916ZM0.964 15.176C0.964 14.9932 1.02732 14.8419 1.18586 14.6966L0.510138 13.9594C0.156682 14.2834 -0.036 14.6974 -0.036 15.176H0.964ZM1.17725 14.7043C1.33576 14.5656 1.52574 14.492 1.776 14.492V13.492C1.30093 13.492 0.872237 13.6424 0.518748 13.9517L1.17725 14.7043ZM1.776 14.492C2.27856 14.492 2.72067 14.5984 3.11237 14.8031L3.57563 13.9169C3.02866 13.631 2.42544 13.492 1.776 13.492V14.492ZM3.11644 14.8052C3.56229 15.0331 4.00235 15.3225 4.43636 15.6758L5.06764 14.9002C4.58431 14.5068 4.08571 14.1776 3.57156 13.9148L3.11644 14.8052ZM4.43538 15.675C4.91262 16.0654 5.43192 16.4657 5.99299 16.8757L6.58301 16.0683C6.03475 15.6677 5.53005 15.2786 5.06862 14.901L4.43538 15.675ZM5.99494 16.8771C6.51663 17.2545 7.0808 17.6028 7.6868 17.9223L8.15321 17.0377C7.58587 16.7386 7.06204 16.4148 6.58106 16.0669L5.99494 16.8771ZM7.68389 17.9207C8.30686 18.2545 8.93808 18.5229 9.57744 18.7248L9.87857 17.7712C9.30192 17.5891 8.72781 17.3455 8.15611 17.0393L7.68389 17.9207ZM9.5798 18.7255C10.2376 18.9297 10.8692 19.036 11.472 19.036V18.036C10.9868 18.036 10.4557 17.9503 9.8762 17.7705L9.5798 18.7255ZM11.472 19.036C11.7789 19.036 12.0741 18.9991 12.3556 18.9224L12.0924 17.9576C11.9046 18.0089 11.6985 18.036 11.472 18.036V19.036ZM12.3556 18.9224C12.6779 18.8345 12.9575 18.6674 13.1763 18.4173L12.4237 17.7587C12.3439 17.85 12.2395 17.9175 12.0924 17.9576L12.3556 18.9224ZM13.1648 18.43C13.4338 18.1431 13.54 17.7732 13.54 17.384H12.54C12.54 17.5921 12.4862 17.6916 12.4352 17.746L13.1648 18.43ZM13.54 17.384C13.54 16.9555 13.3915 16.5426 13.1401 16.1529L12.2999 16.6951C12.4751 16.9668 12.54 17.1939 12.54 17.384H13.54ZM13.1424 16.1565C12.893 15.7627 12.537 15.4265 12.0961 15.1405L11.5519 15.9795C11.9003 16.2055 12.1416 16.4453 12.2976 16.6915L13.1424 16.1565ZM12.088 15.1354C11.6254 14.8478 11.0838 14.6633 10.476 14.5698L10.324 15.5582C10.8255 15.6353 11.2333 15.7815 11.56 15.9846L12.088 15.1354ZM10.5213 14.5789C10.5063 14.5752 10.5046 14.5733 10.5116 14.5768C10.519 14.5805 10.5386 14.5915 10.5616 14.6144L9.85445 15.3216C9.98405 15.4512 10.1433 15.5152 10.2787 15.5491L10.5213 14.5789ZM10.5616 14.6144C10.5734 14.6263 10.644 14.7033 10.644 14.84H9.644C9.644 15.062 9.75728 15.2244 9.85445 15.3216L10.5616 14.6144ZM10.644 14.84C10.644 14.8867 10.6342 14.9569 10.5923 15.031C10.5492 15.1073 10.4887 15.1583 10.433 15.1882C10.3407 15.238 10.2759 15.2236 10.3137 15.2265L10.3903 14.2295C10.2894 14.2217 10.1206 14.2207 9.95895 14.3078C9.86862 14.3564 9.78214 14.4321 9.72172 14.539C9.66251 14.6437 9.644 14.7506 9.644 14.84H10.644ZM10.2736 15.2218C10.9011 15.3214 11.4041 15.492 11.7967 15.7203L12.2993 14.8557C11.7746 14.5507 11.1469 14.3479 10.4304 14.2342L10.2736 15.2218ZM11.7936 15.7185C12.2203 15.9706 12.5192 16.2367 12.714 16.5078L13.526 15.9242C13.2302 15.5126 12.8144 15.1601 12.3024 14.8575L11.7936 15.7185ZM12.7098 16.5019C12.9118 16.7917 12.988 17.0405 12.988 17.256H13.988C13.988 16.7889 13.8189 16.3443 13.5302 15.9301L12.7098 16.5019ZM12.988 17.256C12.988 17.5067 12.8739 17.7598 12.5191 18.0217L13.1129 18.8263C13.6541 18.4269 13.988 17.9013 13.988 17.256H12.988ZM12.513 18.0263C12.1947 18.2688 11.6242 18.436 10.704 18.436V19.436C11.7038 19.436 12.5413 19.2619 13.119 18.8217L12.513 18.0263Z" fill="#F4C9D0"/>
</svg>
