<svg width="30" height="30" viewBox="0 0 30 30" fill="none" xmlns="http://www.w3.org/2000/svg">
<path fill-rule="evenodd" clip-rule="evenodd" d="M21.1659 3.03635C21.2527 3.12203 21.3215 3.22381 21.3685 3.33586C21.4155 3.44792 21.4397 3.56804 21.4397 3.68936C21.4397 3.81068 21.4155 3.93081 21.3685 4.04286C21.3215 4.15492 21.2527 4.2567 21.1659 4.34237L10.6388 14.7573L21.1659 25.1723C21.2525 25.2581 21.3213 25.3599 21.3682 25.4719C21.4151 25.584 21.4392 25.7041 21.4392 25.8253C21.4392 25.9466 21.4151 26.0667 21.3682 26.1787C21.3213 26.2908 21.2525 26.3926 21.1659 26.4783C21.0792 26.5641 20.9763 26.6321 20.8631 26.6785C20.7499 26.7249 20.6285 26.7488 20.5059 26.7488C20.3834 26.7488 20.262 26.7249 20.1488 26.6785C20.0356 26.6321 19.9327 26.5641 19.846 26.4783L8.6609 15.4104C8.57409 15.3247 8.50523 15.2229 8.45824 15.1108C8.41125 14.9988 8.38706 14.8787 8.38706 14.7573C8.38706 14.636 8.41125 14.5159 8.45824 14.4038C8.50523 14.2918 8.57409 14.19 8.6609 14.1043L19.846 3.03635C19.9326 2.95046 20.0355 2.88231 20.1487 2.83581C20.2619 2.78932 20.3833 2.76538 20.5059 2.76538C20.6285 2.76538 20.7499 2.78932 20.8632 2.83581C20.9764 2.88231 21.0793 2.95046 21.1659 3.03635Z" fill="white"/>
</svg>
