<svg width="30" height="30" viewBox="0 0 30 30" fill="none" xmlns="http://www.w3.org/2000/svg">
<path fill-rule="evenodd" clip-rule="evenodd" d="M8.70279 26.5977C8.61599 26.512 8.54712 26.4102 8.50013 26.2982C8.45314 26.1861 8.42896 26.066 8.42896 25.9447C8.42896 25.8234 8.45314 25.7032 8.50013 25.5912C8.54712 25.4791 8.61599 25.3773 8.70279 25.2917L19.2299 14.8767L8.70279 4.46171C8.61613 4.37596 8.54738 4.27415 8.50048 4.16211C8.45358 4.05006 8.42944 3.92998 8.42944 3.8087C8.42944 3.68743 8.45358 3.56734 8.50048 3.45529C8.54738 3.34325 8.61613 3.24144 8.70279 3.15569C8.78945 3.06994 8.89234 3.00191 9.00557 2.9555C9.1188 2.90909 9.24015 2.8852 9.36271 2.8852C9.48527 2.8852 9.60663 2.90909 9.71986 2.9555C9.83309 3.00191 9.93597 3.06994 10.0226 3.15569L21.2078 14.2237C21.2946 14.3094 21.3634 14.4111 21.4104 14.5232C21.4574 14.6352 21.4816 14.7554 21.4816 14.8767C21.4816 14.998 21.4574 15.1181 21.4104 15.2302C21.3634 15.3422 21.2946 15.444 21.2078 15.5297L10.0226 26.5977C9.93605 26.6836 9.8332 26.7517 9.71996 26.7982C9.60671 26.8447 9.48532 26.8687 9.36271 26.8687C9.24011 26.8687 9.11871 26.8447 9.00547 26.7982C8.89223 26.7517 8.78938 26.6836 8.70279 26.5977Z" fill="white"/>
</svg>
