<?xml version="1.0" encoding="UTF-8"?>
<svg id="_レイヤー_1" data-name="レイヤー 1" xmlns="http://www.w3.org/2000/svg" viewBox="0 0 8.8 16.3">
  <defs>
    <style>
      .cls-1 {
        fill: #ab2239;
        fill-rule: evenodd;
      }
    </style>
  </defs>
  <path class="cls-1" d="M.2,16.1c0,0-.1-.1-.1-.2,0,0,0-.2,0-.2s0-.2,0-.2c0,0,0-.1.1-.2l7.1-7.1L.2,1.1c0,0-.1-.1-.1-.2C0,.8,0,.7,0,.6s0-.2,0-.2c0,0,0-.1.1-.2,0,0,.1-.1.2-.1,0,0,.2,0,.2,0s.2,0,.2,0c0,0,.1,0,.2.1l7.5,7.5c0,0,.1.1.1.2,0,0,0,.2,0,.2s0,.2,0,.2c0,0,0,.1-.1.2l-7.5,7.5c0,0-.1.1-.2.1,0,0-.2,0-.2,0s-.2,0-.2,0c0,0-.1,0-.2-.1Z"/>
</svg>