<?xml version="1.0" encoding="UTF-8"?>
<svg id="_レイヤー_1" data-name="レイヤー_1" xmlns="http://www.w3.org/2000/svg" version="1.1" viewBox="0 0 20 20">
  <!-- Generator: Adobe Illustrator 29.1.0, SVG Export Plug-In . SVG Version: 2.1.0 Build 142)  -->
  <defs>
    <style>
      .st0 {
        fill: #ab2239;
        fill-rule: evenodd;
      }
    </style>
  </defs>
  <path class="st0" d="M5.8,17.9c0,0-.1-.1-.1-.2,0,0,0-.2,0-.2s0-.2,0-.2c0,0,0-.1.1-.2l7.1-7.1L5.8,2.9c0,0-.1-.1-.1-.2,0,0,0-.2,0-.2s0-.2,0-.2c0,0,0-.1.1-.2,0,0,.1-.1.2-.1,0,0,.2,0,.2,0s.2,0,.2,0c0,0,.1,0,.2.1l7.5,7.5c0,0,.1.1.1.2,0,0,0,.2,0,.2s0,.2,0,.2c0,0,0,.1-.1.2l-7.5,7.5c0,0-.1.1-.2.1,0,0-.2,0-.2,0s-.2,0-.2,0c0,0-.1,0-.2-.1Z"/>
</svg>