<svg width="119" height="28" viewBox="0 0 119 28" fill="none" xmlns="http://www.w3.org/2000/svg">
<path d="M26.0181 6.81604L25.5607 7.88004C22.5115 14.0614 19.6656 18.52 17.0738 21.3574C13.2624 25.4614 9.29842 27.5387 5.18203 27.5387C1.06563 27.5387 0.150879 26.4747 0.150879 24.3974C0.150879 22.32 1.06563 20.344 2.84432 17C2.23449 17.608 1.77711 17.8107 1.42137 17.608C1.06563 17.4054 1.01481 17.152 1.21809 16.848L2.84432 14.872C3.96235 13.352 4.57219 11.832 4.57219 10.3627C4.57219 8.89337 4.11481 7.98137 3.14924 7.67737C6.75744 7.27204 8.84104 7.12004 9.45088 7.12004C10.0607 7.12004 10.4165 7.3227 10.5689 7.6267C10.7214 7.9307 10.7722 8.28537 10.7722 8.6907C10.7722 11.072 9.80662 13.8587 7.92629 17.0507C6.04596 20.2427 5.08039 22.4214 5.08039 23.536C5.08039 24.6507 5.33449 25.2587 5.8935 25.4614C6.45252 25.6134 6.96072 25.7147 7.51973 25.7147C9.09514 25.7147 10.8738 24.904 12.8558 23.2827C14.8378 21.6614 16.8197 19.2294 18.8017 16.088C17.9378 14.872 17.5312 13.7574 17.5312 12.7947C17.5312 11.832 17.7345 11.0214 18.0902 10.2614C19.1574 8.03204 20.8853 6.66404 23.223 6.15737C23.6804 6.05604 24.1378 6.00537 24.5951 6.00537C25.5607 6.00537 26.0181 6.30937 26.0181 6.91737V6.81604Z" fill="white"/>
<path d="M42.0771 6.76538C46.4476 6.76538 48.6837 8.53871 48.6837 12.136C48.6837 15.7334 48.023 15.5307 46.7017 17.3547C45.0247 19.888 42.4837 22.168 39.1296 24.1947C39.8919 25.1574 41.3148 25.664 43.3476 25.664C45.3804 25.664 46.4984 25.1574 47.9722 24.0934C49.7509 22.8774 51.0722 21.8134 51.8345 20.9014C52.5968 19.9894 53.2066 19.3307 53.5624 18.8747C53.9181 18.4694 54.3755 17.8614 54.9853 17.0507C55.5443 16.24 55.9001 15.784 56.0017 15.5814C56.1033 15.4294 56.3066 15.328 56.6115 15.328C57.2214 15.328 57.5263 15.4294 57.5263 15.7334C57.5263 16.0374 57.4755 15.9867 57.323 16.1387L56.764 16.9494C56.4083 17.5067 56.1542 17.8614 55.9509 18.1147C55.7476 18.368 55.4427 18.7734 54.9853 19.3814C54.5279 19.9894 54.1214 20.4454 53.8165 20.8C53.4607 21.1547 53.0542 21.6107 52.4443 22.2187C51.8853 22.776 51.3771 23.2827 50.9197 23.6374C50.4624 23.992 49.9033 24.3974 49.2427 24.8027C48.582 25.208 47.9722 25.5627 47.3624 25.816C45.8378 26.3734 44.4656 26.6774 43.1443 26.6774C40.6542 26.6774 38.7738 26.1707 37.3509 25.1574C34.6066 26.4747 32.0148 27.1334 29.6771 27.1334C25.3066 27.1334 23.0706 25.36 23.0706 21.7627C23.0706 18.1654 23.7312 18.368 25.0525 16.544C26.8312 13.808 29.3722 11.528 32.6755 9.65338C35.9279 7.77871 39.0788 6.81605 42.0263 6.81605L42.0771 6.76538ZM43.0427 8.53871C41.4165 8.53871 39.4853 9.24805 37.2492 10.616C35.0132 12.0347 33.0312 13.9094 31.3033 16.2907C29.2197 19.0774 28.1525 21.3574 28.1525 23.1307C28.1525 24.904 29.2197 25.816 31.3033 25.816C33.387 25.816 34.505 25.3094 36.3345 24.2454C35.3689 23.3334 34.9115 22.4214 34.9115 21.408C35.0132 19.736 36.0804 18.9254 38.0624 18.9254C40.0443 18.9254 39.4853 19.0774 39.9935 19.432C40.5017 19.7867 40.7558 20.0907 40.7558 20.3947C40.7558 20.6987 40.705 21.0027 40.5525 21.3067C41.5689 20.344 42.7378 18.976 44.0591 17.2027C45.5837 15.2267 46.2951 13.3014 46.2951 11.376C46.2951 9.45071 45.1771 8.53871 42.941 8.53871H43.0427Z" fill="white"/>
<path d="M59.4066 25.8159C60.5246 25.8159 61.7443 25.4612 63.0147 24.7012C65.2508 23.2826 68.0459 20.3439 71.5016 15.9359C71.9082 15.3786 72.3656 15.1759 72.7721 15.4292C72.8738 15.5306 72.9754 15.6319 72.9754 15.7839C72.9754 15.9359 72.7213 16.3919 72.2639 17.0506C71.8066 17.7092 71.3492 18.3172 70.9426 18.8746C70.5361 19.4319 69.8246 20.2932 68.7066 21.5092C67.5885 22.7252 66.5721 23.6879 65.7082 24.3466C63.218 26.1706 60.9311 27.0826 58.6951 27.0826C56.459 27.0826 54.9344 26.6772 53.9688 25.8159C53.0033 24.9546 52.5459 23.9919 52.5459 22.9786C52.5459 21.9652 52.9525 20.7999 53.7147 19.5332L59.5082 10.0586C59.6098 9.80522 59.7115 9.50122 59.7115 9.14655C59.7115 8.79189 59.3557 8.23455 58.6443 7.62655H63.6246C64.9967 7.57589 65.8098 7.72789 66.0639 8.08255C66.318 8.43722 66.1148 8.94388 65.5049 9.60255L58.2885 20.4452C57.2721 21.8639 56.7639 23.0799 56.7639 24.0932C56.7639 25.1066 57.6787 25.7652 59.559 25.7652L59.4066 25.8159ZM68.2492 4.48522C67.3852 4.94122 66.4705 5.19455 65.4541 5.19455C64.4377 5.19455 63.6246 4.94122 63.0147 4.48522C62.4049 4.02922 62.1508 3.47188 62.3033 2.81322C62.5066 2.15455 63.0147 1.59722 63.8279 1.14122C64.6918 0.685218 65.6066 0.431885 66.6229 0.431885C67.6393 0.431885 68.4525 0.685218 69.1131 1.14122C69.7229 1.59722 69.977 2.15455 69.7738 2.81322C69.5705 3.47188 69.0623 4.02922 68.2492 4.48522Z" fill="white"/>
<path d="M88.1706 13.7067C90.2542 12.0854 91.3214 10.7174 91.3214 9.60274C91.3214 8.48808 90.6099 7.93074 89.1362 7.93074C86.2903 7.93074 83.0886 9.60274 79.4804 12.9467C78.3624 14.0107 77.2444 15.3787 76.1263 17.0507C75.0591 18.7734 74.5001 20.2934 74.5001 21.6614C74.5001 23.0294 74.9575 24.1441 75.8214 25.0054C76.6854 25.8667 78.0575 26.2721 79.887 26.2721C81.7165 26.2721 83.4444 25.9681 84.969 25.4107C86.5444 24.8534 88.0181 23.9414 89.4411 22.7254C90.864 21.5094 91.9313 20.4961 92.6427 19.6854C93.3542 18.8747 94.3706 17.6587 95.6411 16.0374C96.0476 15.4801 96.4034 15.2774 96.7083 15.3787C97.0132 15.4801 97.1657 15.6321 97.1657 15.7841C97.1657 15.9361 96.7591 16.5947 95.946 17.7094C95.1329 18.8241 94.3198 19.8374 93.5067 20.8001C92.6935 21.7627 91.5247 22.8774 90.0509 24.0427C87.3575 26.2214 83.6476 27.2854 78.9722 27.2854C74.2968 27.2854 73.1788 26.7281 71.705 25.6641C70.2313 24.6001 69.5198 23.3841 69.5198 21.9654C69.5198 20.5467 70.1804 18.4187 71.4509 16.3921C72.7214 14.3654 74.246 12.6427 75.9231 11.1734C79.4296 8.13341 83.4444 6.56274 88.0181 6.56274C92.5919 6.56274 91.8296 6.91741 92.846 7.57608C93.8624 8.23474 94.3198 9.04541 94.3198 9.90674C94.3198 11.2241 93.4558 12.3387 91.7788 13.3014C90.9149 13.8081 90.2542 14.0614 89.6444 14.0614C89.0345 14.0614 88.5772 13.9094 88.1706 13.6561V13.7067Z" fill="white"/>
<path d="M98.9951 18.1653C98.1311 19.4826 97.7246 20.952 97.7246 22.5733C97.7246 24.1946 98.0803 24.4986 98.8426 25.1573C99.6049 25.816 100.672 26.12 102.044 26.12C107.533 26.12 112.462 22.8266 116.934 16.1893C117.341 15.5813 117.849 15.2773 118.459 15.3786C118.713 15.3786 118.815 15.5306 118.815 15.6826C118.815 15.8346 118.154 16.848 116.782 18.7226C115.41 20.5973 114.038 22.1173 112.666 23.2826C109.616 26.0186 105.805 27.336 101.282 27.336C96.759 27.336 96.8098 26.8293 95.1328 25.816C93.4557 24.8026 92.5918 23.4346 92.5918 21.712C92.5918 19.9893 93.2524 18.1146 94.5229 16.1386C95.7934 14.1626 97.5721 12.3386 99.8082 10.6666C102.044 8.99464 104.585 7.72798 107.482 6.96798C108.854 6.56264 110.175 6.41064 111.446 6.41064C112.716 6.41064 113.885 6.66398 114.952 7.11998C115.969 7.67731 116.477 8.28531 116.477 8.94398C116.477 11.2746 114.292 13.504 109.972 15.632C108.651 16.2906 106.77 16.8986 104.382 17.4053C101.993 17.912 100.164 18.1653 98.8934 18.1653H98.9951ZM114.139 8.84264C114.139 8.08264 113.682 7.67731 112.716 7.67731C111.039 7.67731 108.498 8.99464 105.043 11.68C103.01 13.3013 101.18 15.1253 99.6049 17.152C100.621 17.152 102.095 16.8986 104.077 16.4426C106.008 15.9866 107.736 15.3786 109.159 14.568C112.462 12.744 114.139 10.8186 114.139 8.79198V8.84264Z" fill="white"/>
</svg>
