<svg width="238" height="50" viewBox="0 0 238 50" fill="none" xmlns="http://www.w3.org/2000/svg">
<path d="M24.0241 38.5741C24.0241 39.5656 24.5894 40.085 25.6728 40.085C28.3107 40.085 31.985 36.9216 36.7898 30.5477C37.1666 30.0283 37.5435 29.8395 37.8261 29.9339C38.1088 30.0283 38.2972 30.17 38.2972 30.3588C38.2972 30.5477 37.9674 31.067 37.3551 31.9169C36.6956 32.7667 36.0832 33.5694 35.4237 34.372C34.7642 35.1275 33.8692 36.1662 32.6445 37.441C30.1007 39.9905 27.3686 41.2181 24.448 41.2181C21.5275 41.2181 21.0564 40.6988 19.9259 39.7073C19.4077 39.2351 19.1722 38.5741 19.1722 37.7715C19.1722 36.9688 19.4548 35.9773 20.0201 34.797C20.5853 33.6638 22.0927 31.7752 24.6365 29.1785C25.2488 28.5175 25.5786 27.9981 25.5786 27.6204C25.5786 27.2427 25.1075 27.0538 24.1654 27.0538C23.2233 27.0538 21.3861 27.8565 18.7482 29.509C14.7442 31.8697 10.8344 35.458 7.01884 40.2266C6.64199 40.746 5.60566 41.0293 3.90985 41.0293C2.40246 41.1237 1.46034 41.2181 1.0835 41.3598C11.6823 27.101 19.3606 17.1388 24.0712 11.5203C25.1075 10.2455 26.0496 9.39564 26.8504 8.87628C27.6512 8.35692 28.6405 8.12085 29.7239 8.12085C30.8073 8.12085 30.5718 8.12085 31.4668 8.26249C32.3618 8.35692 33.0213 8.35692 33.4924 8.35692C31.7966 9.49007 28.8289 12.559 24.4951 17.6581C20.1614 22.7101 16.0161 27.9037 12.0592 33.0972C14.6971 30.9726 17.0524 29.3201 19.1251 28.0925C21.1977 26.9122 23.7886 25.779 26.7562 24.6931C29.771 23.6072 31.985 23.0878 33.3511 23.0878C34.7171 23.0878 34.0105 23.0878 34.2932 23.1822C27.4157 30.9726 24.0241 36.0717 24.0241 38.5269V38.5741Z" fill="white"/>
<path d="M52.1462 22.0491C56.1973 22.0491 58.2699 23.7016 58.2699 27.0538C58.2699 30.406 57.6576 30.2172 56.4328 31.9169C54.8783 34.2776 52.523 36.4022 49.414 38.2908C50.1206 39.1879 51.4396 39.66 53.3238 39.66C55.2081 39.66 56.2444 39.1879 57.6105 38.1964C59.2592 37.0632 60.4839 36.0717 61.1905 35.2219C61.8971 34.372 62.4624 33.7582 62.7921 33.3333C63.1219 32.9556 63.5458 32.389 64.1111 31.6336C64.6293 30.8782 64.959 30.4532 65.0532 30.2644C65.1474 30.1227 65.3358 30.0283 65.6185 30.0283C66.1837 30.0283 66.4664 30.1227 66.4664 30.406C66.4664 30.6893 66.4193 30.6421 66.278 30.7837L65.7598 31.5392C65.4301 32.0585 65.1945 32.389 65.0061 32.6251C64.8177 32.8612 64.535 33.2389 64.1111 33.8054C63.6871 34.372 63.3103 34.7969 63.0277 35.1274C62.6979 35.4579 62.3211 35.8829 61.7558 36.4494C61.2376 36.9688 60.7666 37.441 60.3426 37.7715C59.9187 38.102 59.4005 38.4797 58.7881 38.8574C58.1757 39.2351 57.6105 39.5656 57.0452 39.8017C55.632 40.321 54.3602 40.6043 53.1354 40.6043C50.8272 40.6043 49.0843 40.1322 47.7653 39.1879C45.2216 40.4155 42.8192 41.0292 40.6523 41.0292C36.6012 41.0292 34.5286 39.3767 34.5286 36.0245C34.5286 32.6723 35.1409 32.8612 36.3657 31.1614C38.0144 28.6119 40.3697 26.4872 43.4316 24.7403C46.4464 22.9934 49.3669 22.0963 52.0991 22.0963L52.1462 22.0491ZM53.0412 23.7016C51.5338 23.7016 49.7438 24.3626 47.6711 25.6374C45.5985 26.9594 43.7613 28.7063 42.1597 30.9254C40.2284 33.5222 39.2392 35.6468 39.2392 37.2993C39.2392 38.9518 40.2284 39.8017 42.1597 39.8017C44.0911 39.8017 45.1274 39.3295 46.8232 38.338C45.9282 37.4882 45.5042 36.6383 45.5042 35.694C45.5985 34.1359 46.5877 33.3805 48.4248 33.3805C50.2619 33.3805 49.7438 33.5222 50.2148 33.8527C50.6859 34.1832 50.9214 34.4664 50.9214 34.7497C50.9214 35.033 50.8743 35.3163 50.733 35.5996C51.6751 34.7025 52.7586 33.4277 53.9833 31.7752C55.3965 29.9339 56.056 28.1397 56.056 26.3456C56.056 24.5514 55.0196 23.7016 52.947 23.7016H53.0412Z" fill="white"/>
<path d="M102.22 22.0962L101.796 22.9933C99.3465 28.2813 97.1325 32.1056 95.1069 34.5608C91.4798 38.9045 87.5229 41.0764 83.2362 41.0764C78.9496 41.0764 79.8446 40.7459 79.138 40.0849C78.4314 39.4239 78.0075 38.8101 77.9133 38.2907C77.819 37.7714 77.7719 37.2992 77.7719 36.8743C77.7719 35.8828 78.0075 34.8441 78.5256 33.6637C74.3803 38.5268 70.7061 40.9819 67.4086 40.9819C64.1112 40.9819 65.0533 40.7459 64.0641 40.3209C63.0749 39.8488 62.4625 39.2822 62.227 38.5268C62.0386 38.3379 61.9915 38.1491 61.9915 37.8658C61.9915 36.3077 63.0278 34.4191 65.1004 32.2473C64.2054 32.2473 63.9699 31.964 64.3468 31.3974L65.8541 29.5088C68.5863 26.0622 70.1408 24.0792 70.5176 23.5598C71.0829 22.8044 72.1663 22.4267 73.7679 22.4267H78.8554C76.8298 23.371 74.8043 25.1651 72.7787 27.8563C70.7532 30.5476 69.1987 32.6722 68.1152 34.1831C67.0318 35.6939 66.4665 36.8743 66.4665 37.6769C66.4665 38.4796 66.6549 39.0461 67.0789 39.4239C67.5028 39.7544 68.021 39.9432 68.7276 39.9432C69.4342 39.9432 70.1879 39.6599 71.13 39.0461C72.0721 38.4324 72.92 37.8186 73.7208 37.1104C74.5216 36.4021 75.2753 35.6467 76.1232 34.7969C76.924 33.947 77.6777 33.0971 78.3372 32.3417C78.9967 31.5863 79.7504 30.642 80.5041 29.6505C81.3049 28.6118 81.9173 27.8091 82.3412 27.2426C83.9428 25.1651 84.8378 23.9376 85.0263 23.6071C85.5444 22.8516 86.5807 22.4739 88.1823 22.4739H93.2698C93.1756 22.5683 92.8458 22.71 92.3277 22.8988C91.1971 23.371 90.3963 23.8903 89.9253 24.4569C87.4286 27.1481 85.6386 29.3672 84.6494 31.0197C82.4354 34.7024 81.3049 37.0631 81.3049 38.1019C81.3049 39.1406 82.0586 40.0849 83.566 40.0849H83.9899C87.9939 40.0849 91.9508 36.9215 95.8606 30.642C95.0598 29.5561 94.683 28.5646 94.683 27.6675C94.683 26.7704 94.8714 25.9678 95.2011 25.2123C96.1433 23.1349 97.6506 21.8601 99.7233 21.388C100.1 21.2936 100.477 21.2463 100.807 21.2463C101.702 21.2463 102.126 21.5768 102.126 22.1434L102.22 22.0962Z" fill="white"/>
<path d="M105.894 36.6856C105.894 33.7111 108.108 28.6592 112.583 21.6242H108.249C107.967 21.6242 107.778 21.5298 107.684 21.3409C107.59 21.1521 107.637 20.9632 107.778 20.7271C107.92 20.5383 108.108 20.4439 108.391 20.4439H113.431C115.457 17.611 117.294 15.2031 119.037 13.3145C120.78 11.3787 122.334 10.1039 123.794 9.44292C125.255 8.78192 126.291 8.45142 126.95 8.45142C127.61 8.45142 128.034 8.45142 128.316 8.54585C129.588 8.92356 130.248 9.77342 130.248 11.001C130.248 12.2286 129.588 13.7394 128.316 15.5336C127.045 17.2805 125.773 18.933 124.548 20.4439H128.552C128.835 20.4439 129.023 20.5383 129.117 20.7271C129.211 20.916 129.164 21.1049 129.023 21.3409C128.882 21.5298 128.693 21.6242 128.411 21.6242H123.559C120.497 24.9764 116.776 27.9509 112.442 30.5477L110.51 36.0718C110.322 36.544 110.275 37.0161 110.275 37.441C110.275 37.866 110.463 38.3381 110.84 38.8102C111.217 39.2824 111.829 39.5185 112.677 39.5185C113.525 39.5185 114.703 39.2824 115.833 38.8575C118.518 37.5355 121.486 34.8442 124.689 30.6894C124.925 30.3589 125.16 30.17 125.49 30.0756C125.773 29.9812 125.961 30.0756 126.055 30.2172C126.102 30.3589 126.055 30.6422 125.82 31.0199C123.983 33.5222 122.522 35.2692 121.486 36.3079C118.471 39.4712 115.268 41.0293 111.876 41.0293C108.485 41.0293 108.72 40.6044 107.59 39.8017C106.459 38.9519 105.941 37.9132 105.941 36.6384L105.894 36.6856ZM121.627 21.6242H117.718C117.058 22.6157 115.551 25.0237 113.195 28.848C116.21 26.8178 119.037 24.4099 121.627 21.6242ZM122.711 20.3966C126.385 16.1474 128.222 13.1729 128.222 11.5203C128.222 9.86785 128.034 10.4344 127.657 10.4344C127.045 10.4344 126.102 11.001 124.878 12.1813C123.606 13.3145 121.533 16.1001 118.566 20.3966H122.758H122.711Z" fill="white"/>
<path d="M139.952 22.0491C144.003 22.0491 146.075 23.7016 146.075 27.0538C146.075 30.406 145.463 30.2172 144.238 31.9169C142.684 34.2776 140.328 36.4022 137.219 38.2908C137.926 39.1879 139.245 39.66 141.129 39.66C143.013 39.66 144.05 39.1879 145.416 38.1964C147.065 37.0632 148.289 36.0717 148.996 35.2219C149.703 34.372 150.268 33.7582 150.598 33.3333C150.927 32.9556 151.351 32.389 151.917 31.6336C152.435 30.8782 152.764 30.4532 152.859 30.2644C152.953 30.1227 153.141 30.0283 153.424 30.0283C153.989 30.0283 154.272 30.1227 154.272 30.406C154.272 30.6893 154.225 30.6421 154.083 30.7837L153.565 31.5392C153.235 32.0585 153 32.389 152.812 32.6251C152.623 32.8612 152.34 33.2389 151.917 33.8054C151.493 34.372 151.116 34.7969 150.833 35.1274C150.503 35.4579 150.126 35.8829 149.561 36.4494C149.043 36.9688 148.572 37.441 148.148 37.7715C147.724 38.102 147.206 38.4797 146.594 38.8574C145.981 39.2351 145.416 39.5656 144.851 39.8017C143.437 40.321 142.166 40.6043 140.941 40.6043C138.633 40.6043 136.89 40.1322 135.571 39.1879C133.027 40.4155 130.625 41.0292 128.458 41.0292C124.407 41.0292 122.334 39.3767 122.334 36.0245C122.334 32.6723 122.946 32.8612 124.171 31.1614C125.82 28.6119 128.175 26.4872 131.237 24.7403C134.252 22.9934 137.172 22.0963 139.904 22.0963L139.952 22.0491ZM140.847 23.7016C139.339 23.7016 137.549 24.3626 135.477 25.6374C133.404 26.9594 131.567 28.7063 129.965 30.9254C128.034 33.5222 127.045 35.6468 127.045 37.2993C127.045 38.9518 128.034 39.8017 129.965 39.8017C131.896 39.8017 132.933 39.3295 134.629 38.338C133.734 37.4882 133.31 36.6383 133.31 35.694C133.404 34.1359 134.393 33.3805 136.23 33.3805C138.067 33.3805 137.549 33.5222 138.02 33.8527C138.491 34.1832 138.727 34.4664 138.727 34.7497C138.727 35.033 138.68 35.3163 138.538 35.5996C139.481 34.7025 140.564 33.4277 141.789 31.7752C143.202 29.9339 143.861 28.1397 143.861 26.3456C143.861 24.5514 142.825 23.7016 140.752 23.7016H140.847Z" fill="white"/>
<path d="M158.087 37.8658C158.087 36.3078 159.124 34.4192 161.196 32.2473C160.301 32.2473 160.066 31.9641 160.443 31.3975L161.95 29.5089C163.834 27.1482 165.389 25.1652 166.614 23.5599C167.179 22.8045 168.262 22.4268 169.864 22.4268H174.951C172.926 23.371 170.9 25.1652 168.875 27.8564C166.849 30.5476 165.247 32.6723 164.164 34.1831C163.034 35.7412 162.468 36.8744 162.468 37.677C162.468 38.4796 162.657 39.0462 163.081 39.3767C163.505 39.7072 164.07 39.8489 164.776 39.8489C165.813 39.8489 167.32 39.1406 169.204 37.677C172.172 35.4579 176.317 30.7365 181.687 23.5599C182.3 22.8045 183.383 22.4268 184.938 22.4268H189.46C188.235 23.0405 187.293 23.6543 186.586 24.3153C185.88 24.9763 184.938 26.1095 183.713 27.762C180.368 32.1057 178.484 34.9858 178.107 36.355C177.919 36.8743 177.872 37.3465 177.872 37.7714C177.872 38.9046 178.484 39.5184 179.709 39.6128C182.724 39.6128 186.445 36.5911 190.826 30.5476C191.156 30.0283 191.485 29.8394 191.815 29.9338C192.145 30.0283 192.333 30.1699 192.333 30.3588C192.333 30.5476 192.098 30.9726 191.58 31.5863C191.062 32.2473 190.59 32.8611 190.119 33.4749C189.648 34.0887 188.942 34.9386 187.953 35.9773C186.963 37.0632 186.068 37.8659 185.22 38.4796C183.054 40.0849 180.934 40.8404 178.814 40.8404C176.694 40.8404 175.281 40.2266 174.527 39.0462C174.198 38.5268 174.009 37.8186 174.009 36.9688C174.009 36.1189 174.292 35.1274 174.857 33.8998C170.806 38.5269 167.038 40.8404 163.552 40.8404C160.066 40.8404 158.794 40.0377 158.276 38.3852C158.087 38.1964 158.04 38.0075 158.04 37.7242L158.087 37.8658Z" fill="white"/>
<path d="M197.986 39.9905C198.693 40.085 199.211 40.085 199.494 40.085C201.708 40.085 203.921 39.2351 206.088 37.5354C207.266 36.5911 209.339 34.2304 212.353 30.4532C212.448 30.2644 212.636 30.17 212.919 30.17C213.437 30.17 213.672 30.2644 213.672 30.5477C213.672 30.831 213.531 30.831 213.296 31.1615C213.06 31.492 212.825 31.8697 212.589 32.2002C212.353 32.5307 212.024 33.05 211.506 33.711C210.987 34.372 210.563 34.8914 210.187 35.2691C209.81 35.6468 209.386 36.1662 208.821 36.7328C208.255 37.2993 207.69 37.7715 207.172 38.102L205.429 39.2823C204.487 39.8961 203.356 40.321 202.084 40.6043C200.012 41.0293 198.033 41.0765 196.055 40.6988C194.783 41.0765 193.652 41.2181 192.616 41.2181C188.659 41.2181 186.257 40.2266 185.409 38.1964C185.22 37.7243 185.173 37.1577 185.173 36.4967C185.173 35.8357 185.503 35.1747 186.21 34.5609C186.916 33.9471 187.623 33.6166 188.424 33.5694C191.25 30.0755 193.7 26.9122 195.678 24.0793C197.892 21.0104 200.483 19.4995 203.45 19.4995C206.418 19.4995 205.005 19.5939 205.759 19.83C206.512 20.0661 206.795 20.3494 206.607 20.6327C206.418 20.9159 205.994 20.9632 205.382 20.7743C204.769 20.5854 204.251 20.491 203.78 20.491C203.309 20.491 202.932 20.5382 202.603 20.6327C200.718 21.1992 199.776 22.474 199.776 24.3626C199.776 26.2512 200.012 26.204 200.436 26.865C200.86 27.526 201.378 28.2342 201.943 28.9896C203.215 30.8782 203.874 32.389 203.874 33.5694C203.874 34.7497 203.309 35.9301 202.131 37.1105C200.954 38.2436 199.588 39.1879 197.939 39.9433L197.986 39.9905ZM188.848 38.1492C188.848 38.3853 188.848 38.6213 188.942 38.8574C189.366 39.8489 190.402 40.321 192.051 40.321C193.7 40.321 193.276 40.2266 193.747 40.085C191.674 39.2351 190.591 37.9131 190.402 36.0245C189.413 36.6855 188.895 37.3938 188.895 38.1492H188.848ZM195.113 39.6128C197.562 38.3853 198.787 36.4023 198.787 33.6638C198.787 30.9254 198.599 31.0198 198.222 29.084C197.845 27.1482 197.656 25.8262 197.656 25.118C197.656 24.4098 197.656 23.9849 197.751 23.7016C193.511 29.1785 190.873 32.5307 189.884 33.711C191.062 33.711 191.627 34.2304 191.627 35.3163C191.627 37.441 192.804 38.8574 195.16 39.6128H195.113Z" fill="white"/>
<path d="M215.839 32.6722C215.039 33.8998 214.662 35.269 214.662 36.7799C214.662 38.2907 214.991 38.574 215.698 39.1878C216.405 39.8016 217.394 40.0849 218.666 40.0849C223.753 40.0849 228.322 37.016 232.468 30.8309C232.845 30.2643 233.316 29.981 233.881 30.0754C234.116 30.0754 234.211 30.2171 234.211 30.3587C234.211 30.5004 233.598 31.4447 232.326 33.1916C231.055 34.9385 229.783 36.355 228.511 37.4409C225.685 39.9905 222.152 41.218 217.959 41.218C213.767 41.218 213.814 40.7459 212.259 39.8016C210.705 38.8573 209.904 37.5825 209.904 35.9772C209.904 34.372 210.516 32.625 211.694 30.7837C212.872 28.9423 214.52 27.2426 216.593 25.6845C218.666 24.1264 221.021 22.9461 223.706 22.2379C224.978 21.8601 226.203 21.7185 227.38 21.7185C228.558 21.7185 229.641 21.9546 230.631 22.3795C231.573 22.8989 232.044 23.4654 232.044 24.0792C232.044 26.2511 230.018 28.3285 226.014 30.3115C224.79 30.9253 223.047 31.4919 220.833 31.964C218.619 32.4362 216.923 32.6722 215.745 32.6722H215.839ZM229.924 23.9848C229.924 23.2766 229.5 22.8989 228.605 22.8989C227.051 22.8989 224.695 24.1264 221.492 26.6288C219.608 28.1397 217.912 29.8394 216.452 31.7279C217.394 31.7279 218.76 31.4919 220.597 31.0669C222.387 30.642 223.989 30.0754 225.308 29.32C228.37 27.6203 229.924 25.8262 229.924 23.9376V23.9848Z" fill="white"/>
</svg>
