<svg width="131" height="34" viewBox="0 0 131 34" fill="none" xmlns="http://www.w3.org/2000/svg">
<path d="M111.935 23.9537C111.135 25.1813 110.758 26.5505 110.758 28.0614C110.758 29.5722 111.087 29.8555 111.794 30.4693C112.501 31.0831 113.49 31.3664 114.762 31.3664C119.849 31.3664 124.418 28.2975 128.564 22.1124C128.941 21.5458 129.412 21.2625 129.977 21.3569C130.212 21.3569 130.307 21.4986 130.307 21.6402C130.307 21.7819 129.694 22.7262 128.422 24.4731C127.151 26.22 125.879 27.6365 124.607 28.7224C121.78 31.272 118.248 32.4995 114.055 32.4995C109.863 32.4995 109.91 32.0274 108.355 31.0831C106.801 30.1388 106 28.864 106 27.2587C106 25.6534 106.612 23.9065 107.79 22.0652C108.968 20.2238 110.616 18.5241 112.689 16.966C114.762 15.4079 117.117 14.2276 119.802 13.5194C121.074 13.1416 122.299 13 123.476 13C124.654 13 125.737 13.2361 126.727 13.661C127.669 14.1804 128.14 14.7469 128.14 15.3607C128.14 17.5326 126.114 19.61 122.11 21.593C120.885 22.2068 119.143 22.7734 116.929 23.2455C114.715 23.7177 113.019 23.9537 111.841 23.9537H111.935ZM126.02 15.2663C126.02 14.5581 125.596 14.1804 124.701 14.1804C123.147 14.1804 120.791 15.4079 117.588 17.9103C115.704 19.4212 114.008 21.1209 112.548 23.0094C113.49 23.0094 114.856 22.7734 116.693 22.3484C118.483 21.9235 120.085 21.3569 121.404 20.6015C124.466 18.9018 126.02 17.1076 126.02 15.2191V15.2663Z" fill="white"/>
<path d="M104.503 13.4859C97.5392 21.5524 94.0091 26.7519 94.0091 29.0844C94.0091 31.4169 94.5411 30.6394 95.6533 30.6394C96.7655 30.6394 98.6031 29.9591 100.392 28.6471C103.1 26.509 105.422 23.9821 107.453 21.0179C107.791 20.4834 108.13 20.289 108.468 20.3862C108.807 20.4834 109 20.6292 109 20.8235C109 21.0179 108.71 21.4552 108.13 22.2327C107.549 22.9616 107.114 23.5934 106.776 24.0307C106.437 24.468 105.663 25.3427 104.503 26.6061C103.342 27.8696 102.327 28.7928 101.505 29.376C100.682 29.9591 99.6186 30.5422 98.313 31.1253C97.0073 31.7084 95.5566 32 93.9124 32C92.2682 32 90.9142 31.4655 89.7536 30.445C89.2217 29.9591 88.9799 29.2788 88.9799 28.4527C88.9799 27.6266 89.2701 26.6061 89.8504 25.3913C90.4307 24.2251 91.9781 22.2813 94.5894 19.6087C95.2181 18.9284 95.5566 18.3939 95.5566 18.0051C95.5566 17.6164 95.073 17.422 94.1542 17.422C93.2354 17.422 91.4945 18.1509 89.0283 19.6573C86.562 21.1637 83.9991 23.156 81.2427 25.6829C78.5347 28.2097 76.8905 30.2506 76.4069 31.757C75.4398 31.757 74.7144 31.5141 74.2792 30.9795C73.844 30.445 73.6022 30.0077 73.6022 29.6189C73.6022 28.1125 75.198 25.1969 78.3412 20.9207C79.3568 19.5115 79.937 18.5396 79.9854 18.0537C80.0338 17.5678 79.9854 17.2762 79.6953 17.2762C79.4535 17.2762 79.0666 17.2762 78.6314 17.4706C77.6159 17.8107 76.0201 18.6368 73.8923 19.9003C69.8786 22.2813 65.9133 25.8772 62.0447 30.7852C61.7546 31.1739 61.4161 31.4655 60.9808 31.5141C60.5456 31.6113 59.7235 31.6598 58.4662 31.7084C57.2089 31.757 56.3869 31.8542 56 32C57.0155 30.688 58.8531 28.2583 61.4161 24.711C66.0584 18.2967 69.1533 14.6522 70.7007 13.6803C71.3777 13.243 72.3449 13 73.5538 13C74.7628 13 74.3759 13.0486 75.2947 13.1458C76.2619 13.243 76.9389 13.2916 77.3741 13.1944C75.2464 13.9233 71.813 17.422 66.9772 23.6905C69.6852 21.5524 71.6195 20.1432 72.7801 19.4629C73.9407 18.7826 74.8111 18.2967 75.3914 17.9565C75.9717 17.6164 76.4069 17.3734 76.7454 17.179C77.0356 16.9847 77.5192 16.7417 78.0995 16.3529C78.6797 16.0128 79.1633 15.7212 79.4535 15.5754C79.7436 15.4297 80.2272 15.1867 80.8075 14.8951C81.3878 14.6036 81.823 14.4092 82.1615 14.312C82.4516 14.2148 82.8869 14.0691 83.4672 13.8261C83.9991 13.5831 84.4343 13.4859 84.6761 13.4859C84.9179 13.4859 85.3047 13.4859 85.74 13.3402C86.1752 13.243 86.5137 13.2916 86.7071 13.4373C87.8677 13.7289 88.448 14.2148 88.448 14.8465C88.448 15.4783 87.4808 16.8389 85.5465 19.1228C83.6122 21.4066 82.3549 22.9616 81.7746 23.6905C84.2892 21.6496 86.7071 19.9488 88.9799 18.6368C91.2527 17.3248 93.9608 16.11 97.104 14.9923C100.199 13.8747 102.52 13.3402 103.922 13.3402C105.325 13.3402 104.551 13.3402 104.793 13.4373L104.503 13.4859Z" fill="white"/>
<path d="M51.1462 13.9282C55.1973 13.9282 57.2699 15.5807 57.2699 18.9329C57.2699 22.2852 56.6576 22.0963 55.4328 23.796C53.8783 26.1567 51.523 28.2814 48.414 30.17C49.1206 31.067 50.4396 31.5392 52.3238 31.5392C54.2081 31.5392 55.2444 31.067 56.6105 30.0755C58.2592 28.9424 59.4839 27.9509 60.1905 27.101C60.8971 26.2512 61.4624 25.6374 61.7921 25.2125C62.1219 24.8347 62.5458 24.2682 63.1111 23.5127C63.6293 22.7573 63.959 22.3324 64.0532 22.1435C64.1474 22.0019 64.3358 21.9074 64.6185 21.9074C65.1837 21.9074 65.4664 22.0019 65.4664 22.2852C65.4664 22.5684 65.4193 22.5212 65.278 22.6629L64.7598 23.4183C64.4301 23.9377 64.1945 24.2682 64.0061 24.5042C63.8177 24.7403 63.535 25.118 63.1111 25.6846C62.6871 26.2512 62.3103 26.6761 62.0277 27.0066C61.6979 27.3371 61.3211 27.762 60.7558 28.3286C60.2376 28.848 59.7666 29.3201 59.3426 29.6506C58.9187 29.9811 58.4005 30.3588 57.7881 30.7365C57.1757 31.1142 56.6105 31.4447 56.0452 31.6808C54.632 32.2002 53.3602 32.4835 52.1354 32.4835C49.8272 32.4835 48.0843 32.0113 46.7653 31.067C44.2216 32.2946 41.8192 32.9084 39.6523 32.9084C35.6012 32.9084 33.5286 31.2559 33.5286 27.9037C33.5286 24.5515 34.1409 24.7403 35.3657 23.0406C37.0144 20.491 39.3697 18.3664 42.4316 16.6194C45.4464 14.8725 48.3669 13.9754 51.0991 13.9754L51.1462 13.9282ZM52.0412 15.5807C50.5338 15.5807 48.7438 16.2417 46.6711 17.5165C44.5985 18.8385 42.7613 20.5854 41.1597 22.8045C39.2284 25.4013 38.2392 27.526 38.2392 29.1785C38.2392 30.831 39.2284 31.6808 41.1597 31.6808C43.0911 31.6808 44.1274 31.2087 45.8232 30.2172C44.9282 29.3673 44.5042 28.5175 44.5042 27.5732C44.5985 26.0151 45.5877 25.2597 47.4248 25.2597C49.2619 25.2597 48.7438 25.4013 49.2148 25.7318C49.6859 26.0623 49.9214 26.3456 49.9214 26.6289C49.9214 26.9122 49.8743 27.1955 49.733 27.4787C50.6751 26.5817 51.7586 25.3069 52.9833 23.6544C54.3965 21.813 55.056 20.0189 55.056 18.2247C55.056 16.4306 54.0196 15.5807 51.947 15.5807H52.0412Z" fill="white"/>
<path d="M23.0241 30.4533C23.0241 31.4448 23.5894 31.9641 24.6728 31.9641C27.3107 31.9641 30.985 28.8008 35.7898 22.4268C36.1666 21.9075 36.5435 21.7186 36.8261 21.813C37.1088 21.9075 37.2972 22.0491 37.2972 22.238C37.2972 22.4268 36.9674 22.9462 36.3551 23.796C35.6956 24.6459 35.0832 25.4485 34.4237 26.2512C33.7642 27.0066 32.8692 28.0453 31.6445 29.3201C29.1007 31.8697 26.3686 33.0973 23.448 33.0973C20.5275 33.0973 20.0564 32.5779 18.9259 31.5864C18.4077 31.1143 18.1722 30.4533 18.1722 29.6506C18.1722 28.848 18.4548 27.8565 19.0201 26.6761C19.5853 25.543 21.0927 23.6544 23.6365 21.0576C24.2488 20.3966 24.5786 19.8772 24.5786 19.4995C24.5786 19.1218 24.1075 18.933 23.1654 18.933C22.2233 18.933 20.3861 19.7356 17.7482 21.3881C13.7442 23.7488 9.83442 27.3371 6.01884 32.1058C5.64199 32.6251 4.60566 32.9084 2.90985 32.9084C1.40246 33.0028 0.460343 33.0973 0.0834961 33.2389C10.6823 18.9802 18.3606 9.01794 23.0712 3.39943C24.1075 2.12465 25.0496 1.27479 25.8504 0.755429C26.6512 0.236071 27.6405 0 28.7239 0C29.8073 0 29.5718 -3.65845e-07 30.4668 0.141643C31.3618 0.236071 32.0213 0.236072 32.4924 0.236072C30.7966 1.36922 27.8289 4.43815 23.4951 9.5373C19.1614 14.5892 15.0161 19.7828 11.0592 24.9764C13.6971 22.8517 16.0524 21.1992 18.1251 19.9717C20.1977 18.7913 22.7886 17.6582 25.7562 16.5722C28.771 15.4863 30.985 14.967 32.3511 14.967C33.7171 14.967 33.0105 14.9669 33.2932 15.0614C26.4157 22.8517 23.0241 27.9509 23.0241 30.406V30.4533Z" fill="white"/>
</svg>
