<svg width="86" height="65" viewBox="0 0 86 65" fill="none" xmlns="http://www.w3.org/2000/svg">
<path d="M5.65661 57.7054C2.66731 57.7054 1.14966 56.7297 1.14966 54.7783C1.14966 51.9906 3.95501 46.2293 9.5657 37.6339C8.92185 36.937 8.59993 36.333 8.59993 35.8684C8.59993 34.3816 9.10581 33.3594 10.1636 32.8948C10.9454 32.4767 11.5432 32.2444 12.0951 32.2444C12.647 32.2444 12.9689 32.2444 13.1069 32.2908C19.3154 23.1379 24.8801 15.5646 29.847 9.52456C30.8128 8.22363 31.8245 7.29439 32.8823 6.69039C33.894 6.08639 35.2277 5.80762 36.7914 5.80762C38.355 5.80762 37.5732 5.85408 38.447 5.947C39.3208 6.03993 39.9646 6.08639 40.4245 6.03993C37.8491 7.61963 34.262 11.0578 29.663 16.4009C25.0181 21.744 20.6491 27.4123 16.5101 33.4988C17.7518 34.4745 18.6256 35.8219 19.1315 37.4945L19.3614 38.1915H19.5914C21.063 38.1915 22.6267 37.6339 24.2363 36.5188C25.8919 35.4038 27.1796 34.2422 28.2374 33.0342C29.2491 31.8262 30.1229 30.804 30.7668 29.8748C31.4106 28.992 31.8245 28.481 32.0085 28.388C32.1924 28.2951 32.3304 28.2951 32.4684 28.2951C32.6063 28.2951 32.7443 28.3416 32.8363 28.388C32.9283 28.4345 33.0202 28.5274 33.0202 28.6668C33.0202 28.8062 32.9743 28.9456 32.8363 29.085C28.3293 35.8219 23.8684 39.1672 19.5454 39.1672C19.5914 39.7247 19.6374 40.6539 19.6374 41.9549C19.6374 43.2558 19.1315 45.1607 18.1657 47.7161C17.1999 50.2715 15.5443 52.5481 13.2448 54.5925C10.9454 56.6368 8.46196 57.6125 5.79458 57.6125L5.65661 57.7054ZM5.56463 54.7783C5.56463 55.8005 5.97854 56.3115 6.85233 56.3115C7.72613 56.3115 9.33575 55.5217 11.1293 53.942C12.9689 52.3623 14.4866 50.1786 15.7743 47.4374C17.062 44.6961 17.7058 42.1872 17.7058 39.957V39.4459H16.97C15.4063 39.4459 14.0727 39.1672 12.9689 38.6096C8.00206 46.7869 5.51864 52.1765 5.51864 54.8248L5.56463 54.7783ZM17.1079 38.4238H17.6138C17.4299 36.8905 16.786 35.6825 15.6363 34.7533L13.8427 37.4016C14.3946 38.0985 15.4983 38.4238 17.1079 38.4238Z" fill="white"/>
<path d="M52.106 29.085C50.3124 31.3617 49.2546 33.0343 48.8867 34.1494C48.5188 35.2645 48.3349 36.1937 48.3349 36.8442C48.3349 37.4946 48.7488 37.8663 49.5766 37.8663C50.4044 37.8663 51.876 37.2623 53.3937 36.0078C55.6471 34.1958 57.8086 31.8263 60.0161 28.8992C60.2461 28.574 60.476 28.3881 60.752 28.3881C61.1659 28.2952 61.3958 28.3881 61.3958 28.7133C61.3958 29.0386 61.3038 29.085 61.1659 29.3638C56.153 35.9614 51.922 39.2602 48.5188 39.2602C45.1156 39.2602 45.6675 38.7491 44.7017 37.7734C44.1958 37.2623 43.9659 36.5189 43.9659 35.6361C43.9659 34.7534 44.2418 33.6848 44.7937 32.3838C40.4247 36.9835 36.6996 39.2602 33.5263 39.2602C30.353 39.2602 31.8707 39.0743 31.1808 38.7491C29.5712 38.0057 28.7434 36.7048 28.7434 34.8928C28.7434 31.4081 31.0429 27.877 35.6878 24.2995C38.3092 22.3016 41.5284 21.0007 45.2996 20.3967C46.3113 20.2108 47.3231 20.1179 48.2429 20.1179C50.7263 20.1179 52.8878 20.6755 54.5894 21.837C55.1413 22.2087 55.2792 22.5804 55.0953 22.9521C54.8653 23.3238 54.4054 23.4632 53.7156 23.3702C53.1177 22.0693 51.83 21.4653 49.8065 21.4653C47.783 21.4653 44.5637 22.6733 41.1605 25.0893C39.183 26.5296 37.3894 28.2023 35.6878 30.1072C33.5723 32.4303 32.5145 34.2423 32.5145 35.6361C32.5145 37.03 33.2044 37.7269 34.5381 37.7269C37.8033 37.7269 42.0803 34.4746 47.3691 27.9235C48.3808 26.6226 49.2546 25.6933 49.9905 25.2287C50.6803 24.7641 51.6001 24.5318 52.7038 24.5318C53.8076 24.5318 53.4857 24.5782 54.3594 24.6712C55.2792 24.7641 55.9231 24.8106 56.337 24.7176C55.3712 25.3681 53.9915 26.8084 52.152 29.0386L52.106 29.085Z" fill="white"/>
<path d="M63.6952 52.8735C63.0054 52.1766 62.6374 51.5725 62.6374 50.9685C62.6374 50.3645 63.5572 48.7384 65.3508 46.0436C67.1444 43.3953 69.2599 40.4217 71.7433 37.1694C74.2267 33.9171 75.7904 31.7798 76.5262 30.7577C75.6984 31.7334 73.8128 33.5454 70.8235 36.1937C68.2481 38.1451 65.8107 39.1208 63.3733 39.1208C60.9358 39.1208 62.2695 39.0743 61.7636 38.9814C59.0043 38.1916 57.5786 36.6583 57.5786 34.3817C57.5786 32.1051 59.9241 27.97 64.615 24.2995C67.1904 22.3016 70.1797 21.0472 73.5829 20.5361C74.5027 20.3502 75.4225 20.2573 76.3423 20.2573C78.7797 20.2573 81.1711 20.7684 83.4246 21.837C84.3444 22.3016 84.8043 22.6733 84.8043 22.9986C84.8043 23.3238 84.7123 23.5561 84.4824 23.742C84.0685 24.1601 83.5626 24.2066 83.0107 23.8349C82.8267 23.742 82.6888 23.5561 82.5968 23.3703C81.815 22.0229 80.7112 21.3259 79.2396 21.3259C77.7679 21.3259 76.1123 21.7441 74.2727 22.6269C70.6856 24.253 67.6503 26.4367 65.2128 29.2244C62.7754 31.9657 61.5337 34.01 61.5337 35.3574C61.5337 36.7048 62.0856 37.0765 63.1893 37.4017C63.4652 37.4946 63.7412 37.4946 64.1091 37.4946C66.7765 37.4946 70.8235 34.5675 76.2043 28.7598C77.7219 27.1801 78.7797 26.2044 79.3316 25.9257C79.8834 25.6469 80.4353 25.461 80.9412 25.461H81.907C82.0909 25.461 82.5508 25.461 83.3786 25.6004C84.2064 25.6933 84.8043 25.6934 85.2642 25.6934C82.3209 28.6204 78.5037 33.7312 73.7668 40.9328C69.0299 48.1344 66.4545 52.6412 66.0866 54.4532C65.8567 54.2209 65.4428 53.8956 64.7989 53.5239C64.1551 53.1522 63.7872 52.9199 63.6952 52.8735Z" fill="white"/>
</svg>
