<svg width="17" height="18" viewBox="0 0 17 18" fill="none" xmlns="http://www.w3.org/2000/svg">
<path d="M16.2811 3.09342C15.6914 3.3745 15.0631 3.5608 14.408 3.65127C15.0819 3.21404 15.5963 2.52696 15.8381 1.6988C15.2097 2.10588 14.516 2.39342 13.7767 2.55388C13.1801 1.86357 12.3298 1.43604 11.4021 1.43604C9.6024 1.43604 8.15349 3.02342 8.15349 4.96942C8.15349 5.24942 8.17529 5.51865 8.22881 5.77496C5.52623 5.63173 3.13483 4.22419 1.52834 2.08004C1.24788 2.6088 1.08336 3.21404 1.08336 3.86557C1.08336 5.08896 1.66313 6.17342 2.52732 6.80127C2.00504 6.7905 1.49266 6.62573 1.05859 6.36619C1.05859 6.37696 1.05859 6.39096 1.05859 6.40496C1.05859 8.12157 2.18541 9.54742 3.66306 9.87588C3.39845 9.9545 3.11005 9.99219 2.81076 9.99219C2.60264 9.99219 2.39254 9.97927 2.19532 9.93188C2.61651 11.3308 3.81171 12.3593 5.23288 12.3927C4.12687 13.3328 2.72255 13.8993 1.20229 13.8993C0.935697 13.8993 0.680006 13.8863 0.424316 13.8508C1.86431 14.8599 3.57089 15.436 5.41126 15.436C11.3932 15.436 14.6637 10.0514 14.6637 5.38404C14.6637 5.22788 14.6587 5.07711 14.6518 4.92742C15.297 4.42988 15.8391 3.8085 16.2811 3.09342Z" fill="white"/>
</svg>
