<svg width="17" height="18" viewBox="0 0 17 18" fill="none" xmlns="http://www.w3.org/2000/svg">
<path fill-rule="evenodd" clip-rule="evenodd" d="M5.55582 0H11.5021C14.2384 0 16.4573 2.41123 16.4573 5.38462V11.8462C16.4573 14.8195 14.2384 17.2308 11.5021 17.2308H5.55582C2.81954 17.2308 0.600586 14.8195 0.600586 11.8462V5.38462C0.600586 2.41123 2.81954 0 5.55582 0ZM11.5021 15.6154C13.4148 15.6154 14.9708 13.9246 14.9708 11.8462V5.38462C14.9708 3.30615 13.4148 1.61538 11.5021 1.61538H5.55582C3.6431 1.61538 2.08716 3.30615 2.08716 5.38462V11.8462C2.08716 13.9246 3.6431 15.6154 5.55582 15.6154H11.5021ZM4.56477 8.61539C4.56477 6.23646 6.33974 4.30769 8.52896 4.30769C10.7182 4.30769 12.4931 6.23646 12.4931 8.61539C12.4931 10.9943 10.7182 12.9231 8.52896 12.9231C6.33974 12.9231 4.56477 10.9943 4.56477 8.61539ZM6.05134 8.61539C6.05134 10.0994 7.1633 11.3077 8.52896 11.3077C9.89462 11.3077 11.0066 10.0994 11.0066 8.61539C11.0066 7.13031 9.89462 5.92308 8.52896 5.92308C7.1633 5.92308 6.05134 7.13031 6.05134 8.61539ZM13.3187 3.98439C13.3187 4.30127 13.0822 4.55816 12.7905 4.55816C12.4988 4.55816 12.2623 4.30127 12.2623 3.98439C12.2623 3.66751 12.4988 3.41062 12.7905 3.41062C13.0822 3.41062 13.3187 3.66751 13.3187 3.98439Z" fill="white"/>
</svg>
