<svg width="16" height="18" viewBox="0 0 16 18" fill="none" xmlns="http://www.w3.org/2000/svg">
<path fill-rule="evenodd" clip-rule="evenodd" d="M13.348 2.97066C14.2984 3.02881 14.7652 3.18174 15.1953 4.01312C15.6432 4.84343 15.8692 6.27358 15.8692 8.79251V8.79574V8.80112C15.8692 11.3082 15.6432 12.7491 15.1963 13.5708C14.7662 14.4022 14.2994 14.553 13.349 14.623C12.3986 14.6822 10.0111 14.7177 7.94281 14.7177C5.87053 14.7177 3.48211 14.6822 2.53268 14.6219C1.58425 14.5519 1.11747 14.4011 0.68339 13.5697C0.240392 12.748 0.0124512 11.3071 0.0124512 8.80004V8.79789V8.79466V8.79143C0.0124512 6.27358 0.240392 4.84343 0.68339 4.01312C1.11747 3.18066 1.58524 3.02881 2.53367 2.96958C3.48211 2.90066 5.87053 2.87158 7.94281 2.87158C10.0111 2.87158 12.3986 2.90066 13.348 2.97066ZM10.914 8.79466L5.95873 5.56389V12.0254L10.914 8.79466Z" fill="white"/>
</svg>
