<svg width="17" height="18" viewBox="0 0 17 18" fill="none" xmlns="http://www.w3.org/2000/svg">
<path fill-rule="evenodd" clip-rule="evenodd" d="M4.30485 1.88462C4.30485 2.92546 3.52836 3.76923 2.57051 3.76923C1.61267 3.76923 0.836182 2.92546 0.836182 1.88462C0.836182 0.843771 1.61267 0 2.57051 0C3.52836 0 4.30485 0.843771 4.30485 1.88462ZM0.836182 5.38462H4.38215V17.2308H0.836182V5.38462ZM14.0409 5.52354C14.0283 5.51923 14.016 5.51481 14.0037 5.51038C13.979 5.50152 13.9543 5.49267 13.9279 5.48477C13.8803 5.47292 13.8328 5.46323 13.7842 5.45462C13.5959 5.41369 13.3898 5.38462 13.148 5.38462C11.0806 5.38462 9.76948 7.01831 9.33738 7.64938V5.38462H5.79142V17.2308H9.33738V10.7692C9.33738 10.7692 12.0172 6.71354 13.148 9.69231V17.2308H16.6929V9.23677C16.6929 7.44692 15.5641 5.95539 14.0409 5.52354Z" fill="white"/>
</svg>
