<?xml version="1.0" encoding="UTF-8"?>
<svg id="_レイヤー_1" data-name=" レイヤー 1" xmlns="http://www.w3.org/2000/svg" width="384" height="384" viewBox="0 0 384 384">
  <defs>
    <style>
      .cls-1 {
        fill: #b3b3b3;
        opacity: .8;
      }
    </style>
  </defs>
  <path class="cls-1" d="M204.1,0l19.6,2.5c81.8,13.5,147.9,81.4,158.7,163.8.6,4.5.5,9.4,1.6,13.8v24c-1.2,4.3-1,9.3-1.6,13.8-11.2,84.5-80,153.6-164.6,164.6-4.5.6-9.4.5-13.8,1.6h-24l-23.4-3.2C76.5,365.9,12.3,299,1.8,217.8c-10.5-81.2-.5-9.4-1.6-13.8.3-7.9-.5-16.1,0-24C5.7,85,85.1,5.6,180.1,0h24ZM182.2,24.2C51.3,31.9-21.5,182,55.3,289.4c71,99.4,220.7,92.4,282-13.2,67.2-115.7-22.4-259.8-155.2-252h.1Z"/>
  <path class="cls-1" d="M204.1,149.2v117.4c0,4.6-7.2,9.3-11.6,9.4s-12.4-4.5-12.4-9.4v-117.4l-40.9,40.5c-11,7.7-24.3-5-17.2-16.5l62.5-62.7c4.3-3.6,10.7-3.6,15,0l62.2,62.3c7.7,11-5,24.3-16.5,17.2l-41.3-40.8h.2Z"/>
</svg>