<svg width="384" height="384" viewBox="0 0 384 384" fill="none" xmlns="http://www.w3.org/2000/svg">
<g clip-path="url(#clip0_1124_38)">
<path d="M204.1 0L223.7 2.5C305.5 16 371.6 83.9 382.4 166.3C383 170.8 382.9 175.7 384 180.1V204.1C382.8 208.4 383 213.4 382.4 217.9C371.2 302.4 302.4 371.5 217.8 382.5C213.3 383.1 208.4 383 204 384.1H180L156.6 380.9C76.5003 365.9 12.3002 299 1.80024 217.8C-8.69976 136.6 1.30024 208.4 0.200237 204C0.500237 196.1 -0.299763 187.9 0.200237 180C5.70024 85 85.1003 5.6 180.1 0H204.1ZM182.2 24.2C51.3002 31.9 -21.4998 182 55.3002 289.4C126.3 388.8 276 381.8 337.3 276.2C404.5 160.5 314.9 16.4 182.1 24.2H182.2Z" fill="white"/>
<path d="M204.1 149.2V266.6C204.1 271.2 196.9 275.9 192.5 276C188.1 276.1 180.1 271.5 180.1 266.6V149.2L139.2 189.7C128.2 197.4 114.9 184.7 122 173.2L184.5 110.5C188.8 106.9 195.2 106.9 199.5 110.5L261.7 172.8C269.4 183.8 256.7 197.1 245.2 190L203.9 149.2H204.1Z" fill="white"/>
</g>
<defs>
<clipPath id="clip0_1124_38">
<rect width="384" height="384" fill="white"/>
</clipPath>
</defs>
</svg>
