<?xml version="1.0" encoding="UTF-8"?>
<svg id="_レイヤー_2" data-name="レイヤー 2" xmlns="http://www.w3.org/2000/svg" width="620" height="200" viewBox="0 0 620 200">
  <path d="M132.8,149.2c0-.7.2-1.2.2-1.5.4-1.7,2.1-5,4.3-9.1l9.3-16.2c7.6-12.9,17.7-29.2,28.6-45.7,21-32.8,39.8-59.3,50.5-69.5,1.5-1.3,4.2-1.5,5.6,0,1.7,1.4,1.8,3.8.3,5.4-10,9.1-28,34.4-49.5,67.7-10.6,16.5-20.8,32.8-28.4,45.7l1.5-1.6c2.5-2.8,5.6-5.5,8.4-8.3,6.1-5.5,12.3-10.7,17.7-14.7,4.9-3.5,10.6-7,15.5-6.2,2.2.1,4.1,1.2,5.3,3.1l.6.9c3.4,7.4-4.6,18.6-13,27l-4.3,4.2c14.6-2.8,43.5-15.4,58.3-23.8,1.8-1.1,4.3-.5,5.4,1.2,1.2,1.9.5,4.1-1.3,5.2-23.7,13.1-55.2,26.3-79,27.8h-2.1c0,.1-1.6.4-1.6.4-4.5,1-9.1.5-12.5-3v-.2s-2.3,2.6-2.3,2.6l-6.6,7.2c-1.2,1.8-2.5,3.1-3.5,3.9-.3,0-.5.5-1.3.8-.3,0-2.1.9-4-.3-1.9-1.1-2-2.8-2.1-3.1ZM164.9,133.7l1.6-.3c3.7-1.4,8.6-4.4,14.3-9.1,4.6-4.2,8.9-9.1,11.6-13.4,2.2-3.6,3.2-6.1,3.1-7.5v-1c0,0-.6,0-.6,0-1.3.3-3.9,1.4-8.6,4.9-5.2,3.5-11.1,8.5-16.7,13.9l-8.7,8.3-3.3,3.1.5.2c.8.7,2.5,1.1,5.7.9h1.1Z"/>
  <path d="M235.7,134.5c-.4-7,3-16,7.8-24.5,7.6-14,19.7-30.7,33.3-47.7,27.1-33.8,32.7-45.1,47.9-58,1.5-1.3,3.8-1.2,5.5.2,1.4,1.4,1.3,3.8-.2,5.1-14.7,12.5-19.8,23.5-46.9,57.3-13.4,16.8-25.3,33.2-32.6,46.5-3.6,6.5-5.8,12.2-6.6,16.6-1.1,4.4-.1,6.8.9,7.7,3.8,3.4,15.3-1.8,28.1-10,17.9-11.4,38.3-28.3,45.3-33.6,1.8-1.1,4.1-1,5.5.7,1.4,1.6,1,4.1-.8,5.1-8.5,6.1-27.9,22.7-46.3,34.1-10.3,6.4-19.7,11.5-27.5,11.9-3.6.2-7.1-.8-9.8-3.1-2.5-2.1-3.4-4.9-3.6-8.3Z"/>
  <path d="M300.6,124c-.7-3.3.3-7.4,2.1-11.3,4.1-8,12.4-17.2,23.7-22.5,1.5-.5,3-.4,4.3.2l.3.2c.6-2.5,2.3-3.5,5.1-3.6.8,0,1.5.1,2.5.3,4.9,1.3,7.3,3.6,7.7,6.7v.2c6.7,2.3,14,2.8,21.3,2.4,6.8-.4,13.8-1.6,19.7-3.1,2-.6,4.3.2,5.1,1.7.6,1.8-.3,3.6-2,4.1-8,2-14.9,3-21.5,3.4-8.3.4-15.6-.3-22.5-1.7l-.2.5c-1.1,3.6-2.9,7.5-5.4,10.8-5.6,7.2-18.6,19.3-31.2,18.7-5.6-.4-8.5-3.3-9-7.1ZM339.3,98.9c-3.9-2-6-3.5-7.1-5l-.5.7c-.5.5-.7.5-1.2.7-4.2,1.8-10.3,5.9-15.7,11.8-5.7,6.3-10.4,16.9-5.1,17.9,7.4,1.4,18.7-8.4,24.6-15.9,2.6-3.7,4.6-7.6,5-10.3Z"/>
  <path d="M321.4,166.6c15.9-18.1,52.8-42.4,90.3-61.2l9.3-4.5.5-.9,11.9-17.6.7-1.2-1,.5c-4.4,2.7-9,5.6-13.9,8.4-6.4,3.5-13,6.7-18.7,8.8-4.9,1.6-11.4,3.3-15.6.8-.5-.4-1.1-.8-1.3-1.3-1.9-1.9-2.7-4.1-2.9-6.3-.3-6.2,5.3-13,13.1-17.7,5.9-3.2,13-5.8,21.3-6.3,6.5-.4,13.4.6,20.3,3.4l.3.2.5-.2c3.4-2.2,5.8-4.1,7.3-5.1,3.1-2.4,7.6.9,5.8,4.2-.5.5-6,9.9-14.8,23.4l-.7.9.2-.2c14.8-6.4,37.4-15.9,49.8-19.2,2-.6,4,.2,4.6,2,.6,2-.5,3.8-2.5,4.4-12.2,3.3-34.3,12.6-48.8,19l-10.8,5.1-1.9,2.8-15.9,21.7c-22.6,29.4-51.8,61.6-76.7,67-7.2,1.5-14.2-1.7-17.1-7.8-2.6-6.1-.8-14.3,6.6-22.7ZM402.3,126.5c2.8-3.7,5.6-7.2,8.2-11l2.1-3-8.3,4.5c-32.8,17.4-63.4,38.1-76.9,53.8-6.7,7.3-6.8,12.9-5.7,16,1.4,3.1,4.8,4.7,8.5,3.8,21.2-4.5,48.8-33.5,72-64ZM397.9,92.5c4.9-1.8,11.1-4.8,17.4-8.3l9-5.2,4.1-2.7-1-.4c-4.1-.9-8.1-1.3-11.9-1.1-6.8.4-12.7,2.5-17.6,5.2-7.3,4.4-10.3,9.7-9.4,13l.8,1.1s.5.2,2,.1c1.8,0,3.7-.6,6.5-1.7Z"/>
</svg>