<?xml version="1.0" encoding="UTF-8"?>
<svg id="_レイヤー_2" data-name="レイヤー 2" xmlns="http://www.w3.org/2000/svg" width="620" height="200" viewBox="0 0 620 200">
  <path d="M19.5,126.2c14.2-1.2,27.4-7.1,38.2-13.6,10.6-6.2,18.3-12.6,21.6-14.7,1.9-1.1,4-.6,5,1.5,1,1.8.3,4.2-1.4,5.3-5.6,3.7-32.1,26.7-62.8,29.4-8.7.4-14.7-3-16.9-9.6-2-6-.1-13.2,3.1-19,3.9-7.4,10.7-14.1,17.5-18.4,6.8-4.3,14.8-7,21-4.2l1.9,1c2.4,1.8,2.9,5,2,7.6-1.8,4.5-5.6,7.2-8.4,8.5-2.6,1.6-6.9-1.2-3.4-4.7.9-1.1,3-3.2,4.4-6.1-3.8-1-7.1.6-12.7,3.6-7.8,4-21.8,19.7-18.8,28.9.7,2.1,2.9,4.7,9.7,4.4Z"/>
  <path d="M69,124.5c-.5-3.9.6-8.7,2.4-13.2,4-9.3,11.9-19.6,22.4-25.2,1.4-.5,2.7-.3,3.9.5l.2.3c.7-2.9,2.2-4,4.8-4s1.4.2,2.3.5c4.4,1.8,6.5,4.7,6.7,8.3v.3c6,3.1,12.6,4.1,19.3,4,6.2,0,12.6-1.2,18-2.6,1.8-.5,3.9.5,4.6,2.3.5,2.1-.4,4.2-2,4.8-7.3,1.9-13.7,2.8-19.6,2.8s-14.2-1.2-20.4-3.2l-.2.5c-1.1,4.2-2.9,8.7-5.3,12.4-5.4,8.2-17.6,21.8-29,20.3-5-.7-7.6-4.4-7.9-8.9ZM105.1,97c-3.5-2.6-5.3-4.4-6.2-6.3l-.4.8c-.5.5-.7.5-1.1.8-3.9,1.9-9.5,6.4-14.7,13.1-5.4,7.2-10.1,19.3-5.3,20.9,6.7,2,17.3-8.9,22.9-17.4,2.5-4.2,4.5-8.7,4.9-11.9Z"/>
  <path d="M129.5,116.1l24-26.3c1.4-1.9,4.2-1.9,5.9-.6,1.7,1.3,2,3.9.6,5.5l-7.7,8.5c13.9-6.7,41.1-16.5,55.4-15.1,5,.5,6.5,5.2,3.7,9.2-3.3,4.5-13.8,14.6-13.7,19.6,1.2,4.5,21.8,0,32.9-4.3,12.2-4.9,25.5-12.4,29.1-14.8,1.9-1.1,4.5-.6,5.9,1,1.1,1.8.6,4.5-1,5.5-4.2,2.7-18,11-31.1,15.6-9.2,3.5-20.9,6.6-29.8,6.7-3.1,0-5.6-.2-7.8-1-4.8-1.8-6.5-4.9-6.5-8.3,0-3.9,1.9-8.2,4.3-11.1,2.5-3.2,5.5-7.2,9.1-11.2-22.6,2.4-52.9,15.9-67.2,26.9l-5.5,6.1c-3,3.5-9.8.4-7-3.9,1.6-2.1,3.3-4.8,6.6-8Z"/>
  <path d="M320.1,105c-1.4-1.6-3.9-2.1-5.9-1-3.6,2.4-16.9,9.9-29.2,14.8-11.1,4.3-31.7,8.8-32.9,4.3,0-5,10.4-15.1,13.7-19.6,2.1-3,1.7-6.5-.8-8.2-1.1.5-2.1,1-3.2,1.5-1.5,1.6-3.2,3.1-5,4.4.1,0,.2,0,.3,0-3.6,4-6.6,8-9.1,11.2-2.5,2.9-4.4,7.2-4.3,11.1s1.8,6.6,6.5,8.4c2.2.8,4.8,1,7.8,1,8.9,0,20.6-3.1,29.8-6.6,13.1-4.6,26.9-12.9,31.1-15.6,1.7-1.1,2.2-3.7,1.1-5.5Z"/>
  <path d="M319.8,43.4c13-13.3,25.4-25,34.3-32,5-5.1-2.1-9.7-5.9-5.5-9.1,7.5-24.6,22.1-40.3,38.3l-11.4.9c-25.7,2.4-52.7,5.6-78.6,10.1-5.3,1.1,1.8,6.5,7.4,5.9,25.6-4.2,46.5-6.2,72.2-8.6.8,0,1.7,0,2.8-.3-13.5,14.1-12.4,11.7-21.5,22.9-5.8,7-16.4,19.8-28.7,35.1-.8,5.2-1.7,10.3-2.1,15.5,13.9-17.3,27.5-33.8,37.6-46,10.7-13,11.5-12.8,26.7-28.5,23.1-1.9,44.9-3.1,63.8-3.7.7,0,1.4-.3,1.8-.8.8-.9,1.5-1.8,2.2-2.7,0,0,0,0,0,0,1.2-1.6,0-4-2.2-3.9-17.4.5-37.2,1.5-58,3.1Z"/>
  <path d="M310,123.6c-2.3-2.3-3.1-4.7-3.2-7.3s1-6.1,3.3-8.7c3.3-4.8,9.4-9.3,16.6-12.8,8.9-4.3,20.3-7.3,31.8-7.4s12.3.7,18.5,2.7l2.8,1h.3s6.7-4.5,6.7-4.5l.3-.3.6-.3c.6-.5.8-.8,1.1-.8v-.3c4.2-2.9,9.2,2.8,5.4,6l-.8.8-.8.5-.3.3c-2.8,2.4-8.3,7.2-12.4,12.2-3,3.5-4.7,6.4-4.7,8.5-.3.8,0,1.1,0,1.3.3.3.8.8,2.8,1.3,6.4,1.5,18.4-1.8,31.7-7.7,12.5-5.4,23.6-12.1,27.2-14.5,1.9-1.3,4.5-1.1,5.9.7,1.4,1.6,1.2,4.2-.8,5.5-4.2,2.9-16.1,9.9-28.9,15.6-12.2,5.4-27.5,10.6-37.3,8-6.4-1.8-9.8-5.9-9.1-11.2.3-1.6.8-3.2,1.3-4.8l.3-.5-6.4,3.5-6.4,3.2c-8.6,4.3-17.8,8.1-25.3,10.5-6.4,1.9-14.8,3.8-19.3.2l-.8-.8ZM327.5,116.5c7-2.2,15.6-5.7,23.9-10,6.4-3,12.8-6.5,18.3-9.7l.8-.5-2.2-.5c-3.1-.5-6.4-.7-9.8-.7-10.1.1-19.8,2.8-27.8,6.6-6.7,3.2-11.4,7-13.8,10.4-1.1,1.6-2.2,3.7-1.3,5.3l.6.5c0,.3.6.5,3.1.5,2.2-.3,5-.8,8.4-1.9Z"/>
  <path d="M445,121.3c16.7-1.2,32.3-7.2,45.1-13.6,12.5-6.2,21.6-12.6,25.5-14.8,2.2-1.1,4.7-.6,5.9,1.5,1.1,1.8.3,4.2-1.6,5.3-6.7,3.8-38,26.7-74.2,29.5-10.3.4-17.3-3-19.9-9.5-2.3-6-.1-13.2,3.7-19,4.7-7.4,12.7-14.1,20.7-18.4,8-4.3,17.5-7,24.8-4.2l2.2,1c2.8,1.8,3.4,5,2.3,7.6-2.2,4.5-6.6,7.2-10,8.5-3.1,1.6-8.1-1.2-4-4.7,1.1-1.1,3.6-3.2,5.2-6.1-4.5-1-8.4.6-15,3.6-9.2,4-25.7,19.8-22.3,28.9.9,2.1,3.4,4.7,11.5,4.4Z"/>
  <path d="M615.1,37.6c-17.7.3-16.7,1.1-41.5,3.1,13-13.3,25.4-25,34.3-32,5-5.1-2.1-9.7-5.9-5.5-9.1,7.5-24.6,22.1-40.3,38.3l-11.4.9c-25.7,2.4-52.7,5.6-78.6,10.1-5.3,1.1-4.4,7.7,1.2,7.1,25.6-4.2,52.7-7.4,78.4-9.8.8,0,1.7,0,2.8-.3-13.5,14.1-12.4,11.7-21.5,22.9-14.6,17.8-60.6,73.3-86.6,110.3,0,0,0,0,0,0,.4.5,1.1.8,1.8.9s.8,0,1.2,0c2.4-.2,4.7-.8,6.9-1.7s.8-.5,1.1-.9c22.9-31.8,60.7-77.7,82.3-103.9,10.7-13,11.5-12.8,26.7-28.5,28.1-2.3,30.7-3.4,49.4-3.7,2.3,0,4.1-2.2,3.5-4.4s-.1-.4-.2-.5c-.5-1.5-1.9-2.5-3.5-2.4Z"/>
</svg>