<?xml version="1.0" encoding="UTF-8"?>
<svg id="_レイヤー_2" data-name="レイヤー 2" xmlns="http://www.w3.org/2000/svg" width="620" height="200" viewBox="0 0 620 200">
  <path d="M90,152.3c1-1.7,3.2-2.5,4.9-1.7,4.7,2.4,15,3.9,25.3,3.8,3.7,0,7.4-.3,10.3-.8l2.2-.5-1.7-.5c-4.2-1.7-8.8-3.4-13-5.3-4.2-2.2-8.4-4.6-11.3-7.6-3-2.9-4.7-7.3-2.5-11.8,3.4-6.6,13.4-9.6,22.5-11.1,6.1-1,13-1.3,19.4-1.3,3.7,0,7.4,0,10.5.2,3.9.2,4.7,5.4,1.3,6.9l-4.2,2.7c-1.5,1-2.2,2-2.7,2.5l-.2.5v.2c-.2,1.7-1.7,3-3.4,3.2-2,0-3.7-1.5-3.9-3.4,0-1.2.2-2,.5-2.7l1-2,.7-.7h-3.2c-4.9.3-10.1.5-14.7,1.3-4.4.8-8.6,1.8-11.5,3-3.2,1.5-4.9,2.7-5.4,3.9-.5,1-.5,2,1.2,3.7,1.7,2,4.9,3.9,9.1,5.8,8.1,3.9,17.9,6.8,22.9,8.7,2,1,2.7,3.7,1.5,5.6-2.2,3-6.6,4.4-10.5,5.2-4.2,1-9.6,1.5-14.7,1.5-10.3,0-22.3-1.4-28.5-4.5-2-1-2.7-3.2-1.7-4.9Z"/>
  <path d="M210,159.6c-10.8-.9-18.7-7-19.2-18.1-8.3,4.9-23,18.5-33.5,34-2.4,3.7-8.1.5-6.4-3.7,31.7-50.2,84.1-113.7,118.8-149.4,1.5-1.5,3.7-1.5,5.2-.3,1.5,1.5,1.5,3.9.3,5.4-29.8,30.5-57.6,63.3-91.7,109.6,13.7-9.9,44-25.2,56.3-22.6,4.7,1,4.9,5.4,3,8.6-8.5,13.3-35.7,18.8-43.1,18.6v.2c.3,4.9,4.7,9.3,11.1,10,17.2,2.1,47.8-12.7,65.4-22.4,4.9-2.7,7.9,3.6,3.2,6.6-7.8,5.2-45.5,25.5-69.3,23.4ZM202.5,134.3c6.6-.5,26.7-6.3,31.3-12.9-3.9.3-19.3,6.5-31.3,12.9Z"/>
  <path d="M276.3,129.6c8.5-8.9,19.3-17,20-17.5,1.7-1.2,3.9-.8,5.2,1,1.2,1.7.8,3.9-1,5.2-.5.2-10.8,8.1-19.1,16.5-2.2,2.2-11,11.6-8.8,14.5,3.7,4.9,23.3-1.6,29.4-4.1,10.5-4.2,29.9-15.1,33-17.1,1.7-1.2,3.9-.8,4.9,1,1.2,1.7.8,3.9-1,5.2-3.7,2.5-23.2,13.6-34.5,18.1-6.4,2.5-16.9,6-25.7,6-6.4,0-11.5-1.9-13.3-7.1-2.5-8.1,6.1-17,10.7-21.6ZM312,96.3c1-.5,2.4-1.7,3.9-2.7l3.9-3.5c1.5-1.5,3.9-1.2,5.2.2,1.5,1.5,1.2,3.9-.2,5.2-1,1-2.4,2.5-4.2,3.7-1.7,1.2-3.7,2.7-5.4,3.7-1.7.7-3.9,0-4.9-1.7-1-1.7-.3-4.2,1.7-4.9Z"/>
  <path d="M444.8,14.8c-1.5-1.5-3.7-1.7-5.2-.5-14.9,12.3-48.1,45.6-75.2,78.3-13.7,16.5-25.9,32.7-33.6,46.5-4.9,8.4-8.5,17.2-8.5,24.3,0,3.4.8,6.4,3,8.6,2.7,2.9,6.4,4.1,10.8,4.1,6.1,0,13.5-2.5,20.6-6,6-2.9,12.3-6.7,18.8-11.3.2-.2.4-.3.6-.4.3-.2.6-.4.9-.6-.4-3.2-.3-6.4,1-9.2-.7.2-1.3.5-2,.7-8,6-15.7,10.9-22.5,14.3-13,6.4-20.3,6.2-22.8,3.5-1-1-1.7-3.4-.5-7.8,1-4.4,3.4-10.1,7-16.5,7.5-13,19.5-29,32.9-45.3,27.1-32.7,59.8-65.8,74.2-77.6,1.5-1.2,1.7-3.7.5-5.2Z"/>
  <path d="M372.2,164c0-7.1,3.6-16,8.5-24.3,7.8-13.8,20-30,33.6-46.5,27.1-32.7,60.3-66,75.2-78.3,1.5-1.2,3.7-1,5.2.5,1.2,1.5,1,3.9-.5,5.2-14.4,11.8-47.1,44.9-74.2,77.6-13.4,16.2-25.4,32.2-32.9,45.3-3.7,6.4-6.1,12-7,16.5-1.2,4.4-.5,6.9.5,7.8,3.5,3.7,14.5-1,26.9-8.7,17.4-10.6,37.4-26.7,44.3-31.6,1.7-1,3.9-.8,5.2,1,1.2,1.7.8,4.2-1,5.2-8.3,5.7-27.4,21.5-45.2,32.1-10,5.9-19.1,10.6-26.4,10.7-3.4,0-6.6-1.2-9.1-3.6-2.2-2.2-3-5.1-3-8.6Z"/>
  <path d="M437.9,150.5c1-1.7,3.2-2.5,4.9-1.7,4.7,2.4,15,3.9,25.3,3.8,3.7,0,7.4-.3,10.3-.8l2.2-.5-1.7-.5c-4.2-1.7-8.8-3.4-13-5.3-4.2-2.2-8.4-4.6-11.3-7.6-3-2.9-4.7-7.3-2.5-11.8,3.4-6.6,13.4-9.6,22.5-11.1,6.1-1,13-1.3,19.4-1.3,3.7,0,7.4,0,10.5.2,3.9.2,4.7,5.4,1.3,6.9l-4.2,2.7c-1.5,1-2.2,2-2.7,2.5l-.2.5v.2c-.2,1.7-1.7,3-3.4,3.2-2,0-3.7-1.5-3.9-3.4,0-1.2.2-2,.5-2.7l1-2,.7-.7h-3.2c-4.9.3-10.1.5-14.7,1.3-4.4.8-8.6,1.8-11.5,3-3.2,1.5-4.9,2.7-5.4,3.9-.5,1-.5,2,1.2,3.7,1.7,2,4.9,3.9,9.1,5.8,8.1,3.9,17.9,6.8,22.9,8.7,2,1,2.7,3.7,1.5,5.6-2.2,3-6.6,4.4-10.5,5.2-4.2,1-9.6,1.5-14.7,1.5-10.3,0-22.3-1.4-28.5-4.5-2-1-2.7-3.2-1.7-4.9Z"/>
</svg>