<?xml version="1.0" encoding="UTF-8"?>
<svg id="_レイヤー_2" data-name="レイヤー 2" xmlns="http://www.w3.org/2000/svg" width="620" height="200" viewBox="0 0 620 200">
  <path d="M253.2,48.2c-.5-.3-1-.5-1.5-.6-7.1-1.3-25.4-2.2-49.6-2-17.3,0-37.9.6-59.9,2-3.5.2-10.4,1.2-10.3,1.1,9.2-9.7,26.8-26.3,33.9-31.9.2-.1.3-.3.5-.4,4.5-4.9-2.2-9.4-5.9-5.3-8.8,7.2-23.5,21.2-38.7,36.9-.6.7-1.5,1.1-2.5,1.1l-9.7.7c-25,2.1-51.4,5-76.7,9.2-5.2,1.1-4.4,7.6,1.1,7.1,25-3.9,51.3-6.8,76.3-8.9.1,0,.2,0,.3,0,.8,0,1.5,0,2.6-.3-13.3,13.9-26.4,28.4-35.4,39.5-12.2,14.9-46.8,56.8-72.6,91.6,0,.3,0,.6,0,1,0,1.1.4,1.8,1,2.4.6.3,1.1.5,1.2.6,1,.4,1.7.5,2.7.4.1,0,.2,0,.3,0,.5-.3,1-.7,1.5-1.1.3-.2.6-.4.9-.6,22.5-30,52.9-67.1,71.4-89.5,10.4-12.6,24.9-28.7,39.5-44,.7-.7,1.5-1.1,2.5-1.2,28.5-2,54.9-3.1,76-3.1h9.8c20.1,0,34,1.3,38.3,2.6,1.9.3,4.4-.5,4.9-2.6.5-1.8-.3-3.7-1.9-4.8Z"/>
  <path d="M95.7,124.3C127.5,81.1,162.9,40.3,201.5,2.2c1.6-1.6,4.4-1.6,6-.3,1.4,1.6,1.6,4.2,0,5.8-32.9,32.6-63.6,66.9-91.4,102.9l-11.7,15.5c13.3-6.1,49.2-22.4,61.5-17.6,3.3,1.1,4.9,4.2,3.5,7.6-3.8,7.6-11.7,12.4-14.7,21.3,1.9,1.3,4.6,1.8,7.6,1.8,8.2,0,19-3.9,24.5-5.8,12.2-4.5,28.6-13.4,31.8-15.5,1.9-1.3,4.6-.8,5.7,1.1,1.4,1.8.8,4.2-1.1,5.5-4.1,2.6-20.9,11.8-33.7,16.3-6.3,2.4-17.9,6.1-27.7,6.1s-10.9-1.3-13.9-5.3c-5.2-7.4,8.2-21.1,12-25.8-14.7-.8-60.9,19.5-68.5,28.2l-2.4,3.4c-2.7,3.9-9,.5-7.1-3.7.5-1.3,1.4-2.4,13.9-19.5Z"/>
  <path d="M205.6,145.1c-2.2-2.4-3-4.7-3-7.4s1.1-6.1,3.3-8.7c3.3-4.7,9.2-9.2,16.3-12.6,8.7-4.2,19.9-7.1,31-7.1s12,.8,17.9,2.9l2.7,1.1h.3l6.5-4.5.3-.3.5-.3c.5-.5.8-.8,1.1-.8v-.3c4.1-2.9,9,2.9,5.2,6.1l-.8.8-.8.5-.3.3c-2.7,2.4-8.2,7.1-12.2,12.1-3,3.4-4.6,6.3-4.6,8.4-.3.8,0,1.1,0,1.3.3.3.8.8,2.7,1.3,6.3,1.6,17.9-1.6,31-7.4,12.2-5.3,23.1-11.8,26.6-14.2,1.9-1.3,4.4-1.1,5.7.8,1.4,1.6,1.1,4.2-.8,5.5-4.1,2.9-15.8,9.7-28.3,15.3-12,5.3-26.9,10.3-36.4,7.6-6.3-1.8-9.5-6.1-8.7-11.3.3-1.6.8-3.2,1.4-4.7l.3-.5-6.3,3.4-6.3,3.2c-8.4,4.2-17.4,7.9-24.7,10.3-6.3,1.8-14.4,3.7-18.8,0l-.8-.8ZM222.7,138.2c6.8-2.1,15.2-5.5,23.4-9.7,6.3-2.9,12.5-6.3,17.9-9.5l.8-.5-2.2-.5c-3-.5-6.3-.8-9.5-.8-9.8,0-19.3,2.6-27.2,6.3-6.5,3.2-11.1,6.8-13.6,10.3-1.1,1.6-2.2,3.7-1.4,5.3l.5.5c0,.3.5.5,3,.5,2.2-.3,4.9-.8,8.2-1.8Z"/>
  <path d="M313,135.6l23.7-26.1c1.4-1.8,4.1-1.8,5.7-.5,1.6,1.3,1.9,3.9.5,5.5l-7.6,8.4c13.6-6.6,40.2-16.1,54.1-14.5,4.9.5,6.3,5.3,3.5,9.2-3.3,4.5-13.6,14.5-13.6,19.5,1.1,4.5,21.2.3,32.1-3.9,12-4.7,25-12.1,28.6-14.5,1.9-1.1,4.4-.5,5.7,1.1,1.1,1.8.5,4.5-1.1,5.5-4.1,2.6-17.7,10.8-30.5,15.3-9,3.4-20.4,6.3-29.1,6.3s-5.4-.3-7.6-1.1c-4.6-1.8-6.3-5-6.3-8.4s1.9-8.2,4.4-11.1c2.4-3.2,5.4-7.1,9-11.1-22,2.1-51.7,15.3-65.8,26.1l-5.4,6.1c-3,3.4-9.5.3-6.8-3.9,1.6-2.1,3.3-4.7,6.5-7.9Z"/>
  <path d="M475.3,149.6c-12-1.1-20.7-7.6-21.2-19.5-9.2,5.3-25.6,19.7-37.3,36.3-2.7,3.9-9,.5-7.1-3.9,35.4-53.7,93.8-121.6,132.4-159.8,1.6-1.6,4.1-1.6,5.7-.3,1.6,1.6,1.6,4.2.3,5.8-33.2,32.6-64.2,67.6-102.2,117.1,15.2-10.5,48.9-26.8,62.5-24,5.2,1.1,5.4,5.8,3.3,9.2-9.5,14.2-39.7,20-47.9,19.7v.3c.3,5.3,5.2,10,12.2,10.8,19,2.4,53-13.4,72.6-23.7,5.4-2.9,8.7,3.9,3.5,7.1-8.7,5.5-50.6,27.1-77,24.7ZM467.2,122.5c7.3-.5,29.6-6.6,34.8-13.7-4.4.3-21.5,6.8-34.8,13.7Z"/>
  <path d="M533,141.1c1.1-1.8,3.5-2.6,5.4-1.8,5.2,2.6,16.6,4.2,28,4.2s8.2-.3,11.4-.8l2.4-.5-1.9-.5c-4.6-1.8-9.8-3.7-14.4-5.8-4.6-2.4-9.2-5-12.5-8.2-3.3-3.2-5.2-7.9-2.7-12.6,3.8-7.1,15-10.3,25-11.8,6.8-1.1,14.4-1.3,21.5-1.3s8.2,0,11.7.3c4.4.3,5.2,5.8,1.4,7.4l-4.6,2.9c-1.6,1.1-2.4,2.1-3,2.6l-.3.5v.3c-.3,1.8-1.9,3.2-3.8,3.4-2.2,0-4.1-1.6-4.4-3.7,0-1.3.3-2.1.5-2.9l1.1-2.1.8-.8h-3.5c-5.4.3-11.1.5-16.3,1.3-4.9.8-9.5,1.8-12.8,3.2-3.5,1.6-5.4,2.9-6,4.2-.5,1.1-.5,2.1,1.4,3.9,1.9,2.1,5.4,4.2,10.1,6.3,9,4.2,19.9,7.4,25.3,9.5,2.2,1.1,3,3.9,1.6,6.1-2.4,3.2-7.3,4.7-11.7,5.5-4.6,1.1-10.6,1.6-16.3,1.6-11.4,0-24.7-1.6-31.5-5-2.2-1.1-3-3.4-1.9-5.3Z"/>
</svg>