<?xml version="1.0" encoding="UTF-8"?>
<svg id="_レイヤー_2" data-name="レイヤー 2" xmlns="http://www.w3.org/2000/svg" width="768" height="790.2" viewBox="0 0 768 790.2">
  <path d="M48.8,384c-13-1.3-20-11.7-15.7-23.1,2.8-7,7.6-12.8,18.9-23.1,10.7-9.8,21.8-17.2,26.9-18,5.4-.8,10.2,1.3,10.7,4.7.3,2-3.7,2.9-5.3,1.4-3.2-3.4-19.4,7.6-33.5,22.7-12.9,13.9-14.8,23.2-5.8,28.1,3,1.7,4.4,1.8,11.9.8,4.8-.7,11.8-2.3,15.7-3.9,42.5-15.6,72.7-39.3,70.8-55.3-1.3-9.2-8.3-12-56.2-23.3-31.5-7.4-49-16-60.2-29.6-5.4-6.5-5.5-7.2-6.9-17.4s-1.5-10.5,2.4-19.7c6.2-14.7,17.3-29.4,35.3-46.8,32.9-32.3,68.9-54.6,101.9-63.1,23-6,36.5.8,36.9,19.1.2,3.8-.3,8-1.3,12.6-3.5,17.1-13.9,39-30,62.7-11.4,17.2-22.2,29.4-25,28.8-3.5-.5-2.9-3.7,1.8-9.3,12.5-14.9,29.4-42.2,37.2-60.6,4.7-11,6.8-18.3,7.9-25,1.5-9.2,1.7-17.2-4.1-21.6-4.6-3.5-11.2-3.6-23.6-.2-31.4,8.2-70.7,34.1-101.8,66.9-37.1,39.1-40.1,62.4-10.4,81.4,11,7.1,20.1,10.3,54.6,19,15.4,3.7,30.9,8.1,35,10,25.9,12,16.5,36.1-23.5,59.7-22.4,13.2-52.8,23.7-65.1,22.3l.3-.4Z"/>
  <path d="M226.5,255.1c9.5-9,13.7-11.1,15-7.9.1.7-2.2,3.2-5.7,6.9-8,8-19.5,17.7-28.7,24.6-12.9,9.6-18,12.3-25.1,13.5-4.7.8-6.5.5-10-1.4-3.1-1.5-4.4-3.1-4.9-5.8-.8-4.4,1.3-14.2,4.6-21.4,3.5-7.9,5.6-11.4,8-11.9,1-.2,2.1.3,3.3,1.1,1.6,1.1,1.2,2.9-2.4,11.9-6.7,16.9-6.4,22.7,1.7,21.3,7.4-1.3,25.2-13.2,44.6-31.3h-.3ZM185.1,237.7c-1.4-1.8,3.5-11.4,6-11.5,4.2,0,5,2.6,2.3,7.2-2.7,4.7-6.5,6.7-8.3,4.3Z"/>
  <path d="M376.7,222.8c1.4,2.2.9,3-12.6,17.2-21.9,23.4-34.8,31.6-45.6,29.4-5.1-1.2-6.8-5.1-6-13.9.3-4.2,1-9.9,1.3-12.4.3-2.5.2-4.6-.2-4.8-1.2-.8-8.7,5.7-18.8,15.9-9.1,9.3-12.9,11.7-16.6,10.3-2.6-.9-3.5-3.9-3.9-13.9-.4-6.2-.6-7.2-1.9-7-4.4.8-16.3,14-28.5,31.5-4.7,6.8-6.2,8.1-9,8.2-2.8.1-3.2-.1-3.9-4.2-1.4-8.1,6.1-38,9.9-40.1,1-.5,2.4-.4,3.2.1,1.9,1.1,1.5,4.3-2.3,18.5-1.5,5.1-2.5,9.5-2.1,9.4.3,0,3.2-3.4,6.7-7.5,12.6-15.5,19.1-21.5,25.6-22.7,7.4-1.3,10.2,2.4,10.2,14.5v5.9s8.3-8.4,8.3-8.4c11.5-11.8,16.4-15.5,21.7-17.1,4-1.1,5.1-.9,7.2,1.2,2.4,2,2.6,2.7,1.5,14-1.7,15.6-1.9,15,.2,16.7,1.7,1.4,2.3,1.3,7.1-.9,9-4.4,16.9-12.4,33.6-30.4,9.4-10,12.4-12.3,14.3-9.5h.7Z"/>
  <path d="M461.9,206.5c1.1.5,2.3,1.3,2.4,2,.2,1-1.2,3-3.8,5.9-7,7.9-17.6,16.4-27,22.2-7.8,4.9-22,11.2-30.3,13.7-3,.9-6.8,2.9-8.6,4.7-8.1,7.4-16.2,10.9-19.7,8.7-2.3-1.3-2.9-.5-18.6,32.6-7.3,15.6-14,29-14.9,29.8-2,2.4-4.7,2.9-6.1,1.1-.5-1-.6-3.4,0-5.6,2.3-8.8,19.7-57.5,29.1-81.1,8.2-20.6,10.5-25.2,12.8-26,.3,0,.7-.1,1-.2,1.4-.2,2.4,0,2.9.5.9,1.2-3.5,13.8-13.3,38.9-1.7,4.1-2.8,7.5-2.5,7.4.3,0,3-4.7,5.8-10.4,12-22.7,25.3-37.9,34.7-39.6,11.5-2,13.5,9.1,4.4,24.6l-3.7,6.6,8.1-3.5c14.6-6.1,24-11.6,38.8-26.8,5.3-5.5,7.1-6.8,8.9-6.5l-.6.8ZM390.1,248.6c5.7-1,19.9-23,17.4-29.2-.8-2.3-1.7-1.8-4.5.1-6.2,4.2-20.4,22.1-24.3,31.5l-1,2.3,4.8-2.3c2.6-1.2,5.8-2.4,7.5-2.7v.3Z"/>
  <path d="M532.8,193.6c1-.2,2.2.7,2.7,1.6.1.7-1.5,3.1-4,6.6-7.3,9.7-21,24.6-28.3,30.8-14,11.5-26.2,16.9-35.2,15.7-3.6-.4-7.9-3.5-10.3-6.9-5.9-9.4-3.2-29.7,7.8-58.1,11.2-29.1,31.1-57.8,45.5-65.2,2.6-1.2,3.9-1.7,4.9-1.9,1-.2,2.1,0,4,.7,17.6,7-2.6,48.2-38,77.8-4,3.1-8.9,6.8-11.1,7.9-3.8,2.1-4,2.8-5.8,12.5-2.2,12.9-1,23.5,2.9,25.9,5.9,3.8,18.5-1.6,32-13.7,3.3-3,13.5-13.9,20-20.6,4.4-4.6,11.9-13.3,12.9-13.4v.3ZM475.2,177.4c-4.2,9.8-6.6,17.5-5.3,17.3.7-.1,5.5-4.1,10.6-8.9,10.2-9.5,21.7-23,27.9-32.8,7.4-11.4,11.8-25.8,9.3-29.9-.5-1-.9-1.2-1.6-1.1-.7.1-1.6.6-3.2,1.6-10.3,6.7-28.6,32.9-37.7,54.1v-.3Z"/>
  <path d="M590.4,190.6c10.5-11.6,12.3-9.2,12.3-7.1.2,1-2.5,5.7-9.2,13.1-21.5,24-37.4,34.5-52.6,34.8-11.8,0-19-5-19.5-13.6-.8-12.1,11.5-27.5,21.9-29.3,1.3-.2,2.8-.1,4.2.3,6.2,1.7,7,7.8,1.2,14.8-3.1,4-7,5.4-11,6.5-6.7,1.5-7.5.6-8.2,2.9-.4,1.5-.3,4.2.4,6.2,1.3,5.3,6.2,7.3,14.6,5.8,11.8-2.1,25.6-12.6,45.4-34.5l.4.3ZM536.2,199.2c-2,2.4-2.2,3.5-1,4q2.2.7,6.2-2.2c3.1-2.3,5.1-6.5,3.6-7.3,0,0-.3,0-.7.1-1.7.3-5.4,3-8.3,6.3l.2-1.1Z"/>
  <g>
    <path d="M339.4,379.1c.5,1.3-1.2,4-6,8.8-16.1,16.1-25.6,19.9-46.1,24.4-6.7,1.6-9.3,2.7-14,6.5-12.2,9.3-31.3,8.9-22.2-.4,3.4-3.2,9.5-6.2,16.9-7.9,5.3-1.4,6.6-2.3,9.2-5.8,6.4-8.5,8-17.4,3.2-16.7-6.8,1-23.2,17.4-37,37-7.8,10.8-10.9,13.3-13.6,11.6-1.5-1.2-1.3-4.3,1.6-15.5,3.3-13.3,12.6-38.8,20.7-57.2,6.5-15.1,23.6-49,26.3-52.1,2.1-2.4,6.6-2.6,7.6-.4.5,1-2.6,8.3-6.7,16.2-13.1,25.4-23.3,48.6-33.8,77.8l-3,8.4,9.2-10.6c16.1-18.2,28.3-25.1,36.3-20.3,4.9,3.1,5.4,8.6,1.7,17.1-1.6,3.7-2.5,6.6-2.2,6.5,1.1.5,14-3.7,18.2-6,8.1-4.2,15.6-7.4,22.8-15,7.6-7.6,11-10.2,12.3-6.2h-1.4Z"/>
    <path d="M431.8,366.1c1.7,2.2.6,4.1-11.4,14.8-16.6,15.1-32.4,25.6-40.9,26.5-9.9,1-13.2-5.4-13.4-11.6l-.3-6.9-8.1,8.8c-13.3,14-20.8,17.1-26.7,11.7-3.6-3.3-2.4-12.5,2.7-25,4.4-10.3,6.6-12.3,10.4-10.1,1.9,1.1,1.6,1.8-1.5,9.2-1.8,4.4-3.8,9.9-4.5,12.4-1.4,5-1,10.5.7,10.3,1.7-.2,10.5-8.7,22.6-21.5,10.8-11.6,13.7-13.3,15.9-9.8.4.6-.2,5.9-1.5,11.3-1.3,5.4-2.3,11-2.1,12.4,1.2,8.8,18.6-.9,45.6-25.4,2.4-2.4,4.9-4.5,6.8-6.1,2.1-2,4.8-3.1,6.1-1.2l-.3.4Z"/>
    <path d="M496.7,303.4c38.7-5.1,40.8-5,40.8-.5,0,2.4-6,4.3-8.6,2.9-1.5-.8-59.9,7-67.9,9.2-4,1.2-4.6,2-7.4,9-1.9,4.1-5.8,13.3-8.6,20.2-40,97.7-46.2,117.6-45.3,124,.3,2.4.4,5.1-.2,5.9-1.4,2.3-6.6,2.6-8.2.5-2.9-3.4,6.4-33.4,21.8-71.9,5.6-14.3,13.3-33.4,16.9-42.5,3.6-9.2,9-22.4,11.8-29.3,2.8-7,4.8-12.8,4.4-13.1-.8-.6-43.6,7.5-54.6,10.4-8,2.2-9,2.3-10.6.8-2.8-2.4-.6-4.1,9.4-6.9,10.3-2.8,42.3-9.4,53.2-10.9l6.8-1,5.9-12.6c4.3-8.9,6.5-12.7,8.2-13.3,4.7-1.3,4.8,2.4.4,12.8-2.3,5.5-4.1,10.3-4.1,10.6,0,.3,16.4-1.6,36.5-4.1l-.4-.3Z"/>
  </g>
  <g>
    <path d="M235.3,538.5c10.4-10.1,14.9-12.6,15.6-8.6.2,1-2.1,4.2-5.9,8.3-9.1,9.6-23.5,21.4-35.3,29.3-9.4,6.1-23.1,11.6-28,11-.7-.2-2.8-.2-4.6-.3-9.1-.2-15.8-7-14.9-15.9,1.5-15.9,14.3-30.3,25.1-28.3,6.8,1.3,11.5,12.3,5.7,13.3-2.7.5-3.9-.7-5.7-4.6-.6-1.6-1.9-2.8-2.6-3-2.8-.2-10.6,9.1-13,15.8-4.1,10.8-1.7,16.3,6.7,16.6,13,.6,30.1-9,56.4-34.3l.5.6Z"/>
    <path d="M304.5,520.1c7-4,10.4-4.6,10.9-1.5.2,1-1.3,2.7-3.8,4.5-4,2.8-10.9,5.7-16.9,7.1-9.7,2.3-15.2.5-20-2.8-2-1.4-3.9-2.5-4.6-2.3-1.7.3-12.4,15-21.7,29.4-4.6,7.4-9.2,13.4-10.2,13.6-1,.2-2.5-.3-3.3-.8-2.4-1.7-.2-11.4,6.1-27.1,5.4-13.4,7.4-15.9,10.9-13.7,1.9,1.1,2,1.4.3,5.9-2,4.5-1.7,4.5,7.1-5.4,10.8-11.9,12.5-12.6,17.7-6.5,3.4,3.6,5.4,5.3,13.5,3.9,4.7-.8,8.7-2.2,13.5-4.7l.5.6Z"/>
    <path d="M382,512.1c10.5-11.5,12.4-9.1,12.4-7,.2,1-2.5,5.6-9.2,13.1-21.7,23.9-37.6,34.2-52.9,34.4-11.8,0-19-5.1-19.4-13.7-.7-12.1,11.7-27.4,22.1-29.2,1.4-.2,2.8-.1,4.2.3,6.2,1.7,6.9,7.9,1.1,14.8-3.1,4-7.1,5.4-11.1,6.4-6.7,1.5-7.5.6-8.2,2.8-.4,1.5-.3,4.2.4,6.2,1.3,5.3,6.1,7.3,14.6,5.9,11.8-2,25.7-12.4,45.6-34.2l.4.3ZM327.8,520.3c-2,2.4-2.2,3.5-1.1,4q2.2.7,6.2-2.1c3.1-2.3,5.2-6.4,3.6-7.2,0,0-.3,0-.7.1-1.7.3-5.4,3-8.3,6.3l.2-1.1Z"/>
    <path d="M467.1,493.4c5.7-5.5,7.4-5.4,8.1-1.7.1.7-.9,2.6-2.9,5.4-5.6,7.9-16.8,19.9-24.1,26-13.4,11-21.7,13.4-29.4,9.2-4.2-2.4-4.7-3.4-5.6-8.4l-1-5.7-7.1,7.5c-13.5,14.5-24,20.4-30.7,17.8-9.3-3.6-1.3-26.2,13.6-38.5,4.3-3.5,8.4-5.6,12.1-6.2,4.7-.8,8.8.6,11.5,4.3l2.3,3.1,2.9-3.3c3.2-3.7,4.5-4.2,6.9-2.6,1.6,1.1,1.5,2.5-.6,8.5-3,8.9-3.3,15.2-.8,17.9,1.6,1.5,2.7,1.6,6.7.6,7.7-2,16.3-8.7,29.7-23.8,3.8-4.1,6.7-7.4,9.1-9.6l-.7-.2ZM401.8,519.8c6.8-7.1,7.1-7.5,5.5-10.7-1-1.9-2.4-3.8-3.1-4-.4-.3-1.1-.5-1.8-.4-7.5.9-23.4,20-24.1,30.2-.3,4.6,1.7,3.9,9.6-2.7,3.3-3,9.3-8.5,13.1-12.7l.7.2Z"/>
    <path d="M538.4,425.9c38.6-6.2,40.7-6.2,40.7-1.7,0,2.4-5.8,4.5-8.5,3.2-1.5-.8-59.7,8.8-67.6,11.2-3.9,1.4-4.5,2.2-7.1,9.2-1.7,4.1-5.4,13.4-8,20.5-37,98.8-42.6,118.9-41.5,125.3.4,2.4.5,5.1,0,5.9-1.3,2.3-6.5,2.8-8.2.7-3-3.3,5.4-33.6,19.6-72.6,5.2-14.4,12.3-33.7,15.6-43,3.3-9.3,8.3-22.6,10.9-29.7,2.6-7.1,4.4-12.9,4-13.2-.8-.6-43.4,8.8-54.3,12.1-7.9,2.4-8.9,2.6-10.6,1.1-2.8-2.3-.7-4.1,9.2-7.1,10.2-3.1,42-10.7,52.8-12.5l6.8-1.2,5.5-12.8c4-9,6.1-12.9,7.8-13.5,4.6-1.5,4.9,2.3.8,12.7-2.2,5.6-3.8,10.4-3.7,10.7,0,.3,16.3-2.1,36.3-5.2l-.4-.3Z"/>
    <path d="M563.1,480.8c9.6-8.9,13.8-11,15-7.8.1.7-2.2,3.2-5.8,6.9-8,8-19.6,17.6-28.9,24.4-13,9.5-18.1,12.1-25.2,13.3-4.7.8-6.5.4-10-1.4-3-1.6-4.4-3.1-4.8-5.8-.8-4.4,1.4-14.2,4.7-21.3,3.5-7.9,5.7-11.4,8.1-11.8,1-.2,2.1.3,3.3,1.2,1.6,1.1,1.2,2.9-2.5,11.9-6.9,16.8-6.6,22.7,1.6,21.3,7.4-1.3,25.3-13,44.8-31h-.3ZM521.8,463.2c-1.4-1.9,3.6-11.4,6-11.5,4.2,0,5,2.6,2.3,7.3-2.7,4.6-6.5,6.7-8.3,4.2Z"/>
    <path d="M651.8,462.9c8.5-7,12.1-8.3,12.2-4.2-.2,1.1-3.1,4-7.4,7.5-6.1,5.2-12.4,9.1-17.8,11.7-12.5,6.3-23.4,7.8-30.5,4.5l-3.8-1.8-6.7,9.8c-6.7,9.5-13.9,16.6-17.2,17.5-4.3,1.1-7.7-2.2-8.8-4.8-.6-1.6-.8-4.4-1.3-9.5-1.4-14,0-24.7,3.6-25.7,4-1,4.9,2,4,13.2-1,10.6,0,20.2,2,19.8,2-.3,12.7-15,19.4-27,5.3-9.6,7.3-12.4,9.3-12.7,4.1-.7,5.1,1.2,2.8,6.1-4,9-.3,12.2,11.4,9.5,8.1-1.7,16.5-5.3,27.8-14.5l1.1.2Z"/>
    <path d="M717.2,454.8c10.5-11.5,12.4-9.1,12.4-7,.2,1-2.5,5.6-9.2,13.1-21.7,23.9-37.6,34.2-52.9,34.4-11.8,0-19-5.1-19.4-13.7-.7-12.1,11.7-27.4,22.1-29.2,1.4-.2,2.8-.1,4.2.3,6.2,1.7,6.9,7.9,1.1,14.8-3.1,4-7.1,5.4-11.1,6.4-6.7,1.5-7.5.6-8.2,2.8-.4,1.5-.3,4.2.4,6.2,1.3,5.3,6.1,7.3,14.6,5.9,11.8-2,25.7-12.4,45.6-34.2l.4.3ZM663,463c-2,2.4-2.2,3.5-1.1,4q2.2.7,6.2-2.1c3.1-2.3,5.2-6.4,3.6-7.2,0,0-.3,0-.7.1-1.7.3-5.4,3-8.3,6.3l.2-1.1Z"/>
  </g>
  <g>
    <path d="M334.6,646c1-.2,2.2.7,2.7,1.6.1.7-1.6,3-4.1,6.6-7.4,9.6-21.2,24.5-28.5,30.6-14,11.4-26.4,16.7-35.3,15.4-3.6-.4-7.9-3.5-10.2-6.9-5.8-9.4-3-29.7,8.2-58.1,11.4-29.1,31.6-57.6,45.9-64.9,2.6-1.1,3.9-1.7,4.9-1.9,1-.2,2.1,0,3.9.7,17.6,7.1-2.9,48.1-38.6,77.5-4,3.1-8.9,6.7-11.2,7.8-3.8,2-4,2.8-5.9,12.5-2.3,12.9-1.2,23.5,2.7,26,5.9,3.9,18.5-1.4,32.1-13.5,3.3-3,13.6-13.8,20.1-20.5,4.4-4.6,12-13.2,13-13.4v.3ZM277.2,629.4c-4.2,9.8-6.7,17.5-5.4,17.3.7-.1,5.6-4.1,10.7-8.8,10.2-9.4,21.8-22.9,28.2-32.6,7.4-11.4,12-25.7,9.5-29.8-.5-1-.9-1.2-1.6-1.1-.7.1-1.6.6-3.2,1.6-10.3,6.6-28.8,32.7-38.1,53.8v-.3Z"/>
    <path d="M383.4,644.7c9.6-8.9,13.8-11,15-7.8.1.7-2.2,3.2-5.8,6.9-8,8-19.6,17.6-28.9,24.4-13,9.5-18.1,12.1-25.2,13.3-4.7.8-6.5.4-10-1.4-3-1.6-4.4-3.1-4.8-5.8-.8-4.4,1.4-14.2,4.7-21.3,3.5-7.9,5.7-11.4,8.1-11.8,1-.2,2.1.3,3.3,1.2,1.6,1.1,1.2,2.9-2.5,11.9-6.9,16.8-6.6,22.7,1.6,21.3,7.4-1.3,25.3-13,44.8-31h-.3ZM342.2,627c-1.4-1.9,3.6-11.4,6-11.5,4.2,0,5,2.6,2.3,7.3-2.7,4.6-6.5,6.7-8.3,4.2Z"/>
    <path d="M472.2,626.7c8.5-7,12.1-8.3,12.2-4.2-.2,1.1-3.1,4-7.4,7.5-6.1,5.2-12.4,9.1-17.8,11.7-12.5,6.3-23.4,7.8-30.5,4.5l-3.8-1.8-6.7,9.8c-6.7,9.5-13.9,16.6-17.2,17.5-4.3,1.1-7.7-2.2-8.8-4.8-.6-1.6-.8-4.4-1.3-9.5-1.4-14,0-24.7,3.6-25.7,4-1,4.9,2,4,13.2-1,10.6,0,20.2,2,19.8,2-.3,12.7-15,19.4-27,5.3-9.6,7.3-12.4,9.3-12.7,4.1-.7,5.1,1.2,2.8,6.1-4,9-.3,12.2,11.4,9.5,8.1-1.7,16.5-5.3,27.8-14.5l1.1.2Z"/>
    <path d="M528.7,619.8c9.6-8.9,13.8-11,15-7.8.1.7-2.2,3.2-5.8,6.9-8,8-19.6,17.6-28.9,24.4-13,9.5-18.1,12.1-25.2,13.3-4.7.8-6.5.4-10-1.4-3.1-1.6-4.4-3.1-4.8-5.8-.8-4.4,1.4-14.2,4.7-21.3,3.5-7.9,5.7-11.4,8.1-11.8,1-.2,2.1.3,3.3,1.2,1.6,1.1,1.2,2.9-2.5,11.9-6.9,16.8-6.6,22.7,1.6,21.3,7.4-1.3,25.3-13,44.8-31h-.3ZM487.5,602.2c-1.4-1.9,3.6-11.4,6-11.5,4.2,0,5,2.6,2.3,7.3-2.7,4.6-6.5,6.7-8.3,4.2Z"/>
    <path d="M645.5,592.9c.5,1-1.1,3.7-4.3,7.3-8.1,9.7-24.5,25.4-35.8,32.5-11.2,7.5-19.5,8.2-24.6,2.5-3-3.3-3-7.5-.6-19.7.9-4.7,1.3-8.6.9-8.9-1.9-1.1-16.8,11.6-24.6,20.9-7.8,9.3-18.9,19.9-21.2,20.3-1.4.2-3.5,0-4.7-.9-1.5-.8-2.2-2.4-2.2-4.8,0-7.7,9.5-31.9,13.8-35.1,1.2-.9,2.2-1.1,3.8,0,2.3,1.3,2.4,1.7,0,6.3-3.4,6.8-9.2,21.7-9.6,24.9-.4,1.8,2.9-1.2,11.1-10.2,19.4-21,30.9-28.9,37.4-25.5,3.8,1.8,4.3,6.6,2.1,16.3-2,8.7-1.6,15.2.9,15.5,6.4.7,23-11.9,43.8-32.9,8.3-8.4,11.2-9.9,13-7.1l.8-1.5Z"/>
    <path d="M726.8,578.4c3.3.8,2.3,3.1-5.1,8.5-2.5,1.8-5.9,4.1-9.9,6.9-20.6,13.6-26.4,18.4-27.9,21.8-.8,1.5-4.1,8.7-7.3,16.2-8,18.4-17.8,34.3-28.3,46.2-13.4,15.2-27.5,22.4-34.5,18.1-8.9-5.4,0-24,23.5-47.8,10.7-10.9,26.3-25.4,34.5-32.3,3.9-3.5,4.7-5,6.6-14.3,1.1-5.8,1.6-10.7,1.3-11-2.3-1.3-7.4,3.4-22,19.8-16,18.4-20.9,22.3-26.8,22-10.5-.3-7.8-19.2,4.9-34.6,5.4-6.8,6.7-7.7,11.7-9,5-1.2,6.4-1.1,9.5.5,1.9,1.1,3.9,2.5,4.4,3.4.9,1.2,1.9.7,7.4-3.7,7.4-5.8,11-6.7,15.3-4.3,2.7,1.3,3.2,2.2,3.4,7.8.2,3.4.2,7.3,0,8.7-.3,2.1,1,1.6,9-4.3,8.7-6.3,13.7-9.3,21.3-13.7,4.4-2.5,8-4.1,9.3-4.4.3,0,.7-.1.7-.1l-.7-.2ZM660,643.3c5.8-11.1,8.7-16.1,7.7-15.9-1,.2-5.2,4.4-13,11.6-22.7,21.6-38.7,42.4-37.4,49.5.5,2.7.9,3,3.8,1.8,1.6-.6,5.1-2.6,7.6-4.4,10.4-8,23-24.4,31.8-41.9l-.5-.6ZM646.4,612.3c7.9-9,11.2-13.7,10.4-14.3-.8-.6-2.4-1.7-3.6-2.5-.8-.9-1.2-1.2-1.9-1.1-.7.1-1.6.6-3.8,2-4.7,3.2-12.1,14.9-14.2,22.6-3,10.9-.7,9.9,13.5-6.5l-.4-.3Z"/>
    <path d="M740,610.9c4.4-2.8,10.1.4,8.4,4.5-1,2.3-5.3,3.3-8,2.1-2.7-1.3-2.6-5.1,0-6.6h-.3Z"/>
  </g>
</svg>