<?xml version="1.0" encoding="UTF-8"?>
<svg id="_レイヤー_2" data-name="レイヤー 2" xmlns="http://www.w3.org/2000/svg" width="768" height="549.6" viewBox="0 0 768 549.6">
  <g>
    <path d="M167.6,324.9c8.7-9.8,10.3-7.7,10.3-5.9.1.9-2.1,4.8-7.7,11.1-18,20.4-31.2,29.2-43.9,29.3-9.9,0-15.8-4.4-16.2-11.8-.6-10.3,9.6-23.4,18.3-24.9,1.1-.2,2.3,0,3.5.3,5.2,1.5,5.8,6.8,1,12.6-2.6,3.4-5.9,4.6-9.2,5.5-5.6,1.3-6.3.5-6.8,2.4-.4,1.3-.2,3.6.3,5.3,1.1,4.6,5.1,6.3,12.2,5.1,9.8-1.7,21.4-10.5,37.9-29.1l.3.2ZM122.4,331.8c-1.7,2.1-1.8,3-.9,3.4q1.8.6,5.2-1.8c2.6-1.9,4.3-5.5,3-6.2h-.6c-1.4.3-4.5,2.7-6.9,5.5v-.9Z"/>
    <path d="M240,309.8c7.1-6,10.1-7.1,10.1-3.5-.1.9-2.6,3.4-6.1,6.4-5,4.4-10.3,7.7-14.8,10-10.4,5.4-19.4,6.6-25.4,3.8l-3.2-1.5-5.5,8.4c-5.6,8.1-11.5,14.2-14.2,15-3.6.9-6.4-1.9-7.4-4.1-.5-1.4-.6-3.8-1.1-8.2-1.2-12-.1-21.1,2.9-21.9,3.3-.9,4.1,1.7,3.4,11.3-.8,9.1,0,17.3,1.7,17s10.5-12.8,16-23c4.4-8.2,6-10.6,7.7-10.9,3.4-.6,4.2,1.1,2.3,5.3-3.3,7.7-.2,10.5,9.5,8.2,6.7-1.4,13.7-4.4,23.1-12.3h.9Z"/>
    <path d="M294.5,303.2c8.7-9.8,10.3-7.7,10.3-5.9.1.9-2.1,4.8-7.7,11.1-18,20.4-31.2,29.2-43.9,29.3-9.9,0-15.8-4.4-16.2-11.8-.6-10.3,9.6-23.4,18.3-24.9,1.1-.2,2.3,0,3.5.3,5.2,1.5,5.8,6.8,1,12.6-2.6,3.4-5.9,4.6-9.2,5.5-5.6,1.3-6.3.5-6.8,2.4-.4,1.3-.2,3.6.3,5.3,1.1,4.6,5.1,6.3,12.2,5.1,9.8-1.7,21.4-10.5,37.9-29.1l.3.2ZM249.3,310c-1.7,2.1-1.8,3-.9,3.4q1.8.6,5.2-1.8c2.6-1.9,4.3-5.5,3-6.2h-.6c-1.4.3-4.5,2.7-6.9,5.5v-.9Z"/>
    <path d="M347.5,289.6c5.8-3.4,8.6-3.9,9.1-1.3s-1.1,2.3-3.1,3.8c-3.4,2.4-9,4.8-14,6-8.1,2-12.7.4-16.6-2.5-1.7-1.2-3.3-2.1-3.8-2-1.4.2-10.3,12.8-18,25.1-3.8,6.3-7.6,11.4-8.4,11.6s-2.1-.2-2.7-.7c-2-1.4-.2-9.8,5-23.2,4.4-11.5,6.1-13.6,9-11.7,1.6.9,1.7,1.2.3,5-1.7,3.9-1.4,3.8,5.9-4.6,9-10.2,10.3-10.7,14.7-5.5,2.8,3.1,4.5,4.6,11.3,3.4,3.9-.7,7.2-1.8,11.2-4l.4.5Z"/>
    <path d="M432.2,273.3c.4.8-3.8,4.8-14.8,13.6-22.9,18.5-21.7,16.8-22.8,22.7-1.3,7.4-7.1,23-11.1,30.2-6.8,12.5-18.7,24.6-27.6,28.6-4.6,2-5.1,2.1-8.6,2.1-6.7-.3-9.7-6.1-7-13.7,2.8-7.6,19.2-26.5,39.5-45.2,4.8-4.4,8.8-8.1,9-8.4.5-.7,1.4-15.7,1-18-.2-1.2-.7-2.3-1.2-2.2-.6,0-4.9,5.3-9.6,11.5-13,17.1-14.7,18.9-20,20.4-3.9,1-4.8.8-6.5-.7-4.1-3.5-3.6-16.1,1-26.4,1.7-3.9,3-5.9,4.7-6.2.8-.1,1.5,0,2.1.5,1.6.9,1.4,1.5-.8,7.3-2.8,7.3-3.6,11-3.5,16.7,0,3.3.4,4.1,1.5,3.9,1.4-.2,10.1-10.7,18.3-21.9,2.3-3.4,6-7.3,8.3-8.9,3.9-2.5,4.2-2.5,7-1.5,3.7,1.4,4.7,4,4.6,11.4,0,3.6.2,6.5.6,6.8.3.2,6.1-3.4,14.7-10.6,15.5-12.8,19.2-14.9,20.6-11.9h.6ZM376,338.9c3.5-6.6,10.4-23.8,9.6-24.9-2.5.4-29.6,28.3-35.7,37.1-4.2,6.1-5.9,11.4-4.3,13.8,1.5,2.1,7.2,0,13.1-4.6,6.3-5.3,14.1-14.3,17.8-21.2l-.6-.2Z"/>
    <path d="M510.8,258.6c3.6.6,1.8,3.9-8.1,15.1-19,21.1-27.4,27.6-36.4,27.7-1.2,0-3.3-.9-4.9-1.8-2.6-1.6-3-2.5-4.2-9.1-.9-5.5-.8-9.7.2-15.5q2.2-12.3-2.1-4.1c-6.6,12.4-14.2,23.6-18.5,27.3-7.4,6-15,5.5-16.1-1.1-1.2-7.2,4.7-21.7,11-26.9,4.3-3.7,8-4.1,12.8-1.3l3.9,2.3,4.5-9.4c4.3-8.8,10.1-22,21.7-49.3,4.3-10.3,6.3-13.9,8.3-14.2.6,0,1.2,0,1.8.3,2.5,1.1,2.4,2.3-.5,9-11.8,27.3-23.5,77.9-19.5,85.6,2.7,5.5,12.4-.3,26.8-15.9,15.2-16.3,18.4-19.2,20.2-19l-.8.4ZM439.8,285.4c5.3-8.1,5.2-8.3,3.4-10.4-1.8-2.1-3.1-2.8-4.5-2.5-.6,0-1.4.5-2.2,1-4.4,3.1-11.3,20.4-9.3,23.3,1.2,1.9,6.2-2.8,12.2-11.6l.3.2Z"/>
    <path d="M573.2,250.6c4.7-4.7,6.2-4.6,6.7-1.4,0,.6-.8,2.2-2.4,4.6-4.6,6.8-13.9,17-20,22.2-11.1,9.4-18,11.4-24.4,7.8-3.5-2.1-4-2.9-4.7-7.2l-.8-4.9-5.9,6.4c-11.2,12.3-19.9,17.4-25.5,15.1-7.8-3.1-1.2-22.4,11.2-32.9,3.5-3,7-4.8,10.1-5.3,3.9-.7,7.3.5,9.6,3.7l1.9,2.7,2.4-2.8c2.6-3.1,3.7-3.6,5.7-2.2,1.3,1,1.2,2.2-.5,7.2-2.5,7.6-2.7,13-.6,15.3,1.4,1.3,2.3,1.4,5.6.5,6.4-1.7,13.5-7.4,24.6-20.3,3.2-3.5,5.6-6.3,7.6-8.2l-.6-.2ZM518.8,273c5.6-6,5.9-6.4,4.5-9.1-.9-1.6-2-3.2-2.6-3.4-.3-.2-.9-.4-1.5-.3-6.2.8-19.4,17-19.9,25.8-.2,3.9,1.4,3.3,8-2.3,2.7-2.6,7.7-7.3,10.9-10.8l.6.2Z"/>
    <path d="M653.1,235.4c.4.8-3.8,4.8-14.8,13.6-22.9,18.5-21.7,16.8-22.8,22.7-1.3,7.4-7.1,23-11.1,30.2-6.8,12.5-18.7,24.6-27.6,28.6-4.6,2-5.1,2.1-8.6,2.1-6.7-.3-9.7-6.1-7-13.7,2.8-7.6,19.2-26.5,39.5-45.2,4.8-4.4,8.8-8.1,9-8.4.5-.7,1.4-15.7,1-18-.2-1.2-.7-2.3-1.2-2.2-.6,0-4.9,5.3-9.6,11.5-13,17.1-14.7,18.9-20,20.4-3.9,1-4.8.8-6.5-.7-4.1-3.5-3.6-16.1,1-26.4,1.7-3.9,3-5.9,4.7-6.2.8-.1,1.5,0,2.1.5,1.6.9,1.4,1.5-.8,7.3-2.8,7.3-3.6,11-3.5,16.7,0,3.3.4,4.1,1.5,3.9,1.4-.2,10.1-10.7,18.3-21.9,2.3-3.4,6-7.3,8.3-8.9,3.9-2.5,4.2-2.5,7-1.5,3.7,1.4,4.7,4,4.6,11.4,0,3.6.2,6.5.6,6.8.3.2,6.1-3.4,14.7-10.6,15.5-12.8,19.2-14.9,20.6-11.9h.6ZM596.9,301.1c3.5-6.6,10.4-23.8,9.6-24.9-2.5.4-29.6,28.3-35.6,37.1-4.2,6.1-5.9,11.4-4.3,13.8,1.5,2.1,7.2,0,13.1-4.6,6.3-5.3,14.1-14.3,17.8-21.2l-.6-.2Z"/>
  </g>
  <g>
    <path d="M444.1,415.5c.5,1.1-.9,3.4-4.8,7.7-12.9,14.1-20.7,17.6-37.7,21.9-5.5,1.5-7.7,2.5-11.5,5.8-9.9,8.2-25.8,8.3-18.5.2,2.7-2.8,7.7-5.5,13.8-7.1,4.4-1.4,5.4-2.1,7.5-5.2,5.1-7.4,6.1-15,2.2-14.4-5.6,1-18.8,15.4-29.8,32.5-6.2,9.4-8.7,11.6-11,10.2-1.3-1-1.2-3.7.9-13.3,2.4-11.4,9.3-33.5,15.6-49.4,5-13.1,18.2-42.4,20.4-45.2,1.7-2.1,5.4-2.4,6.3-.5.4.8-2,7.2-5.1,14-10.1,22-18,42.1-25.8,67.3l-2.2,7.2,7.4-9.3c12.9-15.9,22.9-22.1,29.6-18.2,4.2,2.6,4.7,7.2,1.9,14.6-1.2,3.2-1.9,5.7-1.6,5.6.9.4,11.6-3.5,15-5.5,6.6-3.8,12.8-6.7,18.6-13.3,6.1-6.7,8.9-9,10-5.6h-1.2Z"/>
    <path d="M488,412.8c8.7-9.8,10.3-7.7,10.3-5.9.1.9-2.1,4.8-7.7,11.1-18,20.4-31.2,29.2-43.9,29.3-9.9,0-15.8-4.4-16.2-11.8-.6-10.3,9.6-23.4,18.3-24.9,1.1-.2,2.3,0,3.5.3,5.2,1.5,5.8,6.8,1,12.6-2.6,3.4-5.9,4.6-9.2,5.5-5.6,1.3-6.3.5-6.8,2.4-.4,1.3-.2,3.6.3,5.3,1.1,4.6,5.1,6.3,12.2,5.1,9.8-1.7,21.4-10.5,37.9-29.1l.3.2ZM442.8,419.6c-1.7,2.1-1.8,3-.9,3.4q1.8.6,5.2-1.8c2.6-1.9,4.3-5.5,3-6.2h-.6c-1.4.3-4.5,2.7-6.9,5.5v-.9Z"/>
    <path d="M558.9,397.1c4.7-4.7,6.2-4.6,6.7-1.4,0,.6-.8,2.2-2.4,4.6-4.6,6.8-13.9,17-20,22.2-11.1,9.4-18,11.4-24.4,7.8-3.5-2.1-4-2.9-4.7-7.2l-.8-4.9-5.9,6.4c-11.2,12.3-19.9,17.4-25.5,15.1-7.8-3.1-1.2-22.4,11.2-32.9,3.5-3,7-4.8,10.1-5.3,3.9-.7,7.3.5,9.6,3.7l1.9,2.7,2.4-2.8c2.6-3.1,3.7-3.6,5.7-2.2,1.3,1,1.2,2.2-.5,7.2-2.5,7.6-2.7,13-.6,15.3,1.4,1.3,2.3,1.4,5.6.5,6.4-1.7,13.5-7.4,24.6-20.3,3.2-3.5,5.6-6.3,7.6-8.2l-.6-.2ZM504.5,419.5c5.6-6,5.9-6.4,4.5-9.1-.9-1.6-2-3.2-2.6-3.4-.3-.2-.9-.4-1.5-.3-6.2.8-19.4,17-19.9,25.8-.2,3.9,1.4,3.3,8-2.3,2.7-2.6,7.7-7.3,10.9-10.8l.6.2Z"/>
    <path d="M641.4,381.7c1.5,1.8.6,3.5-9.1,12.9-13.4,13.3-26.2,22.7-33.3,23.6-8.2,1.1-11.2-4.3-11.5-9.6l-.4-5.9-6.5,7.7c-10.6,12.2-16.8,15.1-21.9,10.6-3.1-2.7-2.4-10.6,1.5-21.4,3.4-8.9,5.1-10.7,8.3-8.9,1.6.9,1.4,1.5-1,7.9-1.4,3.8-2.9,8.5-3.4,10.7-1,4.3-.5,9,.9,8.8,1.4-.2,8.5-7.7,18.2-18.9,8.7-10.1,11-11.7,13-8.8.4.5,0,5.1-.9,9.7-.9,4.6-1.6,9.5-1.4,10.7,1.3,7.5,15.4-1.2,37.2-22.8,2-2.1,4-4,5.4-5.4,1.7-1.8,3.9-2.7,5-1.2l-.2.3Z"/>
    <path d="M693.7,326.6c32.1-5.2,33.9-5.2,33.9-1.4,0,2.1-4.9,3.8-7.1,2.7-1.3-.7-49.7,7.3-56.3,9.4-3.3,1.2-3.7,1.8-5.9,7.9-1.4,3.5-4.4,11.5-6.6,17.5-30.4,84.5-35,101.6-34.1,107.1.3,2,.5,4.4,0,5.1-1.1,2-5.4,2.4-6.9.6-2.5-2.8,4.3-28.7,16-62,4.3-12.3,10.1-28.8,12.8-36.8,2.7-7.9,6.8-19.3,9-25.4,2.2-6,3.6-11,3.3-11.3-.7-.5-36.1,7.4-45.2,10.1-6.6,2-7.4,2.2-8.8.9-2.4-2-.6-3.5,7.6-6.1,8.5-2.7,35-9,44-10.5l5.6-1,4.5-10.9c3.3-7.7,5.1-11,6.4-11.5,3.8-1.3,4.1,2,.7,10.9-1.8,4.8-3.1,8.9-3.1,9.2,0,.3,13.6-1.7,30.3-4.3l-.3-.2Z"/>
    <path d="M737.2,358.9c.4.8-3.8,4.8-14.8,13.6-22.9,18.5-21.7,16.8-22.8,22.7-1.3,7.4-7.1,23-11.1,30.2-6.8,12.5-18.7,24.6-27.6,28.6-4.6,2-5.1,2.1-8.6,2.1-6.7-.3-9.7-6.1-7-13.7,2.8-7.6,19.2-26.5,39.5-45.2,4.8-4.4,8.8-8.1,9-8.4.5-.7,1.4-15.7,1-18-.2-1.2-.7-2.3-1.2-2.2-.6,0-4.9,5.3-9.6,11.5-13,17.1-14.7,18.9-20,20.4-3.9,1-4.8.8-6.5-.7-4.1-3.5-3.6-16.1,1-26.4,1.7-3.9,3-5.9,4.7-6.2.8-.1,1.5,0,2.1.5,1.6.9,1.4,1.5-.8,7.3-2.8,7.3-3.6,11-3.5,16.7,0,3.3.4,4.1,1.5,3.9,1.4-.2,10.1-10.7,18.3-21.9,2.3-3.4,6-7.3,8.3-8.9,3.9-2.5,4.2-2.5,7-1.5,3.7,1.4,4.7,4,4.6,11.4,0,3.6.2,6.5.6,6.8.3.2,6.1-3.4,14.7-10.6,15.5-12.8,19.2-14.9,20.6-11.9h.6ZM681,424.5c3.5-6.6,10.4-23.8,9.6-24.9-2.5.4-29.6,28.3-35.6,37.1-4.2,6.1-5.9,11.4-4.3,13.8,1.5,2.1,7.2,0,13.1-4.6,6.3-5.3,14.1-14.3,17.8-21.2l-.6-.2Z"/>
    <path d="M743.9,385.8c3.6-2.4,8.5.3,7,3.9-.8,1.9-4.4,2.8-6.7,1.7-2.2-1.1-2.2-4.4,0-5.6h-.3Z"/>
  </g>
  <g>
    <path d="M249.4,193.7c8.7-9.8,10.3-7.7,10.3-5.9.1.9-2.1,4.8-7.7,11.1-18,20.4-31.2,29.2-43.9,29.3-9.9,0-15.8-4.4-16.2-11.8-.6-10.3,9.6-23.4,18.3-24.9,1.1-.2,2.3,0,3.5.3,5.2,1.5,5.8,6.8,1,12.6-2.6,3.4-5.9,4.6-9.2,5.5-5.6,1.3-6.3.5-6.8,2.4-.4,1.3-.2,3.6.3,5.3,1.1,4.6,5.1,6.3,12.2,5.1,9.8-1.7,21.4-10.5,37.9-29.1l.3.2ZM204.2,200.6c-1.7,2.1-1.8,3-.9,3.4q1.8.6,5.2-1.8c2.6-1.9,4.3-5.5,3-6.2h-.6c-1.4.3-4.5,2.7-6.9,5.5v-.9Z"/>
    <path d="M299.4,181c7.3-4.5,9.6-4.9,10.1-2,.2,1.4-1.2,2.9-6.8,6.2-3.9,2.5-12.9,7.6-21.3,12.6l-14.9,9.4.2,4.7c.2,6.5-3,12.7-8.3,16-4.7,2.9-10.3,4.1-13.4,2.9-2.8-1-3.6-5.9-1.6-9.3,1.6-2.7,8.2-9.5,12.3-12.8l2.1-1.5-3-7.2c-2.8-6.4-3-7.5-2.2-10.9,1-4.1,3.5-6.8,6-7.3.6,0,1.1-.2,1.7,0,3,.7,3.3,2.4,1,4.3-2.8,2.3-3,5.9-.7,11.1,2.3,5.3,3.1,6,4.8,4.2.7-.7,7.3-4.8,14.6-9.4,7.3-4.5,15.6-8.9,19.5-11.4l-.2.3ZM254.6,222.4c3.7-3.6,6.1-10,3.6-9.6-1.1.2-9.7,9.4-10.5,11.3-.6,1.6-.3,1.8,2,1.4,1.4-.2,3.8-1.5,5.3-3l-.3-.2Z"/>
    <path d="M348.1,176.5c8-7.6,11.4-9.4,12.5-6.6,0,.6-1.9,2.7-4.8,5.9-6.7,6.8-16.3,15-24,20.8-10.8,8.1-15,10.3-20.9,11.3s-5.4.3-8.3-1.3c-2.5-1.4-3.6-2.7-4-5-.6-3.8,1.1-12.1,3.8-18.2,2.9-6.8,4.7-9.7,6.7-10.1.8-.1,1.8.3,2.8,1,1.3,1,1,2.5-2,10.2-5.7,14.4-5.4,19.4,1.4,18.2,6.2-1.1,21-11,37.2-26.3h-.3ZM313.7,161.3c-1.1-1.6,3-9.7,5-9.8,3.5,0,4.2,2.3,1.9,6.2-2.2,4-5.4,5.7-6.9,3.6Z"/>
    <path d="M427.8,156.3c2.7.7,1.9,2.7-4.3,7.3-2.1,1.5-4.9,3.5-8.3,5.9-17.1,11.6-21.9,15.7-23.2,18.6-.6,1.3-3.4,7.4-6,13.8-6.6,15.7-14.7,29.3-23.4,39.5-11.1,12.9-22.8,19.1-28.7,15.3-7.5-4.7,0-20.5,19.4-40.9,8.8-9.3,21.8-21.6,28.6-27.5,3.3-2.9,3.9-4.2,5.4-12.3.9-4.9,1.3-9.2,1-9.4-1.9-1.2-6.2,2.8-18.3,16.8-13.2,15.7-17.3,19.1-22.3,18.7-8.7-.3-6.6-16.4,3.9-29.6,4.5-5.8,5.5-6.6,9.7-7.6s5.3-.9,7.9.4c1.6.9,3.3,2.1,3.7,2.9.8,1.1,1.6.6,6.1-3.1,6.1-4.9,9.2-5.7,12.7-3.7,2.2,1.1,2.6,1.9,2.9,6.7.2,2.9.2,6.2.1,7.4-.3,1.8.8,1.4,7.5-3.7,7.2-5.4,11.4-7.9,17.7-11.7,3.7-2.1,6.6-3.5,7.8-3.7.3,0,.6,0,.6,0l-.6-.2ZM372.4,211.7c4.8-9.5,7.2-13.7,6.4-13.6-.8.1-4.3,3.7-10.8,9.9-18.9,18.4-32,36.2-31,42.3.4,2.3.7,2.6,3.2,1.5,1.4-.5,4.3-2.2,6.3-3.8,8.7-6.9,19-20.8,26.3-35.8l-.4-.5ZM360.9,185.1c6.5-7.7,9.3-11.7,8.6-12.2-.7-.5-2-1.4-3-2.2-.7-.8-1-1-1.6-.9-.6,0-1.4.5-3.2,1.7-3.9,2.7-10,12.7-11.8,19.3-2.5,9.4-.6,8.4,11.2-5.5l-.3-.2Z"/>
    <path d="M514.3,142.1c.4.8-.9,3.1-3.6,6.3-6.7,8.3-20.3,21.7-29.7,27.7-9.3,6.4-16.2,6.9-20.5,2-2.5-2.8-2.5-6.4-.6-16.9.8-4,1.1-7.3.7-7.6-1.6-.9-14,9.8-20.4,17.8-6.5,8-15.6,17-17.6,17.3-1.1.2-2.9,0-3.9-.8-1.3-.7-1.8-2.1-1.9-4.1,0-6.6,7.8-27.3,11.4-30,1-.8,1.9-.9,3.2,0,1.9,1.2,2,1.4,0,5.4-2.8,5.8-7.5,18.6-7.9,21.3-.3,1.5,2.4-1,9.2-8.7,16-17.9,25.6-24.6,31-21.7,3.2,1.5,3.6,5.6,1.8,14-1.6,7.4-1.2,13,.8,13.3,5.3.6,19.1-10.1,36.3-28,6.9-7.1,9.3-8.4,10.8-6l.6-1.3Z"/>
    <path d="M551.9,141.6c8-7.6,11.4-9.4,12.5-6.6,0,.6-1.9,2.7-4.8,5.9-6.7,6.8-16.3,15-24,20.8-10.8,8.1-15,10.3-20.9,11.3s-5.4.3-8.3-1.3c-2.5-1.4-3.6-2.7-4-5-.6-3.8,1.1-12.1,3.8-18.2,2.9-6.8,4.7-9.7,6.7-10.1.8-.1,1.8.3,2.8,1,1.3,1,1,2.5-2,10.2-5.7,14.4-5.4,19.4,1.4,18.2,6.2-1.1,21-11,37.2-26.3h-.3ZM517.4,126.4c-1.1-1.6,3-9.7,5-9.8,3.5,0,4.2,2.3,1.9,6.2-2.2,4-5.4,5.7-6.9,3.6Z"/>
    <path d="M649.1,119c.4.8-.9,3.1-3.6,6.3-6.7,8.3-20.3,21.7-29.7,27.7-9.3,6.4-16.2,6.9-20.5,2-2.5-2.8-2.5-6.4-.6-16.9.8-4,1.1-7.3.7-7.6-1.6-.9-14,9.8-20.4,17.8-6.5,8-15.6,17-17.6,17.3-1.1.2-2.9,0-3.9-.8-1.3-.7-1.8-2.1-1.9-4.1,0-6.6,7.8-27.3,11.4-30,1-.8,1.9-.9,3.2,0,1.9,1.2,2,1.4,0,5.4-2.8,5.8-7.5,18.6-7.9,21.3-.3,1.5,2.4-1,9.2-8.7,16-17.9,25.6-24.6,31-21.7,3.2,1.5,3.6,5.6,1.8,14-1.6,7.4-1.2,13,.8,13.3,5.3.6,19.1-10.1,36.3-28,6.9-7.1,9.3-8.4,10.8-6l.6-1.3Z"/>
    <path d="M716.8,106.8c2.7.7,1.9,2.7-4.3,7.3-2.1,1.5-4.9,3.5-8.3,5.9-17.1,11.6-21.9,15.7-23.2,18.6-.6,1.3-3.4,7.4-6,13.8-6.6,15.7-14.7,29.3-23.4,39.5-11.1,12.9-22.8,19.1-28.7,15.3-7.5-4.7,0-20.5,19.4-40.9,8.8-9.3,21.8-21.6,28.6-27.5,3.3-2.9,3.9-4.2,5.4-12.3.9-4.9,1.3-9.2,1-9.4-1.9-1.2-6.2,2.8-18.3,16.8-13.2,15.7-17.3,19.1-22.3,18.7-8.7-.3-6.6-16.4,3.9-29.6,4.5-5.8,5.5-6.6,9.7-7.6s5.3-.9,7.9.4c1.6.9,3.3,2.1,3.7,2.9.8,1.1,1.6.6,6.1-3.1,6.1-4.9,9.2-5.7,12.7-3.7,2.2,1.1,2.6,1.9,2.9,6.7.2,2.9.2,6.2.1,7.4-.3,1.8.8,1.4,7.5-3.7,7.2-5.4,11.4-7.9,17.7-11.7,3.7-2.1,6.6-3.5,7.8-3.7.3,0,.6,0,.6,0l-.6-.2ZM661.4,162.2c4.8-9.5,7.2-13.7,6.4-13.6-.8.1-4.3,3.7-10.8,9.9-18.9,18.4-32,36.2-31,42.3.4,2.3.7,2.6,3.2,1.5,1.4-.5,4.3-2.2,6.3-3.8,8.7-6.8,19-20.8,26.3-35.8l-.4-.5ZM649.9,135.5c6.5-7.7,9.3-11.7,8.6-12.2-.7-.5-2-1.4-3-2.2-.7-.8-1-1-1.6-.9-.6,0-1.4.5-3.2,1.7-3.9,2.7-10,12.7-11.8,19.3-2.5,9.4-.6,8.4,11.2-5.5l-.3-.2Z"/>
    <path d="M28.3,293.3c-.9-4.5.7-9.5,4.4-14.5,5.1-7.1,14.4-14.8,27.8-22.9l6-3.6,4.4-8.9c8.5-17.7,19.9-40.2,32.1-62.8,12.3-23.1,25.1-47,36-65.7-8.2-.4-17.4.3-26.3,2.2-39.4,8.2-81.1,37.3-89.9,74-1.4,5.3-1.3,10.6-.3,15.2,3.1,15.1,16.7,25,31.9,21.9,2.2-.5,4.6-1.3,6.9-2.4,1.6-.7,3.3-.1,4,1.3.7,1.4,0,3.1-1.3,3.8-2.8,1.4-5.7,2.4-8.5,2.9-18.6,3.9-34.8-8.7-38.5-26.7-1.1-5.4-1.2-11.2.3-17.3,9.4-38.8,53.2-69.9,94.8-78.5,10.4-2.2,20.7-3,30.4-2.1,8.3-14.1,15-24.7,18.3-28.5,1.1-1.2,3-1.4,4-.3,1.2,1.1,1.4,2.8.3,4-2.8,3.3-8.8,12.5-16.4,25.5,11.7,2,22.4,6.8,30.4,14.6,6.4,6.4,10.3,14,12,22.1,3.7,17.7-2.4,38.9-14.2,59.4l-2.7,4.6,2-.6,24.2-6.6c1.5-.3,3,.5,3.4,2.2.5,1.4-.5,3-2,3.3l-24,6.6-8.3,2.3-1.6,2.5c-10.9,15.7-24.5,30.5-38.8,42.6-19.3,16.4-40.9,28.3-58.7,34.7-4.7,1.8-9.4,3.1-13.9,4.1-11.5,2.4-21.2,1.7-25.4-3.8-1.1-1.5-2-3.3-2.4-4.9ZM56.4,278.1c0-2.3,1.8-7.2,4.2-12.5l1.8-4.3c-12.8,7.7-20.8,14.6-25,20.7-4.4,6-4.3,10-2.2,12.7,1.3,1.7,4.7,3.1,10.7,2.8,2.5-.1,5.3-.5,8.5-1.2,4.1-.9,8.7-2.2,13.6-3.8,17.3-6.1,38.2-17.7,57-33.6,12.9-10.8,24.8-23.6,34.6-36.9l.9-1.2-4.9,1.4c-37.2,11.6-65,23.4-84.7,33.9l-5.1,11.7c-3.1,7.4-3.6,9.7-3.7,10.3l-.2,1c-.2,1-1.2,1.8-2.3,2-1.7.2-3.1-1.1-3.3-2.6,0-.2.1-.4,0-.6ZM165.7,213.2h.2c14.9-22.7,23.1-46.6,19.2-65.3-1.5-7.3-4.8-13.6-10.2-19-7.8-7.5-18-11.8-29.6-13.4-10.7,18.5-24.2,43.1-37.3,67.9-12,22.5-23.6,45.1-32,62.5-.4.7-.7,1.3-1,1.9,21.6-11.1,51.1-22.7,89.5-34.2l1.1-.4Z"/>
  </g>
</svg>