<?xml version="1.0" encoding="UTF-8"?>
<svg id="_レイヤー_2" data-name="レイヤー 2" xmlns="http://www.w3.org/2000/svg" width="1920" height="806.7" viewBox="0 0 1920 806.7">
  <path d="M69.2,612.1c-20.5-2.1-31.6-18.6-24.8-36.5,4.5-11,11.9-20.3,29.9-36.5,17-15.5,34.5-27.3,42.5-28.4,8.6-1.2,16.2,2.1,16.9,7.5.5,3.2-5.9,4.7-8.4,2.3-5.1-5.3-30.6,11.9-53,35.9-20.4,22-23.3,36.6-9.1,44.5,4.7,2.6,7,2.9,18.8,1.2,7.5-1.1,18.6-3.7,24.8-6.2,67.1-24.7,115-62.1,112-87.4-2-14.5-13.1-19-88.9-36.8-49.8-11.6-77.4-25.3-95.2-46.9-8.6-10.3-8.7-11.4-11-27.5s-2.3-16.6,3.8-31.2c9.9-23.3,27.4-46.5,55.9-74,52-51,108.8-86.4,161.1-99.7,36.4-9.5,57.6,1.2,58.4,30.1.3,6-.4,12.6-2.1,20-5.5,27-22,61.6-47.4,99.1-18.1,27.2-35.1,46.5-39.6,45.5-5.6-.9-4.7-5.9,2.9-14.6,19.7-23.5,46.5-66.7,58.8-95.8,7.4-17.5,10.7-28.9,12.5-39.5,2.3-14.6,2.8-27.2-6.4-34.1-7.3-5.5-17.8-5.7-37.2-.3-49.6,13-111.7,53.9-160.9,105.7-58.7,61.8-63.4,98.6-16.5,128.7,17.4,11.2,31.8,16.3,86.3,30.1,24.4,5.9,48.9,12.9,55.3,15.8,40.9,18.9,26,57.1-37.1,94.4-35.4,20.8-83.4,37.4-102.9,35.2l.5-.6Z"/>
  <path d="M350.1,408.3c15.1-14.2,21.6-17.6,23.7-12.5.2,1.1-3.5,5-9.1,11-12.6,12.7-30.8,28-45.4,38.9-20.4,15.2-28.5,19.4-39.7,21.4-7.5,1.3-10.3.7-15.8-2.1-4.8-2.4-6.9-4.8-7.7-9.1-1.2-6.9,2.1-22.4,7.2-33.8,5.5-12.5,8.9-18.1,12.6-18.8,1.6-.3,3.4.5,5.3,1.8,2.5,1.8,1.9,4.6-3.8,18.8-10.7,26.7-10.1,35.9,2.7,33.6,11.7-2.1,39.8-20.8,70.5-49.4h-.5ZM284.7,380.9c-2.2-2.9,5.6-18.1,9.4-18.2,6.6,0,7.9,4.1,3.7,11.5s-10.2,10.6-13.1,6.7Z"/>
  <path d="M587.6,357.2c2.3,3.5,1.4,4.7-19.9,27.2-34.7,37-55,50-72.1,46.4-8-1.9-10.8-8-9.4-22,.5-6.7,1.6-15.7,2-19.6.4-3.9.4-7.2-.3-7.7-1.9-1.3-13.8,9.1-29.7,25.1-14.4,14.7-20.4,18.5-26.3,16.2-4.1-1.5-5.5-6.2-6.1-22-.6-9.8-.9-11.4-3.1-11-6.9,1.2-25.8,22.2-45.1,49.9-7.5,10.7-9.8,12.8-14.2,13-4.4.2-5-.2-6.1-6.6-2.3-12.8,9.7-60.1,15.7-63.3,1.5-.8,3.7-.7,5,.2,3,1.7,2.3,6.7-3.6,29.3-2.4,8.1-3.9,15-3.4,14.9.5,0,5.1-5.3,10.6-11.8,19.9-24.5,30.3-34,40.4-35.8,11.7-2.1,16.1,3.7,16.2,23v9.4s13.1-13.3,13.1-13.3c18.1-18.6,25.9-24.4,34.3-27,6.3-1.7,8-1.4,11.3,1.8,3.9,3.2,4.1,4.2,2.3,22.2-2.8,24.7-2.9,23.6.3,26.4,2.6,2.3,3.7,2.1,11.3-1.5,14.2-6.9,26.8-19.6,53.1-48,14.8-15.8,19.7-19.5,22.6-15l1.1-.2Z"/>
  <path d="M722.3,331.6c1.8.8,3.7,2.1,3.9,3.2.3,1.6-1.9,4.7-6,9.3-11,12.4-27.9,25.9-42.7,35.1-12.4,7.7-34.8,17.8-47.9,21.7-4.7,1.4-10.7,4.7-13.5,7.4-12.8,11.6-25.6,17.2-31.1,13.8-3.7-2.1-4.6-.8-29.4,51.5-11.6,24.6-22.1,45.8-23.5,47.1-3.2,3.9-7.4,4.6-9.6,1.7-.8-1.5-1-5.3,0-8.8,3.6-13.8,31.2-90.9,46-128.2,12.9-32.6,16.6-39.8,20.2-41,.5,0,1.1-.2,1.6-.3,2.1-.4,3.8-.1,4.6.8,1.4,1.9-5.5,21.9-21,61.5-2.7,6.5-4.5,11.8-4,11.7.5,0,4.7-7.4,9.2-16.5,18.9-35.8,40-60,54.9-62.6,18.1-3.2,21.3,14.4,6.9,38.9l-5.9,10.4,12.8-5.6c23.1-9.6,38-18.3,61.3-42.3,8.4-8.6,11.3-10.8,14.1-10.2l-.9,1.3ZM608.7,398.1c9.1-1.6,31.5-36.4,27.6-46.2-1.2-3.6-2.7-2.8-7.1.2-9.8,6.7-32.3,34.9-38.5,49.8l-1.6,3.6,7.6-3.6c4.1-1.8,9.2-3.8,11.9-4.3v.5Z"/>
  <path d="M834.3,311.1c1.6-.3,3.5,1,4.3,2.5.2,1.1-2.4,4.8-6.4,10.5-11.6,15.3-33.2,38.9-44.7,48.7-22.1,18.2-41.5,26.7-55.6,24.8-5.6-.7-12.5-5.5-16.2-10.9-9.3-14.9-5.1-47,12.3-91.9,17.7-46.1,49.2-91.3,71.9-103.1,4.1-1.8,6.1-2.7,7.7-3,1.6-.3,3.3,0,6.2,1.1,27.8,11-4.1,76.1-60.1,123-6.3,5-14,10.8-17.6,12.5-6,3.3-6.4,4.4-9.1,19.8-3.5,20.4-1.6,37.2,4.6,41,9.3,6,29.3-2.5,50.6-21.7,5.2-4.8,21.4-22,31.6-32.6,7-7.3,18.8-21,20.4-21.3v.5ZM743.3,285.5c-6.6,15.5-10.5,27.7-8.3,27.4,1.1-.2,8.7-6.5,16.8-14,16-15,34.3-36.4,44.1-51.9,11.6-18,18.6-40.7,14.7-47.2-.8-1.5-1.4-1.9-2.5-1.8-1.1.2-2.6,1-5.1,2.6-16.3,10.6-45.2,52.1-59.6,85.5v-.5Z"/>
  <path d="M925.4,306.4c16.5-18.4,19.4-14.5,19.5-11.2.3,1.6-3.9,9-14.5,20.7-34,38-59.1,54.6-83.2,55-18.7,0-30-7.9-30.8-21.5-1.2-19.1,18.1-43.4,34.7-46.4,2.1-.4,4.4-.2,6.7.5,9.8,2.7,11,12.4,2,23.3-4.9,6.4-11.1,8.6-17.4,10.3-10.6,2.4-11.9,1-13,4.5-.7,2.3-.5,6.7.6,9.8,2.1,8.4,9.8,11.5,23.1,9.1,18.7-3.3,40.5-19.9,71.7-54.6l.6.4ZM839.7,320c-3.2,3.9-3.4,5.6-1.6,6.3q3.5,1,9.9-3.4c4.9-3.6,8.1-10.2,5.7-11.5,0,0-.5,0-1.1.2-2.7.5-8.5,4.8-13.1,10l.2-1.7Z"/>
  <g>
    <path d="M1166.7,249.7c.8,2.1-1.9,6.3-9.5,13.9-25.4,25.4-40.5,31.4-72.8,38.6-10.6,2.6-14.7,4.2-22.1,10.2-19.3,14.7-49.5,14-35.1-.6,5.3-5.1,15-9.8,26.7-12.5,8.4-2.3,10.4-3.6,14.6-9.2,10.2-13.5,12.6-27.5,5.1-26.4-10.7,1.5-36.6,27.6-58.6,58.5-12.4,17.1-17.3,21-21.5,18.3-2.4-1.8-2-6.8,2.6-24.4,5.3-21,19.9-61.3,32.8-90.5,10.3-23.9,37.3-77.5,41.5-82.4,3.3-3.7,10.4-4.2,12-.6.8,1.5-4.2,13.2-10.6,25.6-20.7,40.1-36.9,76.8-53.4,122.9l-4.7,13.2,14.6-16.8c25.5-28.7,44.8-39.6,57.3-32.1,7.8,4.9,8.5,13.6,2.7,27-2.5,5.8-4,10.4-3.5,10.3,1.8.8,22.2-5.8,28.8-9.5,12.7-6.7,24.6-11.7,36.1-23.7,12-12.1,17.4-16.1,19.4-9.8l-2.2-.2Z"/>
    <path d="M1312.7,229.3c2.7,3.5.9,6.4-18.1,23.3-26.2,23.9-51.2,40.5-64.7,41.9-15.6,1.6-20.9-8.6-21.2-18.4l-.4-10.9-12.8,13.8c-21,22.1-32.9,27-42.3,18.5-5.7-5.2-3.9-19.7,4.3-39.5,7-16.3,10.4-19.5,16.4-16,3,1.8,2.6,2.9-2.3,14.6-2.9,7-6,15.6-7.1,19.6-2.2,8-1.5,16.6,1.2,16.3,2.7-.4,16.7-13.8,35.7-34,17.1-18.3,21.7-21.1,25.2-15.6.7,1-.3,9.3-2.4,17.9-2.1,8.5-3.6,17.5-3.3,19.6,2,14,29.4-1.4,72.1-40.2,3.8-3.8,7.8-7.1,10.7-9.7,3.4-3.2,7.5-4.9,9.6-1.9l-.5.6Z"/>
    <path d="M1415.3,130.1c61.3-8,64.6-7.9,64.5-.8,0,3.8-9.4,6.8-13.6,4.6-2.4-1.3-94.8,11.1-107.4,14.5-6.3,2-7.2,3.2-11.7,14.2-2.9,6.4-9.1,21-13.6,32-63.2,154.4-73,185.9-71.6,196.1.5,3.8.6,8.1-.3,9.3-2.2,3.6-10.4,4.2-13,.7-4.6-5.4,10.1-52.9,34.4-113.7,8.9-22.6,21.1-52.7,26.7-67.2,5.6-14.5,14.2-35.4,18.7-46.4,4.5-11,7.6-20.2,7-20.7-1.2-.9-68.9,11.8-86.3,16.5-12.7,3.4-14.3,3.6-16.8,1.3-4.4-3.8-.9-6.4,14.9-10.8,16.3-4.5,66.9-14.8,84-17.2l10.7-1.5,9.3-19.9c6.8-14.1,10.3-20,12.9-21,7.4-2.1,7.7,3.9.6,20.2-3.7,8.7-6.5,16.2-6.4,16.8,0,.5,25.9-2.5,57.6-6.4l-.6-.5Z"/>
  </g>
  <g>
    <path d="M322.4,652.9c16.5-16,23.5-20,24.6-13.6.3,1.6-3.3,6.6-9.3,13.1-14.5,15.1-37.1,33.8-55.9,46.4-14.8,9.7-36.5,18.3-44.3,17.5-1.2-.4-4.5-.3-7.2-.4-14.3-.3-25-11.1-23.5-25.1,2.3-25.1,22.6-47.8,39.6-44.7,10.8,2,18.2,19.4,9.1,21-4.3.7-6.2-1.1-8.9-7.3-1-2.6-3-4.4-4.1-4.8-4.5-.3-16.8,14.4-20.5,24.9-6.4,17-2.7,25.8,10.5,26.2,20.5.9,47.6-14.2,89.1-54.3l.7,1Z"/>
    <path d="M431.8,623.8c11-6.3,16.4-7.2,17.2-2.4.3,1.6-2,4.2-5.9,7.1-6.4,4.4-17.2,9-26.7,11.2-15.3,3.7-24.1.8-31.6-4.5-3.1-2.2-6.2-3.9-7.2-3.7-2.7.5-19.6,23.7-34.4,46.6-7.3,11.7-14.5,21.2-16.1,21.4-1.6.3-3.9-.4-5.2-1.3-3.8-2.7-.3-18.1,9.7-42.9,8.5-21.2,11.7-25.1,17.2-21.6,3,1.7,3.1,2.2.5,9.3-3.2,7.1-2.6,7.1,11.2-8.5,17.1-18.9,19.7-19.9,27.9-10.3,5.4,5.7,8.6,8.4,21.4,6.2,7.5-1.3,13.7-3.4,21.3-7.5l.7,1Z"/>
    <path d="M554.4,611.1c16.7-18.2,19.5-14.3,19.6-11,.3,1.6-4,8.9-14.6,20.6-34.2,37.7-59.5,54.1-83.6,54.4-18.7-.1-30-8.1-30.6-21.7-1.1-19.1,18.4-43.3,35-46.1,2.1-.4,4.4-.2,6.7.5,9.8,2.7,10.9,12.4,1.8,23.3-5,6.3-11.2,8.5-17.5,10.1-10.6,2.4-11.9.9-13,4.4-.7,2.3-.5,6.7.6,9.8,2,8.5,9.7,11.5,23,9.3,18.7-3.2,40.6-19.6,72.1-54.1l.6.4ZM468.6,624.1c-3.2,3.8-3.5,5.5-1.7,6.3q3.5,1.1,9.9-3.3c4.9-3.6,8.2-10.2,5.7-11.4,0,0-.5,0-1.1.2-2.7.5-8.5,4.8-13.1,9.9l.3-1.7Z"/>
    <path d="M689,581.5c9-8.7,11.7-8.6,12.7-2.7.2,1.1-1.5,4.1-4.6,8.5-8.9,12.5-26.5,31.5-38.1,41.1-21.2,17.4-34.3,21.3-46.4,14.5-6.7-3.8-7.5-5.3-8.9-13.3l-1.6-9.1-11.2,11.8c-21.4,22.9-37.9,32.3-48.5,28.1-14.7-5.7-2.1-41.4,21.5-60.8,6.7-5.5,13.3-8.9,19.2-9.9,7.5-1.3,13.9.9,18.2,6.8l3.6,4.9,4.6-5.2c5.1-5.8,7.1-6.7,10.9-4.1,2.5,1.8,2.3,4-1,13.4-4.8,14-5.2,24-1.2,28.2,2.6,2.3,4.3,2.6,10.6.9,12.1-3.2,25.7-13.7,46.9-37.7,6-6.5,10.6-11.7,14.5-15.1l-1.2-.4ZM585.6,623.3c10.7-11.2,11.2-11.8,8.7-16.9-1.6-3-3.8-6-4.9-6.3-.6-.4-1.8-.8-2.9-.6-11.8,1.5-36.9,31.6-38,47.7-.4,7.2,2.7,6.1,15.2-4.3,5.2-4.7,14.7-13.5,20.8-20l1.2.4Z"/>
    <path d="M801.6,474.8c61-9.9,64.3-9.9,64.4-2.8.1,3.8-9.2,7.1-13.4,5-2.4-1.2-94.4,13.9-106.9,17.7-6.2,2.2-7.1,3.4-11.3,14.6-2.7,6.5-8.5,21.2-12.6,32.4-58.5,156.2-67.4,188-65.7,198.1.6,3.7.8,8.1,0,9.4-2.1,3.7-10.2,4.5-13,1.1-4.7-5.2,8.5-53.1,31-114.7,8.2-22.8,19.5-53.4,24.7-68,5.2-14.6,13.1-35.8,17.3-46.9,4.1-11.2,7-20.4,6.3-20.9-1.3-.9-68.5,13.9-85.8,19.1-12.5,3.8-14.1,4.1-16.7,1.8-4.5-3.6-1.1-6.4,14.6-11.3,16.2-5,66.4-16.8,83.5-19.8l10.7-1.8,8.6-20.2c6.4-14.3,9.7-20.4,12.3-21.3,7.3-2.3,7.8,3.6,1.2,20.1-3.4,8.8-6,16.4-5.9,17,0,.5,25.8-3.3,57.4-8.2l-.6-.4Z"/>
    <path d="M840.6,561.6c15.2-14.1,21.8-17.5,23.7-12.3.2,1.1-3.5,5-9.1,10.9-12.7,12.6-31,27.8-45.6,38.6-20.5,15.1-28.6,19.2-39.8,21.1-7.5,1.3-10.3.7-15.8-2.3-4.8-2.5-6.9-4.9-7.6-9.1-1.2-6.9,2.2-22.4,7.4-33.7,5.6-12.5,9-18,12.8-18.7,1.6-.3,3.4.5,5.3,1.8,2.5,1.8,1.9,4.6-3.9,18.8-10.8,26.6-10.4,35.9,2.5,33.7,11.8-2,39.9-20.6,70.8-48.9h-.5ZM775.4,533.7c-2.1-2.9,5.7-18,9.5-18.1,6.6,0,7.9,4.2,3.6,11.5-4.2,7.3-10.3,10.6-13.2,6.6Z"/>
    <path d="M980.9,533.3c13.5-11.1,19.2-13.2,19.2-6.6-.3,1.7-5,6.3-11.7,11.9-9.6,8.2-19.5,14.3-28.2,18.6-19.7,10-36.9,12.4-48.3,7.1l-6-2.8-10.5,15.5c-10.6,15-21.9,26.3-27.1,27.7-6.9,1.7-12.1-3.4-13.9-7.5-1-2.6-1.2-6.9-2-15-2.1-22.2,0-39,5.7-40.6,6.3-1.6,7.7,3.1,6.3,20.9-1.5,16.8,0,31.9,3.2,31.3,3.2-.5,20.1-23.8,30.7-42.6,8.4-15.2,11.5-19.6,14.7-20.1,6.4-1.1,8,1.9,4.4,9.7-6.4,14.3-.5,19.3,18,15.1,12.7-2.7,26.1-8.3,43.9-22.9l1.7.3Z"/>
    <path d="M1084.3,520.6c16.7-18.2,19.5-14.3,19.6-11,.3,1.6-4,8.9-14.6,20.6-34.2,37.7-59.5,54.1-83.6,54.4-18.7-.1-30-8.1-30.6-21.7-1.1-19.1,18.4-43.3,35-46.1,2.1-.4,4.4-.2,6.7.5,9.8,2.7,10.9,12.4,1.8,23.3-5,6.3-11.2,8.5-17.5,10.1-10.6,2.4-11.9.9-13,4.4-.7,2.3-.5,6.7.6,9.8,2,8.5,9.7,11.5,23,9.3,18.7-3.2,40.6-19.6,72.1-54.1l.6.4ZM998.5,533.6c-3.2,3.8-3.5,5.5-1.7,6.3q3.5,1.1,9.9-3.3c4.9-3.6,8.2-10.2,5.7-11.4,0,0-.5,0-1.1.2-2.7.5-8.5,4.8-13.1,9.9l.3-1.7Z"/>
  </g>
  <g>
    <path d="M1242.9,457.4c1.6-.3,3.5,1.1,4.3,2.6.2,1.1-2.5,4.8-6.5,10.4-11.7,15.2-33.5,38.7-45.1,48.4-22.2,18.1-41.7,26.4-55.8,24.4-5.6-.7-12.5-5.6-16.2-11-9.1-14.9-4.7-47,12.9-91.8,18-46,49.9-91,72.6-102.6,4.1-1.8,6.1-2.7,7.7-3,1.6-.3,3.3,0,6.2,1.1,27.8,11.2-4.6,76.1-61,122.6-6.3,4.9-14.1,10.7-17.7,12.4-6,3.2-6.4,4.4-9.3,19.7-3.7,20.4-1.9,37.2,4.3,41.1,9.3,6.1,29.3-2.3,50.8-21.3,5.2-4.7,21.6-21.8,31.9-32.4,7-7.2,19-20.8,20.6-21.1v.5ZM1152.1,431.1c-6.7,15.4-10.7,27.7-8.5,27.3,1.1-.2,8.8-6.4,16.9-13.9,16.2-14.9,34.5-36.1,44.5-51.6,11.8-18,18.9-40.6,15-47.1-.8-1.5-1.4-2-2.5-1.8-1.1.2-2.6,1-5.1,2.5-16.4,10.5-45.6,51.8-60.2,85.1v-.5Z"/>
    <path d="M1320,455.2c15.2-14.1,21.8-17.5,23.7-12.3.2,1.1-3.5,5-9.1,10.9-12.7,12.6-31,27.8-45.6,38.6-20.5,15.1-28.6,19.2-39.8,21.1-7.5,1.3-10.3.7-15.8-2.3-4.8-2.5-6.9-4.9-7.6-9.1-1.2-6.9,2.2-22.4,7.4-33.7,5.6-12.5,9-18,12.8-18.7,1.6-.3,3.4.5,5.3,1.8,2.5,1.8,1.9,4.6-3.9,18.8-10.8,26.6-10.4,35.9,2.5,33.7,11.8-2,39.9-20.6,70.8-48.9h-.5ZM1254.8,427.3c-2.1-2.9,5.7-18,9.6-18.1,6.6,0,7.9,4.2,3.6,11.5-4.2,7.3-10.3,10.6-13.2,6.6Z"/>
    <path d="M1460.3,426.8c13.5-11.1,19.2-13.2,19.2-6.6-.3,1.7-5,6.3-11.7,11.9-9.6,8.2-19.5,14.3-28.2,18.6-19.7,10-36.9,12.4-48.3,7.1l-6-2.8-10.5,15.5c-10.6,15-21.9,26.3-27.1,27.7-6.9,1.7-12.1-3.4-13.9-7.5-1-2.6-1.2-6.9-2-15-2.1-22.2,0-39,5.7-40.6,6.3-1.6,7.7,3.1,6.3,20.9-1.5,16.8,0,31.9,3.2,31.3,3.2-.5,20.1-23.8,30.7-42.6,8.4-15.2,11.5-19.6,14.7-20.1,6.4-1.1,8,1.9,4.4,9.7-6.4,14.3-.5,19.3,18,15.1,12.7-2.7,26.1-8.3,43.9-22.9l1.7.3Z"/>
    <path d="M1549.7,416c15.2-14.1,21.8-17.5,23.7-12.3.2,1.1-3.5,5-9.1,10.9-12.7,12.6-31,27.8-45.6,38.6-20.5,15.1-28.6,19.2-39.8,21.1-7.5,1.3-10.3.7-15.8-2.3-4.8-2.5-6.9-4.9-7.6-9.1-1.2-6.9,2.2-22.4,7.4-33.7,5.6-12.5,9-18,12.8-18.7,1.6-.3,3.4.5,5.3,1.8,2.5,1.8,1.9,4.6-3.9,18.8-10.8,26.6-10.4,35.9,2.5,33.7,11.8-2,39.9-20.6,70.8-48.9h-.5ZM1484.5,388.1c-2.1-2.9,5.7-18,9.6-18.1,6.6,0,7.9,4.2,3.6,11.5-4.2,7.3-10.3,10.6-13.2,6.6Z"/>
    <path d="M1734.3,373.4c.8,1.5-1.8,5.8-6.8,11.6-12.8,15.4-38.8,40.2-56.6,51.5-17.8,11.8-30.8,13-38.9,3.9-4.7-5.2-4.8-11.8-.9-31.2,1.5-7.4,2.1-13.6,1.5-14-3-1.7-26.6,18.3-38.9,33-12.3,14.7-29.8,31.5-33.5,32.1-2.1.4-5.5-.2-7.4-1.5-2.4-1.2-3.4-3.8-3.5-7.6.1-12.1,15-50.4,21.9-55.4,2-1.4,3.6-1.7,6.1,0,3.7,2.1,3.8,2.7,0,9.9-5.3,10.8-14.5,34.4-15.3,39.4-.6,2.9,4.6-1.9,17.6-16.2,30.6-33.3,48.8-45.7,59.1-40.3,6,2.8,6.7,10.4,3.3,25.8-3.2,13.7-2.5,24.1,1.4,24.5,10.1,1,36.4-18.9,69.2-52,13.1-13.2,17.7-15.7,20.6-11.2l1.2-2.4Z"/>
    <path d="M1862.9,350.4c5.2,1.3,3.6,4.9-8.1,13.5-3.9,2.9-9.3,6.5-15.7,10.9-32.6,21.5-41.8,29.1-44.1,34.5-1.2,2.4-6.4,13.7-11.6,25.6-12.6,29.1-28.1,54.3-44.7,73.1-21.2,24-43.4,35.5-54.5,28.6-14.1-8.6.1-38,37.1-75.6,16.9-17.2,41.5-40.1,54.5-51.1,6.2-5.5,7.5-7.9,10.4-22.7,1.7-9.1,2.6-16.9,2-17.4-3.7-2.1-11.7,5.3-34.8,31.2-25.3,29.1-33,35.3-42.4,34.7-16.6-.5-12.3-30.3,7.7-54.6,8.6-10.8,10.6-12.2,18.5-14.2,7.9-1.9,10.1-1.7,15,.7,3,1.7,6.2,3.9,7,5.4,1.4,2,2.9,1.1,11.6-5.8,11.6-9.1,17.4-10.7,24.1-6.9,4.2,2,5,3.5,5.4,12.3.4,5.4.3,11.5.1,13.7-.5,3.4,1.5,2.5,14.2-6.8,13.7-10,21.7-14.7,33.7-21.7,7-3.9,12.6-6.6,14.8-6.9.5,0,1.1-.2,1.1-.2l-1.2-.4ZM1757.2,453.1c9.1-17.5,13.8-25.4,12.2-25.2-1.6.3-8.2,6.9-20.5,18.3-35.9,34.2-61.1,67.1-59.2,78.3.7,4.3,1.4,4.7,6,2.8,2.6-1,8.1-4.1,12-7,16.5-12.7,36.3-38.6,50.2-66.3l-.7-1ZM1735.7,404c12.4-14.2,17.7-21.7,16.5-22.6-1.2-.9-3.8-2.7-5.6-4-1.3-1.4-2-1.9-3-1.7-1.1.2-2.6,1-6,3.2-7.4,5.1-19.1,23.6-22.5,35.7-4.7,17.3-1.2,15.6,21.3-10.2l-.6-.4Z"/>
    <path d="M1883.7,401.8c6.9-4.5,16,.6,13.3,7.1-1.6,3.6-8.4,5.3-12.6,3.3-4.2-2-4.1-8.1-.1-10.4h-.5Z"/>
  </g>
</svg>