<?xml version="1.0" encoding="UTF-8"?>
<svg id="_レイヤー_2" data-name="レイヤー 2" xmlns="http://www.w3.org/2000/svg" width="1920" height="806.7" viewBox="0 0 1920 806.7">
  <g>
    <path d="M262.3,624.9c16-18,18.8-14.2,18.9-10.9.3,1.6-3.8,8.8-14,20.4-32.9,37.3-57.2,53.5-80.6,53.7-18.1-.2-29-8.1-29.7-21.7-1.1-18.9,17.6-42.9,33.6-45.6,2.1-.4,4.2-.2,6.5.5,9.5,2.7,10.6,12.4,1.8,23.2-4.8,6.3-10.8,8.4-16.9,10-10.2,2.3-11.5.9-12.5,4.3-.7,2.3-.5,6.6.6,9.7,2,8.4,9.4,11.5,22.3,9.3,18.1-3.1,39.2-19.3,69.5-53.4l.6.4ZM179.4,637.5c-3.1,3.8-3.3,5.5-1.6,6.3q3.4,1.1,9.5-3.3c4.7-3.5,7.8-10.1,5.5-11.3l-1,.2c-2.6.4-8.2,4.7-12.7,9.8l.2-1.7Z"/>
    <path d="M395.1,597.2c13-11,18.5-13,18.6-6.5-.2,1.7-4.8,6.3-11.3,11.8-9.2,8.1-18.8,14.2-27.1,18.3-19,9.8-35.6,12.1-46.6,6.9l-5.8-2.8-10.1,15.4c-10.2,14.9-21,26-26.1,27.4-6.6,1.7-11.7-3.5-13.5-7.5-1-2.6-1.2-6.9-2-15-2.2-22-.3-38.7,5.3-40.2,6.1-1.6,7.4,3.1,6.2,20.8-1.4,16.6.1,31.7,3.2,31.1s19.3-23.5,29.4-42.2c8.1-15,11-19.4,14.1-19.9,6.2-1.1,7.8,1.9,4.3,9.6-6.1,14.2-.4,19.2,17.4,15,12.3-2.7,25.2-8.1,42.4-22.6l1.6.3Z"/>
    <path d="M495,585c16-18,18.8-14.2,18.9-10.9.3,1.6-3.8,8.8-14,20.4-32.9,37.3-57.2,53.5-80.6,53.7-18.1-.2-29-8.1-29.7-21.7-1.1-18.9,17.6-42.9,33.6-45.6,2.1-.4,4.2-.2,6.5.5,9.5,2.7,10.6,12.4,1.8,23.2-4.8,6.3-10.8,8.4-16.9,10-10.2,2.3-11.5.9-12.5,4.3-.7,2.3-.5,6.6.6,9.7,2,8.4,9.4,11.5,22.3,9.3,18.1-3.1,39.2-19.3,69.5-53.4l.6.4ZM412.2,597.6c-3.1,3.8-3.3,5.5-1.6,6.3q3.4,1.1,9.5-3.3c4.7-3.5,7.8-10.1,5.5-11.3l-1,.2c-2.6.4-8.2,4.7-12.7,9.8l.2-1.7Z"/>
    <path d="M592.2,560.2c10.6-6.2,15.8-7.1,16.6-2.3s-1.9,4.2-5.7,7c-6.2,4.3-16.5,8.8-25.7,11-14.8,3.6-23.3.7-30.5-4.6-3-2.2-6-3.9-7-3.7-2.6.4-18.8,23.4-33,46.1-7,11.6-13.9,21-15.5,21.2s-3.8-.4-5-1.3c-3.6-2.7-.4-18,9.2-42.5,8.1-21.1,11.2-24.9,16.5-21.4,2.9,1.7,3,2.2.5,9.2-3,7.1-2.5,7,10.8-8.4,16.5-18.7,19-19.6,27-10.1,5.2,5.7,8.3,8.4,20.7,6.3,7.2-1.2,13.2-3.4,20.5-7.3l.7,1Z"/>
    <path d="M745.5,535.2c.8,1.5-7,8.8-27.1,24.9-42,34-39.9,30.9-41.8,41.6-2.5,13.5-13,42.1-20.3,55.4-12.5,22.9-34.2,45.2-50.5,52.4-8.4,3.6-9.4,3.8-15.8,3.8-12.3-.6-17.8-11.1-12.8-25.1,5-14,35.2-48.7,72.4-82.9,8.7-8.1,16.1-14.8,16.5-15.4.9-1.2,2.5-28.8,1.8-33.1-.4-2.1-1.2-4.2-2.3-4-1,.2-9,9.7-17.6,21.1-23.8,31.4-27,34.7-36.6,37.4-7.1,1.8-8.8,1.5-11.9-1.2-7.5-6.4-6.6-29.5,1.8-48.4,3-7.1,5.6-10.8,8.7-11.3,1.5-.3,2.7,0,3.9,1,2.9,1.7,2.6,2.8-1.4,13.4-5.1,13.4-6.6,20.3-6.4,30.6,0,6,.8,7.5,2.8,7.2,2.6-.4,18.4-19.6,33.5-40.2,4.3-6.2,11-13.4,15.3-16.3,7.2-4.5,7.7-4.6,12.8-2.7,6.8,2.7,8.7,7.3,8.4,21,0,6.5.5,11.9,1.1,12.4.6.4,11.1-6.3,27-19.4,28.4-23.4,35.2-27.3,37.7-21.8l1-.2ZM642.3,655.6c6.4-12,19.1-43.7,17.7-45.6-4.6.8-54.3,51.9-65.4,68-7.7,11.1-10.8,21-7.9,25.4,2.8,3.9,13.3,0,24-8.5,11.6-9.6,25.8-26.3,32.6-38.9l-1.1-.4Z"/>
    <path d="M889.6,508.3c6.6,1.1,3.3,7.1-14.9,27.7-34.8,38.7-50.3,50.7-66.7,50.8-2.2-.2-6.1-1.7-9.1-3.4-4.8-3-5.6-4.5-7.6-16.7-1.7-10.1-1.5-17.8.4-28.5q4.1-22.6-3.9-7.5c-12,22.8-26.1,43.3-33.9,50.1-13.5,11.1-27.5,10.2-29.6-2-2.3-13.3,8.6-39.7,20.2-49.4,7.9-6.8,14.7-7.4,23.5-2.4l7.1,4.2,8.2-17.2c7.9-16.1,18.6-40.3,39.8-90.4,7.9-18.8,11.6-25.5,15.2-26.1,1-.2,2.2.2,3.3.5,4.6,1.9,4.4,4.2-.9,16.5-21.7,50.2-43,142.9-35.8,156.9,4.9,10.1,22.7-.6,49.2-29.2,27.8-29.9,33.8-35.3,37.1-34.8l-1.5.8ZM759.3,557.4c9.7-14.8,9.6-15.3,6.3-19.1-3.3-3.8-5.6-5-8.2-4.6-1,.2-2.5,1-3.9,1.8-8,5.7-20.7,37.4-17.1,42.8,2.2,3.4,11.3-5.2,22.4-21.3l.6.4Z"/>
    <path d="M1003.9,493.6c8.6-8.6,11.3-8.5,12.3-2.7.2,1.1-1.4,4.1-4.4,8.4-8.5,12.4-25.5,31.1-36.6,40.7-20.4,17.2-33.1,21-44.8,14.2-6.5-3.8-7.3-5.3-8.6-13.3l-1.5-9-10.8,11.7c-20.6,22.6-36.5,31.9-46.8,27.7-14.3-5.7-2.3-41.1,20.5-60.3,6.5-5.5,12.8-8.8,18.5-9.7,7.2-1.2,13.4,1,17.6,6.8l3.5,4.9,4.4-5.1c4.9-5.7,6.8-6.6,10.5-4,2.4,1.8,2.3,4-.9,13.3-4.5,13.9-5,23.8-1,28,2.5,2.3,4.2,2.6,10.3,1,11.7-3.1,24.8-13.5,45.2-37.2,5.8-6.5,10.2-11.6,13.9-14.9l-1.1-.4ZM904.2,534.8c10.3-11.1,10.8-11.7,8.3-16.7-1.6-3-3.7-5.9-4.8-6.3-.6-.4-1.7-.8-2.8-.6-11.4,1.4-35.6,31.2-36.5,47.2-.4,7.2,2.6,6.1,14.7-4.2,5-4.7,14.2-13.4,20-19.8l1.1.4Z"/>
    <path d="M1150.6,465.8c.8,1.5-7,8.8-27.1,24.9-42,34-39.9,30.9-41.8,41.6-2.5,13.5-13,42.1-20.3,55.4-12.5,22.9-34.2,45.2-50.5,52.4-8.4,3.6-9.4,3.8-15.8,3.8-12.3-.6-17.8-11.1-12.8-25.1,5-14,35.2-48.7,72.4-82.9,8.7-8.1,16.1-14.8,16.5-15.4.9-1.2,2.5-28.8,1.8-33.1-.4-2.1-1.2-4.2-2.3-4-1,.2-9,9.7-17.6,21.1-23.8,31.4-27,34.7-36.6,37.4-7.1,1.8-8.8,1.5-11.9-1.2-7.5-6.4-6.6-29.5,1.8-48.4,3-7.1,5.6-10.8,8.7-11.3,1.5-.3,2.7,0,3.9,1,2.9,1.7,2.6,2.8-1.4,13.4-5.1,13.4-6.6,20.3-6.4,30.6,0,6,.8,7.5,2.8,7.2,2.6-.4,18.4-19.6,33.5-40.2,4.3-6.2,11-13.4,15.3-16.3,7.2-4.5,7.7-4.6,12.8-2.7,6.8,2.7,8.7,7.3,8.4,21,0,6.5.5,11.9,1.1,12.4.6.4,11.1-6.3,27-19.4,28.4-23.4,35.2-27.3,37.7-21.8l1-.2ZM1047.4,586.1c6.4-12,19.1-43.7,17.7-45.6-4.6.8-54.3,51.9-65.4,68-7.7,11.1-10.8,21-7.9,25.4,2.8,3.9,13.3,0,24-8.5,11.6-9.6,25.8-26.3,32.6-38.9l-1.1-.4Z"/>
  </g>
  <g>
    <path d="M1333.5,440c.9,2-1.6,6.3-8.7,14.1-23.7,25.9-38.1,32.2-69.1,40.3-10.1,2.8-14.1,4.6-21,10.7-18.1,15.1-47.3,15.2-33.9.4,5-5.2,14.2-10.1,25.4-13.1,8.1-2.5,10-3.9,13.8-9.5,9.4-13.6,11.2-27.6,4-26.4-10.3,1.8-34.5,28.3-54.6,59.6-11.4,17.2-16,21.3-20.2,18.8-2.4-1.8-2.2-6.7,1.7-24.3,4.4-21,17.1-61.4,28.6-90.7,9.2-24,33.4-77.8,37.3-82.9,3.1-3.8,9.9-4.4,11.5-.9.8,1.5-3.6,13.2-9.4,25.7-18.6,40.3-33,77.2-47.4,123.4l-4.1,13.3,13.5-17.1c23.7-29.2,41.9-40.5,54.3-33.3,7.7,4.7,8.6,13.3,3.5,26.7-2.2,5.8-3.5,10.4-3,10.3,1.7.8,21.2-6.4,27.5-10.2,12.1-7,23.4-12.2,34.1-24.4,11.2-12.3,16.3-16.5,18.4-10.3l-2.2-.2Z"/>
    <path d="M1413.9,434.9c16-18,18.8-14.2,18.9-10.9.3,1.6-3.8,8.8-14,20.4-32.9,37.3-57.2,53.5-80.6,53.7-18.1-.2-29-8.1-29.7-21.7-1.1-18.9,17.6-42.9,33.6-45.6,2.1-.4,4.2-.2,6.5.5,9.5,2.7,10.6,12.4,1.8,23.2-4.8,6.3-10.8,8.4-16.9,10-10.2,2.3-11.5.9-12.5,4.3-.7,2.3-.5,6.6.6,9.7,2,8.4,9.4,11.5,22.3,9.3,18.1-3.1,39.2-19.3,69.5-53.4l.6.4ZM1331.1,447.5c-3.1,3.8-3.3,5.5-1.6,6.3q3.4,1.1,9.5-3.3c4.7-3.5,7.8-10.1,5.5-11.3l-1,.2c-2.6.4-8.2,4.7-12.7,9.8l.2-1.7Z"/>
    <path d="M1543.9,406.1c8.6-8.6,11.3-8.5,12.3-2.7.2,1.1-1.4,4.1-4.4,8.4-8.5,12.4-25.5,31.1-36.6,40.7-20.4,17.2-33.1,21-44.8,14.2-6.5-3.8-7.3-5.3-8.6-13.3l-1.5-9-10.8,11.7c-20.6,22.6-36.5,31.9-46.8,27.7-14.3-5.7-2.3-41.1,20.5-60.3,6.5-5.5,12.8-8.8,18.5-9.7,7.2-1.2,13.4,1,17.6,6.8l3.5,4.9,4.4-5.1c4.9-5.7,6.8-6.6,10.5-4,2.4,1.8,2.3,4-.9,13.3-4.5,13.9-5,23.8-1,28,2.5,2.3,4.2,2.6,10.3,1,11.7-3.1,24.8-13.5,45.2-37.2,5.8-6.5,10.2-11.6,13.9-14.9l-1.1-.4ZM1444.2,447.2c10.3-11.1,10.8-11.7,8.3-16.7-1.6-3-3.7-5.9-4.8-6.3-.6-.4-1.7-.8-2.8-.6-11.4,1.4-35.6,31.2-36.5,47.2-.4,7.2,2.6,6.1,14.7-4.2,5-4.7,14.2-13.4,20-19.8l1.1.4Z"/>
    <path d="M1695.2,378c2.7,3.4,1.1,6.4-16.7,23.6-24.5,24.4-48.1,41.6-61.1,43.3-15.1,2-20.5-8-21.1-17.7l-.8-10.8-11.9,14.1c-19.5,22.5-30.8,27.7-40.2,19.5-5.6-5-4.4-19.5,2.8-39.3,6.2-16.4,9.4-19.6,15.3-16.3,2.9,1.7,2.6,2.8-1.8,14.5-2.5,7-5.3,15.7-6.2,19.6-1.8,8-.9,16.5,1.7,16.1,2.6-.4,15.6-14.2,33.4-34.7,15.9-18.6,20.2-21.5,23.8-16.1.7,1,0,9.3-1.7,17.8-1.7,8.5-2.9,17.4-2.5,19.6,2.4,13.8,28.3-2.1,68.3-41.8,3.6-3.9,7.3-7.3,10-9.9,3.2-3.3,7.1-5,9.2-2.1l-.4.6Z"/>
    <path d="M1791.1,276.9c58.9-9.6,62.1-9.6,62.3-2.5.1,3.8-8.9,7-13,5-2.3-1.2-91.2,13.4-103.3,17.2-6,2.1-6.9,3.4-10.8,14.4-2.6,6.5-8.1,21.1-12,32.1-55.8,154.9-64.3,186.4-62.5,196.5.6,3.7.8,8,0,9.3-2,3.6-9.9,4.4-12.6,1.1-4.6-5.2,8-52.7,29.4-113.8,7.8-22.6,18.6-52.9,23.5-67.4,5-14.5,12.5-35.5,16.5-46.5,3.9-11.1,6.6-20.3,6-20.7-1.2-.9-66.2,13.5-82.9,18.6-12.1,3.7-13.7,4-16.2,1.7-4.3-3.6-1.1-6.4,14-11.1,15.6-4.9,64.1-16.5,80.6-19.3l10.3-1.8,8.3-20c6.1-14.2,9.3-20.2,11.8-21.1,7-2.3,7.5,3.6,1.3,20-3.3,8.8-5.7,16.3-5.6,16.8,0,.5,25-3.2,55.5-7.9l-.6-.4Z"/>
    <path d="M1875.9,342.3c.8,1.5-7,8.8-27.1,24.9-42,34-39.9,30.9-41.8,41.6-2.5,13.5-13,42.1-20.3,55.4-12.5,22.9-34.2,45.2-50.5,52.4-8.4,3.6-9.4,3.8-15.8,3.8-12.3-.6-17.8-11.1-12.8-25.1,5-14,35.2-48.7,72.4-82.9,8.7-8.1,16.1-14.8,16.5-15.4.9-1.2,2.5-28.8,1.8-33.1-.4-2.1-1.2-4.2-2.3-4-1,.2-9,9.7-17.6,21.1-23.8,31.4-27,34.7-36.6,37.4-7.1,1.8-8.8,1.5-11.9-1.2-7.5-6.4-6.6-29.5,1.8-48.4,3-7.1,5.6-10.8,8.7-11.3,1.5-.3,2.7,0,3.9,1,2.9,1.7,2.6,2.8-1.4,13.4-5.1,13.4-6.6,20.3-6.4,30.6,0,6,.8,7.5,2.8,7.2,2.6-.4,18.4-19.6,33.5-40.2,4.3-6.2,11-13.4,15.3-16.3,7.2-4.5,7.7-4.6,12.8-2.7,6.8,2.7,8.7,7.3,8.4,21,0,6.5.5,11.9,1.1,12.4.6.4,11.1-6.3,27-19.4,28.4-23.4,35.2-27.3,37.7-21.8l1-.2ZM1772.7,462.7c6.4-12,19.1-43.7,17.7-45.6-4.6.8-54.3,51.9-65.4,68-7.7,11.1-10.8,21-7.9,25.4,2.8,3.9,13.3,0,24-8.5,11.6-9.6,25.8-26.3,32.6-38.9l-1.1-.4Z"/>
    <path d="M1888.1,391.6c6.7-4.4,15.5.6,12.9,7.1-1.5,3.5-8.1,5.2-12.2,3.2-4.1-2-4-8.1-.2-10.3h-.5Z"/>
  </g>
  <g>
    <path d="M441.9,384.4c16-18,18.8-14.2,18.9-10.9.3,1.6-3.8,8.8-14,20.4-32.9,37.3-57.2,53.5-80.6,53.7-18.1-.2-29-8.1-29.7-21.7-1.1-18.9,17.6-42.9,33.6-45.6,2.1-.4,4.2-.2,6.5.5,9.5,2.7,10.6,12.4,1.8,23.2-4.8,6.3-10.8,8.4-16.9,10-10.2,2.3-11.5.9-12.5,4.3-.7,2.3-.5,6.6.6,9.7,2,8.4,9.4,11.5,22.3,9.3,18.1-3.1,39.2-19.3,69.5-53.4l.6.4ZM359.1,396.9c-3.1,3.8-3.3,5.5-1.6,6.3q3.4,1.1,9.5-3.3c4.7-3.5,7.8-10.1,5.5-11.3l-1,.2c-2.6.4-8.2,4.7-12.7,9.8l.2-1.7Z"/>
    <path d="M533.5,361c13.5-8.3,17.6-9,18.5-3.7.5,2.7-2.3,5.3-12.4,11.4-7.2,4.5-23.7,13.9-39.1,23.1l-27.3,17.2.4,8.7c.5,11.9-5.6,23.4-15.2,29.4-8.7,5.3-18.9,7.6-24.6,5.3-5.1-1.9-6.6-10.9-2.9-17,2.9-4.9,15.1-17.3,22.5-23.5l3.8-2.8-5.5-13.3c-5.2-11.7-5.5-13.8-4-20.1,1.9-7.4,6.3-12.6,11-13.4,1-.2,2.1-.4,3.2,0,5.5,1.2,6.1,4.4,1.9,7.9-5.1,4.2-5.6,10.8-1.3,20.4,4.3,9.6,5.6,11.1,8.8,7.8,1.4-1.3,13.4-8.8,26.8-17.2,13.5-8.3,28.5-16.4,35.7-20.9l-.4.6ZM451.4,436.8c6.8-6.6,11.2-18.3,6.6-17.5-2.1.4-17.8,17.3-19.3,20.8-1.1,2.9-.5,3.4,3.6,2.7,2.6-.4,7-2.8,9.7-5.5l-.6-.4Z"/>
    <path d="M623,352.8c14.6-14,21-17.2,22.9-12.1.2,1.1-3.4,5-8.8,10.8-12.2,12.5-29.8,27.5-43.9,38.1-19.8,14.9-27.6,18.9-38.4,20.8-7.2,1.2-10,.6-15.3-2.3-4.7-2.5-6.7-4.9-7.4-9.1-1.2-6.9,2-22.2,7-33.4,5.3-12.4,8.6-17.9,12.2-18.5,1.5-.3,3.3.5,5.1,1.9,2.4,1.8,1.9,4.6-3.7,18.7-10.4,26.4-9.9,35.6,2.5,33.4,11.4-1.9,38.5-20.3,68.2-48.3h-.5ZM559.8,324.9c-2.1-2.9,5.4-17.9,9.1-18,6.4,0,7.6,4.2,3.5,11.4-4.1,7.3-9.9,10.4-12.7,6.5Z"/>
    <path d="M769.1,315.7c5,1.3,3.5,4.9-7.8,13.4-3.8,2.8-9,6.5-15.2,10.8-31.4,21.2-40.2,28.8-42.5,34.1-1.2,2.4-6.2,13.6-11.1,25.4-12.1,28.8-26.9,53.8-42.9,72.4-20.4,23.7-41.8,35-52.6,28.1-13.7-8.6,0-37.7,35.5-74.9,16.2-17,40-39.6,52.4-50.5,6-5.4,7.2-7.8,10-22.5,1.6-9,2.4-16.8,1.8-17.3-3.6-2.1-11.3,5.2-33.5,30.9-24.3,28.7-31.7,34.9-40.9,34.3-16-.5-12.1-30.2,7.2-54.2,8.3-10.7,10.1-12.1,17.8-14s9.8-1.7,14.5.8c2.9,1.7,6,3.9,6.8,5.4,1.4,1.9,2.9,1.2,11.2-5.7,11.2-9,16.8-10.5,23.3-6.7,4.1,2,4.9,3.5,5.3,12.2.4,5.4.4,11.4.2,13.6-.5,3.4,1.5,2.5,13.7-6.7,13.2-9.9,20.9-14.5,32.5-21.4,6.8-3.9,12.2-6.5,14.2-6.8.5,0,1-.2,1-.2l-1.1-.4ZM667.5,417.3c8.7-17.3,13.2-25.2,11.7-24.9-1.5.3-7.9,6.8-19.7,18.1-34.6,33.8-58.8,66.3-56.9,77.5.7,4.2,1.3,4.7,5.8,2.8,2.5-1,7.8-4.1,11.6-6.9,15.9-12.6,34.9-38.2,48.3-65.6l-.7-1ZM646.4,368.5c11.9-14.1,17-21.5,15.8-22.4-1.2-.9-3.6-2.7-5.5-4-1.3-1.4-1.9-1.9-2.9-1.7-1,.2-2.5,1-5.8,3.2-7.1,5-18.3,23.4-21.6,35.4-4.5,17.2-1.1,15.5,20.6-10.1l-.6-.4Z"/>
    <path d="M927.7,289.6c.8,1.5-1.7,5.8-6.5,11.5-12.3,15.2-37.3,39.7-54.5,50.9-17.1,11.7-29.7,12.7-37.6,3.7-4.6-5.2-4.7-11.8-1-31,1.4-7.3,1.9-13.4,1.3-13.9-2.9-1.7-25.6,18-37.4,32.6-11.8,14.6-28.7,31.1-32.3,31.8-2.1.4-5.3-.2-7.2-1.5-2.3-1.2-3.3-3.8-3.4-7.6,0-12,14.3-50,20.9-54.9,1.9-1.4,3.4-1.7,5.9,0,3.5,2.1,3.6,2.7,0,9.8-5.1,10.7-13.8,34.1-14.6,39.1-.6,2.8,4.5-1.9,16.9-16,29.4-32.9,47-45.2,56.9-39.8,5.8,2.8,6.6,10.4,3.3,25.7-3,13.6-2.3,23.9,1.5,24.3,9.7,1.1,35.1-18.6,66.7-51.3,12.6-13.1,17-15.5,19.9-11.1l1.2-2.4Z"/>
    <path d="M996.6,288.8c14.6-14,21-17.2,22.9-12.1.2,1.1-3.4,5-8.8,10.8-12.2,12.5-29.8,27.5-43.9,38.1-19.8,14.9-27.6,18.9-38.4,20.8-7.2,1.2-10,.6-15.3-2.3-4.7-2.5-6.7-4.9-7.4-9.1-1.2-6.9,2-22.2,7-33.4,5.3-12.4,8.6-17.9,12.2-18.5,1.5-.3,3.3.5,5.1,1.9,2.4,1.8,1.9,4.6-3.7,18.7-10.4,26.4-9.9,35.6,2.5,33.4,11.4-1.9,38.5-20.3,68.2-48.3h-.5ZM933.4,260.8c-2.1-2.9,5.4-17.9,9.1-18,6.4,0,7.6,4.2,3.5,11.4-4.1,7.3-9.9,10.4-12.7,6.5Z"/>
    <path d="M1174.9,247.3c.8,1.5-1.7,5.8-6.5,11.5-12.3,15.2-37.3,39.7-54.5,50.9-17.1,11.7-29.7,12.7-37.6,3.7-4.6-5.2-4.7-11.8-1-31,1.4-7.3,1.9-13.4,1.3-13.9-2.9-1.7-25.6,18-37.4,32.6-11.8,14.6-28.7,31.1-32.3,31.8-2.1.4-5.3-.2-7.2-1.5-2.3-1.2-3.3-3.8-3.4-7.6,0-12,14.3-50,20.9-54.9,1.9-1.4,3.4-1.7,5.9,0,3.5,2.1,3.6,2.7,0,9.8-5.1,10.7-13.8,34.1-14.6,39.1-.6,2.8,4.5-1.9,16.9-16,29.4-32.9,47-45.2,56.9-39.8,5.8,2.8,6.6,10.4,3.3,25.7-3,13.6-2.3,23.9,1.5,24.3,9.7,1.1,35.1-18.6,66.7-51.3,12.6-13.1,17-15.5,19.9-11.1l1.2-2.4Z"/>
    <path d="M1299.1,224.9c5,1.3,3.5,4.9-7.8,13.4-3.8,2.8-9,6.5-15.2,10.8-31.4,21.2-40.2,28.8-42.5,34.1-1.2,2.4-6.2,13.6-11.1,25.4-12.1,28.8-26.9,53.8-42.9,72.4-20.4,23.7-41.8,35-52.6,28.1-13.7-8.6,0-37.7,35.5-74.9,16.2-17,40-39.6,52.4-50.5,6-5.4,7.2-7.8,10-22.5,1.6-9,2.4-16.8,1.8-17.3-3.6-2.1-11.3,5.2-33.5,30.9-24.3,28.7-31.7,34.9-40.9,34.3-16-.5-12.1-30.2,7.2-54.2,8.3-10.7,10.1-12.1,17.8-14s9.8-1.7,14.5.8c2.9,1.7,6,3.9,6.8,5.4,1.4,1.9,2.9,1.2,11.2-5.7,11.2-9,16.8-10.5,23.3-6.7,4.1,2,4.9,3.5,5.3,12.2.4,5.4.4,11.4.2,13.6-.5,3.4,1.5,2.5,13.7-6.7,13.2-9.9,20.9-14.5,32.5-21.4,6.8-3.9,12.2-6.5,14.2-6.8.5,0,1-.2,1-.2l-1.1-.4ZM1197.5,326.5c8.7-17.3,13.2-25.2,11.7-24.9-1.5.3-7.9,6.8-19.7,18.1-34.6,33.8-58.8,66.3-56.9,77.5.7,4.2,1.3,4.7,5.8,2.8,2.5-1,7.8-4.1,11.6-6.9,15.9-12.6,34.9-38.2,48.3-65.6l-.7-1ZM1176.4,277.6c11.9-14.1,17-21.5,15.8-22.4-1.2-.9-3.6-2.7-5.5-4-1.3-1.4-1.9-1.9-2.9-1.7-1,.2-2.5,1-5.8,3.2-7.1,5-18.3,23.4-21.6,35.4-4.5,17.2-1.1,15.5,20.6-10.1l-.6-.4Z"/>
    <path d="M36.4,566.9c-1.7-8.2,1.4-17.4,8-26.6,9.4-13,26.4-27.2,51-41.9l11.1-6.6,8-16.3c15.7-32.4,36.6-73.8,58.9-115.1,22.5-42.4,46.1-86.1,66-120.5-15.1-.8-31.9.6-48.3,4-72.3,15.1-148.7,68.4-164.9,135.8-2.6,9.8-2.4,19.4-.6,27.9,5.8,27.6,30.6,45.9,58.5,40.1,4.1-.9,8.4-2.5,12.6-4.4,2.9-1.3,6-.2,7.3,2.4,1.3,2.6.1,5.7-2.5,6.9-5.2,2.5-10.5,4.3-15.6,5.4-34.1,7.1-63.8-15.9-70.7-49-2.1-9.9-2.1-20.5.5-31.8,17.2-71.2,97.5-128.1,173.9-144,19.1-4,38-5.4,55.8-3.8,15.2-25.9,27.6-45.2,33.6-52.2,2-2.2,5.5-2.6,7.4-.5,2.2,2,2.5,5.2.5,7.4-5.1,6.1-16.2,22.9-30.1,46.8,21.4,3.7,41,12.4,55.8,26.8,11.7,11.8,18.9,25.6,22,40.6,6.7,32.4-4.3,71.4-26,109l-5,8.5,3.7-1.1,44.4-12.1c2.7-.6,5.5,1,6.2,4,.9,2.7-1,5.5-3.7,6.1l-44.1,12-15.1,4.2-3,4.5c-20,28.7-44.9,56-71.2,78.2-35.4,30.1-74.9,51.9-107.7,63.7-8.6,3.2-17.3,5.7-25.5,7.4-21.1,4.4-38.8,3.1-46.6-7-2-2.8-3.7-6-4.4-9.1ZM87.9,539.1c.2-4.3,3.3-13.1,7.7-22.9l3.4-7.8c-23.4,14.1-38.2,26.8-45.8,38-8,10.9-7.9,18.4-4,23.3,2.4,3.1,8.7,5.7,19.6,5.2,4.6-.2,9.8-1,15.6-2.2,7.5-1.6,15.9-4,24.9-7,31.8-11.3,70.1-32.4,104.6-61.6,23.6-19.9,45.4-43.3,63.5-67.7l1.7-2.1-9.1,2.6c-68.1,21.3-119.1,43-155.3,62.3l-9.4,21.5c-5.7,13.6-6.6,17.7-6.7,18.8l-.3,1.8c-.3,1.8-2.2,3.3-4.2,3.7-3.1.3-5.8-2-6-4.8,0-.3.2-.8.1-1.1ZM288.3,420.1h.3c27.3-41.7,42.4-85.4,35.2-119.8-2.8-13.3-8.7-24.9-18.7-34.9-14.3-13.8-33-21.6-54.2-24.6-19.6,34-44.4,79-68.3,124.5-22,41.2-43.3,82.7-58.7,114.7-.8,1.2-1.3,2.4-1.7,3.6,39.5-20.3,93.8-41.6,164.1-62.7l2-.8Z"/>
  </g>
</svg>