<?xml version="1.0" encoding="UTF-8"?>
<svg id="_レイヤー_2" data-name="レイヤー 2" xmlns="http://www.w3.org/2000/svg" width="620" height="200" viewBox="0 0 620 200">
  <path d="M270.2,73.8c7.2-9.3,17.7-21.4,28.5-33.1-.9.2-1.5.2-2.2.2-20.2,1.8-41.6,4.4-61.8,7.8-4.4.5-5.1-5-.9-5.9,20.4-3.6,41.8-6.1,62-8l9-.7c12.5-13.5,24.7-25.6,32-31.8,3.1-3.5,8.6.4,4.6,4.6-7,5.8-16.9,15.5-27.2,26.5,20.9-1.6,40.5-2.4,56.5-2.5,20.2-.3,35.4.5,40.7,1.6,1.8.9,2.7,2.6,2.2,4.4-.4,1.8-2.4,2.4-4,2.2-3.5-1.1-14.8-2.1-31-2.1h-7.9c-17.4.1-39.2,1.1-62.7,3-12,13-24.1,26.9-32.6,37.8-23.4,29.6-70.4,89.6-79.4,109-3.1,5.1-7.9,1.1-5.7-3.3,14-26.5,65.6-91.6,79.8-109.7Z"/>
  <path d="M276.7,113.4c-.5-3.3.6-7.3,2.4-11,3.9-7.7,11.6-16.3,21.7-21,1.3-.4,2.6-.2,3.7.4l.2.2c.6-2.4,2.2-3.3,4.6-3.3.7,0,1.3.2,2.2.4,4.2,1.5,6.2,3.9,6.4,7v.2c5.7,2.6,12.1,3.5,18.5,3.4,5.9,0,12.1-.9,17.4-2.1,1.8-.4,3.7.4,4.4,2,.4,1.8-.4,3.5-2,4-7,1.6-13.2,2.3-18.9,2.3-7.3,0-13.6-1-19.6-2.8l-.2.4c-1.1,3.5-2.8,7.3-5.2,10.4-5.2,6.8-17.1,18.1-28.1,16.8-4.8-.6-7.3-3.7-7.5-7.4ZM311.6,90.6c-3.3-2.2-5.1-3.7-6-5.3l-.4.7c-.4.4-.7.4-1.1.7-3.7,1.6-9.2,5.3-14.3,10.8-5.3,6-9.8,16.1-5.2,17.4,6.4,1.7,16.7-7.3,22.2-14.4,2.4-3.5,4.4-7.3,4.8-9.9Z"/>
  <path d="M304.2,161.2l7-10.4,1.7-3.1c22.1-36.6,51.2-73.9,61.4-86.3,1.1-1.5,3.1-1.6,4.6-.5s1.6,3.1.5,4.6c-4.4,5.5-10.3,12.8-21.2,27.8,5.5-5.7,11.8-10.4,18.4-12.2,4-1.1,8.4.2,10.1,5,2.5,6.8-3.7,15.4-10.2,21.4l-1.3,1.1,4-1.1c10.8-2.9,27-10.2,39.3-17.1,1.8-.9,3.7-.2,4.6,1.3.9,1.8.2,3.7-1.3,4.6-14.5,8-33.4,16-45.5,18.7-5.9,1.3-11.4,2.3-16.5,2.1h-1.1s-.9.2-.9.2c-3.5.2-6.6-.4-9-2.8l-1.1-1.1c-9,10.2-20.1,24.5-29.7,38.9l-1.3,2-3.9,6.6c-7.6,13.2-15.1,25.8-20.5,36.8-2,3.7-7.7,1.4-6.2-2.6,3.5-9.3,10.5-21.6,18.1-34ZM380.4,88.5c-.4-1.3-1.8-.9-2.4-.9-2.2.7-5.5,2.2-9,4.9-6.4,4.4-12.9,10.8-16.7,15.3l-.7.7.9.4c.9.9,2.4,1.3,4.8,1.7h.7s1.1-.2,1.1-.2c2.9-.7,6.4-2.4,10.3-5.5,8.1-6.2,12-13.5,10.9-16.3Z"/>
</svg>