<?xml version="1.0" encoding="UTF-8"?>
<svg id="_レイヤー_2" data-name="レイヤー 2" xmlns="http://www.w3.org/2000/svg" width="620" height="200" viewBox="0 0 620 200">
  <path d="M159.6,97c-.5-5.5,2.4-9.7,6-11.6,5.4-2.4,6.8,2.4,5.7,5.5-.5,1.6-1.1,3.4-2.2,5.3h.3c2.4,2.1,9,5.8,18.5,5.8s9.2-.8,14.7-2.9c1.9-.5,4.1.5,5.2,2.4.8,2.1-.3,4.5-2.4,5.3-5.4,2.1-11.4,3.2-17.1,3.2-8.7,0-17.1-2.4-22.8-6.3-1.9,3.2-4.4,6.8-6.8,10-6.3,8.2-15,16.8-24.2,17.4-7.1.5-14.1-4.7-15-12.6-9,10.3-23.4,21.3-32.9,14-3.5-2.9-3.8-7.1-3.3-10.3.8-3.7,2.4-7.6,4.6-11.6,4.6-7.6,16.6-20.5,24.5-26.3,1.9-1.6,4.4-1.1,5.7.5,1.4,1.8,1.1,4.2-.8,5.5-8.7,6.6-24.5,22.4-25.8,33.2-.8,3.7,2.7,4.2,5.4,3.4,8.2-2.4,23.9-20,26.6-23.7,1.6-2.4,1.9-2.9,2.4-3.4,3-3.9,9.2,0,6.8,4.2-.3.5-.5,1.1-1.6,2.4-1.9,5-5.2,12.4-1.6,15.8,6.3,6.1,20.4-10.3,22.6-13.2,3-3.9,5.7-7.9,7.6-11.6v-.3Z"/>
  <path d="M190.1,125.7c-.5-3.9.8-8.7,3-13.2,4.9-9.2,14.4-19.5,26.9-25,1.6-.5,3.3-.3,4.6.5l.3.3c.8-2.9,2.7-3.9,5.7-3.9s1.6.3,2.7.5c5.2,1.8,7.6,4.7,7.9,8.4v.3c7.1,3.2,15,4.2,22.8,4.2s15-1.1,21.5-2.4c2.2-.5,4.6.5,5.4,2.4.5,2.1-.5,4.2-2.4,4.7-8.7,1.8-16.3,2.6-23.4,2.6s-16.9-1.3-24.2-3.4l-.3.5c-1.4,4.2-3.5,8.7-6.5,12.4-6.5,8.2-21.2,21.6-34.8,20-6-.8-9-4.5-9.2-8.9ZM233.3,98.6c-4.1-2.6-6.3-4.5-7.3-6.3l-.5.8c-.5.5-.8.5-1.4.8-4.6,1.8-11.4,6.3-17.7,12.9-6.5,7.1-12.2,19.2-6.5,20.8,7.9,2.1,20.7-8.7,27.5-17.1,3-4.2,5.4-8.7,6-11.8Z"/>
  <path d="M291.5,87.3c1.4-1.8,4.1-1.8,5.7-.5,1.6,1.3,1.9,3.9.5,5.5l-9,10.3c12.2-6.1,42.4-18.7,55.5-16.3,5.2,1.1,5.4,6.1,3,8.9-3.8,4.7-12.8,4.7-8.7-1.1l.8-.8h-1.1c-20.9,2.1-48.4,16.6-63.9,27.1-2.7,1.8-5.7,5.5-13.3,13.2-3,3.4-8.7,0-6.8-3.9.8-2.4,5.7-9.2,37.3-42.4Z"/>
  <path d="M394.8,131.5c-12-1.1-20.7-7.6-21.2-19.5-9.2,5.3-25.6,19.7-37.3,36.3-2.7,3.9-9,.5-7.1-3.9,35.4-53.7,76.9-104.7,115.5-142.8,1.6-1.6,4.1-1.6,5.7-.3,1.6,1.6,1.6,4.2.3,5.8-33.2,32.6-47.3,50.7-85.3,100.2,15.2-10.5,48.9-26.8,62.5-24,5.2,1.1,5.4,5.8,3.3,9.2-9.5,14.2-39.7,20-47.9,19.7v.3c.3,5.3,5.2,10,12.2,10.8,19,2.4,53-13.4,72.6-23.7,5.4-2.9,8.7,3.9,3.5,7.1-8.7,5.5-50.6,27.1-77,24.7ZM386.7,104.4c7.3-.5,29.6-6.6,34.8-13.7-4.4.3-21.5,6.8-34.8,13.7Z"/>
  <path d="M452.5,123.1c1.1-1.8,3.5-2.6,5.4-1.8,5.2,2.6,16.6,4.2,28,4.2s8.2-.3,11.4-.8l2.4-.5-1.9-.5c-4.6-1.8-9.8-3.7-14.4-5.8-4.6-2.4-9.2-5-12.5-8.2-3.3-3.2-5.2-7.9-2.7-12.6,3.8-7.1,15-10.3,25-11.8,6.8-1.1,14.4-1.3,21.5-1.3s8.2,0,11.7.3c4.4.3,5.2,5.8,1.4,7.4l-4.6,2.9c-1.6,1.1-2.4,2.1-3,2.6l-.3.5v.3c-.3,1.8-1.9,3.2-3.8,3.4-2.2,0-4.1-1.6-4.4-3.7,0-1.3.3-2.1.5-2.9l1.1-2.1.8-.8h-3.5c-5.4.3-11.1.5-16.3,1.3-4.9.8-9.5,1.8-12.8,3.2-3.5,1.6-5.4,2.9-6,4.2-.5,1.1-.5,2.1,1.4,3.9,1.9,2.1,5.4,4.2,10.1,6.3,9,4.2,19.9,7.4,25.3,9.5,2.2,1.1,3,3.9,1.6,6.1-2.4,3.2-7.3,4.7-11.7,5.5-4.6,1.1-10.6,1.6-16.3,1.6-11.4,0-24.7-1.6-31.5-5-2.2-1.1-3-3.4-1.9-5.3Z"/>
</svg>