<?xml version="1.0" encoding="UTF-8"?>
<svg id="_レイヤー_2" data-name="レイヤー 2" xmlns="http://www.w3.org/2000/svg" width="901.6" height="205" viewBox="0 0 901.6 205">
  <g>
    <path d="M12.1,185.2c-1.3,0-2.4-.7-3.1-1.7-.4-.7-.5-1.6-.3-2.4.2-.9.8-1.6,1.7-2.1,27.4-14.1,116.7-103.9,131.9-129.6l.5-1,.7-1.5c.7-1.9,1.5-3.3,2.4-4.6.7-.9,1.6-1.4,2.7-1.4s2.2.6,2.9,1.5c.6.9.7,2,.3,3-.4,1.2-1.1,2.5-1.7,3.9-.2.4-.6,1.3-.6,1.3l-.3.5-.3.9c-10,29.3-17.4,68.5-21.8,116.5,30.3-43.9,52.8-73.7,73-96.1,23.1-25.7,42.6-41.4,61.3-49.2.4-.2.9-.3,1.5-.3,1.3,0,2.6.8,3.1,1.9.4.9.3,1.9,0,2.8-.4.8-1,1.4-1.8,1.7-41.7,17.5-90.9,83.7-137.9,152.6-.7.9-1.7,1.4-2.8,1.4s-1.8-.3-2.4-.9c-.7-.6-1.1-1.5-1.1-2.5.2-12.3,6.6-75,16.9-110.9l-1.5,1.9c-23.7,29.9-96.4,100.8-121.4,113.9-.5.3-1.1.4-1.7.4Z"/>
    <path d="M262.8,23.7c1,0,2,.6,2.4,1.5.5,1.4,0,2.9-1.4,3.4-39,16.4-83.4,72.5-138.3,152.9-.6.8-1.4,1.1-2.2,1.1-1.4,0-2.8-1-2.8-2.6.2-13.4,7.3-80.1,18-114.4l-3.9,4.8c-23.5,29.6-96.1,100.6-121.2,113.7-.4.2-.9.3-1.3.3-1,0-1.9-.5-2.4-1.3-.7-1.2-.2-2.8,1.1-3.4,27.4-14.1,116.5-103.3,132.2-129.9l.5-1,.7-1.6c.7-1.9,1.4-3.3,2.3-4.5.6-.8,1.4-1.1,2.1-1.1,1.6,0,3.2,1.5,2.5,3.5-.5,1.5-1.4,3.3-2.3,5.2l-.4.5-.4,1c-12.5,36.3-18.7,81.5-22.1,119.5C182.3,89.6,223.4,40,261.6,24c.4-.2.8-.3,1.2-.3M262.8,22.2c-.6,0-1.2.1-1.8.4-18.9,7.9-38.4,23.6-61.6,49.4-19.8,22.1-41.9,51.1-71.4,93.8,4.4-46.7,11.6-84.8,21.5-113.5l.3-.8.2-.3h0c0-.1,0-.2,0-.2.2-.4.4-.9.6-1.3.7-1.4,1.3-2.8,1.8-4,.5-1.3.3-2.6-.4-3.7-.8-1.1-2.1-1.8-3.5-1.8-1.3,0-2.5.6-3.3,1.7-1,1.3-1.7,2.8-2.5,4.8l-.7,1.5-.5,1c-15.2,25.7-104.3,115.2-131.6,129.2-1,.6-1.8,1.5-2.1,2.6-.3,1-.1,2.1.4,3,.8,1.3,2.2,2.1,3.7,2.1s1.3-.2,2-.5c24.8-12.9,96.4-82.6,120.9-113.1-9.8,36.4-15.8,95.7-16,107.6,0,2.3,1.9,4.2,4.3,4.2s2.6-.6,3.4-1.7h0s0,0,0,0c31.2-45.8,54.3-76.7,75-100.3,23.9-27.4,44.4-44.4,62.6-52,1-.4,1.8-1.1,2.2-2.1.5-1,.5-2.2,0-3.3h0s0,0,0,0c-.6-1.4-2.1-2.4-3.7-2.4h0Z"/>
  </g>
  <g>
    <path d="M209.2,138.7c-.5,0-1,0-1.6,0-4-.5-6.5-3-6.7-6.6-.4-3.1.9-6.6,2-9,3.8-7.2,10.5-13.4,18-16.7.5-.2,1-.2,1.4-.2s1.1.1,1.7.3c.7-1.5,2.1-2.2,4.1-2.2s1,.1,1.5.3h.4c3.5,1.3,5.4,3.3,5.7,6,4,1.7,8.6,2.5,14.2,2.5s8.9-.5,13.9-1.5c.3,0,.6-.1.9-.1,1.5,0,2.9.8,3.5,2.1h0c0,0,0,.1,0,.1.5,1.8-.5,3.6-2.1,4-5.6,1.2-10.6,1.8-15.5,1.8s-10.3-.7-15.4-2.1c-.7,2.2-2.1,5.3-4.3,8-4,5-13.1,13.5-21.9,13.5ZM225.1,111.3c-.3.2-.5.3-.7.4,0,0-.1,0-.2,0-2.7,1.1-7.1,3.8-11.3,8.3-3.5,3.8-6.1,9.3-5.5,11.5.1.5.4.8.9.9.4,0,.8.1,1.2.1,4.6,0,11.6-5.7,16-11.1,1.9-2.7,3.2-5.2,3.7-6.9-1.9-1.3-3.2-2.3-4-3.2Z"/>
    <path d="M228.2,104.9c.5,0,1.1.2,1.8.3,3.4,1.2,5,3.1,5.2,5.5v.2c4.6,2.1,9.8,2.8,14.9,2.8s9.8-.7,14.1-1.6c.2,0,.5,0,.8,0,1.2,0,2.4.6,2.8,1.6.4,1.4-.4,2.8-1.6,3.1-5.7,1.2-10.7,1.7-15.3,1.7s-11-.9-15.8-2.2l-.2.3c-.9,2.8-2.3,5.7-4.3,8.1-4,5-12.8,13.2-21.3,13.2s-1,0-1.5,0c-3.9-.5-5.9-2.9-6.1-5.9-.4-2.6.5-5.7,2-8.6,3.2-6,9.4-12.7,17.6-16.4.4-.1.8-.2,1.1-.2.7,0,1.3.2,1.9.5l.2.2c.5-1.9,1.8-2.6,3.7-2.6M209.5,133.3c5.2,0,12.5-6.3,16.6-11.4,2-2.8,3.6-5.7,3.9-7.7-2.7-1.7-4.1-2.9-4.8-4.1l-.4.5c-.4.3-.5.3-.9.5-3,1.2-7.5,4.1-11.6,8.4-4.3,4.7-8,12.6-4.3,13.6.4.1.9.2,1.4.2M228.2,103.4c-2.1,0-3.6.7-4.5,2.1-.4-.1-.9-.2-1.3-.2s-1.1,0-1.6.3h0s0,0,0,0c-7.6,3.4-14.5,9.7-18.3,17h0s0,0,0,0c-1.2,2.5-2.5,6.1-2.1,9.4.3,3.9,3.1,6.6,7.3,7.2.6,0,1.1,0,1.7,0,4.1,0,8.5-1.7,13.2-5,4.8-3.4,8.1-7.3,9.3-8.8,2.1-2.6,3.4-5.4,4.2-7.6,4.9,1.3,9.8,1.9,14.9,1.9s10-.6,15.6-1.8h0s0,0,0,0c2-.6,3.2-2.8,2.7-4.9h0c0-.1,0-.2,0-.2-.7-1.5-2.3-2.5-4.2-2.5s-.7,0-1.1.1c-4.9,1-9.7,1.5-13.7,1.5s-9.8-.7-13.5-2.3c-.4-2.1-1.8-4.5-6.1-6.1h0s0,0,0,0c-.1,0-.3,0-.4-.1-.6-.1-1.1-.3-1.7-.3h0ZM209.5,131.8c-.4,0-.7,0-1-.1-.2,0-.3-.1-.4-.4-.5-1.7,1.7-6.8,5.3-10.8,4.1-4.4,8.4-7,11-8.1h0s0,0,0,0c0,0,.1,0,.2,0,0,0,.2,0,.2-.1.8.8,1.8,1.6,3.3,2.6-.5,1.6-1.7,3.8-3.4,6.2-4.2,5.2-11,10.8-15.4,10.8h0Z"/>
  </g>
  <g>
    <path d="M210.5,191.8c-1,0-2-.6-2.6-1.5-.7-1.2-.7-2.7,0-4,10.8-19.6,48.7-65.8,62.9-83.1l2.1-2.6c5.3-6.5,13.2-15.3,21.8-24.4-18.2,1.5-35,3.5-49.7,5.8-.2,0-.4,0-.5,0-2.1,0-3.2-1.4-3.3-2.7-.1-1.3.7-3,2.9-3.4,14.8-2.5,31.2-4.4,50.3-6l7-.5c9.9-10.2,19.8-19.6,25.8-24.6.8-.8,1.7-1.3,2.8-1.3s2.6.8,3.1,2c.5,1.3.1,2.7-1.1,4-5.2,4.1-12.5,10.9-20.7,19.3,15.2-1,30.3-1.6,43.8-1.6,1.7,0,3.4,0,5,0,12.8,0,23.8.6,28.1,1.4h0s0,0,0,0c1.8.8,2.6,2.6,2.2,4.3-.4,1.6-2,2.3-3.5,2.3s-.4,0-.6,0h0s0,0,0,0c-2.7-.8-11.6-1.7-24.9-1.7h-6.4c-14.4,0-31.8.7-50.4,2-9.9,10.3-19.5,20.9-26.3,29.2-37.6,45.6-59.3,74.2-64.5,84.9-1.2,2-2.6,2.3-3.4,2.3Z"/>
    <path d="M329.9,44.1c2.1,0,3.8,2.3,1.5,4.7-5.7,4.5-13.7,12.1-22.1,20.7,16.9-1.2,32.7-1.7,45.7-1.7,1.7,0,3.4,0,5,0,13.9,0,24.1.6,27.9,1.4,1.4.7,2.1,2.1,1.8,3.4-.3,1.2-1.6,1.8-2.7,1.8s-.3,0-.5,0c-2.8-.9-11.9-1.7-25.1-1.7h-6.4c-14.1,0-31.7.7-50.7,2.1-9.8,10.2-19.6,21-26.5,29.4-19,23.1-57.3,69.9-64.6,85.1-.8,1.3-1.8,1.9-2.7,1.9-1.8,0-3.1-2.1-1.9-4.4,11.4-20.7,53.4-71.5,64.9-85.6,5.9-7.2,14.4-16.7,23.1-25.8-.7.2-1.2.2-1.8.2-16.4,1.4-33.6,3.3-50,5.9-.1,0-.3,0-.4,0-3.2,0-3.6-4-.3-4.7,16.5-2.8,33.8-4.6,50.2-6l7.3-.5c10.1-10.5,20.1-20,26-24.8.7-.7,1.5-1.1,2.3-1.1M329.9,42.6c-1.2,0-2.4.5-3.3,1.5-6,5-15.8,14.3-25.6,24.4l-6.7.5c-19.1,1.6-35.5,3.6-50.3,6h0s0,0,0,0c-2.6.5-3.6,2.6-3.4,4.3.2,2,1.9,3.4,4.1,3.4s.4,0,.5,0h0s0,0,0,0c14.2-2.2,30.3-4.1,47.7-5.7-8.1,8.6-15.4,16.9-20.5,23l-2.1,2.6c-14.3,17.4-52.1,63.6-63,83.2-.8,1.6-.8,3.4,0,4.8.7,1.2,1.9,1.9,3.2,1.9s2.6-.3,4-2.6h0c0,0,0-.1,0-.1,5.2-10.7,26.8-39.2,64.4-84.8,6.8-8.2,16.2-18.7,26-28.9,18.4-1.3,35.7-2,50-2h6.4c13.2,0,22,.9,24.7,1.7h.1s.1,0,.1,0c.2,0,.5,0,.7,0,1.7,0,3.7-.9,4.2-2.9.5-2.1-.5-4.2-2.6-5.2h-.2c0,0-.2-.1-.2-.1-4.3-.9-15.4-1.4-28.2-1.4s-3.3,0-5,0c-13,0-27.4.5-41.9,1.5,7.6-7.7,14.3-13.9,19.2-17.7h0c0,0,0-.1,0-.1,1.5-1.5,1.9-3.2,1.3-4.8-.6-1.5-2.1-2.4-3.8-2.4h0Z"/>
  </g>
  <g>
    <path d="M465.2,186.1c-.9-.1-1.8-.6-2.5-1.4-.6-.7-.8-1.5-.7-2.3v-.3s.2-.1.2-.1v-.2c.3-1.5,1.9-3.8,4-6.7.8-1.2,1.7-2.4,2.6-3.7,3.5-5.5,8.1-11.9,13.2-18.6.3-.4.6-.9.9-1.4.5-.8,1-1.5,1.6-2.3.1-.7.3-1.4.5-2.1.2-1,.5-2,.6-2.8,1.8-13.7-4.8-25.9-16.1-29.6h-.1c-.3,0-.5.1-.8.1-1,0-1.8-.5-2.4-1.4-.1-.1-.3-.4-.3-.8s0,0,0-.2c0-.2-.1-.4-.1-.7,0-.7.1-1.4.6-2.1.6-.8,1.5-1.3,2.5-1.4,20.1-1.7,34.8-2.6,49-3.1l7.4-9.5c17-21.6,31.2-39.1,42.2-52l5.8-6.6c-5.5-.3-10.9-.4-16.2-.6,0,0-.5,0-.5,0-3.1,0-6.2,0-9.4,0-3.2,0-6.3,0-9.4,0-31.3,0-56.6,2.7-78.4,15.7-11,6.5-17.8,17.8-17.8,29.3s2.2,13.3,6.6,19.7c1.6,2.3,1.4,3.8,1,4.6-.5.9-1.5,1.4-2.8,1.4s-3.1-.7-3.8-2.1c-5.3-7.3-8.1-15.5-8.1-23.6,0-13.4,7.5-26.2,20.1-34.2,24-15.4,54.2-17.5,83.3-17.5s5.8,0,8.6,0c2.8,0,5.5,0,8.1,0h.9c7.6.2,15.4.4,23.4.8,7.8-8.9,13-14,16.1-15.9h0s0,0,0,0c.6-.2,1.1-.3,1.7-.3,1.2,0,2.2.6,2.9,1.6.5.6.7,1.5.6,2.4-.2.9-.7,1.7-1.5,2.2-2.2,1.5-6.4,5.4-11.2,10.6,8.1.5,16.3,1.2,24.2,1.8,20.6,1.6,40.1,3.1,57.1,3.1s12.7,0,18.9-.9c.2,0,.3,0,.5,0,1.9,0,3.3,1.2,3.5,2.9,0,1.9-1.6,3.6-3.2,3.6-6.5.8-13.9.9-19.6.9-16.2,0-34.6-1.3-54.1-2.8-10.9-.8-22.2-1.6-33.2-2.2-3,3.2-6.1,6.8-9,10.2-13,15.3-28,33.7-42.1,52-1.1,1.3-2.2,2.7-3.3,4.1-.3.4-.6.8-.9,1.2,9.7-.2,19.8-.3,31.2-.3h13.5c.9,0,1.8.4,2.5,1.1.6.7.9,1.5.8,2.4,0,.7-.2,1.4-.7,2-.6.7-1.7,1.2-2.8,1.2-3.7,0-7.2,0-10.5,0-3.1,0-6.2,0-9.2,0-10.6,0-20.1.2-30,.5-13.1,17.1-23.4,31-30.8,41.1-4.2,12.3-12.7,24.8-21.8,31.9h0c-.4,1.1-1.6,1.7-3.2,1.7h0ZM481.2,113.6c7.2,5.9,11.5,14.7,11.8,24l19.6-25.9c-9.6.3-19.7.9-31.3,1.9Z"/>
    <path d="M596.8,14.8c.9,0,1.7.4,2.3,1.3.9,1,.5,2.8-.7,3.4-2.3,1.6-6.8,5.7-12.5,11.9,28.8,1.9,58.7,5,82.9,5s13.3-.2,19-.9c.1,0,.3,0,.4,0,1.4,0,2.6.8,2.8,2.3,0,1.4-1.2,2.8-2.5,2.8-5.9.7-12.5.9-19.6.9-25.6,0-57.6-3.4-87.5-5-2.8,3.1-6,6.7-9.3,10.5-12.5,14.6-27.6,33.2-42.2,52-1.8,2.1-3.4,4.3-5.2,6.5,10.3-.2,20.8-.3,32.7-.3h13.5c1.4,0,2.7,1.2,2.5,2.8.2,1.4-1.2,2.4-2.7,2.4-7.1,0-13.5-.2-19.7-.2-10.9,0-20.6.2-30.4.5-11,14.5-22.6,29.8-31.1,41.5-4.1,12.2-12.6,24.8-21.9,31.9v.2c-.4.9-1.4,1.2-2.5,1.2-1.4-.2-2.7-1.6-2.5-2.9.2-.2.2-.3.2-.5.4-1.9,3.6-5.9,6.4-10.2,3.2-5,7.7-11.4,13.2-18.6.9-1.2,1.6-2.6,2.7-3.8.4-1.9.9-3.6,1.1-5.2,2-15-5.7-26.9-16.7-30.5h-.4c-.2,0-.4.1-.7.1-.8,0-1.4-.5-1.8-1.1,0,0-.2-.2-.2-.3,0-.3-.2-.5-.2-.9-.2-1.4,1.1-2.6,2.5-2.8,18.5-1.6,33.8-2.6,49.3-3.1l7.7-9.8c14.8-18.8,29.7-37.4,42.2-52l6.8-7.7c-6.2-.3-12.3-.5-18.1-.7-6.2,0-12.6-.2-18.9-.2-27.8,0-55.5,1.9-78.8,15.8-10.7,6.4-18.1,17.6-18.1,30s2.1,13.4,6.8,20.1c2.3,3.4.7,4.8-1.2,4.8s-2.7-.6-3.1-1.7c-5.5-7.6-8-15.7-8-23.2,0-13.4,7.7-25.8,19.8-33.6,24.2-15.5,54.8-17.4,82.9-17.4s11.4.2,16.7.2c7.8.2,16.2.3,24.6.9,7.1-8.1,12.8-13.9,16.2-16,.5-.2.9-.3,1.4-.3M514.1,111c-11,.3-22.2,1-34.9,2.1,9.4,6.9,13.3,17.4,13,26.9l21.9-28.9M596.8,13.3c-.6,0-1.3.1-1.9.4h-.1c0,0-.1.1-.1.1-3.2,1.9-8.3,7-16.1,15.8-7.8-.5-15.6-.6-23.1-.8h-.8c-2.6,0-5.3,0-8.1-.1-2.8,0-5.8,0-8.7,0-29.2,0-59.5,2.1-83.7,17.6-12.8,8.2-20.4,21.2-20.4,34.8s2.8,16.6,8.2,24c.8,1.7,2.8,2.5,4.4,2.5s2.9-.7,3.5-1.8c.5-1,.8-2.7-1.1-5.3-4.3-6.3-6.5-12.8-6.5-19.3,0-11.3,6.7-22.3,17.4-28.7,21.7-13,46.9-15.6,78.1-15.6s6.3,0,9.4,0c3.1,0,6.3,0,9.5,0h.5c4.7.2,9.6.3,14.5.5l-4.7,5.4c-11,13-25.2,30.5-42.2,52.1l-7.2,9.3c-14.1.5-28.7,1.4-48.7,3.1h0s0,0,0,0c-1.2.1-2.3.8-3,1.7-.6.8-.9,1.7-.8,2.7,0,.4.1.6.2.8h0c0,.6.3,1,.5,1.2.7,1.1,1.8,1.7,3,1.7s.5,0,.8,0c10.8,3.7,17.2,15.5,15.4,28.8,0,.9-.3,1.8-.6,2.8-.1.6-.3,1.2-.4,1.9-.6.7-1.1,1.5-1.6,2.2-.3.5-.6.9-.9,1.4-5.1,6.7-9.7,13.2-13.2,18.7-.8,1.3-1.7,2.5-2.5,3.7-2.4,3.4-3.8,5.4-4.1,7h-.1c0,.1,0,.6,0,.6-.1,1,.2,2,.8,2.9.7.9,1.8,1.6,3,1.7h0s0,0,0,0c1.8,0,3.2-.8,3.8-2,9.2-7.2,17.7-19.7,21.9-32,7.4-10.1,17.6-23.8,30.6-40.7,9.7-.3,19.2-.5,29.7-.5s6,0,9.2,0c3.4,0,6.9,0,10.6,0s2.5-.5,3.3-1.5c.6-.7.9-1.6.9-2.5,0-1.1-.3-2.1-1-2.9-.8-.9-1.9-1.3-3-1.3h-13.5c-10.9,0-20.4.1-29.6.3,1.1-1.4,2.1-2.7,3.2-4h0s0,0,0,0c14.2-18.2,29.1-36.7,42.1-52,2.8-3.3,5.8-6.8,8.7-9.9,10.8.6,22,1.4,32.8,2.2,19.5,1.4,37.9,2.8,54.1,2.8s13.1,0,19.7-.9c2,0,3.9-2.1,3.9-4.3h0c0,0,0-.2,0-.2-.2-2.1-2-3.6-4.3-3.6s-.4,0-.6,0c-6.3.8-13.4.9-18.9.9-17,0-36.4-1.5-57-3.1-7.4-.6-15.1-1.2-22.7-1.7,4.3-4.5,7.9-7.9,10-9.3,1-.6,1.7-1.5,1.9-2.7.2-1.1,0-2.1-.7-2.9-.8-1.2-2.1-1.9-3.5-1.9h0ZM483,114.2c10.3-.8,19.3-1.3,28-1.7l-17.4,23c-.8-8.2-4.5-15.8-10.5-21.4h0Z"/>
  </g>
  <g>
    <path d="M586.4,138.7c-.5,0-1,0-1.6,0-4-.5-6.5-3-6.7-6.6-.4-3.1.9-6.6,2-9,3.8-7.2,10.5-13.4,18-16.7.5-.2,1-.2,1.4-.2s1.2.1,1.7.3c.7-1.5,2.1-2.2,4.1-2.2s1,.1,1.5.3h.4c3.5,1.3,5.4,3.3,5.7,6,4,1.7,8.6,2.5,14.2,2.5s8.9-.5,13.9-1.5c.3,0,.6-.1.9-.1,1.5,0,2.9.8,3.5,2.1h0c0,0,0,.1,0,.1.5,1.8-.5,3.6-2.1,4-5.6,1.2-10.6,1.8-15.5,1.8s-10.3-.7-15.4-2.1c-.7,2.2-2.1,5.3-4.3,8-4,5-13.1,13.5-21.9,13.5ZM602.3,111.3c-.3.2-.5.3-.7.4,0,0-.1,0-.2,0-2.7,1.1-7.1,3.8-11.3,8.3-3.5,3.8-6.1,9.3-5.5,11.5.1.5.4.8.9.9.4,0,.8.1,1.2.1,4.6,0,11.6-5.7,16-11.1,1.9-2.7,3.2-5.2,3.7-6.9-1.9-1.3-3.2-2.3-4-3.2Z"/>
    <path d="M605.4,104.9c.5,0,1.1.2,1.8.3,3.4,1.2,5,3.1,5.2,5.5v.2c4.6,2.1,9.8,2.8,14.9,2.8s9.8-.7,14.1-1.6c.2,0,.5,0,.8,0,1.2,0,2.4.6,2.8,1.6.4,1.4-.4,2.8-1.6,3.1-5.7,1.2-10.7,1.7-15.3,1.7s-11-.9-15.8-2.2l-.2.3c-.9,2.8-2.3,5.7-4.3,8.1-4,5-12.8,13.2-21.3,13.2s-1,0-1.5,0c-3.9-.5-5.9-2.9-6.1-5.9-.4-2.6.5-5.7,2-8.6,3.2-6,9.4-12.7,17.6-16.4.4-.1.8-.2,1.1-.2.7,0,1.3.2,1.9.5l.2.2c.5-1.9,1.8-2.6,3.7-2.6M586.7,133.3c5.2,0,12.5-6.3,16.6-11.4,2-2.8,3.6-5.7,3.9-7.7-2.7-1.7-4.1-2.9-4.8-4.1l-.4.5c-.4.3-.5.3-.9.5-3,1.2-7.5,4.1-11.6,8.4-4.3,4.7-8,12.6-4.3,13.6.4.1.9.2,1.4.2M605.4,103.4c-2.1,0-3.6.7-4.5,2.1-.4-.1-.9-.2-1.3-.2s-1.1,0-1.6.3h0s0,0,0,0c-7.6,3.4-14.5,9.7-18.3,17h0s0,0,0,0c-1.2,2.5-2.5,6.1-2.1,9.4.3,3.9,3.1,6.6,7.3,7.2.6,0,1.1,0,1.7,0,4.1,0,8.5-1.7,13.2-5,4.8-3.4,8.1-7.3,9.3-8.8,2.1-2.6,3.4-5.4,4.2-7.6,4.9,1.3,9.8,1.9,14.9,1.9s10-.6,15.6-1.8h0s0,0,0,0c2-.6,3.2-2.8,2.7-4.9h0c0-.1,0-.2,0-.2-.7-1.5-2.3-2.5-4.2-2.5s-.7,0-1.1.1c-4.9,1-9.7,1.5-13.7,1.5s-9.8-.7-13.5-2.3c-.4-2.1-1.8-4.5-6.1-6.1h0s0,0,0,0c-.1,0-.3,0-.4-.1-.6-.1-1.1-.3-1.7-.3h0ZM586.7,131.8c-.4,0-.7,0-1-.1-.2,0-.3-.1-.4-.4-.5-1.7,1.7-6.8,5.3-10.8,4.1-4.4,8.4-7,11-8.1h0s0,0,0,0c0,0,.1,0,.2,0,0,0,.2,0,.2-.1.8.8,1.8,1.6,3.3,2.6-.5,1.6-1.7,3.8-3.4,6.2-4.2,5.2-11,10.8-15.4,10.8h0Z"/>
  </g>
  <g>
    <path d="M638.8,135.8c-2.7,0-4.9-.8-6.2-2.3-2.2-2.1-2.7-5.3-1.4-9,.9-2.5,2.5-5.2,4.9-8.2,1.8-2.3,4.3-4.8,6.9-6.8,2.7-2.2,4.9-3.5,6.9-3.9.3,0,.5,0,.8,0,1.6,0,2.9,1.1,3.3,2.7.2.9,0,1.8-.4,2.5-.5.7-1.3,1.2-2.2,1.3-.4,0-1.8.8-4.1,2.6-2.1,1.7-4.3,3.9-5.9,5.9-1.9,2.4-3.1,4.5-3.6,6.1-.5,1.4-.4,1.9-.3,2.2.1,0,.5.2,1.2.2s1.6-.1,2.7-.4c2.6-.5,6.1-2,9.8-4.2,7.2-4,15.2-10.1,19.9-15.2.7-.7,1.6-1.1,2.5-1.1,1.4,0,2.6.8,3.2,2,.5,1.1.3,2.3-.5,3.3-.2.3-.5.7-.9,1.2-1.1,1.4-2.8,3.5-4.2,5.8-2.2,3.5-2.7,5.8-2.4,6.8.2.5,1.4.7,2.2.8h.2c11.1-.5,21.7-6.6,31.1-12,1-.6,1.9-1.1,2.9-1.6.5-.3,1.1-.5,1.7-.5,1.2,0,2.2.6,2.9,1.7.5.7.7,1.6.5,2.5-.2.9-.8,1.6-1.7,2-7.7,4.7-23.9,14.6-36.3,14.6h0c-.4,0-.9,0-1.3,0h0c-2,0-7-.5-8.7-5.3-.3-1.2-.4-2.4-.3-3.6l-1.3.9c-2.2,1.5-4.5,2.8-6.1,3.7-4.3,2.5-10.5,5.6-15.7,5.6Z"/>
    <path d="M650.6,106.2c1.2,0,2.3.8,2.6,2.1.4,1.4-.5,2.8-2,2.9-.7.2-2.3,1-4.4,2.8-2,1.6-4.3,3.8-6.1,6-1.8,2.2-3.2,4.5-3.7,6.4-.7,1.9-.4,2.6-.2,2.9.2.2.7.5,1.8.5s1.6-.1,2.9-.5c2.7-.5,6.2-2.1,10-4.3,7.5-4.1,15.5-10.3,20.1-15.3.6-.6,1.3-.9,1.9-.9,2,0,3.7,2.2,2.1,4.1-.9,1.2-3.2,4-5.2,7.1-2.1,3.4-2.8,6-2.5,7.4.4,1,2,1.2,3,1.4,12.5-.5,24.4-8.1,34.3-13.8.4-.3.9-.4,1.4-.4.9,0,1.7.5,2.2,1.3.9,1.2.5,2.8-.9,3.4-9.3,5.6-24.3,14.5-35.9,14.5s-.8,0-1.3,0c-3.2,0-6.8-1.2-8-4.8-.4-1.6-.4-3.1,0-4.6v-.3l-2.7,1.9c-2,1.4-4.1,2.6-6.1,3.6-4.6,2.8-10.5,5.5-15.3,5.5s-4.3-.5-5.7-2.1c-2.5-2.4-2.1-5.7-1.2-8.3.9-2.6,2.7-5.3,4.8-7.9,2-2.4,4.4-4.8,6.8-6.7,2.1-1.7,4.4-3.3,6.6-3.8.2,0,.4,0,.6,0M650.6,104.7c-.3,0-.7,0-1,.1-2.1.5-4.3,1.8-7.2,4.1-2.6,2.1-5.1,4.6-7,6.9-2.5,3-4.2,5.8-5.1,8.4-1.4,4-.8,7.4,1.6,9.8,1.5,1.6,3.9,2.5,6.8,2.5,5.3,0,11.7-3.1,16-5.7,1.6-.8,4-2.1,6.2-3.7h0c0,.7.1,1.5.3,2.2h0c0,0,0,.2,0,.2,1.3,3.6,4.8,5.8,9.4,5.8.4,0,.9,0,1.3,0,12.5,0,28.8-9.9,36.7-14.7,1-.5,1.8-1.4,2-2.5.3-1,0-2.2-.6-3.1-.7-1.2-2.1-2-3.5-2s-1.5.2-2.1.7c-.9.5-1.9,1.1-2.8,1.6-9.3,5.4-19.8,11.4-30.6,11.9h0c-.4,0-1.3-.2-1.6-.4,0-.8.3-2.8,2.3-6.1,1.4-2.2,3.1-4.3,4.1-5.7.4-.5.7-.9.9-1.2,1-1.2,1.2-2.8.6-4.1-.7-1.5-2.3-2.5-3.9-2.5s-2.2.5-3,1.3c-4.7,5.1-12.6,11.1-19.8,15.1h0s0,0,0,0c-3.6,2.2-7,3.6-9.5,4.1h0s0,0,0,0c-1,.3-1.8.4-2.4.4s-.4,0-.5,0c0-.3,0-.7.3-1.3h0c0,0,0-.1,0-.1.4-1.5,1.6-3.5,3.5-5.8,1.6-2,3.8-4.2,5.8-5.8,2.1-1.7,3.4-2.3,3.8-2.5,1-.2,2-.7,2.6-1.6.6-.9.8-2.1.5-3.2-.4-1.9-2.1-3.3-4-3.3h0Z"/>
  </g>
  <g>
    <path d="M694,136.1c-1.3,0-2.6-.7-3.2-1.7-.5-.9-.4-2,.2-3,.3-.4.5-.7.8-1.1.8-1.2,1.9-2.6,3.6-4.2l15.4-17c.5-.7,1.5-1.2,2.5-1.2s1.6.3,2.2.8c.7.5,1.1,1.4,1.2,2.3,0,.9-.2,1.8-.7,2.4l-2.6,2.8c8.4-3.6,21.6-8.1,30.2-8.1s1.6,0,2.3.1c1.6.2,2.9,1,3.5,2.3.7,1.5.4,3.3-.7,4.9-.6.8-1.5,1.9-2.6,3.2-2.4,2.8-6,6.9-6.1,9,.1.3.9.6,2.8.6,4.5,0,12.4-2,17.1-3.8,7.9-3.1,16.3-7.9,18.5-9.4.6-.3,1.2-.5,1.8-.5,1.1,0,2.2.5,2.9,1.3h0c0,0,0,.1,0,.1.9,1.5.5,3.7-.9,4.6-.4.3-10.4,6.7-20.1,10.1-5.3,2-13.1,4.2-19.3,4.2s-3.8-.2-5.2-.7c-3.8-1.5-4.6-4.2-4.6-6.2s1.2-5.5,3-7.7l.5-.7c1.2-1.5,2.5-3.3,4.1-5.1-13.8,1.9-31.8,9.9-40.7,16.6l-3.5,3.9c-.7.8-1.6,1.2-2.7,1.2Z"/>
    <path d="M713.4,108.6c.6,0,1.3.2,1.8.6,1.1.9,1.2,2.6.4,3.6l-5,5.5c8.2-4,23.8-9.6,33.2-9.6s1.5,0,2.2.1c3.2.3,4.1,3.4,2.3,6-2.1,2.9-8.9,9.5-8.9,12.7.2.9,1.6,1.3,3.6,1.3,4.6,0,12.5-1.9,17.4-3.8,7.8-3.1,16.4-7.9,18.7-9.5.4-.2.9-.4,1.4-.4.9,0,1.8.4,2.3,1,.7,1.2.4,2.9-.7,3.6-2.7,1.7-11.6,7.1-19.9,10-5.9,2.2-13.3,4.1-19,4.1s-3.6-.2-5-.7c-3-1.2-4.1-3.3-4.1-5.5s1.2-5.3,2.8-7.2c1.6-2.1,3.6-4.6,5.9-7.2-14.4,1.4-33.8,10-43.1,17l-3.6,4c-.6.7-1.4,1-2.1,1-1.8,0-3.6-1.6-2.3-3.5,1.1-1.4,2.1-3.1,4.3-5.2l15.5-17c.5-.7,1.2-1,2-1M713.4,107.1h0c-1.3,0-2.4.5-3.1,1.5l-15.4,17c-1.7,1.7-2.8,3.1-3.6,4.3-.3.4-.5.7-.7,1h0c0,0,0,.1,0,.1-.8,1.2-.9,2.6-.3,3.7.7,1.3,2.2,2.1,3.8,2.1s2.4-.5,3.3-1.5l3.5-3.8c8.4-6.4,25-13.9,38.4-16.1-1.1,1.3-2,2.5-2.8,3.6l-.5.7c-2,2.3-3.2,5.5-3.2,8.2s.9,5.2,5,6.9c1.5.6,3.2.8,5.5.8,5.3,0,12.6-1.6,19.6-4.2,9.7-3.4,19.8-9.9,20.2-10.1,1.7-1.1,2.3-3.8,1.2-5.6h0c0-.1,0-.2,0-.2-.8-1-2.1-1.6-3.5-1.6s-1.5.2-2.1.5h0s0,0,0,0c-2.2,1.5-10.6,6.2-18.4,9.3-4.6,1.8-12.4,3.7-16.9,3.7s-1.7-.1-2-.2c.5-2,3.8-5.8,5.9-8.2,1.1-1.3,2-2.3,2.6-3.2,1.3-1.8,1.5-3.9.8-5.6-.7-1.6-2.2-2.6-4.1-2.8-.7,0-1.5-.1-2.3-.1-7.7,0-19.1,3.6-27.4,6.9l.3-.3c.7-.8,1-1.9.9-3-.1-1.1-.6-2.1-1.5-2.8-.8-.6-1.7-.9-2.7-.9h0Z"/>
  </g>
  <g>
    <path d="M787.6,175c-.3,0-.6,0-.9-.1-1.9-.6-3.2-2-3.4-3.9-.6-2.9,1.2-7,3.3-10.9,2.4-4.3,5.9-9.8,9.8-15.4,5.3-7.6,12-16.9,20.6-28.1-9.8,8-18.6,13.8-25.5,17-3.9,1.9-7.8,3-11.1,3.2h0c-4.1,0-7.1-1.4-9-4.3-1.2-1.9-1.6-4-1-6.3,1.4-5.8,7.9-11.1,13.5-14.2,6.7-3.7,14.3-5.8,21.4-5.8s7.5.5,10.7,1.6l.7.3,1.6-1.5c8.4-7.1,17.3-15.7,26.7-25.5l3.4-3.8,1.9-2.4c12.1-14.6,28.7-32.3,29.2-32.8.9-1,1.9-1.2,2.6-1.2,1.3,0,2.6.8,3.2,2,.5,1.1.4,2.3-.4,3.3-4,5.4-12.1,14.3-19.3,22.2-3.1,3.4-6,6.6-8.2,9l-3.9,4.3-1.6,1.9c-6.4,7.8-13.3,16.4-20.1,25-11.2,14.4-22,28.4-29.7,39.9-3.7,5.1-7,10.4-9.4,14.7-1.9,3.5-2.5,5.3-2.7,6.1.8.7,1.2,2.1,1,3.3h0c0,0,0,.1,0,.1-.5,1.4-1.9,2.3-3.4,2.3ZM804.9,112.7c-5.9,0-12.1,1.7-17.7,4.9-6.2,3.5-9.6,7.5-10.1,10-.1.5,0,.9,0,1.2h0s0,0,0,0c.3.5.9,1.1,2.9,1.1,1.7-.1,4.6-.7,8.4-2.5,6.1-2.8,13.5-7.8,21.6-14.2l-2-.4c-1-.1-2.1-.2-3.1-.2Z"/>
    <path d="M881.9,41.6c1.9,0,3.7,2.2,2.2,4.1-5.7,7.8-20.3,23.1-27.4,31.2l-3.9,4.3-1.6,1.9c-6.2,7.6-13.2,16.2-20.1,25-10.9,13.9-21.9,28.2-29.7,40-4.1,5.7-7.3,10.8-9.4,14.8-2,3.6-2.7,5.7-2.8,6.5v.3h.2c.7.5,1.1,1.7.9,2.8-.4,1.1-1.5,1.8-2.7,1.8s-.5,0-.7,0c-1.8-.5-2.7-1.9-2.8-3.3-.5-2.8,1.2-6.7,3.2-10.5,2.3-4.1,5.7-9.5,9.8-15.3,6.1-8.8,13.7-19.1,21.7-29.6l3.6-4.5-3.7,3.3c-10,8.3-19.6,15-27.4,18.6-3.9,1.9-7.7,2.9-10.9,3.1-3.4,0-6.4-1-8.4-4-4.1-6.2,3.6-14.6,12.3-19.5,5.9-3.3,13.3-5.7,21-5.7s6.9.3,10.5,1.6l1.1.5,2-1.9c8.9-7.6,18-16.4,26.7-25.5l3.4-3.8,2-2.4c12.1-14.6,28.8-32.4,29.2-32.7.6-.7,1.3-1,2-1M780.1,130.8c2.1-.2,5.2-.9,8.7-2.6,6.2-2.9,14.1-8.1,22.6-15l.5-.3-3.7-.7c-1.1-.1-2.2-.2-3.3-.2-6.4,0-12.9,2.1-18.1,5-8.7,4.8-11.6,10.5-10.3,12.2.5,1,1.6,1.6,3.6,1.6M881.9,40.1c-1.2,0-2.3.5-3.1,1.4-1.1,1.1-17.4,18.5-29.2,32.8l-1.9,2.4-3.3,3.7c-9.3,9.8-18.3,18.3-26.6,25.4h0s0,0,0,0l-1.2,1.2h-.1c0,0,0-.1,0-.1h0c-3.3-1.2-6.7-1.7-11-1.7-7.2,0-14.9,2.1-21.7,5.9-5.7,3.2-12.4,8.7-13.9,14.7-.6,2.5-.3,4.8,1.1,6.9,2.1,3.1,5.3,4.6,9.6,4.6h0c3.5-.2,7.4-1.3,11.4-3.3,5.9-2.7,13-7.3,21-13.5-6.9,9.2-12.5,16.9-17.1,23.5-3.9,5.6-7.4,11.1-9.9,15.4h0s0,0,0,0c-2.1,4.1-3.9,8.2-3.4,11.4.3,2.2,1.8,3.8,3.9,4.5h0s0,0,0,0c.4,0,.7.1,1.1.1,1.8,0,3.4-1.1,4.1-2.8h0c0-.1,0-.3,0-.3.2-1.3-.1-2.7-.9-3.7.3-.9.9-2.6,2.5-5.5,2.3-4.3,5.7-9.5,9.3-14.6h0s0,0,0,0c7.7-11.5,18.4-25.4,29.7-39.9,6.8-8.6,13.7-17.2,20.1-24.9l1.6-1.9,3.9-4.3c2.2-2.5,5.1-5.7,8.2-9,7.2-7.9,15.3-16.8,19.3-22.3.9-1.2,1.1-2.7.4-4.1-.7-1.4-2.3-2.4-3.9-2.4h0ZM780,129.3c-1.8,0-2.1-.5-2.2-.7h0c0,0,0-.2,0-.2-.3-.7,1.5-5.4,9.8-10,5.5-3.1,11.6-4.8,17.4-4.8s2.1,0,3.1.2h.4c-7.6,6-14.5,10.5-20.2,13.2-3.8,1.8-6.7,2.3-8.1,2.4h0Z"/>
  </g>
</svg>